G04 EAGLE Gerber X2 export*
%TF.Part,Single*%
%TF.FileFunction,Copper,L2,Bot,Mixed*%
%TF.FilePolarity,Positive*%
%TF.GenerationSoftware,Autodesk,EAGLE,9.0.0*%
%TF.CreationDate,2019-10-07T20:04:45Z*%
G75*
%MOMM*%
%FSLAX34Y34*%
%LPD*%
%AMOC8*
5,1,8,0,0,1.08239X$1,22.5*%
G01*
%ADD10P,1.429621X8X112.500000*%
%ADD11C,1.320800*%
%ADD12P,1.429621X8X292.500000*%
%ADD13C,1.981200*%
%ADD14C,0.812800*%

G36*
X497879Y10165D02*
X497879Y10165D01*
X497936Y10162D01*
X498162Y10185D01*
X498389Y10201D01*
X498446Y10213D01*
X498503Y10218D01*
X498724Y10272D01*
X498946Y10320D01*
X499001Y10340D01*
X499057Y10353D01*
X499268Y10437D01*
X499481Y10516D01*
X499533Y10543D01*
X499586Y10564D01*
X499783Y10677D01*
X499984Y10784D01*
X500031Y10818D01*
X500081Y10847D01*
X500261Y10987D01*
X500444Y11121D01*
X500485Y11161D01*
X500531Y11197D01*
X500689Y11360D01*
X500852Y11518D01*
X500888Y11564D01*
X500928Y11606D01*
X501062Y11789D01*
X501201Y11969D01*
X501229Y12019D01*
X501264Y12066D01*
X501371Y12267D01*
X501483Y12464D01*
X501504Y12518D01*
X501532Y12569D01*
X501609Y12782D01*
X501693Y12993D01*
X501707Y13050D01*
X501727Y13104D01*
X501774Y13326D01*
X501827Y13547D01*
X501833Y13605D01*
X501845Y13662D01*
X501860Y13888D01*
X501883Y14114D01*
X501880Y14172D01*
X501884Y14230D01*
X501868Y14456D01*
X501858Y14684D01*
X501847Y14740D01*
X501843Y14798D01*
X501795Y15021D01*
X501754Y15244D01*
X501736Y15299D01*
X501723Y15355D01*
X501645Y15568D01*
X501573Y15784D01*
X501547Y15836D01*
X501527Y15890D01*
X501419Y16090D01*
X501318Y16293D01*
X501285Y16341D01*
X501257Y16392D01*
X501123Y16575D01*
X500994Y16762D01*
X500954Y16805D01*
X500920Y16852D01*
X500762Y17014D01*
X500607Y17181D01*
X500563Y17218D01*
X500522Y17259D01*
X500342Y17398D01*
X500166Y17542D01*
X500117Y17572D01*
X500071Y17607D01*
X500025Y17632D01*
X495892Y21765D01*
X464713Y52943D01*
X463252Y56471D01*
X463200Y56577D01*
X463156Y56686D01*
X463073Y56831D01*
X462998Y56981D01*
X462931Y57078D01*
X462872Y57180D01*
X462800Y57269D01*
X462675Y57450D01*
X462580Y57553D01*
X462450Y57868D01*
X462372Y58022D01*
X462304Y58181D01*
X462245Y58277D01*
X462195Y58378D01*
X462097Y58520D01*
X462007Y58667D01*
X461936Y58754D01*
X461872Y58847D01*
X461755Y58974D01*
X461645Y59107D01*
X461562Y59183D01*
X461486Y59266D01*
X461353Y59375D01*
X461225Y59493D01*
X461132Y59556D01*
X461046Y59627D01*
X460898Y59717D01*
X460756Y59815D01*
X460655Y59865D01*
X460559Y59924D01*
X460400Y59992D01*
X460245Y60069D01*
X460139Y60104D01*
X460035Y60149D01*
X459869Y60194D01*
X459705Y60249D01*
X459594Y60269D01*
X459486Y60298D01*
X459314Y60320D01*
X459144Y60351D01*
X459032Y60356D01*
X458920Y60370D01*
X458748Y60367D01*
X458575Y60374D01*
X458463Y60363D01*
X458351Y60361D01*
X458180Y60335D01*
X458008Y60317D01*
X457898Y60291D01*
X457788Y60273D01*
X457622Y60223D01*
X457455Y60182D01*
X457350Y60140D01*
X457243Y60107D01*
X457086Y60034D01*
X456926Y59970D01*
X456828Y59914D01*
X456726Y59867D01*
X456581Y59772D01*
X456431Y59687D01*
X456365Y59632D01*
X456248Y59556D01*
X455832Y59194D01*
X455822Y59186D01*
X455607Y58971D01*
X454443Y58125D01*
X453713Y57753D01*
X453713Y72550D01*
X453713Y87347D01*
X454443Y86975D01*
X455607Y86129D01*
X455822Y85914D01*
X455953Y85801D01*
X456077Y85681D01*
X456168Y85614D01*
X456253Y85541D01*
X456397Y85447D01*
X456537Y85345D01*
X456636Y85292D01*
X456731Y85231D01*
X456888Y85158D01*
X457040Y85077D01*
X457145Y85038D01*
X457248Y84991D01*
X457413Y84941D01*
X457575Y84882D01*
X457685Y84858D01*
X457793Y84826D01*
X457964Y84799D01*
X458133Y84763D01*
X458245Y84755D01*
X458356Y84738D01*
X458529Y84736D01*
X458701Y84724D01*
X458813Y84732D01*
X458926Y84731D01*
X459097Y84752D01*
X459269Y84765D01*
X459379Y84788D01*
X459491Y84803D01*
X459658Y84848D01*
X459826Y84885D01*
X459932Y84923D01*
X460040Y84953D01*
X460199Y85021D01*
X460361Y85081D01*
X460460Y85134D01*
X460564Y85179D01*
X460711Y85269D01*
X460863Y85351D01*
X460954Y85417D01*
X461050Y85476D01*
X461183Y85585D01*
X461323Y85688D01*
X461403Y85766D01*
X461490Y85837D01*
X461607Y85965D01*
X461730Y86086D01*
X461799Y86174D01*
X461875Y86257D01*
X461973Y86400D01*
X462079Y86537D01*
X462119Y86612D01*
X462198Y86727D01*
X462444Y87221D01*
X462450Y87232D01*
X462560Y87499D01*
X466705Y91644D01*
X472119Y93887D01*
X477981Y93887D01*
X483395Y91644D01*
X484877Y90162D01*
X485051Y90011D01*
X485220Y89856D01*
X485265Y89825D01*
X485307Y89789D01*
X485500Y89664D01*
X485690Y89533D01*
X485739Y89509D01*
X485785Y89479D01*
X485994Y89382D01*
X486200Y89279D01*
X486252Y89262D01*
X486302Y89239D01*
X486523Y89172D01*
X486741Y89100D01*
X486795Y89090D01*
X486847Y89074D01*
X487075Y89039D01*
X487301Y88997D01*
X487356Y88995D01*
X487410Y88986D01*
X487640Y88983D01*
X487871Y88974D01*
X487925Y88980D01*
X487980Y88979D01*
X488208Y89008D01*
X488438Y89031D01*
X488491Y89044D01*
X488545Y89051D01*
X488768Y89112D01*
X488991Y89166D01*
X489042Y89187D01*
X489095Y89201D01*
X489306Y89293D01*
X489520Y89378D01*
X489568Y89405D01*
X489618Y89427D01*
X489815Y89547D01*
X490014Y89662D01*
X490048Y89690D01*
X490104Y89724D01*
X490545Y90086D01*
X490589Y90134D01*
X490623Y90162D01*
X492105Y91644D01*
X497519Y93887D01*
X503381Y93887D01*
X508795Y91644D01*
X510277Y90162D01*
X510451Y90011D01*
X510620Y89856D01*
X510665Y89825D01*
X510707Y89789D01*
X510900Y89664D01*
X511090Y89533D01*
X511139Y89509D01*
X511185Y89479D01*
X511394Y89382D01*
X511600Y89279D01*
X511652Y89262D01*
X511702Y89239D01*
X511923Y89172D01*
X512141Y89100D01*
X512195Y89090D01*
X512247Y89074D01*
X512475Y89039D01*
X512701Y88997D01*
X512756Y88995D01*
X512810Y88986D01*
X513040Y88983D01*
X513271Y88974D01*
X513325Y88980D01*
X513380Y88979D01*
X513608Y89008D01*
X513838Y89031D01*
X513891Y89044D01*
X513945Y89051D01*
X514168Y89112D01*
X514391Y89166D01*
X514442Y89187D01*
X514495Y89201D01*
X514706Y89293D01*
X514920Y89378D01*
X514968Y89405D01*
X515018Y89427D01*
X515215Y89547D01*
X515414Y89662D01*
X515448Y89690D01*
X515504Y89724D01*
X515945Y90086D01*
X515989Y90134D01*
X516023Y90162D01*
X517505Y91644D01*
X522919Y93887D01*
X528781Y93887D01*
X534195Y91644D01*
X535677Y90162D01*
X535851Y90011D01*
X536020Y89856D01*
X536066Y89825D01*
X536107Y89789D01*
X536300Y89664D01*
X536490Y89533D01*
X536539Y89509D01*
X536585Y89479D01*
X536794Y89382D01*
X537000Y89279D01*
X537052Y89262D01*
X537102Y89239D01*
X537322Y89172D01*
X537541Y89100D01*
X537595Y89090D01*
X537647Y89074D01*
X537875Y89039D01*
X538101Y88997D01*
X538156Y88995D01*
X538210Y88986D01*
X538440Y88983D01*
X538671Y88974D01*
X538725Y88980D01*
X538780Y88979D01*
X539008Y89008D01*
X539237Y89031D01*
X539291Y89044D01*
X539345Y89051D01*
X539568Y89112D01*
X539791Y89166D01*
X539842Y89187D01*
X539895Y89201D01*
X540106Y89292D01*
X540320Y89378D01*
X540368Y89405D01*
X540418Y89427D01*
X540614Y89547D01*
X540814Y89662D01*
X540848Y89690D01*
X540904Y89724D01*
X541345Y90086D01*
X541389Y90134D01*
X541423Y90162D01*
X542905Y91644D01*
X546273Y93039D01*
X546378Y93092D01*
X546488Y93135D01*
X546633Y93219D01*
X546783Y93293D01*
X546880Y93360D01*
X546982Y93419D01*
X547070Y93492D01*
X547252Y93617D01*
X547501Y93846D01*
X547591Y93920D01*
X551542Y97871D01*
X551618Y97958D01*
X551700Y98038D01*
X551804Y98173D01*
X551916Y98301D01*
X551979Y98398D01*
X552049Y98489D01*
X552133Y98637D01*
X552226Y98779D01*
X552274Y98884D01*
X552331Y98984D01*
X552394Y99142D01*
X552466Y99296D01*
X552499Y99406D01*
X552541Y99513D01*
X552582Y99679D01*
X552631Y99841D01*
X552648Y99955D01*
X552676Y100067D01*
X552692Y100237D01*
X552718Y100404D01*
X552720Y100519D01*
X552731Y100634D01*
X552723Y100804D01*
X552726Y100974D01*
X552711Y101088D01*
X552706Y101204D01*
X552675Y101371D01*
X552654Y101539D01*
X552623Y101651D01*
X552602Y101764D01*
X552548Y101925D01*
X552503Y102089D01*
X552458Y102195D01*
X552421Y102304D01*
X552345Y102456D01*
X552277Y102612D01*
X552217Y102710D01*
X552166Y102813D01*
X552069Y102953D01*
X551981Y103098D01*
X551907Y103187D01*
X551842Y103282D01*
X551726Y103407D01*
X551619Y103539D01*
X551534Y103616D01*
X551456Y103701D01*
X551324Y103809D01*
X551199Y103924D01*
X551104Y103989D01*
X551015Y104062D01*
X550869Y104150D01*
X550729Y104246D01*
X550626Y104298D01*
X550527Y104357D01*
X550371Y104424D01*
X550219Y104500D01*
X550110Y104536D01*
X550004Y104582D01*
X549840Y104626D01*
X549678Y104680D01*
X549565Y104701D01*
X549454Y104731D01*
X549339Y104742D01*
X549118Y104782D01*
X548786Y104796D01*
X548669Y104807D01*
X282125Y104807D01*
X277643Y106664D01*
X273642Y110665D01*
X217190Y167117D01*
X217144Y167157D01*
X217103Y167201D01*
X216929Y167343D01*
X216760Y167491D01*
X216709Y167524D01*
X216662Y167562D01*
X216470Y167679D01*
X216281Y167801D01*
X216227Y167826D01*
X216175Y167857D01*
X215969Y167946D01*
X215764Y168041D01*
X215707Y168058D01*
X215651Y168082D01*
X215434Y168140D01*
X215219Y168206D01*
X215159Y168215D01*
X215101Y168231D01*
X214984Y168242D01*
X214656Y168293D01*
X214431Y168296D01*
X214317Y168307D01*
X202383Y168307D01*
X202323Y168303D01*
X202263Y168305D01*
X202039Y168283D01*
X201815Y168267D01*
X201756Y168255D01*
X201696Y168249D01*
X201478Y168195D01*
X201258Y168148D01*
X201201Y168128D01*
X201143Y168113D01*
X200934Y168030D01*
X200723Y167952D01*
X200670Y167924D01*
X200614Y167902D01*
X200419Y167790D01*
X200220Y167684D01*
X200172Y167648D01*
X200119Y167618D01*
X200028Y167543D01*
X199761Y167347D01*
X199599Y167190D01*
X199510Y167117D01*
X196333Y163940D01*
X196293Y163894D01*
X196249Y163853D01*
X196107Y163679D01*
X195959Y163510D01*
X195926Y163459D01*
X195888Y163412D01*
X195771Y163220D01*
X195649Y163031D01*
X195624Y162977D01*
X195593Y162925D01*
X195504Y162719D01*
X195409Y162514D01*
X195392Y162457D01*
X195368Y162401D01*
X195310Y162184D01*
X195244Y161969D01*
X195235Y161909D01*
X195219Y161851D01*
X195208Y161734D01*
X195157Y161406D01*
X195154Y161181D01*
X195143Y161067D01*
X195143Y135551D01*
X195147Y135491D01*
X195145Y135431D01*
X195167Y135207D01*
X195183Y134983D01*
X195195Y134924D01*
X195201Y134864D01*
X195255Y134645D01*
X195302Y134426D01*
X195322Y134369D01*
X195337Y134310D01*
X195420Y134102D01*
X195498Y133891D01*
X195526Y133837D01*
X195548Y133781D01*
X195660Y133586D01*
X195766Y133388D01*
X195802Y133339D01*
X195832Y133287D01*
X195907Y133196D01*
X196103Y132928D01*
X196260Y132767D01*
X196333Y132678D01*
X198239Y130772D01*
X200985Y124143D01*
X200985Y97157D01*
X198239Y90528D01*
X193166Y85455D01*
X190138Y84201D01*
X189983Y84124D01*
X189825Y84055D01*
X189729Y83996D01*
X189628Y83946D01*
X189486Y83848D01*
X189338Y83758D01*
X189252Y83687D01*
X189159Y83623D01*
X189031Y83506D01*
X188898Y83396D01*
X188822Y83313D01*
X188739Y83237D01*
X188630Y83104D01*
X188513Y82976D01*
X188449Y82884D01*
X188378Y82797D01*
X188288Y82649D01*
X188190Y82507D01*
X188140Y82406D01*
X188082Y82310D01*
X188014Y82151D01*
X187937Y81997D01*
X187901Y81890D01*
X187857Y81787D01*
X187811Y81620D01*
X187757Y81456D01*
X187737Y81345D01*
X187707Y81237D01*
X187685Y81066D01*
X187654Y80895D01*
X187650Y80783D01*
X187636Y80671D01*
X187638Y80499D01*
X187631Y80326D01*
X187643Y80214D01*
X187644Y80102D01*
X187671Y79931D01*
X187688Y79759D01*
X187715Y79650D01*
X187732Y79539D01*
X187782Y79374D01*
X187824Y79206D01*
X187866Y79101D01*
X187898Y78994D01*
X187971Y78837D01*
X188035Y78677D01*
X188091Y78579D01*
X188139Y78477D01*
X188233Y78332D01*
X188319Y78183D01*
X188373Y78117D01*
X188449Y77999D01*
X188811Y77584D01*
X188820Y77574D01*
X194748Y71645D01*
X194793Y71606D01*
X194834Y71561D01*
X195008Y71419D01*
X195178Y71272D01*
X195229Y71239D01*
X195275Y71201D01*
X195468Y71084D01*
X195656Y70962D01*
X195711Y70936D01*
X195763Y70905D01*
X195969Y70817D01*
X196173Y70722D01*
X196231Y70704D01*
X196286Y70681D01*
X196503Y70622D01*
X196718Y70557D01*
X196778Y70548D01*
X196836Y70532D01*
X196953Y70520D01*
X197281Y70469D01*
X197506Y70466D01*
X197621Y70455D01*
X327029Y70455D01*
X327089Y70459D01*
X327150Y70457D01*
X327373Y70479D01*
X327597Y70495D01*
X327657Y70508D01*
X327717Y70514D01*
X327935Y70567D01*
X328155Y70614D01*
X328211Y70635D01*
X328270Y70649D01*
X328479Y70733D01*
X328690Y70810D01*
X328743Y70839D01*
X328799Y70861D01*
X328994Y70973D01*
X329192Y71079D01*
X329241Y71114D01*
X329293Y71145D01*
X329384Y71219D01*
X329652Y71415D01*
X329813Y71572D01*
X329902Y71645D01*
X341143Y82886D01*
X345625Y84743D01*
X357103Y84743D01*
X357106Y84743D01*
X357109Y84743D01*
X357390Y84763D01*
X357672Y84783D01*
X357675Y84783D01*
X357677Y84783D01*
X357953Y84843D01*
X358229Y84902D01*
X358232Y84903D01*
X358234Y84903D01*
X358493Y84998D01*
X358764Y85098D01*
X358767Y85099D01*
X358769Y85100D01*
X359010Y85229D01*
X359266Y85366D01*
X359269Y85368D01*
X359271Y85369D01*
X359499Y85536D01*
X359726Y85703D01*
X359728Y85705D01*
X359731Y85706D01*
X359928Y85899D01*
X360135Y86100D01*
X360136Y86102D01*
X360138Y86104D01*
X360307Y86323D01*
X360483Y86551D01*
X360485Y86553D01*
X360486Y86555D01*
X360493Y86567D01*
X360766Y87046D01*
X360817Y87176D01*
X360857Y87251D01*
X360960Y87499D01*
X365105Y91644D01*
X370519Y93887D01*
X376381Y93887D01*
X381795Y91644D01*
X385940Y87499D01*
X386050Y87232D01*
X386128Y87078D01*
X386196Y86919D01*
X386255Y86823D01*
X386305Y86722D01*
X386403Y86580D01*
X386493Y86433D01*
X386564Y86346D01*
X386628Y86253D01*
X386745Y86126D01*
X386855Y85993D01*
X386938Y85917D01*
X387014Y85834D01*
X387147Y85725D01*
X387275Y85607D01*
X387368Y85544D01*
X387454Y85473D01*
X387602Y85383D01*
X387744Y85285D01*
X387845Y85235D01*
X387941Y85176D01*
X388100Y85108D01*
X388255Y85031D01*
X388361Y84996D01*
X388465Y84951D01*
X388631Y84906D01*
X388795Y84851D01*
X388906Y84831D01*
X389014Y84802D01*
X389186Y84780D01*
X389356Y84749D01*
X389468Y84744D01*
X389580Y84730D01*
X389752Y84733D01*
X389925Y84726D01*
X390037Y84737D01*
X390149Y84739D01*
X390320Y84765D01*
X390492Y84783D01*
X390602Y84809D01*
X390712Y84827D01*
X390878Y84877D01*
X391045Y84918D01*
X391150Y84960D01*
X391257Y84993D01*
X391414Y85066D01*
X391574Y85130D01*
X391672Y85186D01*
X391774Y85233D01*
X391919Y85328D01*
X392069Y85413D01*
X392135Y85468D01*
X392252Y85544D01*
X392668Y85906D01*
X392678Y85914D01*
X392893Y86129D01*
X394057Y86975D01*
X394787Y87347D01*
X394787Y72550D01*
X394803Y72321D01*
X394813Y72091D01*
X394823Y72037D01*
X394827Y71982D01*
X394875Y71757D01*
X394917Y71531D01*
X394934Y71478D01*
X394946Y71425D01*
X395025Y71209D01*
X395098Y70990D01*
X395123Y70941D01*
X395141Y70890D01*
X395250Y70687D01*
X395353Y70481D01*
X395384Y70436D01*
X395410Y70387D01*
X395546Y70202D01*
X395677Y70012D01*
X395714Y69972D01*
X395747Y69927D01*
X395907Y69763D01*
X396063Y69593D01*
X396106Y69558D01*
X396144Y69519D01*
X396326Y69378D01*
X396504Y69232D01*
X396551Y69204D01*
X396595Y69170D01*
X396795Y69056D01*
X396991Y68937D01*
X397042Y68915D01*
X397090Y68888D01*
X397304Y68803D01*
X397515Y68713D01*
X397568Y68698D01*
X397619Y68678D01*
X397844Y68624D01*
X398065Y68564D01*
X398109Y68559D01*
X398173Y68544D01*
X398740Y68489D01*
X398806Y68491D01*
X398850Y68487D01*
X399080Y68503D01*
X399310Y68513D01*
X399364Y68523D01*
X399419Y68527D01*
X399644Y68575D01*
X399870Y68617D01*
X399922Y68635D01*
X399976Y68646D01*
X400192Y68725D01*
X400410Y68798D01*
X400459Y68823D01*
X400511Y68842D01*
X400714Y68951D01*
X400920Y69054D01*
X400965Y69085D01*
X401013Y69111D01*
X401199Y69246D01*
X401388Y69377D01*
X401429Y69415D01*
X401473Y69447D01*
X401638Y69607D01*
X401807Y69764D01*
X401842Y69806D01*
X401881Y69845D01*
X402022Y70026D01*
X402168Y70205D01*
X402197Y70252D01*
X402230Y70295D01*
X402344Y70495D01*
X402463Y70692D01*
X402485Y70742D01*
X402512Y70790D01*
X402598Y71005D01*
X402688Y71216D01*
X402702Y71268D01*
X402723Y71320D01*
X402777Y71544D01*
X402837Y71766D01*
X402841Y71810D01*
X402857Y71874D01*
X402912Y72441D01*
X402909Y72506D01*
X402913Y72550D01*
X402913Y87347D01*
X403643Y86975D01*
X404807Y86129D01*
X405022Y85914D01*
X405153Y85801D01*
X405277Y85681D01*
X405368Y85614D01*
X405453Y85541D01*
X405597Y85447D01*
X405737Y85345D01*
X405836Y85292D01*
X405931Y85231D01*
X406088Y85158D01*
X406240Y85077D01*
X406345Y85038D01*
X406448Y84991D01*
X406613Y84941D01*
X406775Y84882D01*
X406885Y84858D01*
X406993Y84826D01*
X407164Y84799D01*
X407333Y84763D01*
X407445Y84755D01*
X407556Y84738D01*
X407729Y84736D01*
X407901Y84724D01*
X408013Y84732D01*
X408126Y84731D01*
X408297Y84752D01*
X408469Y84765D01*
X408579Y84788D01*
X408691Y84803D01*
X408858Y84848D01*
X409026Y84885D01*
X409132Y84923D01*
X409240Y84953D01*
X409399Y85021D01*
X409561Y85081D01*
X409660Y85134D01*
X409764Y85179D01*
X409911Y85269D01*
X410063Y85351D01*
X410154Y85417D01*
X410250Y85476D01*
X410383Y85585D01*
X410523Y85688D01*
X410603Y85766D01*
X410690Y85837D01*
X410807Y85965D01*
X410930Y86086D01*
X410999Y86174D01*
X411075Y86257D01*
X411173Y86400D01*
X411279Y86537D01*
X411319Y86612D01*
X411398Y86727D01*
X411644Y87221D01*
X411650Y87232D01*
X411760Y87499D01*
X415905Y91644D01*
X421319Y93887D01*
X427181Y93887D01*
X432595Y91644D01*
X436740Y87499D01*
X436850Y87232D01*
X436928Y87078D01*
X436996Y86919D01*
X437055Y86823D01*
X437105Y86722D01*
X437203Y86580D01*
X437293Y86433D01*
X437364Y86346D01*
X437428Y86253D01*
X437545Y86126D01*
X437655Y85993D01*
X437738Y85917D01*
X437814Y85834D01*
X437947Y85725D01*
X438075Y85607D01*
X438168Y85544D01*
X438254Y85473D01*
X438402Y85383D01*
X438544Y85285D01*
X438645Y85235D01*
X438741Y85176D01*
X438900Y85108D01*
X439055Y85031D01*
X439161Y84996D01*
X439265Y84951D01*
X439431Y84906D01*
X439595Y84851D01*
X439706Y84831D01*
X439814Y84802D01*
X439986Y84780D01*
X440156Y84749D01*
X440268Y84744D01*
X440380Y84730D01*
X440552Y84733D01*
X440725Y84726D01*
X440837Y84737D01*
X440949Y84739D01*
X441120Y84765D01*
X441292Y84783D01*
X441402Y84809D01*
X441512Y84827D01*
X441678Y84877D01*
X441845Y84918D01*
X441950Y84960D01*
X442057Y84993D01*
X442214Y85066D01*
X442374Y85130D01*
X442472Y85186D01*
X442574Y85233D01*
X442719Y85328D01*
X442869Y85413D01*
X442935Y85468D01*
X443052Y85544D01*
X443468Y85906D01*
X443478Y85914D01*
X443693Y86129D01*
X444857Y86975D01*
X445587Y87347D01*
X445587Y72550D01*
X445587Y57753D01*
X444857Y58125D01*
X443693Y58971D01*
X443478Y59186D01*
X443347Y59299D01*
X443223Y59419D01*
X443132Y59486D01*
X443047Y59559D01*
X442903Y59653D01*
X442763Y59755D01*
X442664Y59808D01*
X442569Y59869D01*
X442412Y59942D01*
X442260Y60023D01*
X442155Y60062D01*
X442052Y60109D01*
X441887Y60159D01*
X441725Y60218D01*
X441615Y60242D01*
X441507Y60274D01*
X441336Y60301D01*
X441167Y60337D01*
X441055Y60345D01*
X440944Y60362D01*
X440771Y60364D01*
X440599Y60376D01*
X440487Y60368D01*
X440374Y60369D01*
X440203Y60348D01*
X440031Y60335D01*
X439921Y60312D01*
X439809Y60297D01*
X439642Y60252D01*
X439474Y60215D01*
X439368Y60177D01*
X439260Y60147D01*
X439101Y60079D01*
X438939Y60019D01*
X438840Y59966D01*
X438736Y59921D01*
X438589Y59831D01*
X438437Y59749D01*
X438346Y59683D01*
X438250Y59624D01*
X438117Y59515D01*
X437977Y59412D01*
X437897Y59334D01*
X437810Y59263D01*
X437693Y59135D01*
X437570Y59014D01*
X437501Y58926D01*
X437425Y58843D01*
X437327Y58700D01*
X437221Y58563D01*
X437181Y58488D01*
X437102Y58373D01*
X436856Y57879D01*
X436850Y57868D01*
X436724Y57563D01*
X436665Y57485D01*
X436555Y57359D01*
X436491Y57260D01*
X436419Y57167D01*
X436365Y57066D01*
X436245Y56881D01*
X436156Y56689D01*
X436115Y56617D01*
X436084Y56539D01*
X436048Y56471D01*
X434586Y52943D01*
X430585Y48942D01*
X412107Y30464D01*
X407625Y28607D01*
X180525Y28607D01*
X176043Y30464D01*
X122575Y83931D01*
X121722Y85991D01*
X121669Y86097D01*
X121626Y86206D01*
X121543Y86351D01*
X121468Y86501D01*
X121401Y86599D01*
X121342Y86701D01*
X121270Y86789D01*
X121145Y86970D01*
X120915Y87220D01*
X120841Y87310D01*
X117623Y90528D01*
X114877Y97157D01*
X114877Y121697D01*
X114873Y121757D01*
X114875Y121817D01*
X114853Y122041D01*
X114837Y122265D01*
X114825Y122324D01*
X114819Y122384D01*
X114765Y122602D01*
X114718Y122822D01*
X114698Y122879D01*
X114683Y122937D01*
X114600Y123146D01*
X114522Y123357D01*
X114494Y123411D01*
X114472Y123467D01*
X114360Y123661D01*
X114254Y123860D01*
X114218Y123908D01*
X114188Y123961D01*
X114113Y124052D01*
X113917Y124320D01*
X113760Y124481D01*
X113687Y124570D01*
X106415Y131842D01*
X91651Y146606D01*
X89795Y151087D01*
X89795Y227375D01*
X91651Y231857D01*
X117306Y257512D01*
X118557Y258030D01*
X118662Y258082D01*
X118772Y258126D01*
X118917Y258210D01*
X119067Y258284D01*
X119164Y258351D01*
X119266Y258410D01*
X119355Y258482D01*
X119536Y258607D01*
X119785Y258837D01*
X119875Y258911D01*
X126048Y265083D01*
X138252Y265083D01*
X139602Y263733D01*
X139648Y263693D01*
X139689Y263649D01*
X139863Y263507D01*
X140033Y263359D01*
X140083Y263326D01*
X140130Y263288D01*
X140322Y263171D01*
X140511Y263049D01*
X140566Y263024D01*
X140617Y262993D01*
X140823Y262904D01*
X141028Y262809D01*
X141085Y262792D01*
X141141Y262768D01*
X141358Y262710D01*
X141573Y262644D01*
X141633Y262635D01*
X141691Y262619D01*
X141808Y262608D01*
X142136Y262557D01*
X142361Y262554D01*
X142476Y262543D01*
X198024Y262543D01*
X198085Y262547D01*
X198145Y262545D01*
X198368Y262567D01*
X198593Y262583D01*
X198652Y262595D01*
X198712Y262601D01*
X198930Y262655D01*
X199150Y262702D01*
X199207Y262722D01*
X199265Y262737D01*
X199474Y262820D01*
X199685Y262898D01*
X199738Y262926D01*
X199794Y262948D01*
X199989Y263060D01*
X200188Y263166D01*
X200236Y263202D01*
X200289Y263232D01*
X200380Y263307D01*
X200647Y263503D01*
X200809Y263660D01*
X200898Y263733D01*
X202248Y265083D01*
X214453Y265083D01*
X215802Y263733D01*
X215848Y263693D01*
X215889Y263649D01*
X216063Y263506D01*
X216233Y263359D01*
X216283Y263326D01*
X216330Y263288D01*
X216522Y263172D01*
X216711Y263049D01*
X216766Y263024D01*
X216817Y262993D01*
X217023Y262904D01*
X217228Y262809D01*
X217285Y262792D01*
X217341Y262768D01*
X217558Y262710D01*
X217773Y262644D01*
X217833Y262635D01*
X217891Y262619D01*
X218008Y262608D01*
X218336Y262557D01*
X218561Y262554D01*
X218676Y262543D01*
X274224Y262543D01*
X274285Y262547D01*
X274345Y262545D01*
X274568Y262567D01*
X274793Y262583D01*
X274852Y262595D01*
X274912Y262601D01*
X275130Y262655D01*
X275350Y262702D01*
X275407Y262722D01*
X275465Y262737D01*
X275674Y262820D01*
X275885Y262898D01*
X275938Y262926D01*
X275994Y262948D01*
X276189Y263060D01*
X276388Y263166D01*
X276436Y263202D01*
X276489Y263232D01*
X276580Y263307D01*
X276847Y263503D01*
X277009Y263660D01*
X277098Y263733D01*
X278448Y265083D01*
X290652Y265083D01*
X292002Y263733D01*
X292048Y263693D01*
X292089Y263649D01*
X292263Y263507D01*
X292433Y263359D01*
X292483Y263326D01*
X292530Y263288D01*
X292722Y263171D01*
X292911Y263049D01*
X292966Y263024D01*
X293017Y262993D01*
X293223Y262904D01*
X293428Y262809D01*
X293485Y262792D01*
X293541Y262768D01*
X293758Y262710D01*
X293973Y262644D01*
X294033Y262635D01*
X294091Y262619D01*
X294208Y262608D01*
X294536Y262557D01*
X294761Y262554D01*
X294876Y262543D01*
X350424Y262543D01*
X350485Y262547D01*
X350545Y262545D01*
X350768Y262567D01*
X350993Y262583D01*
X351052Y262595D01*
X351112Y262601D01*
X351330Y262655D01*
X351550Y262702D01*
X351607Y262722D01*
X351665Y262737D01*
X351874Y262820D01*
X352085Y262898D01*
X352138Y262926D01*
X352194Y262948D01*
X352389Y263060D01*
X352588Y263166D01*
X352636Y263202D01*
X352689Y263232D01*
X352780Y263307D01*
X353047Y263503D01*
X353209Y263660D01*
X353298Y263733D01*
X354648Y265083D01*
X366852Y265083D01*
X368202Y263733D01*
X368248Y263693D01*
X368289Y263649D01*
X368463Y263507D01*
X368633Y263359D01*
X368683Y263326D01*
X368730Y263288D01*
X368922Y263171D01*
X369111Y263049D01*
X369166Y263024D01*
X369217Y262993D01*
X369423Y262904D01*
X369628Y262809D01*
X369685Y262792D01*
X369741Y262768D01*
X369958Y262710D01*
X370173Y262644D01*
X370233Y262635D01*
X370291Y262619D01*
X370408Y262608D01*
X370736Y262557D01*
X370961Y262554D01*
X371076Y262543D01*
X426624Y262543D01*
X426685Y262547D01*
X426745Y262545D01*
X426968Y262567D01*
X427193Y262583D01*
X427252Y262595D01*
X427312Y262601D01*
X427530Y262655D01*
X427750Y262702D01*
X427807Y262722D01*
X427865Y262737D01*
X428074Y262820D01*
X428285Y262898D01*
X428338Y262926D01*
X428394Y262948D01*
X428589Y263060D01*
X428788Y263166D01*
X428836Y263202D01*
X428889Y263232D01*
X428980Y263307D01*
X429247Y263503D01*
X429409Y263660D01*
X429498Y263733D01*
X430848Y265083D01*
X443052Y265083D01*
X444402Y263733D01*
X444448Y263693D01*
X444489Y263649D01*
X444663Y263507D01*
X444833Y263359D01*
X444883Y263326D01*
X444930Y263288D01*
X445122Y263171D01*
X445311Y263049D01*
X445366Y263024D01*
X445417Y262993D01*
X445623Y262904D01*
X445828Y262809D01*
X445885Y262792D01*
X445941Y262768D01*
X446158Y262710D01*
X446373Y262644D01*
X446433Y262635D01*
X446491Y262619D01*
X446608Y262608D01*
X446936Y262557D01*
X447161Y262554D01*
X447276Y262543D01*
X502824Y262543D01*
X502885Y262547D01*
X502945Y262545D01*
X503168Y262567D01*
X503393Y262583D01*
X503452Y262595D01*
X503512Y262601D01*
X503730Y262655D01*
X503950Y262702D01*
X504007Y262722D01*
X504065Y262737D01*
X504274Y262820D01*
X504485Y262898D01*
X504538Y262926D01*
X504594Y262948D01*
X504789Y263060D01*
X504988Y263166D01*
X505036Y263202D01*
X505089Y263232D01*
X505180Y263307D01*
X505447Y263503D01*
X505609Y263660D01*
X505698Y263733D01*
X507048Y265083D01*
X519252Y265083D01*
X520602Y263733D01*
X520648Y263693D01*
X520689Y263649D01*
X520863Y263507D01*
X521033Y263359D01*
X521083Y263326D01*
X521130Y263288D01*
X521322Y263171D01*
X521511Y263049D01*
X521566Y263024D01*
X521617Y262993D01*
X521823Y262904D01*
X522028Y262809D01*
X522085Y262792D01*
X522141Y262768D01*
X522358Y262710D01*
X522573Y262644D01*
X522633Y262635D01*
X522691Y262619D01*
X522808Y262608D01*
X523136Y262557D01*
X523361Y262554D01*
X523476Y262543D01*
X579024Y262543D01*
X579085Y262547D01*
X579145Y262545D01*
X579368Y262567D01*
X579593Y262583D01*
X579652Y262595D01*
X579712Y262601D01*
X579930Y262655D01*
X580150Y262702D01*
X580207Y262722D01*
X580265Y262737D01*
X580474Y262820D01*
X580685Y262898D01*
X580738Y262926D01*
X580794Y262948D01*
X580989Y263060D01*
X581188Y263166D01*
X581236Y263202D01*
X581289Y263232D01*
X581380Y263307D01*
X581647Y263503D01*
X581809Y263660D01*
X581898Y263733D01*
X583248Y265083D01*
X595452Y265083D01*
X596802Y263733D01*
X596848Y263693D01*
X596889Y263649D01*
X597063Y263507D01*
X597233Y263359D01*
X597283Y263326D01*
X597330Y263288D01*
X597522Y263171D01*
X597711Y263049D01*
X597766Y263024D01*
X597817Y262993D01*
X598023Y262904D01*
X598228Y262809D01*
X598285Y262792D01*
X598341Y262768D01*
X598558Y262710D01*
X598773Y262644D01*
X598833Y262635D01*
X598891Y262619D01*
X599008Y262608D01*
X599336Y262557D01*
X599561Y262554D01*
X599676Y262543D01*
X655224Y262543D01*
X655285Y262547D01*
X655345Y262545D01*
X655568Y262567D01*
X655793Y262583D01*
X655852Y262595D01*
X655912Y262601D01*
X656130Y262655D01*
X656350Y262702D01*
X656407Y262722D01*
X656465Y262737D01*
X656674Y262820D01*
X656885Y262898D01*
X656938Y262926D01*
X656994Y262948D01*
X657189Y263060D01*
X657388Y263166D01*
X657436Y263202D01*
X657489Y263232D01*
X657580Y263307D01*
X657847Y263503D01*
X658009Y263660D01*
X658098Y263733D01*
X659448Y265083D01*
X671652Y265083D01*
X673002Y263733D01*
X673048Y263693D01*
X673089Y263649D01*
X673263Y263507D01*
X673433Y263359D01*
X673483Y263326D01*
X673530Y263288D01*
X673722Y263171D01*
X673911Y263049D01*
X673966Y263024D01*
X674017Y262993D01*
X674223Y262904D01*
X674428Y262809D01*
X674485Y262792D01*
X674541Y262768D01*
X674758Y262710D01*
X674973Y262644D01*
X675033Y262635D01*
X675091Y262619D01*
X675208Y262608D01*
X675536Y262557D01*
X675761Y262554D01*
X675876Y262543D01*
X731424Y262543D01*
X731485Y262547D01*
X731545Y262545D01*
X731768Y262567D01*
X731993Y262583D01*
X732052Y262595D01*
X732112Y262601D01*
X732330Y262655D01*
X732550Y262702D01*
X732607Y262722D01*
X732665Y262737D01*
X732874Y262820D01*
X733085Y262898D01*
X733138Y262926D01*
X733194Y262948D01*
X733389Y263060D01*
X733588Y263166D01*
X733636Y263202D01*
X733689Y263232D01*
X733780Y263307D01*
X734047Y263503D01*
X734209Y263660D01*
X734298Y263733D01*
X735648Y265083D01*
X747852Y265083D01*
X749202Y263733D01*
X749248Y263693D01*
X749289Y263649D01*
X749463Y263507D01*
X749633Y263359D01*
X749683Y263326D01*
X749730Y263288D01*
X749922Y263171D01*
X750111Y263049D01*
X750166Y263024D01*
X750217Y262993D01*
X750423Y262904D01*
X750628Y262809D01*
X750685Y262792D01*
X750741Y262768D01*
X750958Y262710D01*
X751173Y262644D01*
X751233Y262635D01*
X751291Y262619D01*
X751408Y262608D01*
X751736Y262557D01*
X751961Y262554D01*
X752076Y262543D01*
X807624Y262543D01*
X807685Y262547D01*
X807745Y262545D01*
X807969Y262567D01*
X808193Y262583D01*
X808252Y262595D01*
X808312Y262601D01*
X808531Y262655D01*
X808750Y262702D01*
X808807Y262722D01*
X808865Y262737D01*
X809074Y262820D01*
X809285Y262898D01*
X809339Y262926D01*
X809394Y262949D01*
X809589Y263060D01*
X809788Y263166D01*
X809836Y263202D01*
X809889Y263232D01*
X809980Y263307D01*
X810247Y263503D01*
X810409Y263660D01*
X810498Y263733D01*
X811847Y265083D01*
X824053Y265083D01*
X825752Y263383D01*
X825798Y263343D01*
X825839Y263299D01*
X826013Y263156D01*
X826183Y263009D01*
X826233Y262976D01*
X826280Y262938D01*
X826472Y262822D01*
X826661Y262699D01*
X826716Y262674D01*
X826767Y262643D01*
X826973Y262554D01*
X827178Y262459D01*
X827235Y262442D01*
X827291Y262418D01*
X827508Y262360D01*
X827723Y262294D01*
X827783Y262285D01*
X827841Y262269D01*
X827958Y262258D01*
X828286Y262207D01*
X828511Y262204D01*
X828626Y262193D01*
X832425Y262193D01*
X836907Y260336D01*
X850336Y246907D01*
X852193Y242425D01*
X852193Y209650D01*
X850336Y205168D01*
X766946Y121777D01*
X766945Y121777D01*
X762944Y117776D01*
X758463Y115920D01*
X753579Y115920D01*
X753461Y115911D01*
X753343Y115913D01*
X753177Y115892D01*
X753010Y115880D01*
X752895Y115855D01*
X752778Y115840D01*
X752668Y115807D01*
X752453Y115761D01*
X752135Y115644D01*
X752024Y115610D01*
X748938Y114332D01*
X746896Y114332D01*
X746836Y114328D01*
X746775Y114330D01*
X746552Y114308D01*
X746328Y114292D01*
X746268Y114280D01*
X746208Y114274D01*
X745990Y114220D01*
X745770Y114173D01*
X745714Y114153D01*
X745655Y114138D01*
X745446Y114055D01*
X745235Y113977D01*
X745182Y113949D01*
X745126Y113927D01*
X744931Y113815D01*
X744733Y113709D01*
X744684Y113673D01*
X744632Y113643D01*
X744541Y113568D01*
X744273Y113372D01*
X744112Y113215D01*
X744023Y113142D01*
X729607Y98726D01*
X725125Y96870D01*
X634183Y96870D01*
X634123Y96866D01*
X634063Y96868D01*
X633840Y96846D01*
X633615Y96830D01*
X633556Y96817D01*
X633496Y96811D01*
X633278Y96758D01*
X633058Y96711D01*
X633001Y96690D01*
X632943Y96676D01*
X632734Y96592D01*
X632523Y96515D01*
X632469Y96486D01*
X632414Y96464D01*
X632219Y96352D01*
X632020Y96246D01*
X631972Y96211D01*
X631919Y96180D01*
X631828Y96106D01*
X631561Y95910D01*
X631399Y95753D01*
X631310Y95680D01*
X627310Y91679D01*
X627234Y91592D01*
X627152Y91512D01*
X627048Y91377D01*
X626936Y91249D01*
X626873Y91152D01*
X626803Y91061D01*
X626719Y90914D01*
X626626Y90771D01*
X626578Y90666D01*
X626521Y90566D01*
X626458Y90408D01*
X626386Y90254D01*
X626353Y90144D01*
X626310Y90037D01*
X626270Y89871D01*
X626221Y89709D01*
X626204Y89595D01*
X626176Y89483D01*
X626160Y89313D01*
X626134Y89146D01*
X626132Y89031D01*
X626121Y88916D01*
X626128Y88746D01*
X626126Y88576D01*
X626141Y88462D01*
X626146Y88346D01*
X626177Y88179D01*
X626198Y88011D01*
X626229Y87899D01*
X626250Y87786D01*
X626304Y87625D01*
X626349Y87461D01*
X626394Y87355D01*
X626431Y87246D01*
X626507Y87094D01*
X626575Y86938D01*
X626634Y86840D01*
X626686Y86737D01*
X626783Y86597D01*
X626871Y86452D01*
X626945Y86363D01*
X627010Y86268D01*
X627125Y86143D01*
X627233Y86011D01*
X627318Y85934D01*
X627396Y85849D01*
X627528Y85741D01*
X627653Y85626D01*
X627748Y85561D01*
X627837Y85488D01*
X627983Y85400D01*
X628123Y85304D01*
X628226Y85252D01*
X628325Y85193D01*
X628481Y85126D01*
X628633Y85050D01*
X628742Y85014D01*
X628848Y84968D01*
X629012Y84924D01*
X629174Y84870D01*
X629287Y84849D01*
X629398Y84819D01*
X629513Y84808D01*
X629734Y84768D01*
X630066Y84754D01*
X630183Y84743D01*
X642524Y84743D01*
X642585Y84747D01*
X642645Y84745D01*
X642868Y84767D01*
X643093Y84783D01*
X643152Y84795D01*
X643212Y84801D01*
X643430Y84855D01*
X643650Y84902D01*
X643707Y84922D01*
X643765Y84937D01*
X643974Y85020D01*
X644185Y85098D01*
X644238Y85126D01*
X644294Y85148D01*
X644489Y85260D01*
X644688Y85366D01*
X644736Y85402D01*
X644789Y85432D01*
X644880Y85507D01*
X645147Y85703D01*
X645309Y85860D01*
X645398Y85933D01*
X646748Y87283D01*
X658952Y87283D01*
X667583Y78652D01*
X667583Y66448D01*
X658952Y57817D01*
X646748Y57817D01*
X645398Y59167D01*
X645352Y59207D01*
X645311Y59251D01*
X645137Y59393D01*
X644967Y59541D01*
X644917Y59574D01*
X644870Y59612D01*
X644678Y59729D01*
X644489Y59851D01*
X644434Y59876D01*
X644383Y59907D01*
X644177Y59996D01*
X643972Y60091D01*
X643915Y60108D01*
X643859Y60132D01*
X643642Y60190D01*
X643427Y60256D01*
X643367Y60265D01*
X643309Y60281D01*
X643192Y60292D01*
X642864Y60343D01*
X642639Y60346D01*
X642524Y60357D01*
X621483Y60357D01*
X621423Y60353D01*
X621363Y60355D01*
X621140Y60333D01*
X620915Y60317D01*
X620856Y60305D01*
X620796Y60299D01*
X620578Y60245D01*
X620358Y60198D01*
X620301Y60178D01*
X620243Y60163D01*
X620034Y60080D01*
X619823Y60002D01*
X619770Y59974D01*
X619714Y59952D01*
X619519Y59840D01*
X619320Y59734D01*
X619272Y59698D01*
X619219Y59668D01*
X619128Y59593D01*
X618861Y59397D01*
X618699Y59240D01*
X618610Y59167D01*
X606672Y47229D01*
X606597Y47142D01*
X606514Y47062D01*
X606410Y46927D01*
X606299Y46799D01*
X606236Y46702D01*
X606165Y46611D01*
X606081Y46463D01*
X605989Y46321D01*
X605940Y46216D01*
X605883Y46116D01*
X605820Y45958D01*
X605749Y45804D01*
X605716Y45694D01*
X605673Y45587D01*
X605633Y45421D01*
X605584Y45259D01*
X605566Y45145D01*
X605539Y45033D01*
X605522Y44863D01*
X605496Y44696D01*
X605495Y44581D01*
X605484Y44466D01*
X605491Y44296D01*
X605489Y44126D01*
X605503Y44012D01*
X605508Y43896D01*
X605539Y43729D01*
X605561Y43561D01*
X605591Y43449D01*
X605612Y43336D01*
X605666Y43175D01*
X605711Y43011D01*
X605757Y42905D01*
X605794Y42796D01*
X605870Y42644D01*
X605937Y42488D01*
X605997Y42390D01*
X606049Y42287D01*
X606145Y42147D01*
X606234Y42002D01*
X606307Y41913D01*
X606373Y41818D01*
X606488Y41693D01*
X606596Y41561D01*
X606681Y41484D01*
X606759Y41399D01*
X606890Y41291D01*
X607016Y41176D01*
X607111Y41111D01*
X607200Y41038D01*
X607345Y40950D01*
X607485Y40854D01*
X607589Y40802D01*
X607687Y40743D01*
X607843Y40676D01*
X607995Y40600D01*
X608105Y40564D01*
X608211Y40518D01*
X608375Y40474D01*
X608536Y40420D01*
X608650Y40399D01*
X608761Y40369D01*
X608875Y40358D01*
X609097Y40318D01*
X609428Y40304D01*
X609545Y40293D01*
X690567Y40293D01*
X690627Y40297D01*
X690687Y40295D01*
X690910Y40317D01*
X691135Y40333D01*
X691194Y40345D01*
X691254Y40351D01*
X691472Y40405D01*
X691692Y40452D01*
X691749Y40472D01*
X691807Y40487D01*
X692016Y40570D01*
X692227Y40648D01*
X692280Y40676D01*
X692336Y40698D01*
X692531Y40810D01*
X692730Y40916D01*
X692778Y40952D01*
X692831Y40982D01*
X692922Y41057D01*
X693189Y41253D01*
X693351Y41410D01*
X693440Y41483D01*
X708426Y56469D01*
X708501Y56556D01*
X708584Y56636D01*
X708688Y56771D01*
X708799Y56899D01*
X708862Y56996D01*
X708933Y57087D01*
X709017Y57235D01*
X709109Y57377D01*
X709158Y57482D01*
X709215Y57582D01*
X709278Y57740D01*
X709349Y57894D01*
X709382Y58004D01*
X709425Y58111D01*
X709465Y58277D01*
X709514Y58439D01*
X709532Y58553D01*
X709559Y58665D01*
X709576Y58835D01*
X709602Y59002D01*
X709603Y59117D01*
X709614Y59232D01*
X709607Y59402D01*
X709609Y59572D01*
X709595Y59686D01*
X709590Y59802D01*
X709559Y59969D01*
X709537Y60137D01*
X709507Y60249D01*
X709486Y60362D01*
X709432Y60523D01*
X709387Y60687D01*
X709341Y60793D01*
X709304Y60902D01*
X709228Y61054D01*
X709161Y61210D01*
X709101Y61308D01*
X709049Y61411D01*
X708953Y61551D01*
X708864Y61696D01*
X708791Y61785D01*
X708725Y61880D01*
X708610Y62005D01*
X708502Y62137D01*
X708417Y62214D01*
X708339Y62299D01*
X708208Y62407D01*
X708082Y62522D01*
X707987Y62587D01*
X707898Y62660D01*
X707753Y62748D01*
X707713Y62775D01*
X707713Y68487D01*
X713417Y68487D01*
X713418Y68484D01*
X713486Y68391D01*
X713546Y68293D01*
X713654Y68162D01*
X713755Y68024D01*
X713835Y67942D01*
X713908Y67853D01*
X714033Y67738D01*
X714152Y67616D01*
X714243Y67546D01*
X714328Y67468D01*
X714468Y67371D01*
X714603Y67267D01*
X714703Y67210D01*
X714798Y67145D01*
X714950Y67070D01*
X715098Y66985D01*
X715205Y66943D01*
X715308Y66891D01*
X715469Y66838D01*
X715627Y66775D01*
X715740Y66748D01*
X715849Y66712D01*
X716016Y66681D01*
X716181Y66641D01*
X716296Y66630D01*
X716409Y66609D01*
X716579Y66602D01*
X716748Y66586D01*
X716863Y66591D01*
X716979Y66586D01*
X717148Y66603D01*
X717318Y66610D01*
X717431Y66631D01*
X717545Y66643D01*
X717711Y66683D01*
X717878Y66714D01*
X717987Y66751D01*
X718099Y66778D01*
X718257Y66841D01*
X718418Y66896D01*
X718521Y66947D01*
X718628Y66990D01*
X718775Y67075D01*
X718927Y67151D01*
X719022Y67216D01*
X719122Y67273D01*
X719211Y67347D01*
X719396Y67475D01*
X719640Y67699D01*
X719731Y67774D01*
X725827Y73870D01*
X725867Y73916D01*
X725911Y73957D01*
X726053Y74131D01*
X726201Y74300D01*
X726234Y74351D01*
X726272Y74398D01*
X726389Y74590D01*
X726511Y74779D01*
X726536Y74833D01*
X726567Y74885D01*
X726656Y75091D01*
X726751Y75295D01*
X726768Y75353D01*
X726792Y75409D01*
X726850Y75625D01*
X726916Y75841D01*
X726925Y75901D01*
X726941Y75959D01*
X726952Y76076D01*
X727003Y76404D01*
X727006Y76629D01*
X727017Y76743D01*
X727017Y78652D01*
X735648Y87283D01*
X747852Y87283D01*
X750790Y84345D01*
X750835Y84306D01*
X750876Y84261D01*
X751050Y84119D01*
X751220Y83972D01*
X751271Y83939D01*
X751317Y83901D01*
X751510Y83784D01*
X751698Y83662D01*
X751753Y83636D01*
X751805Y83605D01*
X752011Y83517D01*
X752215Y83422D01*
X752273Y83404D01*
X752328Y83381D01*
X752545Y83322D01*
X752760Y83257D01*
X752820Y83248D01*
X752878Y83232D01*
X752995Y83220D01*
X753323Y83169D01*
X753548Y83166D01*
X753663Y83155D01*
X765179Y83155D01*
X765239Y83159D01*
X765300Y83157D01*
X765523Y83179D01*
X765747Y83195D01*
X765807Y83208D01*
X765867Y83214D01*
X766085Y83267D01*
X766305Y83314D01*
X766361Y83335D01*
X766420Y83349D01*
X766629Y83433D01*
X766840Y83510D01*
X766893Y83539D01*
X766949Y83561D01*
X767144Y83673D01*
X767342Y83779D01*
X767391Y83814D01*
X767443Y83845D01*
X767534Y83919D01*
X767802Y84115D01*
X767963Y84272D01*
X768052Y84345D01*
X782977Y99270D01*
X783017Y99316D01*
X783061Y99357D01*
X783203Y99531D01*
X783351Y99700D01*
X783384Y99751D01*
X783422Y99798D01*
X783539Y99990D01*
X783661Y100179D01*
X783686Y100233D01*
X783717Y100285D01*
X783806Y100491D01*
X783901Y100696D01*
X783918Y100753D01*
X783942Y100809D01*
X784000Y101026D01*
X784066Y101241D01*
X784075Y101301D01*
X784091Y101359D01*
X784102Y101476D01*
X784153Y101804D01*
X784156Y102029D01*
X784167Y102143D01*
X784167Y104052D01*
X791843Y111728D01*
X791994Y111902D01*
X792149Y112072D01*
X792181Y112117D01*
X792217Y112158D01*
X792342Y112352D01*
X792472Y112541D01*
X792496Y112590D01*
X792526Y112636D01*
X792623Y112846D01*
X792726Y113051D01*
X792743Y113103D01*
X792766Y113153D01*
X792833Y113374D01*
X792906Y113592D01*
X792916Y113646D01*
X792932Y113699D01*
X792967Y113926D01*
X793008Y114153D01*
X793010Y114208D01*
X793019Y114262D01*
X793022Y114491D01*
X793031Y114722D01*
X793026Y114777D01*
X793027Y114831D01*
X792997Y115060D01*
X792974Y115289D01*
X792961Y115342D01*
X792954Y115397D01*
X792894Y115619D01*
X792839Y115842D01*
X792819Y115893D01*
X792804Y115946D01*
X792713Y116157D01*
X792627Y116371D01*
X792600Y116419D01*
X792578Y116469D01*
X792458Y116666D01*
X792344Y116865D01*
X792316Y116900D01*
X792281Y116956D01*
X791919Y117396D01*
X791871Y117440D01*
X791843Y117474D01*
X790031Y119287D01*
X798900Y119287D01*
X807769Y119287D01*
X805957Y117474D01*
X805806Y117300D01*
X805651Y117131D01*
X805619Y117086D01*
X805583Y117044D01*
X805458Y116851D01*
X805328Y116661D01*
X805303Y116612D01*
X805274Y116566D01*
X805177Y116357D01*
X805074Y116151D01*
X805057Y116099D01*
X805034Y116049D01*
X804967Y115829D01*
X804894Y115611D01*
X804884Y115557D01*
X804868Y115504D01*
X804833Y115277D01*
X804792Y115050D01*
X804790Y114995D01*
X804781Y114941D01*
X804778Y114711D01*
X804769Y114481D01*
X804774Y114426D01*
X804773Y114371D01*
X804803Y114143D01*
X804826Y113914D01*
X804839Y113861D01*
X804846Y113806D01*
X804906Y113583D01*
X804961Y113360D01*
X804981Y113309D01*
X804996Y113256D01*
X805087Y113045D01*
X805173Y112831D01*
X805200Y112784D01*
X805222Y112733D01*
X805342Y112537D01*
X805456Y112337D01*
X805484Y112303D01*
X805519Y112247D01*
X805881Y111807D01*
X805929Y111763D01*
X805957Y111728D01*
X813633Y104052D01*
X813633Y91848D01*
X805002Y83217D01*
X803093Y83217D01*
X803033Y83213D01*
X802973Y83215D01*
X802749Y83193D01*
X802525Y83177D01*
X802466Y83165D01*
X802406Y83159D01*
X802188Y83105D01*
X801968Y83058D01*
X801911Y83038D01*
X801853Y83023D01*
X801644Y82940D01*
X801433Y82862D01*
X801380Y82834D01*
X801324Y82812D01*
X801129Y82700D01*
X800930Y82594D01*
X800882Y82558D01*
X800829Y82528D01*
X800738Y82453D01*
X800471Y82257D01*
X800309Y82100D01*
X800220Y82027D01*
X778819Y60626D01*
X774338Y58770D01*
X750488Y58770D01*
X750428Y58766D01*
X750367Y58768D01*
X750144Y58746D01*
X749920Y58730D01*
X749860Y58717D01*
X749801Y58711D01*
X749582Y58658D01*
X749362Y58611D01*
X749306Y58590D01*
X749247Y58576D01*
X749038Y58492D01*
X748827Y58415D01*
X748774Y58386D01*
X748718Y58364D01*
X748523Y58252D01*
X748325Y58146D01*
X748276Y58111D01*
X748224Y58080D01*
X748133Y58006D01*
X747875Y57817D01*
X745943Y57817D01*
X745883Y57813D01*
X745823Y57815D01*
X745599Y57793D01*
X745375Y57777D01*
X745316Y57765D01*
X745256Y57759D01*
X745038Y57705D01*
X744818Y57658D01*
X744761Y57638D01*
X744703Y57623D01*
X744494Y57540D01*
X744283Y57462D01*
X744229Y57434D01*
X744173Y57412D01*
X743979Y57300D01*
X743780Y57194D01*
X743732Y57158D01*
X743679Y57128D01*
X743588Y57053D01*
X743320Y56857D01*
X743159Y56700D01*
X743070Y56627D01*
X708208Y21765D01*
X704081Y17638D01*
X703933Y17530D01*
X703746Y17401D01*
X703703Y17361D01*
X703656Y17327D01*
X703494Y17169D01*
X703326Y17015D01*
X703289Y16970D01*
X703248Y16930D01*
X703109Y16750D01*
X702965Y16574D01*
X702935Y16525D01*
X702899Y16479D01*
X702787Y16281D01*
X702669Y16088D01*
X702646Y16035D01*
X702617Y15984D01*
X702533Y15772D01*
X702443Y15564D01*
X702428Y15509D01*
X702407Y15455D01*
X702353Y15233D01*
X702294Y15015D01*
X702286Y14957D01*
X702273Y14901D01*
X702251Y14674D01*
X702222Y14449D01*
X702223Y14391D01*
X702217Y14334D01*
X702227Y14106D01*
X702231Y13880D01*
X702240Y13822D01*
X702242Y13764D01*
X702284Y13541D01*
X702319Y13317D01*
X702335Y13261D01*
X702346Y13204D01*
X702418Y12989D01*
X702484Y12771D01*
X702509Y12719D01*
X702527Y12664D01*
X702629Y12461D01*
X702725Y12255D01*
X702757Y12206D01*
X702782Y12155D01*
X702912Y11967D01*
X703035Y11777D01*
X703073Y11734D01*
X703106Y11686D01*
X703261Y11518D01*
X703410Y11347D01*
X703453Y11309D01*
X703493Y11267D01*
X703668Y11123D01*
X703840Y10974D01*
X703889Y10943D01*
X703934Y10906D01*
X704128Y10788D01*
X704319Y10665D01*
X704371Y10641D01*
X704421Y10611D01*
X704630Y10521D01*
X704836Y10426D01*
X704891Y10409D01*
X704945Y10386D01*
X705164Y10327D01*
X705381Y10261D01*
X705439Y10252D01*
X705495Y10237D01*
X705610Y10226D01*
X705945Y10175D01*
X706165Y10172D01*
X706279Y10161D01*
X945776Y10161D01*
X946005Y10177D01*
X946236Y10187D01*
X946290Y10197D01*
X946344Y10201D01*
X946570Y10249D01*
X946796Y10291D01*
X946848Y10308D01*
X946902Y10320D01*
X947118Y10399D01*
X947336Y10472D01*
X947385Y10497D01*
X947437Y10516D01*
X947640Y10624D01*
X947845Y10727D01*
X947891Y10758D01*
X947939Y10784D01*
X948125Y10920D01*
X948314Y11051D01*
X948355Y11088D01*
X948399Y11121D01*
X948564Y11281D01*
X948733Y11437D01*
X948768Y11480D01*
X948807Y11518D01*
X948948Y11700D01*
X949094Y11878D01*
X949122Y11926D01*
X949156Y11969D01*
X949270Y12169D01*
X949389Y12366D01*
X949411Y12416D01*
X949438Y12464D01*
X949523Y12678D01*
X949614Y12889D01*
X949628Y12942D01*
X949648Y12993D01*
X949703Y13218D01*
X949763Y13439D01*
X949767Y13483D01*
X949783Y13547D01*
X949838Y14114D01*
X949835Y14180D01*
X949839Y14224D01*
X949839Y275776D01*
X949823Y276005D01*
X949813Y276236D01*
X949803Y276290D01*
X949799Y276344D01*
X949751Y276570D01*
X949709Y276796D01*
X949692Y276848D01*
X949680Y276902D01*
X949601Y277118D01*
X949528Y277336D01*
X949503Y277385D01*
X949484Y277437D01*
X949376Y277640D01*
X949273Y277845D01*
X949242Y277891D01*
X949216Y277939D01*
X949080Y278125D01*
X948949Y278314D01*
X948912Y278355D01*
X948879Y278399D01*
X948719Y278564D01*
X948563Y278733D01*
X948520Y278768D01*
X948482Y278807D01*
X948300Y278948D01*
X948122Y279094D01*
X948074Y279122D01*
X948031Y279156D01*
X947831Y279270D01*
X947634Y279389D01*
X947584Y279411D01*
X947536Y279438D01*
X947322Y279523D01*
X947111Y279614D01*
X947058Y279628D01*
X947007Y279648D01*
X946782Y279703D01*
X946561Y279763D01*
X946517Y279767D01*
X946453Y279783D01*
X945886Y279838D01*
X945820Y279835D01*
X945776Y279839D01*
X14224Y279839D01*
X13995Y279823D01*
X13764Y279813D01*
X13710Y279803D01*
X13656Y279799D01*
X13430Y279751D01*
X13204Y279709D01*
X13152Y279692D01*
X13098Y279680D01*
X12882Y279601D01*
X12664Y279528D01*
X12615Y279503D01*
X12563Y279484D01*
X12360Y279376D01*
X12155Y279273D01*
X12109Y279242D01*
X12061Y279216D01*
X11875Y279080D01*
X11686Y278949D01*
X11645Y278912D01*
X11601Y278879D01*
X11436Y278719D01*
X11267Y278563D01*
X11232Y278520D01*
X11193Y278482D01*
X11052Y278300D01*
X10906Y278122D01*
X10878Y278074D01*
X10844Y278031D01*
X10730Y277831D01*
X10611Y277634D01*
X10589Y277584D01*
X10562Y277536D01*
X10477Y277322D01*
X10386Y277111D01*
X10372Y277058D01*
X10352Y277007D01*
X10297Y276782D01*
X10237Y276561D01*
X10233Y276517D01*
X10217Y276453D01*
X10162Y275886D01*
X10165Y275820D01*
X10161Y275776D01*
X10161Y14224D01*
X10177Y13995D01*
X10187Y13764D01*
X10197Y13710D01*
X10201Y13656D01*
X10249Y13430D01*
X10291Y13204D01*
X10308Y13152D01*
X10320Y13098D01*
X10399Y12882D01*
X10472Y12664D01*
X10497Y12615D01*
X10516Y12563D01*
X10624Y12360D01*
X10727Y12155D01*
X10758Y12109D01*
X10784Y12061D01*
X10920Y11875D01*
X11051Y11686D01*
X11088Y11645D01*
X11121Y11601D01*
X11281Y11436D01*
X11437Y11267D01*
X11480Y11232D01*
X11518Y11193D01*
X11700Y11052D01*
X11878Y10906D01*
X11926Y10878D01*
X11969Y10844D01*
X12169Y10730D01*
X12366Y10611D01*
X12416Y10589D01*
X12464Y10562D01*
X12678Y10477D01*
X12889Y10386D01*
X12942Y10372D01*
X12993Y10352D01*
X13218Y10297D01*
X13439Y10237D01*
X13483Y10233D01*
X13547Y10217D01*
X14114Y10162D01*
X14180Y10165D01*
X14224Y10161D01*
X497821Y10161D01*
X497879Y10165D01*
G37*
%LPC*%
G36*
X237051Y114713D02*
X237051Y114713D01*
X237051Y132345D01*
X238505Y131743D01*
X239918Y130927D01*
X241212Y129934D01*
X242366Y128780D01*
X243359Y127486D01*
X244175Y126073D01*
X244800Y124565D01*
X245222Y122990D01*
X245435Y121372D01*
X245435Y114713D01*
X237051Y114713D01*
G37*
%LPD*%
%LPC*%
G36*
X237051Y106587D02*
X237051Y106587D01*
X245435Y106587D01*
X245435Y99928D01*
X245222Y98310D01*
X244800Y96735D01*
X244175Y95227D01*
X243359Y93814D01*
X242366Y92520D01*
X241212Y91366D01*
X239918Y90373D01*
X238505Y89557D01*
X237051Y88955D01*
X237051Y106587D01*
G37*
%LPD*%
%LPC*%
G36*
X220541Y114713D02*
X220541Y114713D01*
X220541Y121372D01*
X220754Y122990D01*
X221176Y124565D01*
X221801Y126073D01*
X222617Y127486D01*
X223610Y128780D01*
X224764Y129934D01*
X226058Y130927D01*
X227471Y131743D01*
X228925Y132345D01*
X228925Y114713D01*
X220541Y114713D01*
G37*
%LPD*%
%LPC*%
G36*
X227471Y89557D02*
X227471Y89557D01*
X226058Y90373D01*
X224764Y91366D01*
X223610Y92520D01*
X222617Y93814D01*
X221801Y95227D01*
X221176Y96735D01*
X220754Y98310D01*
X220541Y99928D01*
X220541Y106587D01*
X228925Y106587D01*
X228925Y88955D01*
X227471Y89557D01*
G37*
%LPD*%
%LPC*%
G36*
X802963Y127413D02*
X802963Y127413D01*
X802963Y132219D01*
X807769Y127413D01*
X802963Y127413D01*
G37*
%LPD*%
%LPC*%
G36*
X707713Y76613D02*
X707713Y76613D01*
X707713Y81419D01*
X712519Y76613D01*
X707713Y76613D01*
G37*
%LPD*%
%LPC*%
G36*
X790031Y127413D02*
X790031Y127413D01*
X794837Y132219D01*
X794837Y127413D01*
X790031Y127413D01*
G37*
%LPD*%
%LPC*%
G36*
X694781Y76613D02*
X694781Y76613D01*
X699587Y81419D01*
X699587Y76613D01*
X694781Y76613D01*
G37*
%LPD*%
%LPC*%
G36*
X694781Y68487D02*
X694781Y68487D01*
X699587Y68487D01*
X699587Y63681D01*
X694781Y68487D01*
G37*
%LPD*%
D10*
X798900Y97950D03*
X798900Y123350D03*
D11*
X373450Y79154D02*
X373450Y65946D01*
X398850Y65946D02*
X398850Y79154D01*
X525850Y79154D02*
X525850Y65946D01*
X551250Y65946D02*
X551250Y79154D01*
X424250Y79154D02*
X424250Y65946D01*
X449650Y65946D02*
X449650Y79154D01*
X500450Y79154D02*
X500450Y65946D01*
X475050Y65946D02*
X475050Y79154D01*
X576650Y79154D02*
X576650Y65946D01*
X576650Y142146D02*
X576650Y155354D01*
X551250Y155354D02*
X551250Y142146D01*
X525850Y142146D02*
X525850Y155354D01*
X500450Y155354D02*
X500450Y142146D01*
X475050Y142146D02*
X475050Y155354D01*
X449650Y155354D02*
X449650Y142146D01*
X424250Y142146D02*
X424250Y155354D01*
X398850Y155354D02*
X398850Y142146D01*
X373450Y142146D02*
X373450Y155354D01*
D12*
X132150Y250350D03*
X132150Y224950D03*
X817950Y250350D03*
X817950Y224950D03*
X208350Y250350D03*
X208350Y224950D03*
X284550Y250350D03*
X284550Y224950D03*
X360750Y250350D03*
X360750Y224950D03*
X436950Y250350D03*
X436950Y224950D03*
X513150Y250350D03*
X513150Y224950D03*
X589350Y250350D03*
X589350Y224950D03*
X665550Y250350D03*
X665550Y224950D03*
X741750Y250350D03*
X741750Y224950D03*
D10*
X652850Y72550D03*
X652850Y148750D03*
D12*
X703650Y148750D03*
X703650Y72550D03*
X741750Y148750D03*
X741750Y72550D03*
D13*
X132912Y100744D02*
X132912Y120556D01*
X182950Y120556D02*
X182950Y100744D01*
X232988Y100744D02*
X232988Y120556D01*
D14*
X576650Y148750D02*
X576650Y161450D01*
X586810Y171610D01*
X611444Y171610D01*
X629478Y189644D02*
X782644Y189644D01*
X817950Y224950D01*
X629478Y189644D02*
X611444Y171610D01*
X690950Y224950D02*
X741750Y224950D01*
X690950Y224950D02*
X684346Y218346D01*
X684346Y217164D01*
X673082Y205900D01*
X622745Y205900D02*
X604711Y187866D01*
X576843Y187866D01*
X622745Y205900D02*
X673082Y205900D01*
X576843Y187866D02*
X551250Y162273D01*
X551250Y148750D01*
X525850Y148750D02*
X525850Y159863D01*
X663963Y223363D02*
X665550Y224950D01*
X570300Y205075D02*
X570300Y204313D01*
X570300Y205075D02*
X579770Y205075D01*
X580723Y204122D01*
X597977Y204122D01*
X617218Y223363D02*
X663963Y223363D01*
X617218Y223363D02*
X597977Y204122D01*
X570300Y204313D02*
X525850Y159863D01*
X500450Y161450D02*
X500450Y148750D01*
X500450Y161450D02*
X562363Y223363D01*
X587763Y223363D01*
X589350Y224950D01*
X475050Y177325D02*
X475050Y148750D01*
X475050Y177325D02*
X511563Y213838D01*
X511563Y224950D01*
X513150Y224950D01*
X449650Y183675D02*
X449650Y148750D01*
X449650Y183675D02*
X438538Y194788D01*
X438538Y224950D01*
X436950Y224950D01*
X424250Y161450D02*
X424250Y148750D01*
X424250Y161450D02*
X360750Y224950D01*
X324238Y185263D02*
X284550Y224950D01*
X324238Y185263D02*
X373450Y185263D01*
X400438Y158275D01*
X400438Y148750D01*
X398850Y148750D01*
X284550Y148750D02*
X208350Y224950D01*
X284550Y148750D02*
X373450Y148750D01*
X148025Y209075D02*
X132150Y224950D01*
X148025Y209075D02*
X148025Y140813D01*
X157550Y131288D01*
X157550Y91600D01*
X190888Y58263D01*
X333763Y58263D01*
X348050Y72550D01*
X373450Y72550D01*
X132150Y250350D02*
X128975Y247175D01*
X124213Y247175D01*
X101988Y224950D01*
X112750Y142750D02*
X132150Y123350D01*
X112750Y142750D02*
X111513Y143988D01*
X132150Y123350D02*
X132150Y110650D01*
X132912Y110650D01*
X576650Y72550D02*
X587763Y83663D01*
X602050Y83663D01*
X627450Y109063D01*
X722700Y109063D01*
X740163Y126525D01*
X746513Y126525D01*
X748100Y128113D01*
X756038Y128113D01*
X817950Y250350D02*
X819538Y251938D01*
X132912Y110650D02*
X132912Y90838D01*
X424250Y72550D02*
X424250Y59850D01*
X182950Y40800D02*
X132912Y90838D01*
X182950Y40800D02*
X405200Y40800D01*
X424250Y59850D01*
X741750Y250350D02*
X817950Y250350D01*
X741750Y250350D02*
X665550Y250350D01*
X208350Y250350D02*
X132150Y250350D01*
X208350Y250350D02*
X284550Y250350D01*
X360750Y250350D01*
X436950Y250350D01*
X513150Y250350D01*
X589350Y250350D01*
X665550Y250350D01*
X817950Y250350D02*
X818300Y250000D01*
X830000Y250000D01*
X840000Y240000D01*
X840000Y212075D01*
X756038Y128113D01*
X101988Y153513D02*
X101988Y224950D01*
X101988Y153513D02*
X111513Y143988D01*
X500450Y72550D02*
X525850Y72550D01*
X614750Y72550D02*
X652850Y72550D01*
X538550Y47150D02*
X525850Y59850D01*
X525850Y72550D01*
X589350Y47150D02*
X614750Y72550D01*
X589350Y47150D02*
X538550Y47150D01*
X702063Y150338D02*
X703650Y148750D01*
X702063Y150338D02*
X656025Y150338D01*
X652850Y148750D01*
X629419Y125319D01*
X620717Y125319D01*
X595317Y99919D01*
X570833Y99919D01*
X551250Y80336D02*
X551250Y72550D01*
X551250Y80336D02*
X570833Y99919D01*
X740163Y72550D02*
X741750Y72550D01*
X771913Y70963D02*
X798900Y97950D01*
X771913Y70963D02*
X744925Y70963D01*
X741750Y72550D01*
X475050Y72550D02*
X475050Y59850D01*
X506800Y28100D01*
X697300Y28100D02*
X741750Y72550D01*
X697300Y28100D02*
X506800Y28100D01*
X398850Y72550D02*
X398850Y91150D01*
X248638Y95000D02*
X232988Y110650D01*
X362714Y95000D02*
X365664Y97950D01*
X362714Y95000D02*
X248638Y95000D01*
X392050Y97950D02*
X398850Y91150D01*
X392050Y97950D02*
X365664Y97950D01*
X432036Y97950D02*
X443046Y86940D01*
X432036Y97950D02*
X416464Y97950D01*
X405454Y86940D01*
X443046Y79154D02*
X449650Y72550D01*
X443046Y79154D02*
X443046Y86940D01*
X405454Y86940D02*
X405454Y79154D01*
X398850Y72550D01*
X783350Y123350D02*
X798900Y123350D01*
X751346Y91346D02*
X733964Y91346D01*
X715168Y72550D02*
X703650Y72550D01*
X715168Y72550D02*
X733964Y91346D01*
X751346Y91346D02*
X783350Y123350D01*
X182950Y110650D02*
X182950Y167800D01*
X195650Y180500D01*
X221050Y180500D01*
X284550Y117000D01*
X654092Y167546D02*
X654778Y167889D01*
X655806Y167546D01*
X654092Y167546D02*
X630370Y167546D01*
X655806Y167546D02*
X722954Y167546D01*
X630370Y167546D02*
X579824Y117000D01*
X722954Y167546D02*
X741750Y148750D01*
X579824Y117000D02*
X284550Y117000D01*
M02*
