M48
;GenerationSoftware,Autodesk,EAGLE,9.0.0*%
;CreationDate,2019-10-07T20:04:45Z*%
FMAT,2
ICI,OFF
METRIC,TZ,000.000
T2C0.813
T1C1.321
%
G90
M71
T1
X23299Y11065
X13291Y11065
X18295Y11065
T2
X39885Y7255
X52585Y7255
X55125Y7255
X42425Y7255
X44965Y7255
X50045Y7255
X47505Y7255
X57665Y7255
X57665Y14875
X55125Y14875
X52585Y14875
X50045Y14875
X47505Y14875
X44965Y14875
X42425Y14875
X39885Y14875
X37345Y14875
X13215Y25035
X13215Y22495
X81795Y25035
X81795Y22495
X20835Y25035
X20835Y22495
X28455Y25035
X28455Y22495
X36075Y25035
X36075Y22495
X43695Y25035
X43695Y22495
X51315Y25035
X51315Y22495
X58935Y25035
X58935Y22495
X79890Y9795
X66555Y22495
X74175Y25035
X74175Y22495
X65285Y7255
X65285Y14875
X66555Y25035
X70365Y7255
X74175Y14875
X74175Y7255
X79890Y12335
X37345Y7255
X70365Y14875
M30