G04 EAGLE Gerber X2 export*
%TF.Part,Single*%
%TF.FileFunction,Soldermask,Top,1*%
%TF.FilePolarity,Negative*%
%TF.GenerationSoftware,Autodesk,EAGLE,9.0.0*%
%TF.CreationDate,2019-10-07T20:04:45Z*%
G75*
%MOMM*%
%FSLAX34Y34*%
%LPD*%
%AMOC8*
5,1,8,0,0,1.08239X$1,22.5*%
G01*
%ADD10P,1.649562X8X112.500000*%
%ADD11C,1.524000*%
%ADD12P,1.649562X8X292.500000*%
%ADD13C,2.184400*%


D10*
X798900Y97950D03*
X798900Y123350D03*
D11*
X373450Y79154D02*
X373450Y65946D01*
X398850Y65946D02*
X398850Y79154D01*
X525850Y79154D02*
X525850Y65946D01*
X551250Y65946D02*
X551250Y79154D01*
X424250Y79154D02*
X424250Y65946D01*
X449650Y65946D02*
X449650Y79154D01*
X500450Y79154D02*
X500450Y65946D01*
X475050Y65946D02*
X475050Y79154D01*
X576650Y79154D02*
X576650Y65946D01*
X576650Y142146D02*
X576650Y155354D01*
X551250Y155354D02*
X551250Y142146D01*
X525850Y142146D02*
X525850Y155354D01*
X500450Y155354D02*
X500450Y142146D01*
X475050Y142146D02*
X475050Y155354D01*
X449650Y155354D02*
X449650Y142146D01*
X424250Y142146D02*
X424250Y155354D01*
X398850Y155354D02*
X398850Y142146D01*
X373450Y142146D02*
X373450Y155354D01*
D12*
X132150Y250350D03*
X132150Y224950D03*
X817950Y250350D03*
X817950Y224950D03*
X208350Y250350D03*
X208350Y224950D03*
X284550Y250350D03*
X284550Y224950D03*
X360750Y250350D03*
X360750Y224950D03*
X436950Y250350D03*
X436950Y224950D03*
X513150Y250350D03*
X513150Y224950D03*
X589350Y250350D03*
X589350Y224950D03*
X665550Y250350D03*
X665550Y224950D03*
X741750Y250350D03*
X741750Y224950D03*
D10*
X652850Y72550D03*
X652850Y148750D03*
D12*
X703650Y148750D03*
X703650Y72550D03*
X741750Y148750D03*
X741750Y72550D03*
D13*
X132912Y100744D02*
X132912Y120556D01*
X182950Y120556D02*
X182950Y100744D01*
X232988Y100744D02*
X232988Y120556D01*
M02*
