%
M48
M72
T01C0.02400
T02C0.03200
T03C0.03937
T04C0.04000
T05C0.04400
T06C0.11811
%
T01
X207475Y57550
X207475Y77550
T02
X190200Y77675
X180200Y77675
X156050Y81725
X136050Y81725
X131725Y93200
X112450Y89825
X112450Y79825
X112450Y69825
X112450Y59825
X131725Y56075
X136725Y43925
X156725Y43925
X161725Y56075
X180200Y57425
X190200Y57425
X232300Y62125
X232300Y52125
X232300Y42125
X232300Y32125
X232300Y22125
X262300Y22125
X262300Y32125
X262300Y42125
X262300Y52125
X262300Y62125
X262300Y72125
X262300Y82125
X275650Y75100
X262300Y92125
X275650Y95100
X262300Y102125
X262300Y112125
X262300Y122125
X262300Y132125
X262300Y142125
X262300Y152125
X247450Y166775
X232300Y152125
X232300Y142125
X232300Y132125
X232300Y122125
X232300Y112125
X232300Y102125
X232300Y92125
X232300Y82125
X232300Y72125
X161725Y93200
X156050Y118175
X136050Y118175
X131050Y130325
X112450Y119825
X112450Y109825
X112450Y99825
X82450Y99825
X82450Y109825
X82450Y119825
X54400Y120875
X54225Y135175
X54400Y148550
X69500Y154475
X79500Y154475
X95425Y154075
X106750Y147200
X106750Y161375
X95425Y174075
X79500Y184475
X69500Y184475
X24400Y148550
X24225Y135175
X24400Y120875
X82450Y89825
X82450Y79825
X82450Y69825
X82450Y59825
X161050Y130325
X172225Y147200
X172225Y161375
X202225Y161375
X217450Y166775
X202225Y147200
X136750Y147200
X136750Y161375
T03
X133100Y184325
X123100Y184325
X113100Y184325
X175875Y184325
X185875Y184325
X195875Y184325
X265650Y184325
X275650Y184325
X285650Y184325
X318025Y189725
X328025Y189725
X338025Y189725
X348025Y189725
X359925Y161725
X369925Y161725
X368400Y65525
X358400Y65525
X214100Y23000
X204100Y23000
X194100Y23000
X43050Y183650
X33050Y183650
T04
X219650Y176775
X245250Y176775
X245250Y194575
X219650Y194575
X216925Y133700
X216925Y118175
X216925Y104000
X294125Y30725
X304125Y30725
X314125Y30725
X324125Y30725
X334125Y30725
T05
X58050Y160700
X18050Y160700
T06
X11050Y18275
X10375Y197150
X369475Y196475
X370150Y18275
M30
