G75*
%MOIN*%
%OFA0B0*%
%FSLAX25Y25*%
%IPPOS*%
%LPD*%
%AMOC8*
5,1,8,0,0,1.08239X$1,22.5*
%
%ADD10C,0.05937*%
%ADD11C,0.05200*%
%ADD12OC8,0.05200*%
%ADD13C,0.06600*%
%ADD14C,0.04400*%
%ADD15C,0.06000*%
%ADD16OC8,0.06000*%
%ADD17OC8,0.06300*%
D10*
X0194100Y0020031D02*
X0194100Y0025969D01*
X0204100Y0025969D02*
X0204100Y0020031D01*
X0214100Y0020031D02*
X0214100Y0025969D01*
X0358400Y0062556D02*
X0358400Y0068494D01*
X0368400Y0068494D02*
X0368400Y0062556D01*
X0369925Y0158756D02*
X0369925Y0164694D01*
X0359925Y0164694D02*
X0359925Y0158756D01*
X0348025Y0186756D02*
X0348025Y0192694D01*
X0338025Y0192694D02*
X0338025Y0186756D01*
X0328025Y0186756D02*
X0328025Y0192694D01*
X0318025Y0192694D02*
X0318025Y0186756D01*
X0285650Y0187294D02*
X0285650Y0181356D01*
X0275650Y0181356D02*
X0275650Y0187294D01*
X0265650Y0187294D02*
X0265650Y0181356D01*
X0195875Y0181356D02*
X0195875Y0187294D01*
X0185875Y0187294D02*
X0185875Y0181356D01*
X0175875Y0181356D02*
X0175875Y0187294D01*
X0133100Y0187294D02*
X0133100Y0181356D01*
X0123100Y0181356D02*
X0123100Y0187294D01*
X0113100Y0187294D02*
X0113100Y0181356D01*
X0043050Y0180681D02*
X0043050Y0186619D01*
X0033050Y0186619D02*
X0033050Y0180681D01*
D11*
X0079850Y0059825D02*
X0085050Y0059825D01*
X0085050Y0069825D02*
X0079850Y0069825D01*
X0079850Y0079825D02*
X0085050Y0079825D01*
X0085050Y0089825D02*
X0079850Y0089825D01*
X0079850Y0099825D02*
X0085050Y0099825D01*
X0085050Y0109825D02*
X0079850Y0109825D01*
X0079850Y0119825D02*
X0085050Y0119825D01*
X0109850Y0119825D02*
X0115050Y0119825D01*
X0115050Y0109825D02*
X0109850Y0109825D01*
X0109850Y0099825D02*
X0115050Y0099825D01*
X0115050Y0089825D02*
X0109850Y0089825D01*
X0109850Y0079825D02*
X0115050Y0079825D01*
X0115050Y0069825D02*
X0109850Y0069825D01*
X0109850Y0059825D02*
X0115050Y0059825D01*
X0229700Y0062125D02*
X0234900Y0062125D01*
X0234900Y0052125D02*
X0229700Y0052125D01*
X0229700Y0042125D02*
X0234900Y0042125D01*
X0234900Y0032125D02*
X0229700Y0032125D01*
X0229700Y0022125D02*
X0234900Y0022125D01*
X0259700Y0022125D02*
X0264900Y0022125D01*
X0264900Y0032125D02*
X0259700Y0032125D01*
X0259700Y0042125D02*
X0264900Y0042125D01*
X0264900Y0052125D02*
X0259700Y0052125D01*
X0259700Y0062125D02*
X0264900Y0062125D01*
X0264900Y0072125D02*
X0259700Y0072125D01*
X0259700Y0082125D02*
X0264900Y0082125D01*
X0264900Y0092125D02*
X0259700Y0092125D01*
X0259700Y0102125D02*
X0264900Y0102125D01*
X0264900Y0112125D02*
X0259700Y0112125D01*
X0259700Y0122125D02*
X0264900Y0122125D01*
X0264900Y0132125D02*
X0259700Y0132125D01*
X0259700Y0142125D02*
X0264900Y0142125D01*
X0264900Y0152125D02*
X0259700Y0152125D01*
X0234900Y0152125D02*
X0229700Y0152125D01*
X0229700Y0142125D02*
X0234900Y0142125D01*
X0234900Y0132125D02*
X0229700Y0132125D01*
X0229700Y0122125D02*
X0234900Y0122125D01*
X0234900Y0112125D02*
X0229700Y0112125D01*
X0229700Y0102125D02*
X0234900Y0102125D01*
X0234900Y0092125D02*
X0229700Y0092125D01*
X0229700Y0082125D02*
X0234900Y0082125D01*
X0234900Y0072125D02*
X0229700Y0072125D01*
X0079500Y0149275D02*
X0079500Y0154475D01*
X0069500Y0154475D02*
X0069500Y0149275D01*
X0104150Y0161375D02*
X0109350Y0161375D01*
X0134150Y0161375D02*
X0139350Y0161375D01*
X0169625Y0161375D02*
X0174825Y0161375D01*
X0199625Y0161375D02*
X0204825Y0161375D01*
X0079500Y0184475D02*
X0079500Y0189675D01*
X0069500Y0189675D02*
X0069500Y0184475D01*
D12*
X0054400Y0148550D03*
X0054225Y0135175D03*
X0054400Y0120875D03*
X0024400Y0120875D03*
X0024225Y0135175D03*
X0024400Y0148550D03*
X0106750Y0147200D03*
X0136750Y0147200D03*
X0131050Y0130325D03*
X0161050Y0130325D03*
X0172225Y0147200D03*
X0202225Y0147200D03*
X0217450Y0166775D03*
X0247450Y0166775D03*
X0161725Y0093200D03*
X0180200Y0077675D03*
X0190200Y0077675D03*
X0190200Y0057425D03*
X0180200Y0057425D03*
X0161725Y0056075D03*
X0131725Y0056075D03*
X0131725Y0093200D03*
D13*
X0058050Y0160700D03*
X0018050Y0160700D03*
D14*
X0205275Y0077550D02*
X0209675Y0077550D01*
X0209675Y0057550D02*
X0205275Y0057550D01*
D15*
X0294125Y0033725D02*
X0294125Y0027725D01*
X0304125Y0027725D02*
X0304125Y0033725D01*
X0314125Y0033725D02*
X0314125Y0027725D01*
X0324125Y0027725D02*
X0324125Y0033725D01*
X0334125Y0033725D02*
X0334125Y0027725D01*
X0248250Y0176775D02*
X0242250Y0176775D01*
X0222650Y0176775D02*
X0216650Y0176775D01*
X0216650Y0194575D02*
X0222650Y0194575D01*
X0242250Y0194575D02*
X0248250Y0194575D01*
D16*
X0216925Y0133700D03*
X0216925Y0118175D03*
X0216925Y0104000D03*
D17*
X0275650Y0095100D03*
X0275650Y0075100D03*
X0156050Y0081725D03*
X0136050Y0081725D03*
X0136050Y0118175D03*
X0156050Y0118175D03*
X0095425Y0154075D03*
X0095425Y0174075D03*
X0136725Y0043925D03*
X0156725Y0043925D03*
M02*
