G75*
%MOIN*%
%OFA0B0*%
%FSLAX25Y25*%
%IPPOS*%
%LPD*%
%AMOC8*
5,1,8,0,0,1.08239X$1,22.5*
%
%ADD10C,0.00000*%
%ADD11C,0.00600*%
%ADD12C,0.00500*%
%ADD13R,0.02000X0.10000*%
%ADD14R,0.07500X0.03000*%
%ADD15R,0.01500X0.07000*%
%ADD16R,0.05500X0.02000*%
%ADD17C,0.00700*%
%ADD18C,0.00200*%
%ADD19C,0.01000*%
%ADD20C,0.00400*%
%ADD21C,0.01200*%
D10*
X0001600Y0008825D02*
X0001600Y0205925D01*
X0379600Y0205925D01*
X0379600Y0008825D01*
X0001600Y0008825D01*
X0005144Y0018275D02*
X0005146Y0018428D01*
X0005152Y0018582D01*
X0005162Y0018735D01*
X0005176Y0018887D01*
X0005194Y0019040D01*
X0005216Y0019191D01*
X0005241Y0019342D01*
X0005271Y0019493D01*
X0005305Y0019643D01*
X0005342Y0019791D01*
X0005383Y0019939D01*
X0005428Y0020085D01*
X0005477Y0020231D01*
X0005530Y0020375D01*
X0005586Y0020517D01*
X0005646Y0020658D01*
X0005710Y0020798D01*
X0005777Y0020936D01*
X0005848Y0021072D01*
X0005923Y0021206D01*
X0006000Y0021338D01*
X0006082Y0021468D01*
X0006166Y0021596D01*
X0006254Y0021722D01*
X0006345Y0021845D01*
X0006439Y0021966D01*
X0006537Y0022084D01*
X0006637Y0022200D01*
X0006741Y0022313D01*
X0006847Y0022424D01*
X0006956Y0022532D01*
X0007068Y0022637D01*
X0007182Y0022738D01*
X0007300Y0022837D01*
X0007419Y0022933D01*
X0007541Y0023026D01*
X0007666Y0023115D01*
X0007793Y0023202D01*
X0007922Y0023284D01*
X0008053Y0023364D01*
X0008186Y0023440D01*
X0008321Y0023513D01*
X0008458Y0023582D01*
X0008597Y0023647D01*
X0008737Y0023709D01*
X0008879Y0023767D01*
X0009022Y0023822D01*
X0009167Y0023873D01*
X0009313Y0023920D01*
X0009460Y0023963D01*
X0009608Y0024002D01*
X0009757Y0024038D01*
X0009907Y0024069D01*
X0010058Y0024097D01*
X0010209Y0024121D01*
X0010362Y0024141D01*
X0010514Y0024157D01*
X0010667Y0024169D01*
X0010820Y0024177D01*
X0010973Y0024181D01*
X0011127Y0024181D01*
X0011280Y0024177D01*
X0011433Y0024169D01*
X0011586Y0024157D01*
X0011738Y0024141D01*
X0011891Y0024121D01*
X0012042Y0024097D01*
X0012193Y0024069D01*
X0012343Y0024038D01*
X0012492Y0024002D01*
X0012640Y0023963D01*
X0012787Y0023920D01*
X0012933Y0023873D01*
X0013078Y0023822D01*
X0013221Y0023767D01*
X0013363Y0023709D01*
X0013503Y0023647D01*
X0013642Y0023582D01*
X0013779Y0023513D01*
X0013914Y0023440D01*
X0014047Y0023364D01*
X0014178Y0023284D01*
X0014307Y0023202D01*
X0014434Y0023115D01*
X0014559Y0023026D01*
X0014681Y0022933D01*
X0014800Y0022837D01*
X0014918Y0022738D01*
X0015032Y0022637D01*
X0015144Y0022532D01*
X0015253Y0022424D01*
X0015359Y0022313D01*
X0015463Y0022200D01*
X0015563Y0022084D01*
X0015661Y0021966D01*
X0015755Y0021845D01*
X0015846Y0021722D01*
X0015934Y0021596D01*
X0016018Y0021468D01*
X0016100Y0021338D01*
X0016177Y0021206D01*
X0016252Y0021072D01*
X0016323Y0020936D01*
X0016390Y0020798D01*
X0016454Y0020658D01*
X0016514Y0020517D01*
X0016570Y0020375D01*
X0016623Y0020231D01*
X0016672Y0020085D01*
X0016717Y0019939D01*
X0016758Y0019791D01*
X0016795Y0019643D01*
X0016829Y0019493D01*
X0016859Y0019342D01*
X0016884Y0019191D01*
X0016906Y0019040D01*
X0016924Y0018887D01*
X0016938Y0018735D01*
X0016948Y0018582D01*
X0016954Y0018428D01*
X0016956Y0018275D01*
X0016954Y0018122D01*
X0016948Y0017968D01*
X0016938Y0017815D01*
X0016924Y0017663D01*
X0016906Y0017510D01*
X0016884Y0017359D01*
X0016859Y0017208D01*
X0016829Y0017057D01*
X0016795Y0016907D01*
X0016758Y0016759D01*
X0016717Y0016611D01*
X0016672Y0016465D01*
X0016623Y0016319D01*
X0016570Y0016175D01*
X0016514Y0016033D01*
X0016454Y0015892D01*
X0016390Y0015752D01*
X0016323Y0015614D01*
X0016252Y0015478D01*
X0016177Y0015344D01*
X0016100Y0015212D01*
X0016018Y0015082D01*
X0015934Y0014954D01*
X0015846Y0014828D01*
X0015755Y0014705D01*
X0015661Y0014584D01*
X0015563Y0014466D01*
X0015463Y0014350D01*
X0015359Y0014237D01*
X0015253Y0014126D01*
X0015144Y0014018D01*
X0015032Y0013913D01*
X0014918Y0013812D01*
X0014800Y0013713D01*
X0014681Y0013617D01*
X0014559Y0013524D01*
X0014434Y0013435D01*
X0014307Y0013348D01*
X0014178Y0013266D01*
X0014047Y0013186D01*
X0013914Y0013110D01*
X0013779Y0013037D01*
X0013642Y0012968D01*
X0013503Y0012903D01*
X0013363Y0012841D01*
X0013221Y0012783D01*
X0013078Y0012728D01*
X0012933Y0012677D01*
X0012787Y0012630D01*
X0012640Y0012587D01*
X0012492Y0012548D01*
X0012343Y0012512D01*
X0012193Y0012481D01*
X0012042Y0012453D01*
X0011891Y0012429D01*
X0011738Y0012409D01*
X0011586Y0012393D01*
X0011433Y0012381D01*
X0011280Y0012373D01*
X0011127Y0012369D01*
X0010973Y0012369D01*
X0010820Y0012373D01*
X0010667Y0012381D01*
X0010514Y0012393D01*
X0010362Y0012409D01*
X0010209Y0012429D01*
X0010058Y0012453D01*
X0009907Y0012481D01*
X0009757Y0012512D01*
X0009608Y0012548D01*
X0009460Y0012587D01*
X0009313Y0012630D01*
X0009167Y0012677D01*
X0009022Y0012728D01*
X0008879Y0012783D01*
X0008737Y0012841D01*
X0008597Y0012903D01*
X0008458Y0012968D01*
X0008321Y0013037D01*
X0008186Y0013110D01*
X0008053Y0013186D01*
X0007922Y0013266D01*
X0007793Y0013348D01*
X0007666Y0013435D01*
X0007541Y0013524D01*
X0007419Y0013617D01*
X0007300Y0013713D01*
X0007182Y0013812D01*
X0007068Y0013913D01*
X0006956Y0014018D01*
X0006847Y0014126D01*
X0006741Y0014237D01*
X0006637Y0014350D01*
X0006537Y0014466D01*
X0006439Y0014584D01*
X0006345Y0014705D01*
X0006254Y0014828D01*
X0006166Y0014954D01*
X0006082Y0015082D01*
X0006000Y0015212D01*
X0005923Y0015344D01*
X0005848Y0015478D01*
X0005777Y0015614D01*
X0005710Y0015752D01*
X0005646Y0015892D01*
X0005586Y0016033D01*
X0005530Y0016175D01*
X0005477Y0016319D01*
X0005428Y0016465D01*
X0005383Y0016611D01*
X0005342Y0016759D01*
X0005305Y0016907D01*
X0005271Y0017057D01*
X0005241Y0017208D01*
X0005216Y0017359D01*
X0005194Y0017510D01*
X0005176Y0017663D01*
X0005162Y0017815D01*
X0005152Y0017968D01*
X0005146Y0018122D01*
X0005144Y0018275D01*
X0004469Y0197150D02*
X0004471Y0197303D01*
X0004477Y0197457D01*
X0004487Y0197610D01*
X0004501Y0197762D01*
X0004519Y0197915D01*
X0004541Y0198066D01*
X0004566Y0198217D01*
X0004596Y0198368D01*
X0004630Y0198518D01*
X0004667Y0198666D01*
X0004708Y0198814D01*
X0004753Y0198960D01*
X0004802Y0199106D01*
X0004855Y0199250D01*
X0004911Y0199392D01*
X0004971Y0199533D01*
X0005035Y0199673D01*
X0005102Y0199811D01*
X0005173Y0199947D01*
X0005248Y0200081D01*
X0005325Y0200213D01*
X0005407Y0200343D01*
X0005491Y0200471D01*
X0005579Y0200597D01*
X0005670Y0200720D01*
X0005764Y0200841D01*
X0005862Y0200959D01*
X0005962Y0201075D01*
X0006066Y0201188D01*
X0006172Y0201299D01*
X0006281Y0201407D01*
X0006393Y0201512D01*
X0006507Y0201613D01*
X0006625Y0201712D01*
X0006744Y0201808D01*
X0006866Y0201901D01*
X0006991Y0201990D01*
X0007118Y0202077D01*
X0007247Y0202159D01*
X0007378Y0202239D01*
X0007511Y0202315D01*
X0007646Y0202388D01*
X0007783Y0202457D01*
X0007922Y0202522D01*
X0008062Y0202584D01*
X0008204Y0202642D01*
X0008347Y0202697D01*
X0008492Y0202748D01*
X0008638Y0202795D01*
X0008785Y0202838D01*
X0008933Y0202877D01*
X0009082Y0202913D01*
X0009232Y0202944D01*
X0009383Y0202972D01*
X0009534Y0202996D01*
X0009687Y0203016D01*
X0009839Y0203032D01*
X0009992Y0203044D01*
X0010145Y0203052D01*
X0010298Y0203056D01*
X0010452Y0203056D01*
X0010605Y0203052D01*
X0010758Y0203044D01*
X0010911Y0203032D01*
X0011063Y0203016D01*
X0011216Y0202996D01*
X0011367Y0202972D01*
X0011518Y0202944D01*
X0011668Y0202913D01*
X0011817Y0202877D01*
X0011965Y0202838D01*
X0012112Y0202795D01*
X0012258Y0202748D01*
X0012403Y0202697D01*
X0012546Y0202642D01*
X0012688Y0202584D01*
X0012828Y0202522D01*
X0012967Y0202457D01*
X0013104Y0202388D01*
X0013239Y0202315D01*
X0013372Y0202239D01*
X0013503Y0202159D01*
X0013632Y0202077D01*
X0013759Y0201990D01*
X0013884Y0201901D01*
X0014006Y0201808D01*
X0014125Y0201712D01*
X0014243Y0201613D01*
X0014357Y0201512D01*
X0014469Y0201407D01*
X0014578Y0201299D01*
X0014684Y0201188D01*
X0014788Y0201075D01*
X0014888Y0200959D01*
X0014986Y0200841D01*
X0015080Y0200720D01*
X0015171Y0200597D01*
X0015259Y0200471D01*
X0015343Y0200343D01*
X0015425Y0200213D01*
X0015502Y0200081D01*
X0015577Y0199947D01*
X0015648Y0199811D01*
X0015715Y0199673D01*
X0015779Y0199533D01*
X0015839Y0199392D01*
X0015895Y0199250D01*
X0015948Y0199106D01*
X0015997Y0198960D01*
X0016042Y0198814D01*
X0016083Y0198666D01*
X0016120Y0198518D01*
X0016154Y0198368D01*
X0016184Y0198217D01*
X0016209Y0198066D01*
X0016231Y0197915D01*
X0016249Y0197762D01*
X0016263Y0197610D01*
X0016273Y0197457D01*
X0016279Y0197303D01*
X0016281Y0197150D01*
X0016279Y0196997D01*
X0016273Y0196843D01*
X0016263Y0196690D01*
X0016249Y0196538D01*
X0016231Y0196385D01*
X0016209Y0196234D01*
X0016184Y0196083D01*
X0016154Y0195932D01*
X0016120Y0195782D01*
X0016083Y0195634D01*
X0016042Y0195486D01*
X0015997Y0195340D01*
X0015948Y0195194D01*
X0015895Y0195050D01*
X0015839Y0194908D01*
X0015779Y0194767D01*
X0015715Y0194627D01*
X0015648Y0194489D01*
X0015577Y0194353D01*
X0015502Y0194219D01*
X0015425Y0194087D01*
X0015343Y0193957D01*
X0015259Y0193829D01*
X0015171Y0193703D01*
X0015080Y0193580D01*
X0014986Y0193459D01*
X0014888Y0193341D01*
X0014788Y0193225D01*
X0014684Y0193112D01*
X0014578Y0193001D01*
X0014469Y0192893D01*
X0014357Y0192788D01*
X0014243Y0192687D01*
X0014125Y0192588D01*
X0014006Y0192492D01*
X0013884Y0192399D01*
X0013759Y0192310D01*
X0013632Y0192223D01*
X0013503Y0192141D01*
X0013372Y0192061D01*
X0013239Y0191985D01*
X0013104Y0191912D01*
X0012967Y0191843D01*
X0012828Y0191778D01*
X0012688Y0191716D01*
X0012546Y0191658D01*
X0012403Y0191603D01*
X0012258Y0191552D01*
X0012112Y0191505D01*
X0011965Y0191462D01*
X0011817Y0191423D01*
X0011668Y0191387D01*
X0011518Y0191356D01*
X0011367Y0191328D01*
X0011216Y0191304D01*
X0011063Y0191284D01*
X0010911Y0191268D01*
X0010758Y0191256D01*
X0010605Y0191248D01*
X0010452Y0191244D01*
X0010298Y0191244D01*
X0010145Y0191248D01*
X0009992Y0191256D01*
X0009839Y0191268D01*
X0009687Y0191284D01*
X0009534Y0191304D01*
X0009383Y0191328D01*
X0009232Y0191356D01*
X0009082Y0191387D01*
X0008933Y0191423D01*
X0008785Y0191462D01*
X0008638Y0191505D01*
X0008492Y0191552D01*
X0008347Y0191603D01*
X0008204Y0191658D01*
X0008062Y0191716D01*
X0007922Y0191778D01*
X0007783Y0191843D01*
X0007646Y0191912D01*
X0007511Y0191985D01*
X0007378Y0192061D01*
X0007247Y0192141D01*
X0007118Y0192223D01*
X0006991Y0192310D01*
X0006866Y0192399D01*
X0006744Y0192492D01*
X0006625Y0192588D01*
X0006507Y0192687D01*
X0006393Y0192788D01*
X0006281Y0192893D01*
X0006172Y0193001D01*
X0006066Y0193112D01*
X0005962Y0193225D01*
X0005862Y0193341D01*
X0005764Y0193459D01*
X0005670Y0193580D01*
X0005579Y0193703D01*
X0005491Y0193829D01*
X0005407Y0193957D01*
X0005325Y0194087D01*
X0005248Y0194219D01*
X0005173Y0194353D01*
X0005102Y0194489D01*
X0005035Y0194627D01*
X0004971Y0194767D01*
X0004911Y0194908D01*
X0004855Y0195050D01*
X0004802Y0195194D01*
X0004753Y0195340D01*
X0004708Y0195486D01*
X0004667Y0195634D01*
X0004630Y0195782D01*
X0004596Y0195932D01*
X0004566Y0196083D01*
X0004541Y0196234D01*
X0004519Y0196385D01*
X0004501Y0196538D01*
X0004487Y0196690D01*
X0004477Y0196843D01*
X0004471Y0196997D01*
X0004469Y0197150D01*
X0363569Y0196475D02*
X0363571Y0196628D01*
X0363577Y0196782D01*
X0363587Y0196935D01*
X0363601Y0197087D01*
X0363619Y0197240D01*
X0363641Y0197391D01*
X0363666Y0197542D01*
X0363696Y0197693D01*
X0363730Y0197843D01*
X0363767Y0197991D01*
X0363808Y0198139D01*
X0363853Y0198285D01*
X0363902Y0198431D01*
X0363955Y0198575D01*
X0364011Y0198717D01*
X0364071Y0198858D01*
X0364135Y0198998D01*
X0364202Y0199136D01*
X0364273Y0199272D01*
X0364348Y0199406D01*
X0364425Y0199538D01*
X0364507Y0199668D01*
X0364591Y0199796D01*
X0364679Y0199922D01*
X0364770Y0200045D01*
X0364864Y0200166D01*
X0364962Y0200284D01*
X0365062Y0200400D01*
X0365166Y0200513D01*
X0365272Y0200624D01*
X0365381Y0200732D01*
X0365493Y0200837D01*
X0365607Y0200938D01*
X0365725Y0201037D01*
X0365844Y0201133D01*
X0365966Y0201226D01*
X0366091Y0201315D01*
X0366218Y0201402D01*
X0366347Y0201484D01*
X0366478Y0201564D01*
X0366611Y0201640D01*
X0366746Y0201713D01*
X0366883Y0201782D01*
X0367022Y0201847D01*
X0367162Y0201909D01*
X0367304Y0201967D01*
X0367447Y0202022D01*
X0367592Y0202073D01*
X0367738Y0202120D01*
X0367885Y0202163D01*
X0368033Y0202202D01*
X0368182Y0202238D01*
X0368332Y0202269D01*
X0368483Y0202297D01*
X0368634Y0202321D01*
X0368787Y0202341D01*
X0368939Y0202357D01*
X0369092Y0202369D01*
X0369245Y0202377D01*
X0369398Y0202381D01*
X0369552Y0202381D01*
X0369705Y0202377D01*
X0369858Y0202369D01*
X0370011Y0202357D01*
X0370163Y0202341D01*
X0370316Y0202321D01*
X0370467Y0202297D01*
X0370618Y0202269D01*
X0370768Y0202238D01*
X0370917Y0202202D01*
X0371065Y0202163D01*
X0371212Y0202120D01*
X0371358Y0202073D01*
X0371503Y0202022D01*
X0371646Y0201967D01*
X0371788Y0201909D01*
X0371928Y0201847D01*
X0372067Y0201782D01*
X0372204Y0201713D01*
X0372339Y0201640D01*
X0372472Y0201564D01*
X0372603Y0201484D01*
X0372732Y0201402D01*
X0372859Y0201315D01*
X0372984Y0201226D01*
X0373106Y0201133D01*
X0373225Y0201037D01*
X0373343Y0200938D01*
X0373457Y0200837D01*
X0373569Y0200732D01*
X0373678Y0200624D01*
X0373784Y0200513D01*
X0373888Y0200400D01*
X0373988Y0200284D01*
X0374086Y0200166D01*
X0374180Y0200045D01*
X0374271Y0199922D01*
X0374359Y0199796D01*
X0374443Y0199668D01*
X0374525Y0199538D01*
X0374602Y0199406D01*
X0374677Y0199272D01*
X0374748Y0199136D01*
X0374815Y0198998D01*
X0374879Y0198858D01*
X0374939Y0198717D01*
X0374995Y0198575D01*
X0375048Y0198431D01*
X0375097Y0198285D01*
X0375142Y0198139D01*
X0375183Y0197991D01*
X0375220Y0197843D01*
X0375254Y0197693D01*
X0375284Y0197542D01*
X0375309Y0197391D01*
X0375331Y0197240D01*
X0375349Y0197087D01*
X0375363Y0196935D01*
X0375373Y0196782D01*
X0375379Y0196628D01*
X0375381Y0196475D01*
X0375379Y0196322D01*
X0375373Y0196168D01*
X0375363Y0196015D01*
X0375349Y0195863D01*
X0375331Y0195710D01*
X0375309Y0195559D01*
X0375284Y0195408D01*
X0375254Y0195257D01*
X0375220Y0195107D01*
X0375183Y0194959D01*
X0375142Y0194811D01*
X0375097Y0194665D01*
X0375048Y0194519D01*
X0374995Y0194375D01*
X0374939Y0194233D01*
X0374879Y0194092D01*
X0374815Y0193952D01*
X0374748Y0193814D01*
X0374677Y0193678D01*
X0374602Y0193544D01*
X0374525Y0193412D01*
X0374443Y0193282D01*
X0374359Y0193154D01*
X0374271Y0193028D01*
X0374180Y0192905D01*
X0374086Y0192784D01*
X0373988Y0192666D01*
X0373888Y0192550D01*
X0373784Y0192437D01*
X0373678Y0192326D01*
X0373569Y0192218D01*
X0373457Y0192113D01*
X0373343Y0192012D01*
X0373225Y0191913D01*
X0373106Y0191817D01*
X0372984Y0191724D01*
X0372859Y0191635D01*
X0372732Y0191548D01*
X0372603Y0191466D01*
X0372472Y0191386D01*
X0372339Y0191310D01*
X0372204Y0191237D01*
X0372067Y0191168D01*
X0371928Y0191103D01*
X0371788Y0191041D01*
X0371646Y0190983D01*
X0371503Y0190928D01*
X0371358Y0190877D01*
X0371212Y0190830D01*
X0371065Y0190787D01*
X0370917Y0190748D01*
X0370768Y0190712D01*
X0370618Y0190681D01*
X0370467Y0190653D01*
X0370316Y0190629D01*
X0370163Y0190609D01*
X0370011Y0190593D01*
X0369858Y0190581D01*
X0369705Y0190573D01*
X0369552Y0190569D01*
X0369398Y0190569D01*
X0369245Y0190573D01*
X0369092Y0190581D01*
X0368939Y0190593D01*
X0368787Y0190609D01*
X0368634Y0190629D01*
X0368483Y0190653D01*
X0368332Y0190681D01*
X0368182Y0190712D01*
X0368033Y0190748D01*
X0367885Y0190787D01*
X0367738Y0190830D01*
X0367592Y0190877D01*
X0367447Y0190928D01*
X0367304Y0190983D01*
X0367162Y0191041D01*
X0367022Y0191103D01*
X0366883Y0191168D01*
X0366746Y0191237D01*
X0366611Y0191310D01*
X0366478Y0191386D01*
X0366347Y0191466D01*
X0366218Y0191548D01*
X0366091Y0191635D01*
X0365966Y0191724D01*
X0365844Y0191817D01*
X0365725Y0191913D01*
X0365607Y0192012D01*
X0365493Y0192113D01*
X0365381Y0192218D01*
X0365272Y0192326D01*
X0365166Y0192437D01*
X0365062Y0192550D01*
X0364962Y0192666D01*
X0364864Y0192784D01*
X0364770Y0192905D01*
X0364679Y0193028D01*
X0364591Y0193154D01*
X0364507Y0193282D01*
X0364425Y0193412D01*
X0364348Y0193544D01*
X0364273Y0193678D01*
X0364202Y0193814D01*
X0364135Y0193952D01*
X0364071Y0194092D01*
X0364011Y0194233D01*
X0363955Y0194375D01*
X0363902Y0194519D01*
X0363853Y0194665D01*
X0363808Y0194811D01*
X0363767Y0194959D01*
X0363730Y0195107D01*
X0363696Y0195257D01*
X0363666Y0195408D01*
X0363641Y0195559D01*
X0363619Y0195710D01*
X0363601Y0195863D01*
X0363587Y0196015D01*
X0363577Y0196168D01*
X0363571Y0196322D01*
X0363569Y0196475D01*
X0364244Y0018275D02*
X0364246Y0018428D01*
X0364252Y0018582D01*
X0364262Y0018735D01*
X0364276Y0018887D01*
X0364294Y0019040D01*
X0364316Y0019191D01*
X0364341Y0019342D01*
X0364371Y0019493D01*
X0364405Y0019643D01*
X0364442Y0019791D01*
X0364483Y0019939D01*
X0364528Y0020085D01*
X0364577Y0020231D01*
X0364630Y0020375D01*
X0364686Y0020517D01*
X0364746Y0020658D01*
X0364810Y0020798D01*
X0364877Y0020936D01*
X0364948Y0021072D01*
X0365023Y0021206D01*
X0365100Y0021338D01*
X0365182Y0021468D01*
X0365266Y0021596D01*
X0365354Y0021722D01*
X0365445Y0021845D01*
X0365539Y0021966D01*
X0365637Y0022084D01*
X0365737Y0022200D01*
X0365841Y0022313D01*
X0365947Y0022424D01*
X0366056Y0022532D01*
X0366168Y0022637D01*
X0366282Y0022738D01*
X0366400Y0022837D01*
X0366519Y0022933D01*
X0366641Y0023026D01*
X0366766Y0023115D01*
X0366893Y0023202D01*
X0367022Y0023284D01*
X0367153Y0023364D01*
X0367286Y0023440D01*
X0367421Y0023513D01*
X0367558Y0023582D01*
X0367697Y0023647D01*
X0367837Y0023709D01*
X0367979Y0023767D01*
X0368122Y0023822D01*
X0368267Y0023873D01*
X0368413Y0023920D01*
X0368560Y0023963D01*
X0368708Y0024002D01*
X0368857Y0024038D01*
X0369007Y0024069D01*
X0369158Y0024097D01*
X0369309Y0024121D01*
X0369462Y0024141D01*
X0369614Y0024157D01*
X0369767Y0024169D01*
X0369920Y0024177D01*
X0370073Y0024181D01*
X0370227Y0024181D01*
X0370380Y0024177D01*
X0370533Y0024169D01*
X0370686Y0024157D01*
X0370838Y0024141D01*
X0370991Y0024121D01*
X0371142Y0024097D01*
X0371293Y0024069D01*
X0371443Y0024038D01*
X0371592Y0024002D01*
X0371740Y0023963D01*
X0371887Y0023920D01*
X0372033Y0023873D01*
X0372178Y0023822D01*
X0372321Y0023767D01*
X0372463Y0023709D01*
X0372603Y0023647D01*
X0372742Y0023582D01*
X0372879Y0023513D01*
X0373014Y0023440D01*
X0373147Y0023364D01*
X0373278Y0023284D01*
X0373407Y0023202D01*
X0373534Y0023115D01*
X0373659Y0023026D01*
X0373781Y0022933D01*
X0373900Y0022837D01*
X0374018Y0022738D01*
X0374132Y0022637D01*
X0374244Y0022532D01*
X0374353Y0022424D01*
X0374459Y0022313D01*
X0374563Y0022200D01*
X0374663Y0022084D01*
X0374761Y0021966D01*
X0374855Y0021845D01*
X0374946Y0021722D01*
X0375034Y0021596D01*
X0375118Y0021468D01*
X0375200Y0021338D01*
X0375277Y0021206D01*
X0375352Y0021072D01*
X0375423Y0020936D01*
X0375490Y0020798D01*
X0375554Y0020658D01*
X0375614Y0020517D01*
X0375670Y0020375D01*
X0375723Y0020231D01*
X0375772Y0020085D01*
X0375817Y0019939D01*
X0375858Y0019791D01*
X0375895Y0019643D01*
X0375929Y0019493D01*
X0375959Y0019342D01*
X0375984Y0019191D01*
X0376006Y0019040D01*
X0376024Y0018887D01*
X0376038Y0018735D01*
X0376048Y0018582D01*
X0376054Y0018428D01*
X0376056Y0018275D01*
X0376054Y0018122D01*
X0376048Y0017968D01*
X0376038Y0017815D01*
X0376024Y0017663D01*
X0376006Y0017510D01*
X0375984Y0017359D01*
X0375959Y0017208D01*
X0375929Y0017057D01*
X0375895Y0016907D01*
X0375858Y0016759D01*
X0375817Y0016611D01*
X0375772Y0016465D01*
X0375723Y0016319D01*
X0375670Y0016175D01*
X0375614Y0016033D01*
X0375554Y0015892D01*
X0375490Y0015752D01*
X0375423Y0015614D01*
X0375352Y0015478D01*
X0375277Y0015344D01*
X0375200Y0015212D01*
X0375118Y0015082D01*
X0375034Y0014954D01*
X0374946Y0014828D01*
X0374855Y0014705D01*
X0374761Y0014584D01*
X0374663Y0014466D01*
X0374563Y0014350D01*
X0374459Y0014237D01*
X0374353Y0014126D01*
X0374244Y0014018D01*
X0374132Y0013913D01*
X0374018Y0013812D01*
X0373900Y0013713D01*
X0373781Y0013617D01*
X0373659Y0013524D01*
X0373534Y0013435D01*
X0373407Y0013348D01*
X0373278Y0013266D01*
X0373147Y0013186D01*
X0373014Y0013110D01*
X0372879Y0013037D01*
X0372742Y0012968D01*
X0372603Y0012903D01*
X0372463Y0012841D01*
X0372321Y0012783D01*
X0372178Y0012728D01*
X0372033Y0012677D01*
X0371887Y0012630D01*
X0371740Y0012587D01*
X0371592Y0012548D01*
X0371443Y0012512D01*
X0371293Y0012481D01*
X0371142Y0012453D01*
X0370991Y0012429D01*
X0370838Y0012409D01*
X0370686Y0012393D01*
X0370533Y0012381D01*
X0370380Y0012373D01*
X0370227Y0012369D01*
X0370073Y0012369D01*
X0369920Y0012373D01*
X0369767Y0012381D01*
X0369614Y0012393D01*
X0369462Y0012409D01*
X0369309Y0012429D01*
X0369158Y0012453D01*
X0369007Y0012481D01*
X0368857Y0012512D01*
X0368708Y0012548D01*
X0368560Y0012587D01*
X0368413Y0012630D01*
X0368267Y0012677D01*
X0368122Y0012728D01*
X0367979Y0012783D01*
X0367837Y0012841D01*
X0367697Y0012903D01*
X0367558Y0012968D01*
X0367421Y0013037D01*
X0367286Y0013110D01*
X0367153Y0013186D01*
X0367022Y0013266D01*
X0366893Y0013348D01*
X0366766Y0013435D01*
X0366641Y0013524D01*
X0366519Y0013617D01*
X0366400Y0013713D01*
X0366282Y0013812D01*
X0366168Y0013913D01*
X0366056Y0014018D01*
X0365947Y0014126D01*
X0365841Y0014237D01*
X0365737Y0014350D01*
X0365637Y0014466D01*
X0365539Y0014584D01*
X0365445Y0014705D01*
X0365354Y0014828D01*
X0365266Y0014954D01*
X0365182Y0015082D01*
X0365100Y0015212D01*
X0365023Y0015344D01*
X0364948Y0015478D01*
X0364877Y0015614D01*
X0364810Y0015752D01*
X0364746Y0015892D01*
X0364686Y0016033D01*
X0364630Y0016175D01*
X0364577Y0016319D01*
X0364528Y0016465D01*
X0364483Y0016611D01*
X0364442Y0016759D01*
X0364405Y0016907D01*
X0364371Y0017057D01*
X0364341Y0017208D01*
X0364316Y0017359D01*
X0364294Y0017510D01*
X0364276Y0017663D01*
X0364262Y0017815D01*
X0364252Y0017968D01*
X0364246Y0018122D01*
X0364244Y0018275D01*
D11*
X0339125Y0023200D02*
X0336625Y0020700D01*
X0331625Y0020700D01*
X0329125Y0023200D01*
X0326625Y0020700D01*
X0321625Y0020700D01*
X0319125Y0023200D01*
X0316625Y0020700D01*
X0311625Y0020700D01*
X0309125Y0023200D01*
X0306625Y0020700D01*
X0301625Y0020700D01*
X0299125Y0023200D01*
X0296625Y0020700D01*
X0291625Y0020700D01*
X0289125Y0023200D01*
X0289125Y0028200D01*
X0291625Y0030700D01*
X0296625Y0030700D01*
X0299125Y0028200D01*
X0301625Y0030700D01*
X0306625Y0030700D01*
X0309125Y0028200D01*
X0311625Y0030700D01*
X0316625Y0030700D01*
X0319125Y0028200D01*
X0321625Y0030700D01*
X0326625Y0030700D01*
X0329125Y0028200D01*
X0331625Y0030700D01*
X0336625Y0030700D01*
X0339125Y0028200D01*
X0339125Y0023200D01*
X0258300Y0014125D02*
X0236300Y0014125D01*
X0236300Y0160125D01*
X0244800Y0160125D01*
X0243950Y0162275D02*
X0242450Y0162275D01*
X0241950Y0162775D01*
X0222950Y0162775D01*
X0222450Y0162275D01*
X0220950Y0162275D01*
X0220890Y0162277D01*
X0220829Y0162282D01*
X0220770Y0162291D01*
X0220711Y0162304D01*
X0220652Y0162320D01*
X0220595Y0162340D01*
X0220540Y0162363D01*
X0220485Y0162390D01*
X0220433Y0162419D01*
X0220382Y0162452D01*
X0220333Y0162488D01*
X0220287Y0162526D01*
X0220243Y0162568D01*
X0220201Y0162612D01*
X0220163Y0162658D01*
X0220127Y0162707D01*
X0220094Y0162758D01*
X0220065Y0162810D01*
X0220038Y0162865D01*
X0220015Y0162920D01*
X0219995Y0162977D01*
X0219979Y0163036D01*
X0219966Y0163095D01*
X0219957Y0163154D01*
X0219952Y0163215D01*
X0219950Y0163275D01*
X0219950Y0170275D02*
X0219952Y0170335D01*
X0219957Y0170396D01*
X0219966Y0170455D01*
X0219979Y0170514D01*
X0219995Y0170573D01*
X0220015Y0170630D01*
X0220038Y0170685D01*
X0220065Y0170740D01*
X0220094Y0170792D01*
X0220127Y0170843D01*
X0220163Y0170892D01*
X0220201Y0170938D01*
X0220243Y0170982D01*
X0220287Y0171024D01*
X0220333Y0171062D01*
X0220382Y0171098D01*
X0220433Y0171131D01*
X0220485Y0171160D01*
X0220540Y0171187D01*
X0220595Y0171210D01*
X0220652Y0171230D01*
X0220711Y0171246D01*
X0220770Y0171259D01*
X0220829Y0171268D01*
X0220890Y0171273D01*
X0220950Y0171275D01*
X0222450Y0171275D01*
X0222950Y0170775D01*
X0241950Y0170775D01*
X0242450Y0171275D01*
X0243950Y0171275D01*
X0244010Y0171273D01*
X0244071Y0171268D01*
X0244130Y0171259D01*
X0244189Y0171246D01*
X0244248Y0171230D01*
X0244305Y0171210D01*
X0244360Y0171187D01*
X0244415Y0171160D01*
X0244467Y0171131D01*
X0244518Y0171098D01*
X0244567Y0171062D01*
X0244613Y0171024D01*
X0244657Y0170982D01*
X0244699Y0170938D01*
X0244737Y0170892D01*
X0244773Y0170843D01*
X0244806Y0170792D01*
X0244835Y0170740D01*
X0244862Y0170685D01*
X0244885Y0170630D01*
X0244905Y0170573D01*
X0244921Y0170514D01*
X0244934Y0170455D01*
X0244943Y0170396D01*
X0244948Y0170335D01*
X0244950Y0170275D01*
X0240950Y0173675D02*
X0236950Y0173675D01*
X0227450Y0173675D01*
X0223950Y0173675D01*
X0220450Y0181675D02*
X0220450Y0182675D01*
X0219450Y0182675D01*
X0219450Y0188675D01*
X0220450Y0188675D01*
X0220450Y0189675D01*
X0231450Y0185675D02*
X0231452Y0185738D01*
X0231458Y0185800D01*
X0231468Y0185862D01*
X0231481Y0185924D01*
X0231499Y0185984D01*
X0231520Y0186043D01*
X0231545Y0186101D01*
X0231574Y0186157D01*
X0231606Y0186211D01*
X0231641Y0186263D01*
X0231679Y0186312D01*
X0231721Y0186360D01*
X0231765Y0186404D01*
X0231813Y0186446D01*
X0231862Y0186484D01*
X0231914Y0186519D01*
X0231968Y0186551D01*
X0232024Y0186580D01*
X0232082Y0186605D01*
X0232141Y0186626D01*
X0232201Y0186644D01*
X0232263Y0186657D01*
X0232325Y0186667D01*
X0232387Y0186673D01*
X0232450Y0186675D01*
X0232513Y0186673D01*
X0232575Y0186667D01*
X0232637Y0186657D01*
X0232699Y0186644D01*
X0232759Y0186626D01*
X0232818Y0186605D01*
X0232876Y0186580D01*
X0232932Y0186551D01*
X0232986Y0186519D01*
X0233038Y0186484D01*
X0233087Y0186446D01*
X0233135Y0186404D01*
X0233179Y0186360D01*
X0233221Y0186312D01*
X0233259Y0186263D01*
X0233294Y0186211D01*
X0233326Y0186157D01*
X0233355Y0186101D01*
X0233380Y0186043D01*
X0233401Y0185984D01*
X0233419Y0185924D01*
X0233432Y0185862D01*
X0233442Y0185800D01*
X0233448Y0185738D01*
X0233450Y0185675D01*
X0233448Y0185612D01*
X0233442Y0185550D01*
X0233432Y0185488D01*
X0233419Y0185426D01*
X0233401Y0185366D01*
X0233380Y0185307D01*
X0233355Y0185249D01*
X0233326Y0185193D01*
X0233294Y0185139D01*
X0233259Y0185087D01*
X0233221Y0185038D01*
X0233179Y0184990D01*
X0233135Y0184946D01*
X0233087Y0184904D01*
X0233038Y0184866D01*
X0232986Y0184831D01*
X0232932Y0184799D01*
X0232876Y0184770D01*
X0232818Y0184745D01*
X0232759Y0184724D01*
X0232699Y0184706D01*
X0232637Y0184693D01*
X0232575Y0184683D01*
X0232513Y0184677D01*
X0232450Y0184675D01*
X0232387Y0184677D01*
X0232325Y0184683D01*
X0232263Y0184693D01*
X0232201Y0184706D01*
X0232141Y0184724D01*
X0232082Y0184745D01*
X0232024Y0184770D01*
X0231968Y0184799D01*
X0231914Y0184831D01*
X0231862Y0184866D01*
X0231813Y0184904D01*
X0231765Y0184946D01*
X0231721Y0184990D01*
X0231679Y0185038D01*
X0231641Y0185087D01*
X0231606Y0185139D01*
X0231574Y0185193D01*
X0231545Y0185249D01*
X0231520Y0185307D01*
X0231499Y0185366D01*
X0231481Y0185426D01*
X0231468Y0185488D01*
X0231458Y0185550D01*
X0231452Y0185612D01*
X0231450Y0185675D01*
X0225450Y0185675D02*
X0225452Y0185847D01*
X0225458Y0186018D01*
X0225469Y0186190D01*
X0225484Y0186361D01*
X0225503Y0186532D01*
X0225526Y0186702D01*
X0225553Y0186872D01*
X0225585Y0187041D01*
X0225620Y0187209D01*
X0225660Y0187376D01*
X0225704Y0187542D01*
X0225751Y0187707D01*
X0225803Y0187871D01*
X0225859Y0188033D01*
X0225919Y0188194D01*
X0225983Y0188354D01*
X0226051Y0188512D01*
X0226122Y0188668D01*
X0226197Y0188822D01*
X0226277Y0188975D01*
X0226359Y0189125D01*
X0226446Y0189274D01*
X0226536Y0189420D01*
X0226630Y0189564D01*
X0226727Y0189706D01*
X0226828Y0189845D01*
X0226932Y0189982D01*
X0227039Y0190116D01*
X0227150Y0190247D01*
X0227263Y0190376D01*
X0227380Y0190502D01*
X0227500Y0190625D01*
X0227623Y0190745D01*
X0227749Y0190862D01*
X0227878Y0190975D01*
X0228009Y0191086D01*
X0228143Y0191193D01*
X0228280Y0191297D01*
X0228419Y0191398D01*
X0228561Y0191495D01*
X0228705Y0191589D01*
X0228851Y0191679D01*
X0229000Y0191766D01*
X0229150Y0191848D01*
X0229303Y0191928D01*
X0229457Y0192003D01*
X0229613Y0192074D01*
X0229771Y0192142D01*
X0229931Y0192206D01*
X0230092Y0192266D01*
X0230254Y0192322D01*
X0230418Y0192374D01*
X0230583Y0192421D01*
X0230749Y0192465D01*
X0230916Y0192505D01*
X0231084Y0192540D01*
X0231253Y0192572D01*
X0231423Y0192599D01*
X0231593Y0192622D01*
X0231764Y0192641D01*
X0231935Y0192656D01*
X0232107Y0192667D01*
X0232278Y0192673D01*
X0232450Y0192675D01*
X0232622Y0192673D01*
X0232793Y0192667D01*
X0232965Y0192656D01*
X0233136Y0192641D01*
X0233307Y0192622D01*
X0233477Y0192599D01*
X0233647Y0192572D01*
X0233816Y0192540D01*
X0233984Y0192505D01*
X0234151Y0192465D01*
X0234317Y0192421D01*
X0234482Y0192374D01*
X0234646Y0192322D01*
X0234808Y0192266D01*
X0234969Y0192206D01*
X0235129Y0192142D01*
X0235287Y0192074D01*
X0235443Y0192003D01*
X0235597Y0191928D01*
X0235750Y0191848D01*
X0235900Y0191766D01*
X0236049Y0191679D01*
X0236195Y0191589D01*
X0236339Y0191495D01*
X0236481Y0191398D01*
X0236620Y0191297D01*
X0236757Y0191193D01*
X0236891Y0191086D01*
X0237022Y0190975D01*
X0237151Y0190862D01*
X0237277Y0190745D01*
X0237400Y0190625D01*
X0237520Y0190502D01*
X0237637Y0190376D01*
X0237750Y0190247D01*
X0237861Y0190116D01*
X0237968Y0189982D01*
X0238072Y0189845D01*
X0238173Y0189706D01*
X0238270Y0189564D01*
X0238364Y0189420D01*
X0238454Y0189274D01*
X0238541Y0189125D01*
X0238623Y0188975D01*
X0238703Y0188822D01*
X0238778Y0188668D01*
X0238849Y0188512D01*
X0238917Y0188354D01*
X0238981Y0188194D01*
X0239041Y0188033D01*
X0239097Y0187871D01*
X0239149Y0187707D01*
X0239196Y0187542D01*
X0239240Y0187376D01*
X0239280Y0187209D01*
X0239315Y0187041D01*
X0239347Y0186872D01*
X0239374Y0186702D01*
X0239397Y0186532D01*
X0239416Y0186361D01*
X0239431Y0186190D01*
X0239442Y0186018D01*
X0239448Y0185847D01*
X0239450Y0185675D01*
X0239448Y0185503D01*
X0239442Y0185332D01*
X0239431Y0185160D01*
X0239416Y0184989D01*
X0239397Y0184818D01*
X0239374Y0184648D01*
X0239347Y0184478D01*
X0239315Y0184309D01*
X0239280Y0184141D01*
X0239240Y0183974D01*
X0239196Y0183808D01*
X0239149Y0183643D01*
X0239097Y0183479D01*
X0239041Y0183317D01*
X0238981Y0183156D01*
X0238917Y0182996D01*
X0238849Y0182838D01*
X0238778Y0182682D01*
X0238703Y0182528D01*
X0238623Y0182375D01*
X0238541Y0182225D01*
X0238454Y0182076D01*
X0238364Y0181930D01*
X0238270Y0181786D01*
X0238173Y0181644D01*
X0238072Y0181505D01*
X0237968Y0181368D01*
X0237861Y0181234D01*
X0237750Y0181103D01*
X0237637Y0180974D01*
X0237520Y0180848D01*
X0237400Y0180725D01*
X0237277Y0180605D01*
X0237151Y0180488D01*
X0237022Y0180375D01*
X0236891Y0180264D01*
X0236757Y0180157D01*
X0236620Y0180053D01*
X0236481Y0179952D01*
X0236339Y0179855D01*
X0236195Y0179761D01*
X0236049Y0179671D01*
X0235900Y0179584D01*
X0235750Y0179502D01*
X0235597Y0179422D01*
X0235443Y0179347D01*
X0235287Y0179276D01*
X0235129Y0179208D01*
X0234969Y0179144D01*
X0234808Y0179084D01*
X0234646Y0179028D01*
X0234482Y0178976D01*
X0234317Y0178929D01*
X0234151Y0178885D01*
X0233984Y0178845D01*
X0233816Y0178810D01*
X0233647Y0178778D01*
X0233477Y0178751D01*
X0233307Y0178728D01*
X0233136Y0178709D01*
X0232965Y0178694D01*
X0232793Y0178683D01*
X0232622Y0178677D01*
X0232450Y0178675D01*
X0232278Y0178677D01*
X0232107Y0178683D01*
X0231935Y0178694D01*
X0231764Y0178709D01*
X0231593Y0178728D01*
X0231423Y0178751D01*
X0231253Y0178778D01*
X0231084Y0178810D01*
X0230916Y0178845D01*
X0230749Y0178885D01*
X0230583Y0178929D01*
X0230418Y0178976D01*
X0230254Y0179028D01*
X0230092Y0179084D01*
X0229931Y0179144D01*
X0229771Y0179208D01*
X0229613Y0179276D01*
X0229457Y0179347D01*
X0229303Y0179422D01*
X0229150Y0179502D01*
X0229000Y0179584D01*
X0228851Y0179671D01*
X0228705Y0179761D01*
X0228561Y0179855D01*
X0228419Y0179952D01*
X0228280Y0180053D01*
X0228143Y0180157D01*
X0228009Y0180264D01*
X0227878Y0180375D01*
X0227749Y0180488D01*
X0227623Y0180605D01*
X0227500Y0180725D01*
X0227380Y0180848D01*
X0227263Y0180974D01*
X0227150Y0181103D01*
X0227039Y0181234D01*
X0226932Y0181368D01*
X0226828Y0181505D01*
X0226727Y0181644D01*
X0226630Y0181786D01*
X0226536Y0181930D01*
X0226446Y0182076D01*
X0226359Y0182225D01*
X0226277Y0182375D01*
X0226197Y0182528D01*
X0226122Y0182682D01*
X0226051Y0182838D01*
X0225983Y0182996D01*
X0225919Y0183156D01*
X0225859Y0183317D01*
X0225803Y0183479D01*
X0225751Y0183643D01*
X0225704Y0183808D01*
X0225660Y0183974D01*
X0225620Y0184141D01*
X0225585Y0184309D01*
X0225553Y0184478D01*
X0225526Y0184648D01*
X0225503Y0184818D01*
X0225484Y0184989D01*
X0225469Y0185160D01*
X0225458Y0185332D01*
X0225452Y0185503D01*
X0225450Y0185675D01*
X0244450Y0182675D02*
X0244450Y0181675D01*
X0244450Y0182675D02*
X0245450Y0182675D01*
X0245450Y0188675D01*
X0244450Y0188675D01*
X0244450Y0189675D01*
X0240950Y0197675D02*
X0237450Y0197675D01*
X0227450Y0197675D01*
X0223950Y0197675D01*
X0244950Y0163275D02*
X0244948Y0163215D01*
X0244943Y0163154D01*
X0244934Y0163095D01*
X0244921Y0163036D01*
X0244905Y0162977D01*
X0244885Y0162920D01*
X0244862Y0162865D01*
X0244835Y0162810D01*
X0244806Y0162758D01*
X0244773Y0162707D01*
X0244737Y0162658D01*
X0244699Y0162612D01*
X0244657Y0162568D01*
X0244613Y0162526D01*
X0244567Y0162488D01*
X0244518Y0162452D01*
X0244467Y0162419D01*
X0244415Y0162390D01*
X0244360Y0162363D01*
X0244305Y0162340D01*
X0244248Y0162320D01*
X0244189Y0162304D01*
X0244130Y0162291D01*
X0244071Y0162282D01*
X0244010Y0162277D01*
X0243950Y0162275D01*
X0244800Y0160125D02*
X0244802Y0160027D01*
X0244808Y0159929D01*
X0244817Y0159831D01*
X0244831Y0159734D01*
X0244848Y0159637D01*
X0244869Y0159541D01*
X0244894Y0159446D01*
X0244922Y0159352D01*
X0244955Y0159260D01*
X0244990Y0159168D01*
X0245030Y0159078D01*
X0245072Y0158990D01*
X0245119Y0158903D01*
X0245168Y0158819D01*
X0245221Y0158736D01*
X0245277Y0158656D01*
X0245337Y0158577D01*
X0245399Y0158501D01*
X0245464Y0158428D01*
X0245532Y0158357D01*
X0245603Y0158289D01*
X0245676Y0158224D01*
X0245752Y0158162D01*
X0245831Y0158102D01*
X0245911Y0158046D01*
X0245994Y0157993D01*
X0246078Y0157944D01*
X0246165Y0157897D01*
X0246253Y0157855D01*
X0246343Y0157815D01*
X0246435Y0157780D01*
X0246527Y0157747D01*
X0246621Y0157719D01*
X0246716Y0157694D01*
X0246812Y0157673D01*
X0246909Y0157656D01*
X0247006Y0157642D01*
X0247104Y0157633D01*
X0247202Y0157627D01*
X0247300Y0157625D01*
X0247398Y0157627D01*
X0247496Y0157633D01*
X0247594Y0157642D01*
X0247691Y0157656D01*
X0247788Y0157673D01*
X0247884Y0157694D01*
X0247979Y0157719D01*
X0248073Y0157747D01*
X0248165Y0157780D01*
X0248257Y0157815D01*
X0248347Y0157855D01*
X0248435Y0157897D01*
X0248522Y0157944D01*
X0248606Y0157993D01*
X0248689Y0158046D01*
X0248769Y0158102D01*
X0248848Y0158162D01*
X0248924Y0158224D01*
X0248997Y0158289D01*
X0249068Y0158357D01*
X0249136Y0158428D01*
X0249201Y0158501D01*
X0249263Y0158577D01*
X0249323Y0158656D01*
X0249379Y0158736D01*
X0249432Y0158819D01*
X0249481Y0158903D01*
X0249528Y0158990D01*
X0249570Y0159078D01*
X0249610Y0159168D01*
X0249645Y0159260D01*
X0249678Y0159352D01*
X0249706Y0159446D01*
X0249731Y0159541D01*
X0249752Y0159637D01*
X0249769Y0159734D01*
X0249783Y0159831D01*
X0249792Y0159929D01*
X0249798Y0160027D01*
X0249800Y0160125D01*
X0258300Y0160125D01*
X0258300Y0014125D01*
X0216475Y0054050D02*
X0216475Y0081050D01*
X0216472Y0081269D01*
X0216464Y0081488D01*
X0216451Y0081707D01*
X0216432Y0081925D01*
X0216408Y0082143D01*
X0216379Y0082360D01*
X0216345Y0082577D01*
X0216305Y0082792D01*
X0216260Y0083007D01*
X0216209Y0083220D01*
X0216154Y0083432D01*
X0216093Y0083643D01*
X0216028Y0083852D01*
X0215957Y0084059D01*
X0215881Y0084265D01*
X0215800Y0084469D01*
X0215715Y0084671D01*
X0215624Y0084870D01*
X0215529Y0085067D01*
X0215428Y0085262D01*
X0215323Y0085455D01*
X0215214Y0085645D01*
X0215100Y0085832D01*
X0214981Y0086016D01*
X0214858Y0086197D01*
X0214730Y0086375D01*
X0214598Y0086551D01*
X0214462Y0086722D01*
X0214322Y0086891D01*
X0214178Y0087056D01*
X0214030Y0087217D01*
X0213878Y0087375D01*
X0213722Y0087529D01*
X0213562Y0087679D01*
X0213399Y0087826D01*
X0213232Y0087968D01*
X0213062Y0088106D01*
X0212888Y0088240D01*
X0212712Y0088370D01*
X0212532Y0088495D01*
X0212349Y0088616D01*
X0212163Y0088732D01*
X0211975Y0088844D01*
X0211784Y0088951D01*
X0211590Y0089054D01*
X0211394Y0089152D01*
X0211196Y0089245D01*
X0210995Y0089333D01*
X0210792Y0089416D01*
X0210587Y0089495D01*
X0210381Y0089568D01*
X0210173Y0089636D01*
X0209963Y0089699D01*
X0209751Y0089757D01*
X0209539Y0089810D01*
X0209325Y0089858D01*
X0209110Y0089900D01*
X0208894Y0089937D01*
X0208677Y0089969D01*
X0208459Y0089996D01*
X0208241Y0090017D01*
X0208023Y0090033D01*
X0207804Y0090044D01*
X0207585Y0090049D01*
X0207365Y0090049D01*
X0207146Y0090044D01*
X0206927Y0090033D01*
X0206709Y0090017D01*
X0206491Y0089996D01*
X0206273Y0089969D01*
X0206056Y0089937D01*
X0205840Y0089900D01*
X0205625Y0089858D01*
X0205411Y0089810D01*
X0205199Y0089757D01*
X0204987Y0089699D01*
X0204777Y0089636D01*
X0204569Y0089568D01*
X0204363Y0089495D01*
X0204158Y0089416D01*
X0203955Y0089333D01*
X0203754Y0089245D01*
X0203556Y0089152D01*
X0203360Y0089054D01*
X0203166Y0088951D01*
X0202975Y0088844D01*
X0202787Y0088732D01*
X0202601Y0088616D01*
X0202418Y0088495D01*
X0202238Y0088370D01*
X0202062Y0088240D01*
X0201888Y0088106D01*
X0201718Y0087968D01*
X0201551Y0087826D01*
X0201388Y0087679D01*
X0201228Y0087529D01*
X0201072Y0087375D01*
X0200920Y0087217D01*
X0200772Y0087056D01*
X0200628Y0086891D01*
X0200488Y0086722D01*
X0200352Y0086551D01*
X0200220Y0086375D01*
X0200092Y0086197D01*
X0199969Y0086016D01*
X0199850Y0085832D01*
X0199736Y0085645D01*
X0199627Y0085455D01*
X0199522Y0085262D01*
X0199421Y0085067D01*
X0199326Y0084870D01*
X0199235Y0084671D01*
X0199150Y0084469D01*
X0199069Y0084265D01*
X0198993Y0084059D01*
X0198922Y0083852D01*
X0198857Y0083643D01*
X0198796Y0083432D01*
X0198741Y0083220D01*
X0198690Y0083007D01*
X0198645Y0082792D01*
X0198605Y0082577D01*
X0198571Y0082360D01*
X0198542Y0082143D01*
X0198518Y0081925D01*
X0198499Y0081707D01*
X0198486Y0081488D01*
X0198478Y0081269D01*
X0198475Y0081050D01*
X0198475Y0054050D01*
X0193700Y0054925D02*
X0193700Y0059925D01*
X0193698Y0060012D01*
X0193692Y0060099D01*
X0193683Y0060186D01*
X0193670Y0060272D01*
X0193653Y0060358D01*
X0193632Y0060443D01*
X0193607Y0060526D01*
X0193579Y0060609D01*
X0193548Y0060690D01*
X0193513Y0060770D01*
X0193474Y0060848D01*
X0193432Y0060925D01*
X0193387Y0061000D01*
X0193338Y0061072D01*
X0193287Y0061143D01*
X0193232Y0061211D01*
X0193175Y0061276D01*
X0193114Y0061339D01*
X0193051Y0061400D01*
X0192986Y0061457D01*
X0192918Y0061512D01*
X0192847Y0061563D01*
X0192775Y0061612D01*
X0192700Y0061657D01*
X0192623Y0061699D01*
X0192545Y0061738D01*
X0192465Y0061773D01*
X0192384Y0061804D01*
X0192301Y0061832D01*
X0192218Y0061857D01*
X0192133Y0061878D01*
X0192047Y0061895D01*
X0191961Y0061908D01*
X0191874Y0061917D01*
X0191787Y0061923D01*
X0191700Y0061925D01*
X0178700Y0061925D01*
X0178613Y0061923D01*
X0178526Y0061917D01*
X0178439Y0061908D01*
X0178353Y0061895D01*
X0178267Y0061878D01*
X0178182Y0061857D01*
X0178099Y0061832D01*
X0178016Y0061804D01*
X0177935Y0061773D01*
X0177855Y0061738D01*
X0177777Y0061699D01*
X0177700Y0061657D01*
X0177625Y0061612D01*
X0177553Y0061563D01*
X0177482Y0061512D01*
X0177414Y0061457D01*
X0177349Y0061400D01*
X0177286Y0061339D01*
X0177225Y0061276D01*
X0177168Y0061211D01*
X0177113Y0061143D01*
X0177062Y0061072D01*
X0177013Y0061000D01*
X0176968Y0060925D01*
X0176926Y0060848D01*
X0176887Y0060770D01*
X0176852Y0060690D01*
X0176821Y0060609D01*
X0176793Y0060526D01*
X0176768Y0060443D01*
X0176747Y0060358D01*
X0176730Y0060272D01*
X0176717Y0060186D01*
X0176708Y0060099D01*
X0176702Y0060012D01*
X0176700Y0059925D01*
X0176700Y0054925D01*
X0176702Y0054838D01*
X0176708Y0054751D01*
X0176717Y0054664D01*
X0176730Y0054578D01*
X0176747Y0054492D01*
X0176768Y0054407D01*
X0176793Y0054324D01*
X0176821Y0054241D01*
X0176852Y0054160D01*
X0176887Y0054080D01*
X0176926Y0054002D01*
X0176968Y0053925D01*
X0177013Y0053850D01*
X0177062Y0053778D01*
X0177113Y0053707D01*
X0177168Y0053639D01*
X0177225Y0053574D01*
X0177286Y0053511D01*
X0177349Y0053450D01*
X0177414Y0053393D01*
X0177482Y0053338D01*
X0177553Y0053287D01*
X0177625Y0053238D01*
X0177700Y0053193D01*
X0177777Y0053151D01*
X0177855Y0053112D01*
X0177935Y0053077D01*
X0178016Y0053046D01*
X0178099Y0053018D01*
X0178182Y0052993D01*
X0178267Y0052972D01*
X0178353Y0052955D01*
X0178439Y0052942D01*
X0178526Y0052933D01*
X0178613Y0052927D01*
X0178700Y0052925D01*
X0191700Y0052925D01*
X0191787Y0052927D01*
X0191874Y0052933D01*
X0191961Y0052942D01*
X0192047Y0052955D01*
X0192133Y0052972D01*
X0192218Y0052993D01*
X0192301Y0053018D01*
X0192384Y0053046D01*
X0192465Y0053077D01*
X0192545Y0053112D01*
X0192623Y0053151D01*
X0192700Y0053193D01*
X0192775Y0053238D01*
X0192847Y0053287D01*
X0192918Y0053338D01*
X0192986Y0053393D01*
X0193051Y0053450D01*
X0193114Y0053511D01*
X0193175Y0053574D01*
X0193232Y0053639D01*
X0193287Y0053707D01*
X0193338Y0053778D01*
X0193387Y0053850D01*
X0193432Y0053925D01*
X0193474Y0054002D01*
X0193513Y0054080D01*
X0193548Y0054160D01*
X0193579Y0054241D01*
X0193607Y0054324D01*
X0193632Y0054407D01*
X0193653Y0054492D01*
X0193670Y0054578D01*
X0193683Y0054664D01*
X0193692Y0054751D01*
X0193698Y0054838D01*
X0193700Y0054925D01*
X0198475Y0054050D02*
X0198478Y0053831D01*
X0198486Y0053612D01*
X0198499Y0053393D01*
X0198518Y0053175D01*
X0198542Y0052957D01*
X0198571Y0052740D01*
X0198605Y0052523D01*
X0198645Y0052308D01*
X0198690Y0052093D01*
X0198741Y0051880D01*
X0198796Y0051668D01*
X0198857Y0051457D01*
X0198922Y0051248D01*
X0198993Y0051041D01*
X0199069Y0050835D01*
X0199150Y0050631D01*
X0199235Y0050429D01*
X0199326Y0050230D01*
X0199421Y0050033D01*
X0199522Y0049838D01*
X0199627Y0049645D01*
X0199736Y0049455D01*
X0199850Y0049268D01*
X0199969Y0049084D01*
X0200092Y0048903D01*
X0200220Y0048725D01*
X0200352Y0048549D01*
X0200488Y0048378D01*
X0200628Y0048209D01*
X0200772Y0048044D01*
X0200920Y0047883D01*
X0201072Y0047725D01*
X0201228Y0047571D01*
X0201388Y0047421D01*
X0201551Y0047274D01*
X0201718Y0047132D01*
X0201888Y0046994D01*
X0202062Y0046860D01*
X0202238Y0046730D01*
X0202418Y0046605D01*
X0202601Y0046484D01*
X0202787Y0046368D01*
X0202975Y0046256D01*
X0203166Y0046149D01*
X0203360Y0046046D01*
X0203556Y0045948D01*
X0203754Y0045855D01*
X0203955Y0045767D01*
X0204158Y0045684D01*
X0204363Y0045605D01*
X0204569Y0045532D01*
X0204777Y0045464D01*
X0204987Y0045401D01*
X0205199Y0045343D01*
X0205411Y0045290D01*
X0205625Y0045242D01*
X0205840Y0045200D01*
X0206056Y0045163D01*
X0206273Y0045131D01*
X0206491Y0045104D01*
X0206709Y0045083D01*
X0206927Y0045067D01*
X0207146Y0045056D01*
X0207365Y0045051D01*
X0207585Y0045051D01*
X0207804Y0045056D01*
X0208023Y0045067D01*
X0208241Y0045083D01*
X0208459Y0045104D01*
X0208677Y0045131D01*
X0208894Y0045163D01*
X0209110Y0045200D01*
X0209325Y0045242D01*
X0209539Y0045290D01*
X0209751Y0045343D01*
X0209963Y0045401D01*
X0210173Y0045464D01*
X0210381Y0045532D01*
X0210587Y0045605D01*
X0210792Y0045684D01*
X0210995Y0045767D01*
X0211196Y0045855D01*
X0211394Y0045948D01*
X0211590Y0046046D01*
X0211784Y0046149D01*
X0211975Y0046256D01*
X0212163Y0046368D01*
X0212349Y0046484D01*
X0212532Y0046605D01*
X0212712Y0046730D01*
X0212888Y0046860D01*
X0213062Y0046994D01*
X0213232Y0047132D01*
X0213399Y0047274D01*
X0213562Y0047421D01*
X0213722Y0047571D01*
X0213878Y0047725D01*
X0214030Y0047883D01*
X0214178Y0048044D01*
X0214322Y0048209D01*
X0214462Y0048378D01*
X0214598Y0048549D01*
X0214730Y0048725D01*
X0214858Y0048903D01*
X0214981Y0049084D01*
X0215100Y0049268D01*
X0215214Y0049455D01*
X0215323Y0049645D01*
X0215428Y0049838D01*
X0215529Y0050033D01*
X0215624Y0050230D01*
X0215715Y0050429D01*
X0215800Y0050631D01*
X0215881Y0050835D01*
X0215957Y0051041D01*
X0216028Y0051248D01*
X0216093Y0051457D01*
X0216154Y0051668D01*
X0216209Y0051880D01*
X0216260Y0052093D01*
X0216305Y0052308D01*
X0216345Y0052523D01*
X0216379Y0052740D01*
X0216408Y0052957D01*
X0216432Y0053175D01*
X0216451Y0053393D01*
X0216464Y0053612D01*
X0216472Y0053831D01*
X0216475Y0054050D01*
X0191700Y0073175D02*
X0178700Y0073175D01*
X0178613Y0073177D01*
X0178526Y0073183D01*
X0178439Y0073192D01*
X0178353Y0073205D01*
X0178267Y0073222D01*
X0178182Y0073243D01*
X0178099Y0073268D01*
X0178016Y0073296D01*
X0177935Y0073327D01*
X0177855Y0073362D01*
X0177777Y0073401D01*
X0177700Y0073443D01*
X0177625Y0073488D01*
X0177553Y0073537D01*
X0177482Y0073588D01*
X0177414Y0073643D01*
X0177349Y0073700D01*
X0177286Y0073761D01*
X0177225Y0073824D01*
X0177168Y0073889D01*
X0177113Y0073957D01*
X0177062Y0074028D01*
X0177013Y0074100D01*
X0176968Y0074175D01*
X0176926Y0074252D01*
X0176887Y0074330D01*
X0176852Y0074410D01*
X0176821Y0074491D01*
X0176793Y0074574D01*
X0176768Y0074657D01*
X0176747Y0074742D01*
X0176730Y0074828D01*
X0176717Y0074914D01*
X0176708Y0075001D01*
X0176702Y0075088D01*
X0176700Y0075175D01*
X0176700Y0080175D01*
X0176702Y0080262D01*
X0176708Y0080349D01*
X0176717Y0080436D01*
X0176730Y0080522D01*
X0176747Y0080608D01*
X0176768Y0080693D01*
X0176793Y0080776D01*
X0176821Y0080859D01*
X0176852Y0080940D01*
X0176887Y0081020D01*
X0176926Y0081098D01*
X0176968Y0081175D01*
X0177013Y0081250D01*
X0177062Y0081322D01*
X0177113Y0081393D01*
X0177168Y0081461D01*
X0177225Y0081526D01*
X0177286Y0081589D01*
X0177349Y0081650D01*
X0177414Y0081707D01*
X0177482Y0081762D01*
X0177553Y0081813D01*
X0177625Y0081862D01*
X0177700Y0081907D01*
X0177777Y0081949D01*
X0177855Y0081988D01*
X0177935Y0082023D01*
X0178016Y0082054D01*
X0178099Y0082082D01*
X0178182Y0082107D01*
X0178267Y0082128D01*
X0178353Y0082145D01*
X0178439Y0082158D01*
X0178526Y0082167D01*
X0178613Y0082173D01*
X0178700Y0082175D01*
X0191700Y0082175D01*
X0191787Y0082173D01*
X0191874Y0082167D01*
X0191961Y0082158D01*
X0192047Y0082145D01*
X0192133Y0082128D01*
X0192218Y0082107D01*
X0192301Y0082082D01*
X0192384Y0082054D01*
X0192465Y0082023D01*
X0192545Y0081988D01*
X0192623Y0081949D01*
X0192700Y0081907D01*
X0192775Y0081862D01*
X0192847Y0081813D01*
X0192918Y0081762D01*
X0192986Y0081707D01*
X0193051Y0081650D01*
X0193114Y0081589D01*
X0193175Y0081526D01*
X0193232Y0081461D01*
X0193287Y0081393D01*
X0193338Y0081322D01*
X0193387Y0081250D01*
X0193432Y0081175D01*
X0193474Y0081098D01*
X0193513Y0081020D01*
X0193548Y0080940D01*
X0193579Y0080859D01*
X0193607Y0080776D01*
X0193632Y0080693D01*
X0193653Y0080608D01*
X0193670Y0080522D01*
X0193683Y0080436D01*
X0193692Y0080349D01*
X0193698Y0080262D01*
X0193700Y0080175D01*
X0193700Y0075175D01*
X0193698Y0075088D01*
X0193692Y0075001D01*
X0193683Y0074914D01*
X0193670Y0074828D01*
X0193653Y0074742D01*
X0193632Y0074657D01*
X0193607Y0074574D01*
X0193579Y0074491D01*
X0193548Y0074410D01*
X0193513Y0074330D01*
X0193474Y0074252D01*
X0193432Y0074175D01*
X0193387Y0074100D01*
X0193338Y0074028D01*
X0193287Y0073957D01*
X0193232Y0073889D01*
X0193175Y0073824D01*
X0193114Y0073761D01*
X0193051Y0073700D01*
X0192986Y0073643D01*
X0192918Y0073588D01*
X0192847Y0073537D01*
X0192775Y0073488D01*
X0192700Y0073443D01*
X0192623Y0073401D01*
X0192545Y0073362D01*
X0192465Y0073327D01*
X0192384Y0073296D01*
X0192301Y0073268D01*
X0192218Y0073243D01*
X0192133Y0073222D01*
X0192047Y0073205D01*
X0191961Y0073192D01*
X0191874Y0073183D01*
X0191787Y0073177D01*
X0191700Y0073175D01*
X0160550Y0077725D02*
X0160550Y0085725D01*
X0160548Y0085785D01*
X0160543Y0085846D01*
X0160534Y0085905D01*
X0160521Y0085964D01*
X0160505Y0086023D01*
X0160485Y0086080D01*
X0160462Y0086135D01*
X0160435Y0086190D01*
X0160406Y0086242D01*
X0160373Y0086293D01*
X0160337Y0086342D01*
X0160299Y0086388D01*
X0160257Y0086432D01*
X0160213Y0086474D01*
X0160167Y0086512D01*
X0160118Y0086548D01*
X0160067Y0086581D01*
X0160015Y0086610D01*
X0159960Y0086637D01*
X0159905Y0086660D01*
X0159848Y0086680D01*
X0159789Y0086696D01*
X0159730Y0086709D01*
X0159671Y0086718D01*
X0159610Y0086723D01*
X0159550Y0086725D01*
X0132550Y0086725D01*
X0132490Y0086723D01*
X0132429Y0086718D01*
X0132370Y0086709D01*
X0132311Y0086696D01*
X0132252Y0086680D01*
X0132195Y0086660D01*
X0132140Y0086637D01*
X0132085Y0086610D01*
X0132033Y0086581D01*
X0131982Y0086548D01*
X0131933Y0086512D01*
X0131887Y0086474D01*
X0131843Y0086432D01*
X0131801Y0086388D01*
X0131763Y0086342D01*
X0131727Y0086293D01*
X0131694Y0086242D01*
X0131665Y0086190D01*
X0131638Y0086135D01*
X0131615Y0086080D01*
X0131595Y0086023D01*
X0131579Y0085964D01*
X0131566Y0085905D01*
X0131557Y0085846D01*
X0131552Y0085785D01*
X0131550Y0085725D01*
X0131550Y0077725D01*
X0131552Y0077665D01*
X0131557Y0077604D01*
X0131566Y0077545D01*
X0131579Y0077486D01*
X0131595Y0077427D01*
X0131615Y0077370D01*
X0131638Y0077315D01*
X0131665Y0077260D01*
X0131694Y0077208D01*
X0131727Y0077157D01*
X0131763Y0077108D01*
X0131801Y0077062D01*
X0131843Y0077018D01*
X0131887Y0076976D01*
X0131933Y0076938D01*
X0131982Y0076902D01*
X0132033Y0076869D01*
X0132085Y0076840D01*
X0132140Y0076813D01*
X0132195Y0076790D01*
X0132252Y0076770D01*
X0132311Y0076754D01*
X0132370Y0076741D01*
X0132429Y0076732D01*
X0132490Y0076727D01*
X0132550Y0076725D01*
X0159550Y0076725D01*
X0159610Y0076727D01*
X0159671Y0076732D01*
X0159730Y0076741D01*
X0159789Y0076754D01*
X0159848Y0076770D01*
X0159905Y0076790D01*
X0159960Y0076813D01*
X0160015Y0076840D01*
X0160067Y0076869D01*
X0160118Y0076902D01*
X0160167Y0076938D01*
X0160213Y0076976D01*
X0160257Y0077018D01*
X0160299Y0077062D01*
X0160337Y0077108D01*
X0160373Y0077157D01*
X0160406Y0077208D01*
X0160435Y0077260D01*
X0160462Y0077315D01*
X0160485Y0077370D01*
X0160505Y0077427D01*
X0160521Y0077486D01*
X0160534Y0077545D01*
X0160543Y0077604D01*
X0160548Y0077665D01*
X0160550Y0077725D01*
X0152050Y0081725D02*
X0147250Y0081725D01*
X0144750Y0081725D02*
X0140050Y0081725D01*
X0136725Y0088700D02*
X0137225Y0089200D01*
X0156225Y0089200D01*
X0156725Y0088700D01*
X0158225Y0088700D01*
X0158285Y0088702D01*
X0158346Y0088707D01*
X0158405Y0088716D01*
X0158464Y0088729D01*
X0158523Y0088745D01*
X0158580Y0088765D01*
X0158635Y0088788D01*
X0158690Y0088815D01*
X0158742Y0088844D01*
X0158793Y0088877D01*
X0158842Y0088913D01*
X0158888Y0088951D01*
X0158932Y0088993D01*
X0158974Y0089037D01*
X0159012Y0089083D01*
X0159048Y0089132D01*
X0159081Y0089183D01*
X0159110Y0089235D01*
X0159137Y0089290D01*
X0159160Y0089345D01*
X0159180Y0089402D01*
X0159196Y0089461D01*
X0159209Y0089520D01*
X0159218Y0089579D01*
X0159223Y0089640D01*
X0159225Y0089700D01*
X0159225Y0096700D02*
X0159223Y0096760D01*
X0159218Y0096821D01*
X0159209Y0096880D01*
X0159196Y0096939D01*
X0159180Y0096998D01*
X0159160Y0097055D01*
X0159137Y0097110D01*
X0159110Y0097165D01*
X0159081Y0097217D01*
X0159048Y0097268D01*
X0159012Y0097317D01*
X0158974Y0097363D01*
X0158932Y0097407D01*
X0158888Y0097449D01*
X0158842Y0097487D01*
X0158793Y0097523D01*
X0158742Y0097556D01*
X0158690Y0097585D01*
X0158635Y0097612D01*
X0158580Y0097635D01*
X0158523Y0097655D01*
X0158464Y0097671D01*
X0158405Y0097684D01*
X0158346Y0097693D01*
X0158285Y0097698D01*
X0158225Y0097700D01*
X0156725Y0097700D01*
X0156225Y0097200D01*
X0137225Y0097200D01*
X0136725Y0097700D01*
X0135225Y0097700D01*
X0135165Y0097698D01*
X0135104Y0097693D01*
X0135045Y0097684D01*
X0134986Y0097671D01*
X0134927Y0097655D01*
X0134870Y0097635D01*
X0134815Y0097612D01*
X0134760Y0097585D01*
X0134708Y0097556D01*
X0134657Y0097523D01*
X0134608Y0097487D01*
X0134562Y0097449D01*
X0134518Y0097407D01*
X0134476Y0097363D01*
X0134438Y0097317D01*
X0134402Y0097268D01*
X0134369Y0097217D01*
X0134340Y0097165D01*
X0134313Y0097110D01*
X0134290Y0097055D01*
X0134270Y0096998D01*
X0134254Y0096939D01*
X0134241Y0096880D01*
X0134232Y0096821D01*
X0134227Y0096760D01*
X0134225Y0096700D01*
X0134225Y0089700D02*
X0134227Y0089640D01*
X0134232Y0089579D01*
X0134241Y0089520D01*
X0134254Y0089461D01*
X0134270Y0089402D01*
X0134290Y0089345D01*
X0134313Y0089290D01*
X0134340Y0089235D01*
X0134369Y0089183D01*
X0134402Y0089132D01*
X0134438Y0089083D01*
X0134476Y0089037D01*
X0134518Y0088993D01*
X0134562Y0088951D01*
X0134608Y0088913D01*
X0134657Y0088877D01*
X0134708Y0088844D01*
X0134760Y0088815D01*
X0134815Y0088788D01*
X0134870Y0088765D01*
X0134927Y0088745D01*
X0134986Y0088729D01*
X0135045Y0088716D01*
X0135104Y0088707D01*
X0135165Y0088702D01*
X0135225Y0088700D01*
X0136725Y0088700D01*
X0132550Y0113175D02*
X0159550Y0113175D01*
X0159610Y0113177D01*
X0159671Y0113182D01*
X0159730Y0113191D01*
X0159789Y0113204D01*
X0159848Y0113220D01*
X0159905Y0113240D01*
X0159960Y0113263D01*
X0160015Y0113290D01*
X0160067Y0113319D01*
X0160118Y0113352D01*
X0160167Y0113388D01*
X0160213Y0113426D01*
X0160257Y0113468D01*
X0160299Y0113512D01*
X0160337Y0113558D01*
X0160373Y0113607D01*
X0160406Y0113658D01*
X0160435Y0113710D01*
X0160462Y0113765D01*
X0160485Y0113820D01*
X0160505Y0113877D01*
X0160521Y0113936D01*
X0160534Y0113995D01*
X0160543Y0114054D01*
X0160548Y0114115D01*
X0160550Y0114175D01*
X0160550Y0122175D01*
X0160548Y0122235D01*
X0160543Y0122296D01*
X0160534Y0122355D01*
X0160521Y0122414D01*
X0160505Y0122473D01*
X0160485Y0122530D01*
X0160462Y0122585D01*
X0160435Y0122640D01*
X0160406Y0122692D01*
X0160373Y0122743D01*
X0160337Y0122792D01*
X0160299Y0122838D01*
X0160257Y0122882D01*
X0160213Y0122924D01*
X0160167Y0122962D01*
X0160118Y0122998D01*
X0160067Y0123031D01*
X0160015Y0123060D01*
X0159960Y0123087D01*
X0159905Y0123110D01*
X0159848Y0123130D01*
X0159789Y0123146D01*
X0159730Y0123159D01*
X0159671Y0123168D01*
X0159610Y0123173D01*
X0159550Y0123175D01*
X0132550Y0123175D01*
X0132490Y0123173D01*
X0132429Y0123168D01*
X0132370Y0123159D01*
X0132311Y0123146D01*
X0132252Y0123130D01*
X0132195Y0123110D01*
X0132140Y0123087D01*
X0132085Y0123060D01*
X0132033Y0123031D01*
X0131982Y0122998D01*
X0131933Y0122962D01*
X0131887Y0122924D01*
X0131843Y0122882D01*
X0131801Y0122838D01*
X0131763Y0122792D01*
X0131727Y0122743D01*
X0131694Y0122692D01*
X0131665Y0122640D01*
X0131638Y0122585D01*
X0131615Y0122530D01*
X0131595Y0122473D01*
X0131579Y0122414D01*
X0131566Y0122355D01*
X0131557Y0122296D01*
X0131552Y0122235D01*
X0131550Y0122175D01*
X0131550Y0114175D01*
X0131552Y0114115D01*
X0131557Y0114054D01*
X0131566Y0113995D01*
X0131579Y0113936D01*
X0131595Y0113877D01*
X0131615Y0113820D01*
X0131638Y0113765D01*
X0131665Y0113710D01*
X0131694Y0113658D01*
X0131727Y0113607D01*
X0131763Y0113558D01*
X0131801Y0113512D01*
X0131843Y0113468D01*
X0131887Y0113426D01*
X0131933Y0113388D01*
X0131982Y0113352D01*
X0132033Y0113319D01*
X0132085Y0113290D01*
X0132140Y0113263D01*
X0132195Y0113240D01*
X0132252Y0113220D01*
X0132311Y0113204D01*
X0132370Y0113191D01*
X0132429Y0113182D01*
X0132490Y0113177D01*
X0132550Y0113175D01*
X0140050Y0118175D02*
X0144750Y0118175D01*
X0147250Y0118175D02*
X0152050Y0118175D01*
X0156050Y0125825D02*
X0157550Y0125825D01*
X0157610Y0125827D01*
X0157671Y0125832D01*
X0157730Y0125841D01*
X0157789Y0125854D01*
X0157848Y0125870D01*
X0157905Y0125890D01*
X0157960Y0125913D01*
X0158015Y0125940D01*
X0158067Y0125969D01*
X0158118Y0126002D01*
X0158167Y0126038D01*
X0158213Y0126076D01*
X0158257Y0126118D01*
X0158299Y0126162D01*
X0158337Y0126208D01*
X0158373Y0126257D01*
X0158406Y0126308D01*
X0158435Y0126360D01*
X0158462Y0126415D01*
X0158485Y0126470D01*
X0158505Y0126527D01*
X0158521Y0126586D01*
X0158534Y0126645D01*
X0158543Y0126704D01*
X0158548Y0126765D01*
X0158550Y0126825D01*
X0156050Y0125825D02*
X0155550Y0126325D01*
X0136550Y0126325D01*
X0136050Y0125825D01*
X0134550Y0125825D01*
X0134490Y0125827D01*
X0134429Y0125832D01*
X0134370Y0125841D01*
X0134311Y0125854D01*
X0134252Y0125870D01*
X0134195Y0125890D01*
X0134140Y0125913D01*
X0134085Y0125940D01*
X0134033Y0125969D01*
X0133982Y0126002D01*
X0133933Y0126038D01*
X0133887Y0126076D01*
X0133843Y0126118D01*
X0133801Y0126162D01*
X0133763Y0126208D01*
X0133727Y0126257D01*
X0133694Y0126308D01*
X0133665Y0126360D01*
X0133638Y0126415D01*
X0133615Y0126470D01*
X0133595Y0126527D01*
X0133579Y0126586D01*
X0133566Y0126645D01*
X0133557Y0126704D01*
X0133552Y0126765D01*
X0133550Y0126825D01*
X0133550Y0133825D02*
X0133552Y0133885D01*
X0133557Y0133946D01*
X0133566Y0134005D01*
X0133579Y0134064D01*
X0133595Y0134123D01*
X0133615Y0134180D01*
X0133638Y0134235D01*
X0133665Y0134290D01*
X0133694Y0134342D01*
X0133727Y0134393D01*
X0133763Y0134442D01*
X0133801Y0134488D01*
X0133843Y0134532D01*
X0133887Y0134574D01*
X0133933Y0134612D01*
X0133982Y0134648D01*
X0134033Y0134681D01*
X0134085Y0134710D01*
X0134140Y0134737D01*
X0134195Y0134760D01*
X0134252Y0134780D01*
X0134311Y0134796D01*
X0134370Y0134809D01*
X0134429Y0134818D01*
X0134490Y0134823D01*
X0134550Y0134825D01*
X0136050Y0134825D01*
X0136550Y0134325D01*
X0155550Y0134325D01*
X0156050Y0134825D01*
X0157550Y0134825D01*
X0157610Y0134823D01*
X0157671Y0134818D01*
X0157730Y0134809D01*
X0157789Y0134796D01*
X0157848Y0134780D01*
X0157905Y0134760D01*
X0157960Y0134737D01*
X0158015Y0134710D01*
X0158067Y0134681D01*
X0158118Y0134648D01*
X0158167Y0134612D01*
X0158213Y0134574D01*
X0158257Y0134532D01*
X0158299Y0134488D01*
X0158337Y0134442D01*
X0158373Y0134393D01*
X0158406Y0134342D01*
X0158435Y0134290D01*
X0158462Y0134235D01*
X0158485Y0134180D01*
X0158505Y0134123D01*
X0158521Y0134064D01*
X0158534Y0134005D01*
X0158543Y0133946D01*
X0158548Y0133885D01*
X0158550Y0133825D01*
X0175725Y0142700D02*
X0177225Y0142700D01*
X0177725Y0143200D01*
X0196725Y0143200D01*
X0197225Y0142700D01*
X0198725Y0142700D01*
X0198785Y0142702D01*
X0198846Y0142707D01*
X0198905Y0142716D01*
X0198964Y0142729D01*
X0199023Y0142745D01*
X0199080Y0142765D01*
X0199135Y0142788D01*
X0199190Y0142815D01*
X0199242Y0142844D01*
X0199293Y0142877D01*
X0199342Y0142913D01*
X0199388Y0142951D01*
X0199432Y0142993D01*
X0199474Y0143037D01*
X0199512Y0143083D01*
X0199548Y0143132D01*
X0199581Y0143183D01*
X0199610Y0143235D01*
X0199637Y0143290D01*
X0199660Y0143345D01*
X0199680Y0143402D01*
X0199696Y0143461D01*
X0199709Y0143520D01*
X0199718Y0143579D01*
X0199723Y0143640D01*
X0199725Y0143700D01*
X0211925Y0136200D02*
X0214425Y0138700D01*
X0219425Y0138700D01*
X0221925Y0136200D01*
X0221925Y0131200D01*
X0219425Y0128700D01*
X0214425Y0128700D01*
X0211925Y0131200D01*
X0211925Y0136200D01*
X0214425Y0123175D02*
X0211925Y0120675D01*
X0211925Y0115675D01*
X0214425Y0113175D01*
X0219425Y0113175D01*
X0221925Y0115675D01*
X0221925Y0120675D01*
X0219425Y0123175D01*
X0214425Y0123175D01*
X0214425Y0109000D02*
X0211925Y0106500D01*
X0211925Y0101500D01*
X0214425Y0099000D01*
X0219425Y0099000D01*
X0221925Y0101500D01*
X0221925Y0106500D01*
X0219425Y0109000D01*
X0214425Y0109000D01*
X0270650Y0098600D02*
X0270650Y0071600D01*
X0270652Y0071540D01*
X0270657Y0071479D01*
X0270666Y0071420D01*
X0270679Y0071361D01*
X0270695Y0071302D01*
X0270715Y0071245D01*
X0270738Y0071190D01*
X0270765Y0071135D01*
X0270794Y0071083D01*
X0270827Y0071032D01*
X0270863Y0070983D01*
X0270901Y0070937D01*
X0270943Y0070893D01*
X0270987Y0070851D01*
X0271033Y0070813D01*
X0271082Y0070777D01*
X0271133Y0070744D01*
X0271185Y0070715D01*
X0271240Y0070688D01*
X0271295Y0070665D01*
X0271352Y0070645D01*
X0271411Y0070629D01*
X0271470Y0070616D01*
X0271529Y0070607D01*
X0271590Y0070602D01*
X0271650Y0070600D01*
X0279650Y0070600D01*
X0279710Y0070602D01*
X0279771Y0070607D01*
X0279830Y0070616D01*
X0279889Y0070629D01*
X0279948Y0070645D01*
X0280005Y0070665D01*
X0280060Y0070688D01*
X0280115Y0070715D01*
X0280167Y0070744D01*
X0280218Y0070777D01*
X0280267Y0070813D01*
X0280313Y0070851D01*
X0280357Y0070893D01*
X0280399Y0070937D01*
X0280437Y0070983D01*
X0280473Y0071032D01*
X0280506Y0071083D01*
X0280535Y0071135D01*
X0280562Y0071190D01*
X0280585Y0071245D01*
X0280605Y0071302D01*
X0280621Y0071361D01*
X0280634Y0071420D01*
X0280643Y0071479D01*
X0280648Y0071540D01*
X0280650Y0071600D01*
X0280650Y0098600D01*
X0280648Y0098660D01*
X0280643Y0098721D01*
X0280634Y0098780D01*
X0280621Y0098839D01*
X0280605Y0098898D01*
X0280585Y0098955D01*
X0280562Y0099010D01*
X0280535Y0099065D01*
X0280506Y0099117D01*
X0280473Y0099168D01*
X0280437Y0099217D01*
X0280399Y0099263D01*
X0280357Y0099307D01*
X0280313Y0099349D01*
X0280267Y0099387D01*
X0280218Y0099423D01*
X0280167Y0099456D01*
X0280115Y0099485D01*
X0280060Y0099512D01*
X0280005Y0099535D01*
X0279948Y0099555D01*
X0279889Y0099571D01*
X0279830Y0099584D01*
X0279771Y0099593D01*
X0279710Y0099598D01*
X0279650Y0099600D01*
X0271650Y0099600D01*
X0271590Y0099598D01*
X0271529Y0099593D01*
X0271470Y0099584D01*
X0271411Y0099571D01*
X0271352Y0099555D01*
X0271295Y0099535D01*
X0271240Y0099512D01*
X0271185Y0099485D01*
X0271133Y0099456D01*
X0271082Y0099423D01*
X0271033Y0099387D01*
X0270987Y0099349D01*
X0270943Y0099307D01*
X0270901Y0099263D01*
X0270863Y0099217D01*
X0270827Y0099168D01*
X0270794Y0099117D01*
X0270765Y0099065D01*
X0270738Y0099010D01*
X0270715Y0098955D01*
X0270695Y0098898D01*
X0270679Y0098839D01*
X0270666Y0098780D01*
X0270657Y0098721D01*
X0270652Y0098660D01*
X0270650Y0098600D01*
X0275650Y0091100D02*
X0275650Y0086400D01*
X0275650Y0083900D02*
X0275650Y0079100D01*
X0161225Y0047925D02*
X0161225Y0039925D01*
X0161223Y0039865D01*
X0161218Y0039804D01*
X0161209Y0039745D01*
X0161196Y0039686D01*
X0161180Y0039627D01*
X0161160Y0039570D01*
X0161137Y0039515D01*
X0161110Y0039460D01*
X0161081Y0039408D01*
X0161048Y0039357D01*
X0161012Y0039308D01*
X0160974Y0039262D01*
X0160932Y0039218D01*
X0160888Y0039176D01*
X0160842Y0039138D01*
X0160793Y0039102D01*
X0160742Y0039069D01*
X0160690Y0039040D01*
X0160635Y0039013D01*
X0160580Y0038990D01*
X0160523Y0038970D01*
X0160464Y0038954D01*
X0160405Y0038941D01*
X0160346Y0038932D01*
X0160285Y0038927D01*
X0160225Y0038925D01*
X0133225Y0038925D01*
X0133165Y0038927D01*
X0133104Y0038932D01*
X0133045Y0038941D01*
X0132986Y0038954D01*
X0132927Y0038970D01*
X0132870Y0038990D01*
X0132815Y0039013D01*
X0132760Y0039040D01*
X0132708Y0039069D01*
X0132657Y0039102D01*
X0132608Y0039138D01*
X0132562Y0039176D01*
X0132518Y0039218D01*
X0132476Y0039262D01*
X0132438Y0039308D01*
X0132402Y0039357D01*
X0132369Y0039408D01*
X0132340Y0039460D01*
X0132313Y0039515D01*
X0132290Y0039570D01*
X0132270Y0039627D01*
X0132254Y0039686D01*
X0132241Y0039745D01*
X0132232Y0039804D01*
X0132227Y0039865D01*
X0132225Y0039925D01*
X0132225Y0047925D01*
X0132227Y0047985D01*
X0132232Y0048046D01*
X0132241Y0048105D01*
X0132254Y0048164D01*
X0132270Y0048223D01*
X0132290Y0048280D01*
X0132313Y0048335D01*
X0132340Y0048390D01*
X0132369Y0048442D01*
X0132402Y0048493D01*
X0132438Y0048542D01*
X0132476Y0048588D01*
X0132518Y0048632D01*
X0132562Y0048674D01*
X0132608Y0048712D01*
X0132657Y0048748D01*
X0132708Y0048781D01*
X0132760Y0048810D01*
X0132815Y0048837D01*
X0132870Y0048860D01*
X0132927Y0048880D01*
X0132986Y0048896D01*
X0133045Y0048909D01*
X0133104Y0048918D01*
X0133165Y0048923D01*
X0133225Y0048925D01*
X0160225Y0048925D01*
X0160285Y0048923D01*
X0160346Y0048918D01*
X0160405Y0048909D01*
X0160464Y0048896D01*
X0160523Y0048880D01*
X0160580Y0048860D01*
X0160635Y0048837D01*
X0160690Y0048810D01*
X0160742Y0048781D01*
X0160793Y0048748D01*
X0160842Y0048712D01*
X0160888Y0048674D01*
X0160932Y0048632D01*
X0160974Y0048588D01*
X0161012Y0048542D01*
X0161048Y0048493D01*
X0161081Y0048442D01*
X0161110Y0048390D01*
X0161137Y0048335D01*
X0161160Y0048280D01*
X0161180Y0048223D01*
X0161196Y0048164D01*
X0161209Y0048105D01*
X0161218Y0048046D01*
X0161223Y0047985D01*
X0161225Y0047925D01*
X0158225Y0051575D02*
X0156725Y0051575D01*
X0156225Y0052075D01*
X0137225Y0052075D01*
X0136725Y0051575D01*
X0135225Y0051575D01*
X0135165Y0051577D01*
X0135104Y0051582D01*
X0135045Y0051591D01*
X0134986Y0051604D01*
X0134927Y0051620D01*
X0134870Y0051640D01*
X0134815Y0051663D01*
X0134760Y0051690D01*
X0134708Y0051719D01*
X0134657Y0051752D01*
X0134608Y0051788D01*
X0134562Y0051826D01*
X0134518Y0051868D01*
X0134476Y0051912D01*
X0134438Y0051958D01*
X0134402Y0052007D01*
X0134369Y0052058D01*
X0134340Y0052110D01*
X0134313Y0052165D01*
X0134290Y0052220D01*
X0134270Y0052277D01*
X0134254Y0052336D01*
X0134241Y0052395D01*
X0134232Y0052454D01*
X0134227Y0052515D01*
X0134225Y0052575D01*
X0134225Y0059575D02*
X0134227Y0059635D01*
X0134232Y0059696D01*
X0134241Y0059755D01*
X0134254Y0059814D01*
X0134270Y0059873D01*
X0134290Y0059930D01*
X0134313Y0059985D01*
X0134340Y0060040D01*
X0134369Y0060092D01*
X0134402Y0060143D01*
X0134438Y0060192D01*
X0134476Y0060238D01*
X0134518Y0060282D01*
X0134562Y0060324D01*
X0134608Y0060362D01*
X0134657Y0060398D01*
X0134708Y0060431D01*
X0134760Y0060460D01*
X0134815Y0060487D01*
X0134870Y0060510D01*
X0134927Y0060530D01*
X0134986Y0060546D01*
X0135045Y0060559D01*
X0135104Y0060568D01*
X0135165Y0060573D01*
X0135225Y0060575D01*
X0136725Y0060575D01*
X0137225Y0060075D01*
X0156225Y0060075D01*
X0156725Y0060575D01*
X0158225Y0060575D01*
X0158285Y0060573D01*
X0158346Y0060568D01*
X0158405Y0060559D01*
X0158464Y0060546D01*
X0158523Y0060530D01*
X0158580Y0060510D01*
X0158635Y0060487D01*
X0158690Y0060460D01*
X0158742Y0060431D01*
X0158793Y0060398D01*
X0158842Y0060362D01*
X0158888Y0060324D01*
X0158932Y0060282D01*
X0158974Y0060238D01*
X0159012Y0060192D01*
X0159048Y0060143D01*
X0159081Y0060092D01*
X0159110Y0060040D01*
X0159137Y0059985D01*
X0159160Y0059930D01*
X0159180Y0059873D01*
X0159196Y0059814D01*
X0159209Y0059755D01*
X0159218Y0059696D01*
X0159223Y0059635D01*
X0159225Y0059575D01*
X0159225Y0052575D02*
X0159223Y0052515D01*
X0159218Y0052454D01*
X0159209Y0052395D01*
X0159196Y0052336D01*
X0159180Y0052277D01*
X0159160Y0052220D01*
X0159137Y0052165D01*
X0159110Y0052110D01*
X0159081Y0052058D01*
X0159048Y0052007D01*
X0159012Y0051958D01*
X0158974Y0051912D01*
X0158932Y0051868D01*
X0158888Y0051826D01*
X0158842Y0051788D01*
X0158793Y0051752D01*
X0158742Y0051719D01*
X0158690Y0051690D01*
X0158635Y0051663D01*
X0158580Y0051640D01*
X0158523Y0051620D01*
X0158464Y0051604D01*
X0158405Y0051591D01*
X0158346Y0051582D01*
X0158285Y0051577D01*
X0158225Y0051575D01*
X0152725Y0043925D02*
X0147925Y0043925D01*
X0145425Y0043925D02*
X0140725Y0043925D01*
X0108950Y0054825D02*
X0085950Y0054825D01*
X0085950Y0124825D01*
X0093450Y0124825D01*
X0093452Y0124699D01*
X0093458Y0124574D01*
X0093468Y0124449D01*
X0093482Y0124324D01*
X0093499Y0124199D01*
X0093521Y0124075D01*
X0093546Y0123952D01*
X0093576Y0123830D01*
X0093609Y0123709D01*
X0093646Y0123589D01*
X0093686Y0123470D01*
X0093731Y0123353D01*
X0093779Y0123236D01*
X0093831Y0123122D01*
X0093886Y0123009D01*
X0093945Y0122898D01*
X0094007Y0122789D01*
X0094073Y0122682D01*
X0094142Y0122577D01*
X0094214Y0122474D01*
X0094289Y0122373D01*
X0094368Y0122275D01*
X0094450Y0122180D01*
X0094534Y0122087D01*
X0094622Y0121997D01*
X0094712Y0121909D01*
X0094805Y0121825D01*
X0094900Y0121743D01*
X0094998Y0121664D01*
X0095099Y0121589D01*
X0095202Y0121517D01*
X0095307Y0121448D01*
X0095414Y0121382D01*
X0095523Y0121320D01*
X0095634Y0121261D01*
X0095747Y0121206D01*
X0095861Y0121154D01*
X0095978Y0121106D01*
X0096095Y0121061D01*
X0096214Y0121021D01*
X0096334Y0120984D01*
X0096455Y0120951D01*
X0096577Y0120921D01*
X0096700Y0120896D01*
X0096824Y0120874D01*
X0096949Y0120857D01*
X0097074Y0120843D01*
X0097199Y0120833D01*
X0097324Y0120827D01*
X0097450Y0120825D01*
X0097576Y0120827D01*
X0097701Y0120833D01*
X0097826Y0120843D01*
X0097951Y0120857D01*
X0098076Y0120874D01*
X0098200Y0120896D01*
X0098323Y0120921D01*
X0098445Y0120951D01*
X0098566Y0120984D01*
X0098686Y0121021D01*
X0098805Y0121061D01*
X0098922Y0121106D01*
X0099039Y0121154D01*
X0099153Y0121206D01*
X0099266Y0121261D01*
X0099377Y0121320D01*
X0099486Y0121382D01*
X0099593Y0121448D01*
X0099698Y0121517D01*
X0099801Y0121589D01*
X0099902Y0121664D01*
X0100000Y0121743D01*
X0100095Y0121825D01*
X0100188Y0121909D01*
X0100278Y0121997D01*
X0100366Y0122087D01*
X0100450Y0122180D01*
X0100532Y0122275D01*
X0100611Y0122373D01*
X0100686Y0122474D01*
X0100758Y0122577D01*
X0100827Y0122682D01*
X0100893Y0122789D01*
X0100955Y0122898D01*
X0101014Y0123009D01*
X0101069Y0123122D01*
X0101121Y0123236D01*
X0101169Y0123353D01*
X0101214Y0123470D01*
X0101254Y0123589D01*
X0101291Y0123709D01*
X0101324Y0123830D01*
X0101354Y0123952D01*
X0101379Y0124075D01*
X0101401Y0124199D01*
X0101418Y0124324D01*
X0101432Y0124449D01*
X0101442Y0124574D01*
X0101448Y0124699D01*
X0101450Y0124825D01*
X0108950Y0124825D01*
X0108950Y0054825D01*
X0050900Y0116375D02*
X0049400Y0116375D01*
X0048900Y0116875D01*
X0029900Y0116875D01*
X0029400Y0116375D01*
X0027900Y0116375D01*
X0027840Y0116377D01*
X0027779Y0116382D01*
X0027720Y0116391D01*
X0027661Y0116404D01*
X0027602Y0116420D01*
X0027545Y0116440D01*
X0027490Y0116463D01*
X0027435Y0116490D01*
X0027383Y0116519D01*
X0027332Y0116552D01*
X0027283Y0116588D01*
X0027237Y0116626D01*
X0027193Y0116668D01*
X0027151Y0116712D01*
X0027113Y0116758D01*
X0027077Y0116807D01*
X0027044Y0116858D01*
X0027015Y0116910D01*
X0026988Y0116965D01*
X0026965Y0117020D01*
X0026945Y0117077D01*
X0026929Y0117136D01*
X0026916Y0117195D01*
X0026907Y0117254D01*
X0026902Y0117315D01*
X0026900Y0117375D01*
X0026900Y0124375D02*
X0026902Y0124435D01*
X0026907Y0124496D01*
X0026916Y0124555D01*
X0026929Y0124614D01*
X0026945Y0124673D01*
X0026965Y0124730D01*
X0026988Y0124785D01*
X0027015Y0124840D01*
X0027044Y0124892D01*
X0027077Y0124943D01*
X0027113Y0124992D01*
X0027151Y0125038D01*
X0027193Y0125082D01*
X0027237Y0125124D01*
X0027283Y0125162D01*
X0027332Y0125198D01*
X0027383Y0125231D01*
X0027435Y0125260D01*
X0027490Y0125287D01*
X0027545Y0125310D01*
X0027602Y0125330D01*
X0027661Y0125346D01*
X0027720Y0125359D01*
X0027779Y0125368D01*
X0027840Y0125373D01*
X0027900Y0125375D01*
X0029400Y0125375D01*
X0029900Y0124875D01*
X0048900Y0124875D01*
X0049400Y0125375D01*
X0050900Y0125375D01*
X0050960Y0125373D01*
X0051021Y0125368D01*
X0051080Y0125359D01*
X0051139Y0125346D01*
X0051198Y0125330D01*
X0051255Y0125310D01*
X0051310Y0125287D01*
X0051365Y0125260D01*
X0051417Y0125231D01*
X0051468Y0125198D01*
X0051517Y0125162D01*
X0051563Y0125124D01*
X0051607Y0125082D01*
X0051649Y0125038D01*
X0051687Y0124992D01*
X0051723Y0124943D01*
X0051756Y0124892D01*
X0051785Y0124840D01*
X0051812Y0124785D01*
X0051835Y0124730D01*
X0051855Y0124673D01*
X0051871Y0124614D01*
X0051884Y0124555D01*
X0051893Y0124496D01*
X0051898Y0124435D01*
X0051900Y0124375D01*
X0050725Y0130675D02*
X0049225Y0130675D01*
X0048725Y0131175D01*
X0029725Y0131175D01*
X0029225Y0130675D01*
X0027725Y0130675D01*
X0027665Y0130677D01*
X0027604Y0130682D01*
X0027545Y0130691D01*
X0027486Y0130704D01*
X0027427Y0130720D01*
X0027370Y0130740D01*
X0027315Y0130763D01*
X0027260Y0130790D01*
X0027208Y0130819D01*
X0027157Y0130852D01*
X0027108Y0130888D01*
X0027062Y0130926D01*
X0027018Y0130968D01*
X0026976Y0131012D01*
X0026938Y0131058D01*
X0026902Y0131107D01*
X0026869Y0131158D01*
X0026840Y0131210D01*
X0026813Y0131265D01*
X0026790Y0131320D01*
X0026770Y0131377D01*
X0026754Y0131436D01*
X0026741Y0131495D01*
X0026732Y0131554D01*
X0026727Y0131615D01*
X0026725Y0131675D01*
X0026725Y0138675D02*
X0026727Y0138735D01*
X0026732Y0138796D01*
X0026741Y0138855D01*
X0026754Y0138914D01*
X0026770Y0138973D01*
X0026790Y0139030D01*
X0026813Y0139085D01*
X0026840Y0139140D01*
X0026869Y0139192D01*
X0026902Y0139243D01*
X0026938Y0139292D01*
X0026976Y0139338D01*
X0027018Y0139382D01*
X0027062Y0139424D01*
X0027108Y0139462D01*
X0027157Y0139498D01*
X0027208Y0139531D01*
X0027260Y0139560D01*
X0027315Y0139587D01*
X0027370Y0139610D01*
X0027427Y0139630D01*
X0027486Y0139646D01*
X0027545Y0139659D01*
X0027604Y0139668D01*
X0027665Y0139673D01*
X0027725Y0139675D01*
X0029225Y0139675D01*
X0029725Y0139175D01*
X0048725Y0139175D01*
X0049225Y0139675D01*
X0050725Y0139675D01*
X0050785Y0139673D01*
X0050846Y0139668D01*
X0050905Y0139659D01*
X0050964Y0139646D01*
X0051023Y0139630D01*
X0051080Y0139610D01*
X0051135Y0139587D01*
X0051190Y0139560D01*
X0051242Y0139531D01*
X0051293Y0139498D01*
X0051342Y0139462D01*
X0051388Y0139424D01*
X0051432Y0139382D01*
X0051474Y0139338D01*
X0051512Y0139292D01*
X0051548Y0139243D01*
X0051581Y0139192D01*
X0051610Y0139140D01*
X0051637Y0139085D01*
X0051660Y0139030D01*
X0051680Y0138973D01*
X0051696Y0138914D01*
X0051709Y0138855D01*
X0051718Y0138796D01*
X0051723Y0138735D01*
X0051725Y0138675D01*
X0050900Y0144050D02*
X0049400Y0144050D01*
X0048900Y0144550D01*
X0029900Y0144550D01*
X0029400Y0144050D01*
X0027900Y0144050D01*
X0027840Y0144052D01*
X0027779Y0144057D01*
X0027720Y0144066D01*
X0027661Y0144079D01*
X0027602Y0144095D01*
X0027545Y0144115D01*
X0027490Y0144138D01*
X0027435Y0144165D01*
X0027383Y0144194D01*
X0027332Y0144227D01*
X0027283Y0144263D01*
X0027237Y0144301D01*
X0027193Y0144343D01*
X0027151Y0144387D01*
X0027113Y0144433D01*
X0027077Y0144482D01*
X0027044Y0144533D01*
X0027015Y0144585D01*
X0026988Y0144640D01*
X0026965Y0144695D01*
X0026945Y0144752D01*
X0026929Y0144811D01*
X0026916Y0144870D01*
X0026907Y0144929D01*
X0026902Y0144990D01*
X0026900Y0145050D01*
X0026900Y0152050D02*
X0026902Y0152110D01*
X0026907Y0152171D01*
X0026916Y0152230D01*
X0026929Y0152289D01*
X0026945Y0152348D01*
X0026965Y0152405D01*
X0026988Y0152460D01*
X0027015Y0152515D01*
X0027044Y0152567D01*
X0027077Y0152618D01*
X0027113Y0152667D01*
X0027151Y0152713D01*
X0027193Y0152757D01*
X0027237Y0152799D01*
X0027283Y0152837D01*
X0027332Y0152873D01*
X0027383Y0152906D01*
X0027435Y0152935D01*
X0027490Y0152962D01*
X0027545Y0152985D01*
X0027602Y0153005D01*
X0027661Y0153021D01*
X0027720Y0153034D01*
X0027779Y0153043D01*
X0027840Y0153048D01*
X0027900Y0153050D01*
X0029400Y0153050D01*
X0029900Y0152550D01*
X0048900Y0152550D01*
X0049400Y0153050D01*
X0050900Y0153050D01*
X0050960Y0153048D01*
X0051021Y0153043D01*
X0051080Y0153034D01*
X0051139Y0153021D01*
X0051198Y0153005D01*
X0051255Y0152985D01*
X0051310Y0152962D01*
X0051365Y0152935D01*
X0051417Y0152906D01*
X0051468Y0152873D01*
X0051517Y0152837D01*
X0051563Y0152799D01*
X0051607Y0152757D01*
X0051649Y0152713D01*
X0051687Y0152667D01*
X0051723Y0152618D01*
X0051756Y0152567D01*
X0051785Y0152515D01*
X0051812Y0152460D01*
X0051835Y0152405D01*
X0051855Y0152348D01*
X0051871Y0152289D01*
X0051884Y0152230D01*
X0051893Y0152171D01*
X0051898Y0152110D01*
X0051900Y0152050D01*
X0046050Y0155700D02*
X0046050Y0165700D01*
X0030050Y0165700D01*
X0030050Y0155700D01*
X0046050Y0155700D01*
X0042050Y0158200D02*
X0038050Y0160700D01*
X0038050Y0158200D01*
X0038050Y0160700D02*
X0038050Y0163200D01*
X0038050Y0160700D02*
X0042050Y0163200D01*
X0042050Y0158200D01*
X0044050Y0160700D02*
X0038050Y0160700D01*
X0035550Y0160700D01*
X0051900Y0145050D02*
X0051898Y0144990D01*
X0051893Y0144929D01*
X0051884Y0144870D01*
X0051871Y0144811D01*
X0051855Y0144752D01*
X0051835Y0144695D01*
X0051812Y0144640D01*
X0051785Y0144585D01*
X0051756Y0144533D01*
X0051723Y0144482D01*
X0051687Y0144433D01*
X0051649Y0144387D01*
X0051607Y0144343D01*
X0051563Y0144301D01*
X0051517Y0144263D01*
X0051468Y0144227D01*
X0051417Y0144194D01*
X0051365Y0144165D01*
X0051310Y0144138D01*
X0051255Y0144115D01*
X0051198Y0144095D01*
X0051139Y0144079D01*
X0051080Y0144066D01*
X0051021Y0144057D01*
X0050960Y0144052D01*
X0050900Y0144050D01*
X0051725Y0131675D02*
X0051723Y0131615D01*
X0051718Y0131554D01*
X0051709Y0131495D01*
X0051696Y0131436D01*
X0051680Y0131377D01*
X0051660Y0131320D01*
X0051637Y0131265D01*
X0051610Y0131210D01*
X0051581Y0131158D01*
X0051548Y0131107D01*
X0051512Y0131058D01*
X0051474Y0131012D01*
X0051432Y0130968D01*
X0051388Y0130926D01*
X0051342Y0130888D01*
X0051293Y0130852D01*
X0051242Y0130819D01*
X0051190Y0130790D01*
X0051135Y0130763D01*
X0051080Y0130740D01*
X0051023Y0130720D01*
X0050964Y0130704D01*
X0050905Y0130691D01*
X0050846Y0130682D01*
X0050785Y0130677D01*
X0050725Y0130675D01*
X0051900Y0117375D02*
X0051898Y0117315D01*
X0051893Y0117254D01*
X0051884Y0117195D01*
X0051871Y0117136D01*
X0051855Y0117077D01*
X0051835Y0117020D01*
X0051812Y0116965D01*
X0051785Y0116910D01*
X0051756Y0116858D01*
X0051723Y0116807D01*
X0051687Y0116758D01*
X0051649Y0116712D01*
X0051607Y0116668D01*
X0051563Y0116626D01*
X0051517Y0116588D01*
X0051468Y0116552D01*
X0051417Y0116519D01*
X0051365Y0116490D01*
X0051310Y0116463D01*
X0051255Y0116440D01*
X0051198Y0116420D01*
X0051139Y0116404D01*
X0051080Y0116391D01*
X0051021Y0116382D01*
X0050960Y0116377D01*
X0050900Y0116375D01*
X0091425Y0149575D02*
X0099425Y0149575D01*
X0099485Y0149577D01*
X0099546Y0149582D01*
X0099605Y0149591D01*
X0099664Y0149604D01*
X0099723Y0149620D01*
X0099780Y0149640D01*
X0099835Y0149663D01*
X0099890Y0149690D01*
X0099942Y0149719D01*
X0099993Y0149752D01*
X0100042Y0149788D01*
X0100088Y0149826D01*
X0100132Y0149868D01*
X0100174Y0149912D01*
X0100212Y0149958D01*
X0100248Y0150007D01*
X0100281Y0150058D01*
X0100310Y0150110D01*
X0100337Y0150165D01*
X0100360Y0150220D01*
X0100380Y0150277D01*
X0100396Y0150336D01*
X0100409Y0150395D01*
X0100418Y0150454D01*
X0100423Y0150515D01*
X0100425Y0150575D01*
X0100425Y0177575D01*
X0100423Y0177635D01*
X0100418Y0177696D01*
X0100409Y0177755D01*
X0100396Y0177814D01*
X0100380Y0177873D01*
X0100360Y0177930D01*
X0100337Y0177985D01*
X0100310Y0178040D01*
X0100281Y0178092D01*
X0100248Y0178143D01*
X0100212Y0178192D01*
X0100174Y0178238D01*
X0100132Y0178282D01*
X0100088Y0178324D01*
X0100042Y0178362D01*
X0099993Y0178398D01*
X0099942Y0178431D01*
X0099890Y0178460D01*
X0099835Y0178487D01*
X0099780Y0178510D01*
X0099723Y0178530D01*
X0099664Y0178546D01*
X0099605Y0178559D01*
X0099546Y0178568D01*
X0099485Y0178573D01*
X0099425Y0178575D01*
X0091425Y0178575D01*
X0091365Y0178573D01*
X0091304Y0178568D01*
X0091245Y0178559D01*
X0091186Y0178546D01*
X0091127Y0178530D01*
X0091070Y0178510D01*
X0091015Y0178487D01*
X0090960Y0178460D01*
X0090908Y0178431D01*
X0090857Y0178398D01*
X0090808Y0178362D01*
X0090762Y0178324D01*
X0090718Y0178282D01*
X0090676Y0178238D01*
X0090638Y0178192D01*
X0090602Y0178143D01*
X0090569Y0178092D01*
X0090540Y0178040D01*
X0090513Y0177985D01*
X0090490Y0177930D01*
X0090470Y0177873D01*
X0090454Y0177814D01*
X0090441Y0177755D01*
X0090432Y0177696D01*
X0090427Y0177635D01*
X0090425Y0177575D01*
X0090425Y0150575D01*
X0090427Y0150515D01*
X0090432Y0150454D01*
X0090441Y0150395D01*
X0090454Y0150336D01*
X0090470Y0150277D01*
X0090490Y0150220D01*
X0090513Y0150165D01*
X0090540Y0150110D01*
X0090569Y0150058D01*
X0090602Y0150007D01*
X0090638Y0149958D01*
X0090676Y0149912D01*
X0090718Y0149868D01*
X0090762Y0149826D01*
X0090808Y0149788D01*
X0090857Y0149752D01*
X0090908Y0149719D01*
X0090960Y0149690D01*
X0091015Y0149663D01*
X0091070Y0149640D01*
X0091127Y0149620D01*
X0091186Y0149604D01*
X0091245Y0149591D01*
X0091304Y0149582D01*
X0091365Y0149577D01*
X0091425Y0149575D01*
X0095425Y0158075D02*
X0095425Y0162875D01*
X0095425Y0165375D02*
X0095425Y0170075D01*
X0084500Y0173475D02*
X0084374Y0173473D01*
X0084249Y0173467D01*
X0084124Y0173457D01*
X0083999Y0173443D01*
X0083874Y0173426D01*
X0083750Y0173404D01*
X0083627Y0173379D01*
X0083505Y0173349D01*
X0083384Y0173316D01*
X0083264Y0173279D01*
X0083145Y0173239D01*
X0083028Y0173194D01*
X0082911Y0173146D01*
X0082797Y0173094D01*
X0082684Y0173039D01*
X0082573Y0172980D01*
X0082464Y0172918D01*
X0082357Y0172852D01*
X0082252Y0172783D01*
X0082149Y0172711D01*
X0082048Y0172636D01*
X0081950Y0172557D01*
X0081855Y0172475D01*
X0081762Y0172391D01*
X0081672Y0172303D01*
X0081584Y0172213D01*
X0081500Y0172120D01*
X0081418Y0172025D01*
X0081339Y0171927D01*
X0081264Y0171826D01*
X0081192Y0171723D01*
X0081123Y0171618D01*
X0081057Y0171511D01*
X0080995Y0171402D01*
X0080936Y0171291D01*
X0080881Y0171178D01*
X0080829Y0171064D01*
X0080781Y0170947D01*
X0080736Y0170830D01*
X0080696Y0170711D01*
X0080659Y0170591D01*
X0080626Y0170470D01*
X0080596Y0170348D01*
X0080571Y0170225D01*
X0080549Y0170101D01*
X0080532Y0169976D01*
X0080518Y0169851D01*
X0080508Y0169726D01*
X0080502Y0169601D01*
X0080500Y0169475D01*
X0080502Y0169349D01*
X0080508Y0169224D01*
X0080518Y0169099D01*
X0080532Y0168974D01*
X0080549Y0168849D01*
X0080571Y0168725D01*
X0080596Y0168602D01*
X0080626Y0168480D01*
X0080659Y0168359D01*
X0080696Y0168239D01*
X0080736Y0168120D01*
X0080781Y0168003D01*
X0080829Y0167886D01*
X0080881Y0167772D01*
X0080936Y0167659D01*
X0080995Y0167548D01*
X0081057Y0167439D01*
X0081123Y0167332D01*
X0081192Y0167227D01*
X0081264Y0167124D01*
X0081339Y0167023D01*
X0081418Y0166925D01*
X0081500Y0166830D01*
X0081584Y0166737D01*
X0081672Y0166647D01*
X0081762Y0166559D01*
X0081855Y0166475D01*
X0081950Y0166393D01*
X0082048Y0166314D01*
X0082149Y0166239D01*
X0082252Y0166167D01*
X0082357Y0166098D01*
X0082464Y0166032D01*
X0082573Y0165970D01*
X0082684Y0165911D01*
X0082797Y0165856D01*
X0082911Y0165804D01*
X0083028Y0165756D01*
X0083145Y0165711D01*
X0083264Y0165671D01*
X0083384Y0165634D01*
X0083505Y0165601D01*
X0083627Y0165571D01*
X0083750Y0165546D01*
X0083874Y0165524D01*
X0083999Y0165507D01*
X0084124Y0165493D01*
X0084249Y0165483D01*
X0084374Y0165477D01*
X0084500Y0165475D01*
X0084500Y0157975D01*
X0064500Y0157975D01*
X0064500Y0180975D01*
X0084500Y0180975D01*
X0084500Y0173475D01*
X0115750Y0164875D02*
X0115750Y0157875D01*
X0127750Y0157875D01*
X0127750Y0164875D01*
X0115750Y0164875D01*
X0119750Y0161375D02*
X0121250Y0161375D01*
X0121250Y0163375D01*
X0122250Y0163375D01*
X0121250Y0161375D02*
X0125250Y0163375D01*
X0125250Y0159375D01*
X0121250Y0161375D01*
X0121250Y0159375D01*
X0121250Y0161375D02*
X0126750Y0161375D01*
X0131750Y0151700D02*
X0131250Y0151200D01*
X0112250Y0151200D01*
X0111750Y0151700D01*
X0110250Y0151700D01*
X0110190Y0151698D01*
X0110129Y0151693D01*
X0110070Y0151684D01*
X0110011Y0151671D01*
X0109952Y0151655D01*
X0109895Y0151635D01*
X0109840Y0151612D01*
X0109785Y0151585D01*
X0109733Y0151556D01*
X0109682Y0151523D01*
X0109633Y0151487D01*
X0109587Y0151449D01*
X0109543Y0151407D01*
X0109501Y0151363D01*
X0109463Y0151317D01*
X0109427Y0151268D01*
X0109394Y0151217D01*
X0109365Y0151165D01*
X0109338Y0151110D01*
X0109315Y0151055D01*
X0109295Y0150998D01*
X0109279Y0150939D01*
X0109266Y0150880D01*
X0109257Y0150821D01*
X0109252Y0150760D01*
X0109250Y0150700D01*
X0109250Y0143700D02*
X0109252Y0143640D01*
X0109257Y0143579D01*
X0109266Y0143520D01*
X0109279Y0143461D01*
X0109295Y0143402D01*
X0109315Y0143345D01*
X0109338Y0143290D01*
X0109365Y0143235D01*
X0109394Y0143183D01*
X0109427Y0143132D01*
X0109463Y0143083D01*
X0109501Y0143037D01*
X0109543Y0142993D01*
X0109587Y0142951D01*
X0109633Y0142913D01*
X0109682Y0142877D01*
X0109733Y0142844D01*
X0109785Y0142815D01*
X0109840Y0142788D01*
X0109895Y0142765D01*
X0109952Y0142745D01*
X0110011Y0142729D01*
X0110070Y0142716D01*
X0110129Y0142707D01*
X0110190Y0142702D01*
X0110250Y0142700D01*
X0111750Y0142700D01*
X0112250Y0143200D01*
X0131250Y0143200D01*
X0131750Y0142700D01*
X0133250Y0142700D01*
X0133310Y0142702D01*
X0133371Y0142707D01*
X0133430Y0142716D01*
X0133489Y0142729D01*
X0133548Y0142745D01*
X0133605Y0142765D01*
X0133660Y0142788D01*
X0133715Y0142815D01*
X0133767Y0142844D01*
X0133818Y0142877D01*
X0133867Y0142913D01*
X0133913Y0142951D01*
X0133957Y0142993D01*
X0133999Y0143037D01*
X0134037Y0143083D01*
X0134073Y0143132D01*
X0134106Y0143183D01*
X0134135Y0143235D01*
X0134162Y0143290D01*
X0134185Y0143345D01*
X0134205Y0143402D01*
X0134221Y0143461D01*
X0134234Y0143520D01*
X0134243Y0143579D01*
X0134248Y0143640D01*
X0134250Y0143700D01*
X0134250Y0150700D02*
X0134248Y0150760D01*
X0134243Y0150821D01*
X0134234Y0150880D01*
X0134221Y0150939D01*
X0134205Y0150998D01*
X0134185Y0151055D01*
X0134162Y0151110D01*
X0134135Y0151165D01*
X0134106Y0151217D01*
X0134073Y0151268D01*
X0134037Y0151317D01*
X0133999Y0151363D01*
X0133957Y0151407D01*
X0133913Y0151449D01*
X0133867Y0151487D01*
X0133818Y0151523D01*
X0133767Y0151556D01*
X0133715Y0151585D01*
X0133660Y0151612D01*
X0133605Y0151635D01*
X0133548Y0151655D01*
X0133489Y0151671D01*
X0133430Y0151684D01*
X0133371Y0151693D01*
X0133310Y0151698D01*
X0133250Y0151700D01*
X0131750Y0151700D01*
X0175725Y0151700D02*
X0177225Y0151700D01*
X0177725Y0151200D01*
X0196725Y0151200D01*
X0197225Y0151700D01*
X0198725Y0151700D01*
X0198785Y0151698D01*
X0198846Y0151693D01*
X0198905Y0151684D01*
X0198964Y0151671D01*
X0199023Y0151655D01*
X0199080Y0151635D01*
X0199135Y0151612D01*
X0199190Y0151585D01*
X0199242Y0151556D01*
X0199293Y0151523D01*
X0199342Y0151487D01*
X0199388Y0151449D01*
X0199432Y0151407D01*
X0199474Y0151363D01*
X0199512Y0151317D01*
X0199548Y0151268D01*
X0199581Y0151217D01*
X0199610Y0151165D01*
X0199637Y0151110D01*
X0199660Y0151055D01*
X0199680Y0150998D01*
X0199696Y0150939D01*
X0199709Y0150880D01*
X0199718Y0150821D01*
X0199723Y0150760D01*
X0199725Y0150700D01*
X0193225Y0157875D02*
X0193225Y0164875D01*
X0181225Y0164875D01*
X0181225Y0157875D01*
X0193225Y0157875D01*
X0190725Y0159375D02*
X0186725Y0161375D01*
X0186725Y0163375D01*
X0187725Y0163375D01*
X0186725Y0161375D02*
X0186725Y0159375D01*
X0186725Y0161375D02*
X0190725Y0163375D01*
X0190725Y0159375D01*
X0192225Y0161375D02*
X0186725Y0161375D01*
X0185225Y0161375D01*
X0175725Y0151700D02*
X0175665Y0151698D01*
X0175604Y0151693D01*
X0175545Y0151684D01*
X0175486Y0151671D01*
X0175427Y0151655D01*
X0175370Y0151635D01*
X0175315Y0151612D01*
X0175260Y0151585D01*
X0175208Y0151556D01*
X0175157Y0151523D01*
X0175108Y0151487D01*
X0175062Y0151449D01*
X0175018Y0151407D01*
X0174976Y0151363D01*
X0174938Y0151317D01*
X0174902Y0151268D01*
X0174869Y0151217D01*
X0174840Y0151165D01*
X0174813Y0151110D01*
X0174790Y0151055D01*
X0174770Y0150998D01*
X0174754Y0150939D01*
X0174741Y0150880D01*
X0174732Y0150821D01*
X0174727Y0150760D01*
X0174725Y0150700D01*
X0174725Y0143700D02*
X0174727Y0143640D01*
X0174732Y0143579D01*
X0174741Y0143520D01*
X0174754Y0143461D01*
X0174770Y0143402D01*
X0174790Y0143345D01*
X0174813Y0143290D01*
X0174840Y0143235D01*
X0174869Y0143183D01*
X0174902Y0143132D01*
X0174938Y0143083D01*
X0174976Y0143037D01*
X0175018Y0142993D01*
X0175062Y0142951D01*
X0175108Y0142913D01*
X0175157Y0142877D01*
X0175208Y0142844D01*
X0175260Y0142815D01*
X0175315Y0142788D01*
X0175370Y0142765D01*
X0175427Y0142745D01*
X0175486Y0142729D01*
X0175545Y0142716D01*
X0175604Y0142707D01*
X0175665Y0142702D01*
X0175725Y0142700D01*
D12*
X0190008Y0141450D02*
X0190008Y0136950D01*
X0190008Y0138950D02*
X0191258Y0138950D01*
X0191508Y0138950D02*
X0192508Y0136950D01*
X0195725Y0136950D02*
X0196975Y0141450D01*
X0194475Y0141450D01*
X0194475Y0140950D01*
X0191258Y0141450D02*
X0190008Y0141450D01*
X0191258Y0141450D02*
X0191327Y0141448D01*
X0191396Y0141442D01*
X0191464Y0141433D01*
X0191531Y0141420D01*
X0191598Y0141403D01*
X0191664Y0141382D01*
X0191728Y0141358D01*
X0191791Y0141330D01*
X0191853Y0141299D01*
X0191913Y0141265D01*
X0191970Y0141227D01*
X0192026Y0141186D01*
X0192079Y0141143D01*
X0192130Y0141096D01*
X0192178Y0141047D01*
X0192223Y0140995D01*
X0192265Y0140940D01*
X0192304Y0140884D01*
X0192341Y0140825D01*
X0192373Y0140764D01*
X0192403Y0140702D01*
X0192429Y0140638D01*
X0192451Y0140573D01*
X0192470Y0140507D01*
X0192485Y0140440D01*
X0192496Y0140372D01*
X0192504Y0140303D01*
X0192508Y0140234D01*
X0192508Y0140166D01*
X0192504Y0140097D01*
X0192496Y0140028D01*
X0192485Y0139960D01*
X0192470Y0139893D01*
X0192451Y0139827D01*
X0192429Y0139762D01*
X0192403Y0139698D01*
X0192373Y0139636D01*
X0192341Y0139575D01*
X0192304Y0139516D01*
X0192265Y0139460D01*
X0192223Y0139405D01*
X0192178Y0139353D01*
X0192130Y0139304D01*
X0192079Y0139257D01*
X0192026Y0139214D01*
X0191970Y0139173D01*
X0191913Y0139135D01*
X0191853Y0139101D01*
X0191791Y0139070D01*
X0191728Y0139042D01*
X0191664Y0139018D01*
X0191598Y0138997D01*
X0191531Y0138980D01*
X0191464Y0138967D01*
X0191396Y0138958D01*
X0191327Y0138952D01*
X0191258Y0138950D01*
X0211875Y0141150D02*
X0212375Y0141150D01*
X0212435Y0141152D01*
X0212496Y0141157D01*
X0212555Y0141166D01*
X0212614Y0141179D01*
X0212673Y0141195D01*
X0212730Y0141215D01*
X0212785Y0141238D01*
X0212840Y0141265D01*
X0212892Y0141294D01*
X0212943Y0141327D01*
X0212992Y0141363D01*
X0213038Y0141401D01*
X0213082Y0141443D01*
X0213124Y0141487D01*
X0213162Y0141533D01*
X0213198Y0141582D01*
X0213231Y0141633D01*
X0213260Y0141685D01*
X0213287Y0141740D01*
X0213310Y0141795D01*
X0213330Y0141852D01*
X0213346Y0141911D01*
X0213359Y0141970D01*
X0213368Y0142029D01*
X0213373Y0142090D01*
X0213375Y0142150D01*
X0213375Y0145650D01*
X0215729Y0145650D02*
X0216979Y0145650D01*
X0215729Y0145650D02*
X0215729Y0141150D01*
X0215729Y0143150D02*
X0216979Y0143150D01*
X0217048Y0143152D01*
X0217117Y0143158D01*
X0217185Y0143167D01*
X0217252Y0143180D01*
X0217319Y0143197D01*
X0217385Y0143218D01*
X0217449Y0143242D01*
X0217512Y0143270D01*
X0217574Y0143301D01*
X0217634Y0143335D01*
X0217691Y0143373D01*
X0217747Y0143414D01*
X0217800Y0143457D01*
X0217851Y0143504D01*
X0217899Y0143553D01*
X0217944Y0143605D01*
X0217986Y0143660D01*
X0218025Y0143716D01*
X0218062Y0143775D01*
X0218094Y0143836D01*
X0218124Y0143898D01*
X0218150Y0143962D01*
X0218172Y0144027D01*
X0218191Y0144093D01*
X0218206Y0144160D01*
X0218217Y0144228D01*
X0218225Y0144297D01*
X0218229Y0144366D01*
X0218229Y0144434D01*
X0218225Y0144503D01*
X0218217Y0144572D01*
X0218206Y0144640D01*
X0218191Y0144707D01*
X0218172Y0144773D01*
X0218150Y0144838D01*
X0218124Y0144902D01*
X0218094Y0144964D01*
X0218062Y0145025D01*
X0218025Y0145084D01*
X0217986Y0145140D01*
X0217944Y0145195D01*
X0217899Y0145247D01*
X0217851Y0145296D01*
X0217800Y0145343D01*
X0217747Y0145386D01*
X0217691Y0145427D01*
X0217634Y0145465D01*
X0217574Y0145499D01*
X0217512Y0145530D01*
X0217449Y0145558D01*
X0217385Y0145582D01*
X0217319Y0145603D01*
X0217252Y0145620D01*
X0217185Y0145633D01*
X0217117Y0145642D01*
X0217048Y0145648D01*
X0216979Y0145650D01*
X0222129Y0143650D02*
X0222175Y0143696D01*
X0222219Y0143745D01*
X0222259Y0143796D01*
X0222297Y0143849D01*
X0222332Y0143904D01*
X0222364Y0143961D01*
X0222393Y0144019D01*
X0222419Y0144079D01*
X0222441Y0144141D01*
X0222460Y0144203D01*
X0222476Y0144266D01*
X0222488Y0144330D01*
X0222497Y0144395D01*
X0222502Y0144460D01*
X0222504Y0144525D01*
X0222129Y0143650D02*
X0220004Y0141150D01*
X0222504Y0141150D01*
X0220004Y0144650D02*
X0220028Y0144719D01*
X0220056Y0144786D01*
X0220087Y0144852D01*
X0220121Y0144916D01*
X0220158Y0144978D01*
X0220199Y0145039D01*
X0220242Y0145097D01*
X0220288Y0145153D01*
X0220338Y0145207D01*
X0220389Y0145258D01*
X0220443Y0145306D01*
X0220500Y0145352D01*
X0220559Y0145395D01*
X0220620Y0145434D01*
X0220682Y0145471D01*
X0220747Y0145504D01*
X0220813Y0145535D01*
X0220881Y0145561D01*
X0220949Y0145585D01*
X0221019Y0145605D01*
X0221090Y0145621D01*
X0221162Y0145634D01*
X0221234Y0145643D01*
X0221306Y0145648D01*
X0221379Y0145650D01*
X0221444Y0145648D01*
X0221510Y0145642D01*
X0221574Y0145633D01*
X0221638Y0145620D01*
X0221702Y0145603D01*
X0221764Y0145582D01*
X0221825Y0145558D01*
X0221884Y0145530D01*
X0221942Y0145499D01*
X0221997Y0145465D01*
X0222051Y0145427D01*
X0222102Y0145387D01*
X0222151Y0145343D01*
X0222197Y0145297D01*
X0222241Y0145248D01*
X0222281Y0145197D01*
X0222319Y0145143D01*
X0222353Y0145088D01*
X0222384Y0145030D01*
X0222412Y0144971D01*
X0222436Y0144910D01*
X0222457Y0144848D01*
X0222474Y0144784D01*
X0222487Y0144720D01*
X0222496Y0144656D01*
X0222502Y0144590D01*
X0222504Y0144525D01*
X0221254Y0130125D02*
X0221254Y0125625D01*
X0220004Y0125625D02*
X0222504Y0125625D01*
X0216979Y0127625D02*
X0215729Y0127625D01*
X0216979Y0127625D02*
X0217048Y0127627D01*
X0217117Y0127633D01*
X0217185Y0127642D01*
X0217252Y0127655D01*
X0217319Y0127672D01*
X0217385Y0127693D01*
X0217449Y0127717D01*
X0217512Y0127745D01*
X0217574Y0127776D01*
X0217634Y0127810D01*
X0217691Y0127848D01*
X0217747Y0127889D01*
X0217800Y0127932D01*
X0217851Y0127979D01*
X0217899Y0128028D01*
X0217944Y0128080D01*
X0217986Y0128135D01*
X0218025Y0128191D01*
X0218062Y0128250D01*
X0218094Y0128311D01*
X0218124Y0128373D01*
X0218150Y0128437D01*
X0218172Y0128502D01*
X0218191Y0128568D01*
X0218206Y0128635D01*
X0218217Y0128703D01*
X0218225Y0128772D01*
X0218229Y0128841D01*
X0218229Y0128909D01*
X0218225Y0128978D01*
X0218217Y0129047D01*
X0218206Y0129115D01*
X0218191Y0129182D01*
X0218172Y0129248D01*
X0218150Y0129313D01*
X0218124Y0129377D01*
X0218094Y0129439D01*
X0218062Y0129500D01*
X0218025Y0129559D01*
X0217986Y0129615D01*
X0217944Y0129670D01*
X0217899Y0129722D01*
X0217851Y0129771D01*
X0217800Y0129818D01*
X0217747Y0129861D01*
X0217691Y0129902D01*
X0217634Y0129940D01*
X0217574Y0129974D01*
X0217512Y0130005D01*
X0217449Y0130033D01*
X0217385Y0130057D01*
X0217319Y0130078D01*
X0217252Y0130095D01*
X0217185Y0130108D01*
X0217117Y0130117D01*
X0217048Y0130123D01*
X0216979Y0130125D01*
X0215729Y0130125D01*
X0215729Y0125625D01*
X0213375Y0126625D02*
X0213375Y0130125D01*
X0213375Y0126625D02*
X0213373Y0126565D01*
X0213368Y0126504D01*
X0213359Y0126445D01*
X0213346Y0126386D01*
X0213330Y0126327D01*
X0213310Y0126270D01*
X0213287Y0126215D01*
X0213260Y0126160D01*
X0213231Y0126108D01*
X0213198Y0126057D01*
X0213162Y0126008D01*
X0213124Y0125962D01*
X0213082Y0125918D01*
X0213038Y0125876D01*
X0212992Y0125838D01*
X0212943Y0125802D01*
X0212892Y0125769D01*
X0212840Y0125740D01*
X0212785Y0125713D01*
X0212730Y0125690D01*
X0212673Y0125670D01*
X0212614Y0125654D01*
X0212555Y0125641D01*
X0212496Y0125632D01*
X0212435Y0125627D01*
X0212375Y0125625D01*
X0211875Y0125625D01*
X0220004Y0129125D02*
X0221254Y0130125D01*
X0221504Y0115950D02*
X0220004Y0115950D01*
X0221504Y0115950D02*
X0221566Y0115948D01*
X0221627Y0115942D01*
X0221688Y0115933D01*
X0221748Y0115920D01*
X0221807Y0115903D01*
X0221865Y0115882D01*
X0221922Y0115858D01*
X0221977Y0115831D01*
X0222030Y0115800D01*
X0222082Y0115766D01*
X0222131Y0115729D01*
X0222178Y0115689D01*
X0222222Y0115646D01*
X0222263Y0115601D01*
X0222302Y0115553D01*
X0222338Y0115502D01*
X0222370Y0115450D01*
X0222399Y0115396D01*
X0222425Y0115340D01*
X0222447Y0115282D01*
X0222466Y0115224D01*
X0222481Y0115164D01*
X0222492Y0115103D01*
X0222500Y0115042D01*
X0222504Y0114981D01*
X0222504Y0114919D01*
X0222500Y0114858D01*
X0222492Y0114797D01*
X0222481Y0114736D01*
X0222466Y0114676D01*
X0222447Y0114618D01*
X0222425Y0114560D01*
X0222399Y0114504D01*
X0222370Y0114450D01*
X0222338Y0114398D01*
X0222302Y0114347D01*
X0222263Y0114299D01*
X0222222Y0114254D01*
X0222178Y0114211D01*
X0222131Y0114171D01*
X0222082Y0114134D01*
X0222030Y0114100D01*
X0221977Y0114069D01*
X0221922Y0114042D01*
X0221865Y0114018D01*
X0221807Y0113997D01*
X0221748Y0113980D01*
X0221688Y0113967D01*
X0221627Y0113958D01*
X0221566Y0113952D01*
X0221504Y0113950D01*
X0220504Y0113950D01*
X0221254Y0113950D02*
X0221323Y0113948D01*
X0221392Y0113942D01*
X0221460Y0113933D01*
X0221527Y0113920D01*
X0221594Y0113903D01*
X0221660Y0113882D01*
X0221724Y0113858D01*
X0221787Y0113830D01*
X0221849Y0113799D01*
X0221909Y0113765D01*
X0221966Y0113727D01*
X0222022Y0113686D01*
X0222075Y0113643D01*
X0222126Y0113596D01*
X0222174Y0113547D01*
X0222219Y0113495D01*
X0222261Y0113440D01*
X0222300Y0113384D01*
X0222337Y0113325D01*
X0222369Y0113264D01*
X0222399Y0113202D01*
X0222425Y0113138D01*
X0222447Y0113073D01*
X0222466Y0113007D01*
X0222481Y0112940D01*
X0222492Y0112872D01*
X0222500Y0112803D01*
X0222504Y0112734D01*
X0222504Y0112666D01*
X0222500Y0112597D01*
X0222492Y0112528D01*
X0222481Y0112460D01*
X0222466Y0112393D01*
X0222447Y0112327D01*
X0222425Y0112262D01*
X0222399Y0112198D01*
X0222369Y0112136D01*
X0222337Y0112075D01*
X0222300Y0112016D01*
X0222261Y0111960D01*
X0222219Y0111905D01*
X0222174Y0111853D01*
X0222126Y0111804D01*
X0222075Y0111757D01*
X0222022Y0111714D01*
X0221966Y0111673D01*
X0221909Y0111635D01*
X0221849Y0111601D01*
X0221787Y0111570D01*
X0221724Y0111542D01*
X0221660Y0111518D01*
X0221594Y0111497D01*
X0221527Y0111480D01*
X0221460Y0111467D01*
X0221392Y0111458D01*
X0221323Y0111452D01*
X0221254Y0111450D01*
X0220004Y0111450D01*
X0216979Y0113450D02*
X0215729Y0113450D01*
X0216979Y0113450D02*
X0217048Y0113452D01*
X0217117Y0113458D01*
X0217185Y0113467D01*
X0217252Y0113480D01*
X0217319Y0113497D01*
X0217385Y0113518D01*
X0217449Y0113542D01*
X0217512Y0113570D01*
X0217574Y0113601D01*
X0217634Y0113635D01*
X0217691Y0113673D01*
X0217747Y0113714D01*
X0217800Y0113757D01*
X0217851Y0113804D01*
X0217899Y0113853D01*
X0217944Y0113905D01*
X0217986Y0113960D01*
X0218025Y0114016D01*
X0218062Y0114075D01*
X0218094Y0114136D01*
X0218124Y0114198D01*
X0218150Y0114262D01*
X0218172Y0114327D01*
X0218191Y0114393D01*
X0218206Y0114460D01*
X0218217Y0114528D01*
X0218225Y0114597D01*
X0218229Y0114666D01*
X0218229Y0114734D01*
X0218225Y0114803D01*
X0218217Y0114872D01*
X0218206Y0114940D01*
X0218191Y0115007D01*
X0218172Y0115073D01*
X0218150Y0115138D01*
X0218124Y0115202D01*
X0218094Y0115264D01*
X0218062Y0115325D01*
X0218025Y0115384D01*
X0217986Y0115440D01*
X0217944Y0115495D01*
X0217899Y0115547D01*
X0217851Y0115596D01*
X0217800Y0115643D01*
X0217747Y0115686D01*
X0217691Y0115727D01*
X0217634Y0115765D01*
X0217574Y0115799D01*
X0217512Y0115830D01*
X0217449Y0115858D01*
X0217385Y0115882D01*
X0217319Y0115903D01*
X0217252Y0115920D01*
X0217185Y0115933D01*
X0217117Y0115942D01*
X0217048Y0115948D01*
X0216979Y0115950D01*
X0215729Y0115950D01*
X0215729Y0111450D01*
X0213375Y0112450D02*
X0213375Y0115950D01*
X0213375Y0112450D02*
X0213373Y0112390D01*
X0213368Y0112329D01*
X0213359Y0112270D01*
X0213346Y0112211D01*
X0213330Y0112152D01*
X0213310Y0112095D01*
X0213287Y0112040D01*
X0213260Y0111985D01*
X0213231Y0111933D01*
X0213198Y0111882D01*
X0213162Y0111833D01*
X0213124Y0111787D01*
X0213082Y0111743D01*
X0213038Y0111701D01*
X0212992Y0111663D01*
X0212943Y0111627D01*
X0212892Y0111594D01*
X0212840Y0111565D01*
X0212785Y0111538D01*
X0212730Y0111515D01*
X0212673Y0111495D01*
X0212614Y0111479D01*
X0212555Y0111466D01*
X0212496Y0111457D01*
X0212435Y0111452D01*
X0212375Y0111450D01*
X0211875Y0111450D01*
X0183715Y0087925D02*
X0182215Y0087925D01*
X0180450Y0087925D02*
X0179450Y0087925D01*
X0179390Y0087923D01*
X0179329Y0087918D01*
X0179270Y0087909D01*
X0179211Y0087896D01*
X0179152Y0087880D01*
X0179095Y0087860D01*
X0179040Y0087837D01*
X0178985Y0087810D01*
X0178933Y0087781D01*
X0178882Y0087748D01*
X0178833Y0087712D01*
X0178787Y0087674D01*
X0178743Y0087632D01*
X0178701Y0087588D01*
X0178663Y0087542D01*
X0178627Y0087493D01*
X0178594Y0087442D01*
X0178565Y0087390D01*
X0178538Y0087335D01*
X0178515Y0087280D01*
X0178495Y0087223D01*
X0178479Y0087164D01*
X0178466Y0087105D01*
X0178457Y0087046D01*
X0178452Y0086985D01*
X0178450Y0086925D01*
X0178450Y0084425D01*
X0178452Y0084365D01*
X0178457Y0084304D01*
X0178466Y0084245D01*
X0178479Y0084186D01*
X0178495Y0084127D01*
X0178515Y0084070D01*
X0178538Y0084015D01*
X0178565Y0083960D01*
X0178594Y0083908D01*
X0178627Y0083857D01*
X0178663Y0083808D01*
X0178701Y0083762D01*
X0178743Y0083718D01*
X0178787Y0083676D01*
X0178833Y0083638D01*
X0178882Y0083602D01*
X0178933Y0083569D01*
X0178985Y0083540D01*
X0179040Y0083513D01*
X0179095Y0083490D01*
X0179152Y0083470D01*
X0179211Y0083454D01*
X0179270Y0083441D01*
X0179329Y0083432D01*
X0179390Y0083427D01*
X0179450Y0083425D01*
X0180450Y0083425D01*
X0182215Y0083425D02*
X0183465Y0083425D01*
X0183534Y0083427D01*
X0183603Y0083433D01*
X0183671Y0083442D01*
X0183738Y0083455D01*
X0183805Y0083472D01*
X0183871Y0083493D01*
X0183935Y0083517D01*
X0183998Y0083545D01*
X0184060Y0083576D01*
X0184120Y0083610D01*
X0184177Y0083648D01*
X0184233Y0083689D01*
X0184286Y0083732D01*
X0184337Y0083779D01*
X0184385Y0083828D01*
X0184430Y0083880D01*
X0184472Y0083935D01*
X0184511Y0083991D01*
X0184548Y0084050D01*
X0184580Y0084111D01*
X0184610Y0084173D01*
X0184636Y0084237D01*
X0184658Y0084302D01*
X0184677Y0084368D01*
X0184692Y0084435D01*
X0184703Y0084503D01*
X0184711Y0084572D01*
X0184715Y0084641D01*
X0184715Y0084709D01*
X0184711Y0084778D01*
X0184703Y0084847D01*
X0184692Y0084915D01*
X0184677Y0084982D01*
X0184658Y0085048D01*
X0184636Y0085113D01*
X0184610Y0085177D01*
X0184580Y0085239D01*
X0184548Y0085300D01*
X0184511Y0085359D01*
X0184472Y0085415D01*
X0184430Y0085470D01*
X0184385Y0085522D01*
X0184337Y0085571D01*
X0184286Y0085618D01*
X0184233Y0085661D01*
X0184177Y0085702D01*
X0184120Y0085740D01*
X0184060Y0085774D01*
X0183998Y0085805D01*
X0183935Y0085833D01*
X0183871Y0085857D01*
X0183805Y0085878D01*
X0183738Y0085895D01*
X0183671Y0085908D01*
X0183603Y0085917D01*
X0183534Y0085923D01*
X0183465Y0085925D01*
X0183715Y0085925D02*
X0182715Y0085925D01*
X0183715Y0085925D02*
X0183777Y0085927D01*
X0183838Y0085933D01*
X0183899Y0085942D01*
X0183959Y0085955D01*
X0184018Y0085972D01*
X0184076Y0085993D01*
X0184133Y0086017D01*
X0184188Y0086044D01*
X0184241Y0086075D01*
X0184293Y0086109D01*
X0184342Y0086146D01*
X0184389Y0086186D01*
X0184433Y0086229D01*
X0184474Y0086274D01*
X0184513Y0086322D01*
X0184549Y0086373D01*
X0184581Y0086425D01*
X0184610Y0086479D01*
X0184636Y0086535D01*
X0184658Y0086593D01*
X0184677Y0086651D01*
X0184692Y0086711D01*
X0184703Y0086772D01*
X0184711Y0086833D01*
X0184715Y0086894D01*
X0184715Y0086956D01*
X0184711Y0087017D01*
X0184703Y0087078D01*
X0184692Y0087139D01*
X0184677Y0087199D01*
X0184658Y0087257D01*
X0184636Y0087315D01*
X0184610Y0087371D01*
X0184581Y0087425D01*
X0184549Y0087477D01*
X0184513Y0087528D01*
X0184474Y0087576D01*
X0184433Y0087621D01*
X0184389Y0087664D01*
X0184342Y0087704D01*
X0184293Y0087741D01*
X0184241Y0087775D01*
X0184188Y0087806D01*
X0184133Y0087833D01*
X0184076Y0087857D01*
X0184018Y0087878D01*
X0183959Y0087895D01*
X0183899Y0087908D01*
X0183838Y0087917D01*
X0183777Y0087923D01*
X0183715Y0087925D01*
X0153800Y0075475D02*
X0151300Y0075475D01*
X0151300Y0073475D01*
X0152800Y0073475D01*
X0152860Y0073473D01*
X0152921Y0073468D01*
X0152980Y0073459D01*
X0153039Y0073446D01*
X0153098Y0073430D01*
X0153155Y0073410D01*
X0153210Y0073387D01*
X0153265Y0073360D01*
X0153317Y0073331D01*
X0153368Y0073298D01*
X0153417Y0073262D01*
X0153463Y0073224D01*
X0153507Y0073182D01*
X0153549Y0073138D01*
X0153587Y0073092D01*
X0153623Y0073043D01*
X0153656Y0072992D01*
X0153685Y0072940D01*
X0153712Y0072885D01*
X0153735Y0072830D01*
X0153755Y0072773D01*
X0153771Y0072714D01*
X0153784Y0072655D01*
X0153793Y0072596D01*
X0153798Y0072535D01*
X0153800Y0072475D01*
X0153800Y0071975D01*
X0153798Y0071915D01*
X0153793Y0071854D01*
X0153784Y0071795D01*
X0153771Y0071736D01*
X0153755Y0071677D01*
X0153735Y0071620D01*
X0153712Y0071565D01*
X0153685Y0071510D01*
X0153656Y0071458D01*
X0153623Y0071407D01*
X0153587Y0071358D01*
X0153549Y0071312D01*
X0153507Y0071268D01*
X0153463Y0071226D01*
X0153417Y0071188D01*
X0153368Y0071152D01*
X0153317Y0071119D01*
X0153265Y0071090D01*
X0153210Y0071063D01*
X0153155Y0071040D01*
X0153098Y0071020D01*
X0153039Y0071004D01*
X0152980Y0070991D01*
X0152921Y0070982D01*
X0152860Y0070977D01*
X0152800Y0070975D01*
X0151300Y0070975D01*
X0149535Y0070975D02*
X0148535Y0070975D01*
X0148475Y0070977D01*
X0148414Y0070982D01*
X0148355Y0070991D01*
X0148296Y0071004D01*
X0148237Y0071020D01*
X0148180Y0071040D01*
X0148125Y0071063D01*
X0148070Y0071090D01*
X0148018Y0071119D01*
X0147967Y0071152D01*
X0147918Y0071188D01*
X0147872Y0071226D01*
X0147828Y0071268D01*
X0147786Y0071312D01*
X0147748Y0071358D01*
X0147712Y0071407D01*
X0147679Y0071458D01*
X0147650Y0071510D01*
X0147623Y0071565D01*
X0147600Y0071620D01*
X0147580Y0071677D01*
X0147564Y0071736D01*
X0147551Y0071795D01*
X0147542Y0071854D01*
X0147537Y0071915D01*
X0147535Y0071975D01*
X0147535Y0074475D01*
X0147537Y0074535D01*
X0147542Y0074596D01*
X0147551Y0074655D01*
X0147564Y0074714D01*
X0147580Y0074773D01*
X0147600Y0074830D01*
X0147623Y0074885D01*
X0147650Y0074940D01*
X0147679Y0074992D01*
X0147712Y0075043D01*
X0147748Y0075092D01*
X0147786Y0075138D01*
X0147828Y0075182D01*
X0147872Y0075224D01*
X0147918Y0075262D01*
X0147967Y0075298D01*
X0148018Y0075331D01*
X0148070Y0075360D01*
X0148125Y0075387D01*
X0148180Y0075410D01*
X0148237Y0075430D01*
X0148296Y0075446D01*
X0148355Y0075459D01*
X0148414Y0075468D01*
X0148475Y0075473D01*
X0148535Y0075475D01*
X0149535Y0075475D01*
X0142692Y0066325D02*
X0142692Y0061825D01*
X0141442Y0061825D02*
X0143942Y0061825D01*
X0148067Y0062450D02*
X0148118Y0062559D01*
X0148165Y0062669D01*
X0148209Y0062781D01*
X0148249Y0062895D01*
X0148285Y0063009D01*
X0148318Y0063125D01*
X0148347Y0063241D01*
X0148372Y0063359D01*
X0148393Y0063477D01*
X0148411Y0063596D01*
X0148424Y0063715D01*
X0148434Y0063835D01*
X0148440Y0063955D01*
X0148442Y0064075D01*
X0145943Y0064075D02*
X0145945Y0063955D01*
X0145951Y0063835D01*
X0145961Y0063715D01*
X0145974Y0063596D01*
X0145992Y0063477D01*
X0146013Y0063359D01*
X0146038Y0063241D01*
X0146067Y0063125D01*
X0146100Y0063009D01*
X0146136Y0062895D01*
X0146176Y0062781D01*
X0146220Y0062669D01*
X0146267Y0062559D01*
X0146318Y0062450D01*
X0146192Y0062825D02*
X0148192Y0065325D01*
X0148067Y0065700D02*
X0148046Y0065756D01*
X0148020Y0065811D01*
X0147992Y0065865D01*
X0147960Y0065916D01*
X0147925Y0065965D01*
X0147886Y0066011D01*
X0147845Y0066055D01*
X0147801Y0066097D01*
X0147754Y0066135D01*
X0147705Y0066170D01*
X0147653Y0066202D01*
X0147600Y0066230D01*
X0147545Y0066255D01*
X0147489Y0066276D01*
X0147431Y0066294D01*
X0147372Y0066307D01*
X0147312Y0066317D01*
X0147252Y0066323D01*
X0147192Y0066325D01*
X0147132Y0066323D01*
X0147072Y0066317D01*
X0147012Y0066307D01*
X0146953Y0066294D01*
X0146895Y0066276D01*
X0146839Y0066255D01*
X0146784Y0066230D01*
X0146731Y0066202D01*
X0146679Y0066170D01*
X0146630Y0066135D01*
X0146583Y0066097D01*
X0146539Y0066055D01*
X0146498Y0066011D01*
X0146459Y0065965D01*
X0146424Y0065916D01*
X0146392Y0065865D01*
X0146364Y0065811D01*
X0146338Y0065756D01*
X0146317Y0065700D01*
X0148067Y0065700D02*
X0148118Y0065591D01*
X0148165Y0065481D01*
X0148209Y0065369D01*
X0148249Y0065255D01*
X0148285Y0065141D01*
X0148318Y0065025D01*
X0148347Y0064909D01*
X0148372Y0064791D01*
X0148393Y0064673D01*
X0148411Y0064554D01*
X0148424Y0064435D01*
X0148434Y0064315D01*
X0148440Y0064195D01*
X0148442Y0064075D01*
X0145943Y0064075D02*
X0145945Y0064195D01*
X0145951Y0064315D01*
X0145961Y0064435D01*
X0145974Y0064554D01*
X0145992Y0064673D01*
X0146013Y0064791D01*
X0146038Y0064909D01*
X0146067Y0065025D01*
X0146100Y0065141D01*
X0146136Y0065255D01*
X0146176Y0065369D01*
X0146220Y0065481D01*
X0146267Y0065591D01*
X0146318Y0065700D01*
X0142692Y0066325D02*
X0141442Y0065325D01*
X0138225Y0066325D02*
X0138294Y0066323D01*
X0138363Y0066317D01*
X0138431Y0066308D01*
X0138498Y0066295D01*
X0138565Y0066278D01*
X0138631Y0066257D01*
X0138695Y0066233D01*
X0138758Y0066205D01*
X0138820Y0066174D01*
X0138880Y0066140D01*
X0138937Y0066102D01*
X0138993Y0066061D01*
X0139046Y0066018D01*
X0139097Y0065971D01*
X0139145Y0065922D01*
X0139190Y0065870D01*
X0139232Y0065815D01*
X0139271Y0065759D01*
X0139308Y0065700D01*
X0139340Y0065639D01*
X0139370Y0065577D01*
X0139396Y0065513D01*
X0139418Y0065448D01*
X0139437Y0065382D01*
X0139452Y0065315D01*
X0139463Y0065247D01*
X0139471Y0065178D01*
X0139475Y0065109D01*
X0139475Y0065041D01*
X0139471Y0064972D01*
X0139463Y0064903D01*
X0139452Y0064835D01*
X0139437Y0064768D01*
X0139418Y0064702D01*
X0139396Y0064637D01*
X0139370Y0064573D01*
X0139340Y0064511D01*
X0139308Y0064450D01*
X0139271Y0064391D01*
X0139232Y0064335D01*
X0139190Y0064280D01*
X0139145Y0064228D01*
X0139097Y0064179D01*
X0139046Y0064132D01*
X0138993Y0064089D01*
X0138937Y0064048D01*
X0138880Y0064010D01*
X0138820Y0063976D01*
X0138758Y0063945D01*
X0138695Y0063917D01*
X0138631Y0063893D01*
X0138565Y0063872D01*
X0138498Y0063855D01*
X0138431Y0063842D01*
X0138363Y0063833D01*
X0138294Y0063827D01*
X0138225Y0063825D01*
X0136975Y0063825D01*
X0138475Y0063825D02*
X0139475Y0061825D01*
X0136975Y0061825D02*
X0136975Y0066325D01*
X0138225Y0066325D01*
X0147192Y0061825D02*
X0147252Y0061827D01*
X0147312Y0061833D01*
X0147372Y0061843D01*
X0147431Y0061856D01*
X0147489Y0061874D01*
X0147545Y0061895D01*
X0147600Y0061920D01*
X0147653Y0061948D01*
X0147705Y0061980D01*
X0147754Y0062015D01*
X0147801Y0062053D01*
X0147845Y0062095D01*
X0147886Y0062139D01*
X0147925Y0062185D01*
X0147960Y0062234D01*
X0147992Y0062285D01*
X0148020Y0062339D01*
X0148046Y0062394D01*
X0148067Y0062450D01*
X0147192Y0061825D02*
X0147132Y0061827D01*
X0147072Y0061833D01*
X0147012Y0061843D01*
X0146953Y0061856D01*
X0146895Y0061874D01*
X0146839Y0061895D01*
X0146784Y0061920D01*
X0146731Y0061948D01*
X0146679Y0061980D01*
X0146630Y0062015D01*
X0146583Y0062053D01*
X0146539Y0062095D01*
X0146498Y0062139D01*
X0146459Y0062185D01*
X0146424Y0062234D01*
X0146392Y0062285D01*
X0146364Y0062339D01*
X0146338Y0062394D01*
X0146317Y0062450D01*
X0178450Y0064175D02*
X0178450Y0066675D01*
X0178452Y0066735D01*
X0178457Y0066796D01*
X0178466Y0066855D01*
X0178479Y0066914D01*
X0178495Y0066973D01*
X0178515Y0067030D01*
X0178538Y0067085D01*
X0178565Y0067140D01*
X0178594Y0067192D01*
X0178627Y0067243D01*
X0178663Y0067292D01*
X0178701Y0067338D01*
X0178743Y0067382D01*
X0178787Y0067424D01*
X0178833Y0067462D01*
X0178882Y0067498D01*
X0178933Y0067531D01*
X0178985Y0067560D01*
X0179040Y0067587D01*
X0179095Y0067610D01*
X0179152Y0067630D01*
X0179211Y0067646D01*
X0179270Y0067659D01*
X0179329Y0067668D01*
X0179390Y0067673D01*
X0179450Y0067675D01*
X0180450Y0067675D01*
X0183215Y0067675D02*
X0182215Y0064175D01*
X0184715Y0064175D01*
X0183965Y0065175D02*
X0183965Y0063175D01*
X0180450Y0063175D02*
X0179450Y0063175D01*
X0179390Y0063177D01*
X0179329Y0063182D01*
X0179270Y0063191D01*
X0179211Y0063204D01*
X0179152Y0063220D01*
X0179095Y0063240D01*
X0179040Y0063263D01*
X0178985Y0063290D01*
X0178933Y0063319D01*
X0178882Y0063352D01*
X0178833Y0063388D01*
X0178787Y0063426D01*
X0178743Y0063468D01*
X0178701Y0063512D01*
X0178663Y0063558D01*
X0178627Y0063607D01*
X0178594Y0063658D01*
X0178565Y0063710D01*
X0178538Y0063765D01*
X0178515Y0063820D01*
X0178495Y0063877D01*
X0178479Y0063936D01*
X0178466Y0063995D01*
X0178457Y0064054D01*
X0178452Y0064115D01*
X0178450Y0064175D01*
X0192225Y0053530D02*
X0192227Y0053595D01*
X0192233Y0053661D01*
X0192242Y0053725D01*
X0192255Y0053789D01*
X0192272Y0053853D01*
X0192293Y0053915D01*
X0192317Y0053976D01*
X0192345Y0054035D01*
X0192376Y0054093D01*
X0192410Y0054148D01*
X0192448Y0054202D01*
X0192488Y0054253D01*
X0192532Y0054302D01*
X0192578Y0054348D01*
X0192627Y0054392D01*
X0192678Y0054432D01*
X0192732Y0054470D01*
X0192788Y0054504D01*
X0192845Y0054535D01*
X0192904Y0054563D01*
X0192965Y0054587D01*
X0193027Y0054608D01*
X0193091Y0054625D01*
X0193155Y0054638D01*
X0193219Y0054647D01*
X0193285Y0054653D01*
X0193350Y0054655D01*
X0194225Y0054280D02*
X0196725Y0052155D01*
X0196725Y0054655D01*
X0193225Y0052155D02*
X0193156Y0052179D01*
X0193089Y0052207D01*
X0193023Y0052238D01*
X0192959Y0052272D01*
X0192897Y0052309D01*
X0192836Y0052350D01*
X0192778Y0052393D01*
X0192722Y0052439D01*
X0192668Y0052489D01*
X0192617Y0052540D01*
X0192569Y0052594D01*
X0192523Y0052651D01*
X0192480Y0052710D01*
X0192441Y0052771D01*
X0192404Y0052833D01*
X0192371Y0052898D01*
X0192340Y0052964D01*
X0192314Y0053032D01*
X0192290Y0053100D01*
X0192270Y0053170D01*
X0192254Y0053241D01*
X0192241Y0053313D01*
X0192232Y0053385D01*
X0192227Y0053457D01*
X0192225Y0053530D01*
X0193350Y0054654D02*
X0193415Y0054652D01*
X0193480Y0054647D01*
X0193545Y0054638D01*
X0193609Y0054626D01*
X0193672Y0054610D01*
X0193734Y0054591D01*
X0193796Y0054569D01*
X0193856Y0054543D01*
X0193914Y0054514D01*
X0193971Y0054482D01*
X0194026Y0054447D01*
X0194079Y0054409D01*
X0194130Y0054369D01*
X0194179Y0054325D01*
X0194225Y0054279D01*
X0196725Y0050800D02*
X0195725Y0049800D01*
X0195475Y0050300D02*
X0193475Y0050300D01*
X0193406Y0050298D01*
X0193337Y0050292D01*
X0193269Y0050283D01*
X0193202Y0050270D01*
X0193135Y0050253D01*
X0193069Y0050232D01*
X0193005Y0050208D01*
X0192942Y0050180D01*
X0192880Y0050149D01*
X0192820Y0050115D01*
X0192763Y0050077D01*
X0192707Y0050036D01*
X0192654Y0049993D01*
X0192603Y0049946D01*
X0192555Y0049897D01*
X0192510Y0049845D01*
X0192468Y0049790D01*
X0192429Y0049734D01*
X0192392Y0049675D01*
X0192360Y0049614D01*
X0192330Y0049552D01*
X0192304Y0049488D01*
X0192282Y0049423D01*
X0192263Y0049357D01*
X0192248Y0049290D01*
X0192237Y0049222D01*
X0192229Y0049153D01*
X0192225Y0049084D01*
X0192225Y0049016D01*
X0192229Y0048947D01*
X0192237Y0048878D01*
X0192248Y0048810D01*
X0192263Y0048743D01*
X0192282Y0048677D01*
X0192304Y0048612D01*
X0192330Y0048548D01*
X0192360Y0048486D01*
X0192392Y0048425D01*
X0192429Y0048366D01*
X0192468Y0048310D01*
X0192510Y0048255D01*
X0192555Y0048203D01*
X0192603Y0048154D01*
X0192654Y0048107D01*
X0192707Y0048064D01*
X0192763Y0048023D01*
X0192820Y0047985D01*
X0192880Y0047951D01*
X0192942Y0047920D01*
X0193005Y0047892D01*
X0193069Y0047868D01*
X0193135Y0047847D01*
X0193202Y0047830D01*
X0193269Y0047817D01*
X0193337Y0047808D01*
X0193406Y0047802D01*
X0193475Y0047800D01*
X0195475Y0047800D01*
X0195544Y0047802D01*
X0195613Y0047808D01*
X0195681Y0047817D01*
X0195748Y0047830D01*
X0195815Y0047847D01*
X0195881Y0047868D01*
X0195945Y0047892D01*
X0196008Y0047920D01*
X0196070Y0047951D01*
X0196130Y0047985D01*
X0196187Y0048023D01*
X0196243Y0048064D01*
X0196296Y0048107D01*
X0196347Y0048154D01*
X0196395Y0048203D01*
X0196440Y0048255D01*
X0196482Y0048310D01*
X0196521Y0048366D01*
X0196558Y0048425D01*
X0196590Y0048486D01*
X0196620Y0048548D01*
X0196646Y0048612D01*
X0196668Y0048677D01*
X0196687Y0048743D01*
X0196702Y0048810D01*
X0196713Y0048878D01*
X0196721Y0048947D01*
X0196725Y0049016D01*
X0196725Y0049084D01*
X0196721Y0049153D01*
X0196713Y0049222D01*
X0196702Y0049290D01*
X0196687Y0049357D01*
X0196668Y0049423D01*
X0196646Y0049488D01*
X0196620Y0049552D01*
X0196590Y0049614D01*
X0196558Y0049675D01*
X0196521Y0049734D01*
X0196482Y0049790D01*
X0196440Y0049845D01*
X0196395Y0049897D01*
X0196347Y0049946D01*
X0196296Y0049993D01*
X0196243Y0050036D01*
X0196187Y0050077D01*
X0196130Y0050115D01*
X0196070Y0050149D01*
X0196008Y0050180D01*
X0195945Y0050208D01*
X0195881Y0050232D01*
X0195815Y0050253D01*
X0195748Y0050270D01*
X0195681Y0050283D01*
X0195613Y0050292D01*
X0195544Y0050298D01*
X0195475Y0050300D01*
X0154475Y0037675D02*
X0153225Y0033175D01*
X0150210Y0033175D02*
X0149210Y0033175D01*
X0149150Y0033177D01*
X0149089Y0033182D01*
X0149030Y0033191D01*
X0148971Y0033204D01*
X0148912Y0033220D01*
X0148855Y0033240D01*
X0148800Y0033263D01*
X0148745Y0033290D01*
X0148693Y0033319D01*
X0148642Y0033352D01*
X0148593Y0033388D01*
X0148547Y0033426D01*
X0148503Y0033468D01*
X0148461Y0033512D01*
X0148423Y0033558D01*
X0148387Y0033607D01*
X0148354Y0033658D01*
X0148325Y0033710D01*
X0148298Y0033765D01*
X0148275Y0033820D01*
X0148255Y0033877D01*
X0148239Y0033936D01*
X0148226Y0033995D01*
X0148217Y0034054D01*
X0148212Y0034115D01*
X0148210Y0034175D01*
X0148210Y0036675D01*
X0148212Y0036735D01*
X0148217Y0036796D01*
X0148226Y0036855D01*
X0148239Y0036914D01*
X0148255Y0036973D01*
X0148275Y0037030D01*
X0148298Y0037085D01*
X0148325Y0037140D01*
X0148354Y0037192D01*
X0148387Y0037243D01*
X0148423Y0037292D01*
X0148461Y0037338D01*
X0148503Y0037382D01*
X0148547Y0037424D01*
X0148593Y0037462D01*
X0148642Y0037498D01*
X0148693Y0037531D01*
X0148745Y0037560D01*
X0148800Y0037587D01*
X0148855Y0037610D01*
X0148912Y0037630D01*
X0148971Y0037646D01*
X0149030Y0037659D01*
X0149089Y0037668D01*
X0149150Y0037673D01*
X0149210Y0037675D01*
X0150210Y0037675D01*
X0151975Y0037675D02*
X0154475Y0037675D01*
X0151975Y0037675D02*
X0151975Y0037175D01*
X0143192Y0098950D02*
X0143192Y0100950D01*
X0143942Y0099950D02*
X0141442Y0099950D01*
X0142442Y0103450D01*
X0138225Y0103450D02*
X0136975Y0103450D01*
X0136975Y0098950D01*
X0136975Y0100950D02*
X0138225Y0100950D01*
X0138475Y0100950D02*
X0139475Y0098950D01*
X0138225Y0100950D02*
X0138294Y0100952D01*
X0138363Y0100958D01*
X0138431Y0100967D01*
X0138498Y0100980D01*
X0138565Y0100997D01*
X0138631Y0101018D01*
X0138695Y0101042D01*
X0138758Y0101070D01*
X0138820Y0101101D01*
X0138880Y0101135D01*
X0138937Y0101173D01*
X0138993Y0101214D01*
X0139046Y0101257D01*
X0139097Y0101304D01*
X0139145Y0101353D01*
X0139190Y0101405D01*
X0139232Y0101460D01*
X0139271Y0101516D01*
X0139308Y0101575D01*
X0139340Y0101636D01*
X0139370Y0101698D01*
X0139396Y0101762D01*
X0139418Y0101827D01*
X0139437Y0101893D01*
X0139452Y0101960D01*
X0139463Y0102028D01*
X0139471Y0102097D01*
X0139475Y0102166D01*
X0139475Y0102234D01*
X0139471Y0102303D01*
X0139463Y0102372D01*
X0139452Y0102440D01*
X0139437Y0102507D01*
X0139418Y0102573D01*
X0139396Y0102638D01*
X0139370Y0102702D01*
X0139340Y0102764D01*
X0139308Y0102825D01*
X0139271Y0102884D01*
X0139232Y0102940D01*
X0139190Y0102995D01*
X0139145Y0103047D01*
X0139097Y0103096D01*
X0139046Y0103143D01*
X0138993Y0103186D01*
X0138937Y0103227D01*
X0138880Y0103265D01*
X0138820Y0103299D01*
X0138758Y0103330D01*
X0138695Y0103358D01*
X0138631Y0103382D01*
X0138565Y0103403D01*
X0138498Y0103420D01*
X0138431Y0103433D01*
X0138363Y0103442D01*
X0138294Y0103448D01*
X0138225Y0103450D01*
X0148535Y0107425D02*
X0149535Y0107425D01*
X0148535Y0107425D02*
X0148475Y0107427D01*
X0148414Y0107432D01*
X0148355Y0107441D01*
X0148296Y0107454D01*
X0148237Y0107470D01*
X0148180Y0107490D01*
X0148125Y0107513D01*
X0148070Y0107540D01*
X0148018Y0107569D01*
X0147967Y0107602D01*
X0147918Y0107638D01*
X0147872Y0107676D01*
X0147828Y0107718D01*
X0147786Y0107762D01*
X0147748Y0107808D01*
X0147712Y0107857D01*
X0147679Y0107908D01*
X0147650Y0107960D01*
X0147623Y0108015D01*
X0147600Y0108070D01*
X0147580Y0108127D01*
X0147564Y0108186D01*
X0147551Y0108245D01*
X0147542Y0108304D01*
X0147537Y0108365D01*
X0147535Y0108425D01*
X0147535Y0110925D01*
X0147537Y0110985D01*
X0147542Y0111046D01*
X0147551Y0111105D01*
X0147564Y0111164D01*
X0147580Y0111223D01*
X0147600Y0111280D01*
X0147623Y0111335D01*
X0147650Y0111390D01*
X0147679Y0111442D01*
X0147712Y0111493D01*
X0147748Y0111542D01*
X0147786Y0111588D01*
X0147828Y0111632D01*
X0147872Y0111674D01*
X0147918Y0111712D01*
X0147967Y0111748D01*
X0148018Y0111781D01*
X0148070Y0111810D01*
X0148125Y0111837D01*
X0148180Y0111860D01*
X0148237Y0111880D01*
X0148296Y0111896D01*
X0148355Y0111909D01*
X0148414Y0111918D01*
X0148475Y0111923D01*
X0148535Y0111925D01*
X0149535Y0111925D01*
X0151300Y0109925D02*
X0151300Y0108675D01*
X0151302Y0108606D01*
X0151308Y0108537D01*
X0151317Y0108469D01*
X0151330Y0108402D01*
X0151347Y0108335D01*
X0151368Y0108269D01*
X0151392Y0108205D01*
X0151420Y0108142D01*
X0151451Y0108080D01*
X0151485Y0108020D01*
X0151523Y0107963D01*
X0151564Y0107907D01*
X0151607Y0107854D01*
X0151654Y0107803D01*
X0151703Y0107755D01*
X0151755Y0107710D01*
X0151810Y0107668D01*
X0151866Y0107629D01*
X0151925Y0107592D01*
X0151986Y0107560D01*
X0152048Y0107530D01*
X0152112Y0107504D01*
X0152177Y0107482D01*
X0152243Y0107463D01*
X0152310Y0107448D01*
X0152378Y0107437D01*
X0152447Y0107429D01*
X0152516Y0107425D01*
X0152584Y0107425D01*
X0152653Y0107429D01*
X0152722Y0107437D01*
X0152790Y0107448D01*
X0152857Y0107463D01*
X0152923Y0107482D01*
X0152988Y0107504D01*
X0153052Y0107530D01*
X0153114Y0107560D01*
X0153175Y0107592D01*
X0153234Y0107629D01*
X0153290Y0107668D01*
X0153345Y0107710D01*
X0153397Y0107755D01*
X0153446Y0107803D01*
X0153493Y0107854D01*
X0153536Y0107907D01*
X0153577Y0107963D01*
X0153615Y0108020D01*
X0153649Y0108080D01*
X0153680Y0108142D01*
X0153708Y0108205D01*
X0153732Y0108269D01*
X0153753Y0108335D01*
X0153770Y0108402D01*
X0153783Y0108469D01*
X0153792Y0108537D01*
X0153798Y0108606D01*
X0153800Y0108675D01*
X0153800Y0108925D01*
X0153798Y0108985D01*
X0153793Y0109046D01*
X0153784Y0109105D01*
X0153771Y0109164D01*
X0153755Y0109223D01*
X0153735Y0109280D01*
X0153712Y0109335D01*
X0153685Y0109390D01*
X0153656Y0109442D01*
X0153623Y0109493D01*
X0153587Y0109542D01*
X0153549Y0109588D01*
X0153507Y0109632D01*
X0153463Y0109674D01*
X0153417Y0109712D01*
X0153368Y0109748D01*
X0153317Y0109781D01*
X0153265Y0109810D01*
X0153210Y0109837D01*
X0153155Y0109860D01*
X0153098Y0109880D01*
X0153039Y0109896D01*
X0152980Y0109909D01*
X0152921Y0109918D01*
X0152860Y0109923D01*
X0152800Y0109925D01*
X0151300Y0109925D01*
X0151302Y0110012D01*
X0151308Y0110099D01*
X0151317Y0110186D01*
X0151330Y0110272D01*
X0151347Y0110358D01*
X0151368Y0110443D01*
X0151393Y0110526D01*
X0151421Y0110609D01*
X0151452Y0110690D01*
X0151487Y0110770D01*
X0151526Y0110848D01*
X0151568Y0110925D01*
X0151613Y0111000D01*
X0151662Y0111072D01*
X0151713Y0111143D01*
X0151768Y0111211D01*
X0151825Y0111276D01*
X0151886Y0111339D01*
X0151949Y0111400D01*
X0152014Y0111457D01*
X0152082Y0111512D01*
X0152153Y0111563D01*
X0152225Y0111612D01*
X0152300Y0111657D01*
X0152377Y0111699D01*
X0152455Y0111738D01*
X0152535Y0111773D01*
X0152616Y0111804D01*
X0152699Y0111832D01*
X0152782Y0111857D01*
X0152867Y0111878D01*
X0152953Y0111895D01*
X0153039Y0111908D01*
X0153126Y0111917D01*
X0153213Y0111923D01*
X0153300Y0111925D01*
X0143267Y0137325D02*
X0143265Y0137256D01*
X0143259Y0137187D01*
X0143250Y0137119D01*
X0143237Y0137052D01*
X0143220Y0136985D01*
X0143199Y0136919D01*
X0143175Y0136855D01*
X0143147Y0136792D01*
X0143116Y0136730D01*
X0143082Y0136670D01*
X0143044Y0136613D01*
X0143003Y0136557D01*
X0142960Y0136504D01*
X0142913Y0136453D01*
X0142864Y0136405D01*
X0142812Y0136360D01*
X0142757Y0136318D01*
X0142701Y0136279D01*
X0142642Y0136242D01*
X0142581Y0136210D01*
X0142519Y0136180D01*
X0142455Y0136154D01*
X0142390Y0136132D01*
X0142324Y0136113D01*
X0142257Y0136098D01*
X0142189Y0136087D01*
X0142120Y0136079D01*
X0142051Y0136075D01*
X0141983Y0136075D01*
X0141914Y0136079D01*
X0141845Y0136087D01*
X0141777Y0136098D01*
X0141710Y0136113D01*
X0141644Y0136132D01*
X0141579Y0136154D01*
X0141515Y0136180D01*
X0141453Y0136210D01*
X0141392Y0136242D01*
X0141333Y0136279D01*
X0141277Y0136318D01*
X0141222Y0136360D01*
X0141170Y0136405D01*
X0141121Y0136453D01*
X0141074Y0136504D01*
X0141031Y0136557D01*
X0140990Y0136613D01*
X0140952Y0136670D01*
X0140918Y0136730D01*
X0140887Y0136792D01*
X0140859Y0136855D01*
X0140835Y0136919D01*
X0140814Y0136985D01*
X0140797Y0137052D01*
X0140784Y0137119D01*
X0140775Y0137187D01*
X0140769Y0137256D01*
X0140767Y0137325D01*
X0140769Y0137394D01*
X0140775Y0137463D01*
X0140784Y0137531D01*
X0140797Y0137598D01*
X0140814Y0137665D01*
X0140835Y0137731D01*
X0140859Y0137795D01*
X0140887Y0137858D01*
X0140918Y0137920D01*
X0140952Y0137980D01*
X0140990Y0138037D01*
X0141031Y0138093D01*
X0141074Y0138146D01*
X0141121Y0138197D01*
X0141170Y0138245D01*
X0141222Y0138290D01*
X0141277Y0138332D01*
X0141333Y0138371D01*
X0141392Y0138408D01*
X0141453Y0138440D01*
X0141515Y0138470D01*
X0141579Y0138496D01*
X0141644Y0138518D01*
X0141710Y0138537D01*
X0141777Y0138552D01*
X0141845Y0138563D01*
X0141914Y0138571D01*
X0141983Y0138575D01*
X0142051Y0138575D01*
X0142120Y0138571D01*
X0142189Y0138563D01*
X0142257Y0138552D01*
X0142324Y0138537D01*
X0142390Y0138518D01*
X0142455Y0138496D01*
X0142519Y0138470D01*
X0142581Y0138440D01*
X0142642Y0138408D01*
X0142701Y0138371D01*
X0142757Y0138332D01*
X0142812Y0138290D01*
X0142864Y0138245D01*
X0142913Y0138197D01*
X0142960Y0138146D01*
X0143003Y0138093D01*
X0143044Y0138037D01*
X0143082Y0137980D01*
X0143116Y0137920D01*
X0143147Y0137858D01*
X0143175Y0137795D01*
X0143199Y0137731D01*
X0143220Y0137665D01*
X0143237Y0137598D01*
X0143250Y0137531D01*
X0143259Y0137463D01*
X0143265Y0137394D01*
X0143267Y0137325D01*
X0143017Y0139575D02*
X0143015Y0139513D01*
X0143009Y0139452D01*
X0143000Y0139391D01*
X0142987Y0139331D01*
X0142970Y0139272D01*
X0142949Y0139214D01*
X0142925Y0139157D01*
X0142898Y0139102D01*
X0142867Y0139049D01*
X0142833Y0138997D01*
X0142796Y0138948D01*
X0142756Y0138901D01*
X0142713Y0138857D01*
X0142668Y0138816D01*
X0142620Y0138777D01*
X0142569Y0138741D01*
X0142517Y0138709D01*
X0142463Y0138680D01*
X0142407Y0138654D01*
X0142349Y0138632D01*
X0142291Y0138613D01*
X0142231Y0138598D01*
X0142170Y0138587D01*
X0142109Y0138579D01*
X0142048Y0138575D01*
X0141986Y0138575D01*
X0141925Y0138579D01*
X0141864Y0138587D01*
X0141803Y0138598D01*
X0141743Y0138613D01*
X0141685Y0138632D01*
X0141627Y0138654D01*
X0141571Y0138680D01*
X0141517Y0138709D01*
X0141465Y0138741D01*
X0141414Y0138777D01*
X0141366Y0138816D01*
X0141321Y0138857D01*
X0141278Y0138901D01*
X0141238Y0138948D01*
X0141201Y0138997D01*
X0141167Y0139049D01*
X0141136Y0139102D01*
X0141109Y0139157D01*
X0141085Y0139214D01*
X0141064Y0139272D01*
X0141047Y0139331D01*
X0141034Y0139391D01*
X0141025Y0139452D01*
X0141019Y0139513D01*
X0141017Y0139575D01*
X0141019Y0139637D01*
X0141025Y0139698D01*
X0141034Y0139759D01*
X0141047Y0139819D01*
X0141064Y0139878D01*
X0141085Y0139936D01*
X0141109Y0139993D01*
X0141136Y0140048D01*
X0141167Y0140101D01*
X0141201Y0140153D01*
X0141238Y0140202D01*
X0141278Y0140249D01*
X0141321Y0140293D01*
X0141366Y0140334D01*
X0141414Y0140373D01*
X0141465Y0140409D01*
X0141517Y0140441D01*
X0141571Y0140470D01*
X0141627Y0140496D01*
X0141685Y0140518D01*
X0141743Y0140537D01*
X0141803Y0140552D01*
X0141864Y0140563D01*
X0141925Y0140571D01*
X0141986Y0140575D01*
X0142048Y0140575D01*
X0142109Y0140571D01*
X0142170Y0140563D01*
X0142231Y0140552D01*
X0142291Y0140537D01*
X0142349Y0140518D01*
X0142407Y0140496D01*
X0142463Y0140470D01*
X0142517Y0140441D01*
X0142569Y0140409D01*
X0142620Y0140373D01*
X0142668Y0140334D01*
X0142713Y0140293D01*
X0142756Y0140249D01*
X0142796Y0140202D01*
X0142833Y0140153D01*
X0142867Y0140101D01*
X0142898Y0140048D01*
X0142925Y0139993D01*
X0142949Y0139936D01*
X0142970Y0139878D01*
X0142987Y0139819D01*
X0143000Y0139759D01*
X0143009Y0139698D01*
X0143015Y0139637D01*
X0143017Y0139575D01*
X0137800Y0138075D02*
X0138800Y0136075D01*
X0137550Y0138075D02*
X0136300Y0138075D01*
X0137550Y0138075D02*
X0137619Y0138077D01*
X0137688Y0138083D01*
X0137756Y0138092D01*
X0137823Y0138105D01*
X0137890Y0138122D01*
X0137956Y0138143D01*
X0138020Y0138167D01*
X0138083Y0138195D01*
X0138145Y0138226D01*
X0138205Y0138260D01*
X0138262Y0138298D01*
X0138318Y0138339D01*
X0138371Y0138382D01*
X0138422Y0138429D01*
X0138470Y0138478D01*
X0138515Y0138530D01*
X0138557Y0138585D01*
X0138596Y0138641D01*
X0138633Y0138700D01*
X0138665Y0138761D01*
X0138695Y0138823D01*
X0138721Y0138887D01*
X0138743Y0138952D01*
X0138762Y0139018D01*
X0138777Y0139085D01*
X0138788Y0139153D01*
X0138796Y0139222D01*
X0138800Y0139291D01*
X0138800Y0139359D01*
X0138796Y0139428D01*
X0138788Y0139497D01*
X0138777Y0139565D01*
X0138762Y0139632D01*
X0138743Y0139698D01*
X0138721Y0139763D01*
X0138695Y0139827D01*
X0138665Y0139889D01*
X0138633Y0139950D01*
X0138596Y0140009D01*
X0138557Y0140065D01*
X0138515Y0140120D01*
X0138470Y0140172D01*
X0138422Y0140221D01*
X0138371Y0140268D01*
X0138318Y0140311D01*
X0138262Y0140352D01*
X0138205Y0140390D01*
X0138145Y0140424D01*
X0138083Y0140455D01*
X0138020Y0140483D01*
X0137956Y0140507D01*
X0137890Y0140528D01*
X0137823Y0140545D01*
X0137756Y0140558D01*
X0137688Y0140567D01*
X0137619Y0140573D01*
X0137550Y0140575D01*
X0136300Y0140575D01*
X0136300Y0136075D01*
X0131500Y0138950D02*
X0131500Y0140200D01*
X0131498Y0140269D01*
X0131492Y0140338D01*
X0131483Y0140406D01*
X0131470Y0140473D01*
X0131453Y0140540D01*
X0131432Y0140606D01*
X0131408Y0140670D01*
X0131380Y0140733D01*
X0131349Y0140795D01*
X0131315Y0140855D01*
X0131277Y0140912D01*
X0131236Y0140968D01*
X0131193Y0141021D01*
X0131146Y0141072D01*
X0131097Y0141120D01*
X0131045Y0141165D01*
X0130990Y0141207D01*
X0130934Y0141246D01*
X0130875Y0141283D01*
X0130814Y0141315D01*
X0130752Y0141345D01*
X0130688Y0141371D01*
X0130623Y0141393D01*
X0130557Y0141412D01*
X0130490Y0141427D01*
X0130422Y0141438D01*
X0130353Y0141446D01*
X0130284Y0141450D01*
X0130216Y0141450D01*
X0130147Y0141446D01*
X0130078Y0141438D01*
X0130010Y0141427D01*
X0129943Y0141412D01*
X0129877Y0141393D01*
X0129812Y0141371D01*
X0129748Y0141345D01*
X0129686Y0141315D01*
X0129625Y0141283D01*
X0129566Y0141246D01*
X0129510Y0141207D01*
X0129455Y0141165D01*
X0129403Y0141120D01*
X0129354Y0141072D01*
X0129307Y0141021D01*
X0129264Y0140968D01*
X0129223Y0140912D01*
X0129185Y0140855D01*
X0129151Y0140795D01*
X0129120Y0140733D01*
X0129092Y0140670D01*
X0129068Y0140606D01*
X0129047Y0140540D01*
X0129030Y0140473D01*
X0129017Y0140406D01*
X0129008Y0140338D01*
X0129002Y0140269D01*
X0129000Y0140200D01*
X0129000Y0139950D01*
X0129002Y0139890D01*
X0129007Y0139829D01*
X0129016Y0139770D01*
X0129029Y0139711D01*
X0129045Y0139652D01*
X0129065Y0139595D01*
X0129088Y0139540D01*
X0129115Y0139485D01*
X0129144Y0139433D01*
X0129177Y0139382D01*
X0129213Y0139333D01*
X0129251Y0139287D01*
X0129293Y0139243D01*
X0129337Y0139201D01*
X0129383Y0139163D01*
X0129432Y0139127D01*
X0129483Y0139094D01*
X0129535Y0139065D01*
X0129590Y0139038D01*
X0129645Y0139015D01*
X0129702Y0138995D01*
X0129761Y0138979D01*
X0129820Y0138966D01*
X0129879Y0138957D01*
X0129940Y0138952D01*
X0130000Y0138950D01*
X0131500Y0138950D01*
X0131498Y0138863D01*
X0131492Y0138776D01*
X0131483Y0138689D01*
X0131470Y0138603D01*
X0131453Y0138517D01*
X0131432Y0138432D01*
X0131407Y0138349D01*
X0131379Y0138266D01*
X0131348Y0138185D01*
X0131313Y0138105D01*
X0131274Y0138027D01*
X0131232Y0137950D01*
X0131187Y0137875D01*
X0131138Y0137803D01*
X0131087Y0137732D01*
X0131032Y0137664D01*
X0130975Y0137599D01*
X0130914Y0137536D01*
X0130851Y0137475D01*
X0130786Y0137418D01*
X0130718Y0137363D01*
X0130647Y0137312D01*
X0130575Y0137263D01*
X0130500Y0137218D01*
X0130423Y0137176D01*
X0130345Y0137137D01*
X0130265Y0137102D01*
X0130184Y0137071D01*
X0130101Y0137043D01*
X0130018Y0137018D01*
X0129933Y0136997D01*
X0129847Y0136980D01*
X0129761Y0136967D01*
X0129674Y0136958D01*
X0129587Y0136952D01*
X0129500Y0136950D01*
X0127033Y0136950D02*
X0126033Y0138950D01*
X0125783Y0138950D02*
X0124533Y0138950D01*
X0125783Y0138950D02*
X0125852Y0138952D01*
X0125921Y0138958D01*
X0125989Y0138967D01*
X0126056Y0138980D01*
X0126123Y0138997D01*
X0126189Y0139018D01*
X0126253Y0139042D01*
X0126316Y0139070D01*
X0126378Y0139101D01*
X0126438Y0139135D01*
X0126495Y0139173D01*
X0126551Y0139214D01*
X0126604Y0139257D01*
X0126655Y0139304D01*
X0126703Y0139353D01*
X0126748Y0139405D01*
X0126790Y0139460D01*
X0126829Y0139516D01*
X0126866Y0139575D01*
X0126898Y0139636D01*
X0126928Y0139698D01*
X0126954Y0139762D01*
X0126976Y0139827D01*
X0126995Y0139893D01*
X0127010Y0139960D01*
X0127021Y0140028D01*
X0127029Y0140097D01*
X0127033Y0140166D01*
X0127033Y0140234D01*
X0127029Y0140303D01*
X0127021Y0140372D01*
X0127010Y0140440D01*
X0126995Y0140507D01*
X0126976Y0140573D01*
X0126954Y0140638D01*
X0126928Y0140702D01*
X0126898Y0140764D01*
X0126866Y0140825D01*
X0126829Y0140884D01*
X0126790Y0140940D01*
X0126748Y0140995D01*
X0126703Y0141047D01*
X0126655Y0141096D01*
X0126604Y0141143D01*
X0126551Y0141186D01*
X0126495Y0141227D01*
X0126438Y0141265D01*
X0126378Y0141299D01*
X0126316Y0141330D01*
X0126253Y0141358D01*
X0126189Y0141382D01*
X0126123Y0141403D01*
X0126056Y0141420D01*
X0125989Y0141433D01*
X0125921Y0141442D01*
X0125852Y0141448D01*
X0125783Y0141450D01*
X0124533Y0141450D01*
X0124533Y0136950D01*
X0094425Y0129075D02*
X0092300Y0126575D01*
X0094800Y0126575D01*
X0090535Y0126575D02*
X0089535Y0126575D01*
X0089475Y0126577D01*
X0089414Y0126582D01*
X0089355Y0126591D01*
X0089296Y0126604D01*
X0089237Y0126620D01*
X0089180Y0126640D01*
X0089125Y0126663D01*
X0089070Y0126690D01*
X0089018Y0126719D01*
X0088967Y0126752D01*
X0088918Y0126788D01*
X0088872Y0126826D01*
X0088828Y0126868D01*
X0088786Y0126912D01*
X0088748Y0126958D01*
X0088712Y0127007D01*
X0088679Y0127058D01*
X0088650Y0127110D01*
X0088623Y0127165D01*
X0088600Y0127220D01*
X0088580Y0127277D01*
X0088564Y0127336D01*
X0088551Y0127395D01*
X0088542Y0127454D01*
X0088537Y0127515D01*
X0088535Y0127575D01*
X0088535Y0130075D01*
X0088537Y0130135D01*
X0088542Y0130196D01*
X0088551Y0130255D01*
X0088564Y0130314D01*
X0088580Y0130373D01*
X0088600Y0130430D01*
X0088623Y0130485D01*
X0088650Y0130540D01*
X0088679Y0130592D01*
X0088712Y0130643D01*
X0088748Y0130692D01*
X0088786Y0130738D01*
X0088828Y0130782D01*
X0088872Y0130824D01*
X0088918Y0130862D01*
X0088967Y0130898D01*
X0089018Y0130931D01*
X0089070Y0130960D01*
X0089125Y0130987D01*
X0089180Y0131010D01*
X0089237Y0131030D01*
X0089296Y0131046D01*
X0089355Y0131059D01*
X0089414Y0131068D01*
X0089475Y0131073D01*
X0089535Y0131075D01*
X0090535Y0131075D01*
X0094425Y0129075D02*
X0094471Y0129121D01*
X0094515Y0129170D01*
X0094555Y0129221D01*
X0094593Y0129274D01*
X0094628Y0129329D01*
X0094660Y0129386D01*
X0094689Y0129444D01*
X0094715Y0129504D01*
X0094737Y0129566D01*
X0094756Y0129628D01*
X0094772Y0129691D01*
X0094784Y0129755D01*
X0094793Y0129820D01*
X0094798Y0129885D01*
X0094800Y0129950D01*
X0094798Y0130015D01*
X0094792Y0130081D01*
X0094783Y0130145D01*
X0094770Y0130209D01*
X0094753Y0130273D01*
X0094732Y0130335D01*
X0094708Y0130396D01*
X0094680Y0130455D01*
X0094649Y0130513D01*
X0094615Y0130568D01*
X0094577Y0130622D01*
X0094537Y0130673D01*
X0094493Y0130722D01*
X0094447Y0130768D01*
X0094398Y0130812D01*
X0094347Y0130852D01*
X0094293Y0130890D01*
X0094238Y0130924D01*
X0094180Y0130955D01*
X0094121Y0130983D01*
X0094060Y0131007D01*
X0093998Y0131028D01*
X0093934Y0131045D01*
X0093870Y0131058D01*
X0093806Y0131067D01*
X0093740Y0131073D01*
X0093675Y0131075D01*
X0093602Y0131073D01*
X0093530Y0131068D01*
X0093458Y0131059D01*
X0093386Y0131046D01*
X0093315Y0131030D01*
X0093245Y0131010D01*
X0093177Y0130986D01*
X0093109Y0130960D01*
X0093043Y0130929D01*
X0092978Y0130896D01*
X0092916Y0130859D01*
X0092855Y0130820D01*
X0092796Y0130777D01*
X0092739Y0130731D01*
X0092685Y0130683D01*
X0092634Y0130632D01*
X0092584Y0130578D01*
X0092538Y0130522D01*
X0092495Y0130464D01*
X0092454Y0130403D01*
X0092417Y0130341D01*
X0092383Y0130277D01*
X0092352Y0130211D01*
X0092324Y0130144D01*
X0092300Y0130075D01*
X0086700Y0131075D02*
X0085700Y0131075D01*
X0086200Y0131075D02*
X0086200Y0126575D01*
X0085700Y0126575D02*
X0086700Y0126575D01*
X0035617Y0129125D02*
X0034617Y0129125D01*
X0035617Y0129125D02*
X0035679Y0129127D01*
X0035740Y0129133D01*
X0035801Y0129142D01*
X0035861Y0129155D01*
X0035920Y0129172D01*
X0035978Y0129193D01*
X0036035Y0129217D01*
X0036090Y0129244D01*
X0036143Y0129275D01*
X0036195Y0129309D01*
X0036244Y0129346D01*
X0036291Y0129386D01*
X0036335Y0129429D01*
X0036376Y0129474D01*
X0036415Y0129522D01*
X0036451Y0129573D01*
X0036483Y0129625D01*
X0036512Y0129679D01*
X0036538Y0129735D01*
X0036560Y0129793D01*
X0036579Y0129851D01*
X0036594Y0129911D01*
X0036605Y0129972D01*
X0036613Y0130033D01*
X0036617Y0130094D01*
X0036617Y0130156D01*
X0036613Y0130217D01*
X0036605Y0130278D01*
X0036594Y0130339D01*
X0036579Y0130399D01*
X0036560Y0130457D01*
X0036538Y0130515D01*
X0036512Y0130571D01*
X0036483Y0130625D01*
X0036451Y0130677D01*
X0036415Y0130728D01*
X0036376Y0130776D01*
X0036335Y0130821D01*
X0036291Y0130864D01*
X0036244Y0130904D01*
X0036195Y0130941D01*
X0036143Y0130975D01*
X0036090Y0131006D01*
X0036035Y0131033D01*
X0035978Y0131057D01*
X0035920Y0131078D01*
X0035861Y0131095D01*
X0035801Y0131108D01*
X0035740Y0131117D01*
X0035679Y0131123D01*
X0035617Y0131125D01*
X0034117Y0131125D01*
X0030900Y0131125D02*
X0029650Y0131125D01*
X0029650Y0126625D01*
X0029650Y0128625D02*
X0030900Y0128625D01*
X0031150Y0128625D02*
X0032150Y0126625D01*
X0034117Y0126625D02*
X0035367Y0126625D01*
X0035436Y0126627D01*
X0035505Y0126633D01*
X0035573Y0126642D01*
X0035640Y0126655D01*
X0035707Y0126672D01*
X0035773Y0126693D01*
X0035837Y0126717D01*
X0035900Y0126745D01*
X0035962Y0126776D01*
X0036022Y0126810D01*
X0036079Y0126848D01*
X0036135Y0126889D01*
X0036188Y0126932D01*
X0036239Y0126979D01*
X0036287Y0127028D01*
X0036332Y0127080D01*
X0036374Y0127135D01*
X0036413Y0127191D01*
X0036450Y0127250D01*
X0036482Y0127311D01*
X0036512Y0127373D01*
X0036538Y0127437D01*
X0036560Y0127502D01*
X0036579Y0127568D01*
X0036594Y0127635D01*
X0036605Y0127703D01*
X0036613Y0127772D01*
X0036617Y0127841D01*
X0036617Y0127909D01*
X0036613Y0127978D01*
X0036605Y0128047D01*
X0036594Y0128115D01*
X0036579Y0128182D01*
X0036560Y0128248D01*
X0036538Y0128313D01*
X0036512Y0128377D01*
X0036482Y0128439D01*
X0036450Y0128500D01*
X0036413Y0128559D01*
X0036374Y0128615D01*
X0036332Y0128670D01*
X0036287Y0128722D01*
X0036239Y0128771D01*
X0036188Y0128818D01*
X0036135Y0128861D01*
X0036079Y0128902D01*
X0036022Y0128940D01*
X0035962Y0128974D01*
X0035900Y0129005D01*
X0035837Y0129033D01*
X0035773Y0129057D01*
X0035707Y0129078D01*
X0035640Y0129095D01*
X0035573Y0129108D01*
X0035505Y0129117D01*
X0035436Y0129123D01*
X0035367Y0129125D01*
X0030900Y0128625D02*
X0030969Y0128627D01*
X0031038Y0128633D01*
X0031106Y0128642D01*
X0031173Y0128655D01*
X0031240Y0128672D01*
X0031306Y0128693D01*
X0031370Y0128717D01*
X0031433Y0128745D01*
X0031495Y0128776D01*
X0031555Y0128810D01*
X0031612Y0128848D01*
X0031668Y0128889D01*
X0031721Y0128932D01*
X0031772Y0128979D01*
X0031820Y0129028D01*
X0031865Y0129080D01*
X0031907Y0129135D01*
X0031946Y0129191D01*
X0031983Y0129250D01*
X0032015Y0129311D01*
X0032045Y0129373D01*
X0032071Y0129437D01*
X0032093Y0129502D01*
X0032112Y0129568D01*
X0032127Y0129635D01*
X0032138Y0129703D01*
X0032146Y0129772D01*
X0032150Y0129841D01*
X0032150Y0129909D01*
X0032146Y0129978D01*
X0032138Y0130047D01*
X0032127Y0130115D01*
X0032112Y0130182D01*
X0032093Y0130248D01*
X0032071Y0130313D01*
X0032045Y0130377D01*
X0032015Y0130439D01*
X0031983Y0130500D01*
X0031946Y0130559D01*
X0031907Y0130615D01*
X0031865Y0130670D01*
X0031820Y0130722D01*
X0031772Y0130771D01*
X0031721Y0130818D01*
X0031668Y0130861D01*
X0031612Y0130902D01*
X0031555Y0130940D01*
X0031495Y0130974D01*
X0031433Y0131005D01*
X0031370Y0131033D01*
X0031306Y0131057D01*
X0031240Y0131078D01*
X0031173Y0131095D01*
X0031106Y0131108D01*
X0031038Y0131117D01*
X0030969Y0131123D01*
X0030900Y0131125D01*
X0031975Y0140925D02*
X0030975Y0142925D01*
X0030725Y0142925D02*
X0029475Y0142925D01*
X0030725Y0142925D02*
X0030794Y0142927D01*
X0030863Y0142933D01*
X0030931Y0142942D01*
X0030998Y0142955D01*
X0031065Y0142972D01*
X0031131Y0142993D01*
X0031195Y0143017D01*
X0031258Y0143045D01*
X0031320Y0143076D01*
X0031380Y0143110D01*
X0031437Y0143148D01*
X0031493Y0143189D01*
X0031546Y0143232D01*
X0031597Y0143279D01*
X0031645Y0143328D01*
X0031690Y0143380D01*
X0031732Y0143435D01*
X0031771Y0143491D01*
X0031808Y0143550D01*
X0031840Y0143611D01*
X0031870Y0143673D01*
X0031896Y0143737D01*
X0031918Y0143802D01*
X0031937Y0143868D01*
X0031952Y0143935D01*
X0031963Y0144003D01*
X0031971Y0144072D01*
X0031975Y0144141D01*
X0031975Y0144209D01*
X0031971Y0144278D01*
X0031963Y0144347D01*
X0031952Y0144415D01*
X0031937Y0144482D01*
X0031918Y0144548D01*
X0031896Y0144613D01*
X0031870Y0144677D01*
X0031840Y0144739D01*
X0031808Y0144800D01*
X0031771Y0144859D01*
X0031732Y0144915D01*
X0031690Y0144970D01*
X0031645Y0145022D01*
X0031597Y0145071D01*
X0031546Y0145118D01*
X0031493Y0145161D01*
X0031437Y0145202D01*
X0031380Y0145240D01*
X0031320Y0145274D01*
X0031258Y0145305D01*
X0031195Y0145333D01*
X0031131Y0145357D01*
X0031065Y0145378D01*
X0030998Y0145395D01*
X0030931Y0145408D01*
X0030863Y0145417D01*
X0030794Y0145423D01*
X0030725Y0145425D01*
X0029475Y0145425D01*
X0029475Y0140925D01*
X0033942Y0140925D02*
X0036442Y0140925D01*
X0033942Y0140925D02*
X0036067Y0143425D01*
X0035317Y0145425D02*
X0035244Y0145423D01*
X0035172Y0145418D01*
X0035100Y0145409D01*
X0035028Y0145396D01*
X0034957Y0145380D01*
X0034887Y0145360D01*
X0034819Y0145336D01*
X0034751Y0145310D01*
X0034685Y0145279D01*
X0034620Y0145246D01*
X0034558Y0145209D01*
X0034497Y0145170D01*
X0034438Y0145127D01*
X0034381Y0145081D01*
X0034327Y0145033D01*
X0034276Y0144982D01*
X0034226Y0144928D01*
X0034180Y0144872D01*
X0034137Y0144814D01*
X0034096Y0144753D01*
X0034059Y0144691D01*
X0034025Y0144627D01*
X0033994Y0144561D01*
X0033966Y0144494D01*
X0033942Y0144425D01*
X0036067Y0143425D02*
X0036113Y0143471D01*
X0036157Y0143520D01*
X0036197Y0143571D01*
X0036235Y0143624D01*
X0036270Y0143679D01*
X0036302Y0143736D01*
X0036331Y0143794D01*
X0036357Y0143854D01*
X0036379Y0143916D01*
X0036398Y0143978D01*
X0036414Y0144041D01*
X0036426Y0144105D01*
X0036435Y0144170D01*
X0036440Y0144235D01*
X0036442Y0144300D01*
X0036440Y0144365D01*
X0036434Y0144431D01*
X0036425Y0144495D01*
X0036412Y0144559D01*
X0036395Y0144623D01*
X0036374Y0144685D01*
X0036350Y0144746D01*
X0036322Y0144805D01*
X0036291Y0144863D01*
X0036257Y0144918D01*
X0036219Y0144972D01*
X0036179Y0145023D01*
X0036135Y0145072D01*
X0036089Y0145118D01*
X0036040Y0145162D01*
X0035989Y0145202D01*
X0035935Y0145240D01*
X0035880Y0145274D01*
X0035822Y0145305D01*
X0035763Y0145333D01*
X0035702Y0145357D01*
X0035640Y0145378D01*
X0035576Y0145395D01*
X0035512Y0145408D01*
X0035448Y0145417D01*
X0035382Y0145423D01*
X0035317Y0145425D01*
X0035367Y0154300D02*
X0035367Y0158800D01*
X0034117Y0157800D01*
X0030900Y0158800D02*
X0030969Y0158798D01*
X0031038Y0158792D01*
X0031106Y0158783D01*
X0031173Y0158770D01*
X0031240Y0158753D01*
X0031306Y0158732D01*
X0031370Y0158708D01*
X0031433Y0158680D01*
X0031495Y0158649D01*
X0031555Y0158615D01*
X0031612Y0158577D01*
X0031668Y0158536D01*
X0031721Y0158493D01*
X0031772Y0158446D01*
X0031820Y0158397D01*
X0031865Y0158345D01*
X0031907Y0158290D01*
X0031946Y0158234D01*
X0031983Y0158175D01*
X0032015Y0158114D01*
X0032045Y0158052D01*
X0032071Y0157988D01*
X0032093Y0157923D01*
X0032112Y0157857D01*
X0032127Y0157790D01*
X0032138Y0157722D01*
X0032146Y0157653D01*
X0032150Y0157584D01*
X0032150Y0157516D01*
X0032146Y0157447D01*
X0032138Y0157378D01*
X0032127Y0157310D01*
X0032112Y0157243D01*
X0032093Y0157177D01*
X0032071Y0157112D01*
X0032045Y0157048D01*
X0032015Y0156986D01*
X0031983Y0156925D01*
X0031946Y0156866D01*
X0031907Y0156810D01*
X0031865Y0156755D01*
X0031820Y0156703D01*
X0031772Y0156654D01*
X0031721Y0156607D01*
X0031668Y0156564D01*
X0031612Y0156523D01*
X0031555Y0156485D01*
X0031495Y0156451D01*
X0031433Y0156420D01*
X0031370Y0156392D01*
X0031306Y0156368D01*
X0031240Y0156347D01*
X0031173Y0156330D01*
X0031106Y0156317D01*
X0031038Y0156308D01*
X0030969Y0156302D01*
X0030900Y0156300D01*
X0029650Y0156300D01*
X0031150Y0156300D02*
X0032150Y0154300D01*
X0034117Y0154300D02*
X0036617Y0154300D01*
X0029650Y0154300D02*
X0029650Y0158800D01*
X0030900Y0158800D01*
X0030300Y0167450D02*
X0031550Y0167450D01*
X0031618Y0167452D01*
X0031685Y0167457D01*
X0031752Y0167466D01*
X0031819Y0167479D01*
X0031884Y0167496D01*
X0031949Y0167515D01*
X0032013Y0167539D01*
X0032075Y0167566D01*
X0032136Y0167596D01*
X0032194Y0167629D01*
X0032251Y0167665D01*
X0032306Y0167705D01*
X0032359Y0167747D01*
X0032410Y0167793D01*
X0032457Y0167840D01*
X0032503Y0167891D01*
X0032545Y0167944D01*
X0032585Y0167999D01*
X0032621Y0168056D01*
X0032654Y0168114D01*
X0032684Y0168175D01*
X0032711Y0168237D01*
X0032735Y0168301D01*
X0032754Y0168366D01*
X0032771Y0168431D01*
X0032784Y0168498D01*
X0032793Y0168565D01*
X0032798Y0168632D01*
X0032800Y0168700D01*
X0032800Y0170700D01*
X0032798Y0170768D01*
X0032793Y0170835D01*
X0032784Y0170902D01*
X0032771Y0170969D01*
X0032754Y0171034D01*
X0032735Y0171099D01*
X0032711Y0171163D01*
X0032684Y0171225D01*
X0032654Y0171286D01*
X0032621Y0171344D01*
X0032585Y0171401D01*
X0032545Y0171456D01*
X0032503Y0171509D01*
X0032457Y0171560D01*
X0032410Y0171607D01*
X0032359Y0171653D01*
X0032306Y0171695D01*
X0032251Y0171735D01*
X0032194Y0171771D01*
X0032136Y0171804D01*
X0032075Y0171834D01*
X0032013Y0171861D01*
X0031949Y0171885D01*
X0031884Y0171904D01*
X0031819Y0171921D01*
X0031752Y0171934D01*
X0031685Y0171943D01*
X0031618Y0171948D01*
X0031550Y0171950D01*
X0030300Y0171950D01*
X0030300Y0167450D01*
X0034950Y0167450D02*
X0036450Y0167450D01*
X0036510Y0167452D01*
X0036571Y0167457D01*
X0036630Y0167466D01*
X0036689Y0167479D01*
X0036748Y0167495D01*
X0036805Y0167515D01*
X0036860Y0167538D01*
X0036915Y0167565D01*
X0036967Y0167594D01*
X0037018Y0167627D01*
X0037067Y0167663D01*
X0037113Y0167701D01*
X0037157Y0167743D01*
X0037199Y0167787D01*
X0037237Y0167833D01*
X0037273Y0167882D01*
X0037306Y0167933D01*
X0037335Y0167985D01*
X0037362Y0168040D01*
X0037385Y0168095D01*
X0037405Y0168152D01*
X0037421Y0168211D01*
X0037434Y0168270D01*
X0037443Y0168329D01*
X0037448Y0168390D01*
X0037450Y0168450D01*
X0037450Y0168950D01*
X0037448Y0169010D01*
X0037443Y0169071D01*
X0037434Y0169130D01*
X0037421Y0169189D01*
X0037405Y0169248D01*
X0037385Y0169305D01*
X0037362Y0169360D01*
X0037335Y0169415D01*
X0037306Y0169467D01*
X0037273Y0169518D01*
X0037237Y0169567D01*
X0037199Y0169613D01*
X0037157Y0169657D01*
X0037113Y0169699D01*
X0037067Y0169737D01*
X0037018Y0169773D01*
X0036967Y0169806D01*
X0036915Y0169835D01*
X0036860Y0169862D01*
X0036805Y0169885D01*
X0036748Y0169905D01*
X0036689Y0169921D01*
X0036630Y0169934D01*
X0036571Y0169943D01*
X0036510Y0169948D01*
X0036450Y0169950D01*
X0034950Y0169950D01*
X0034950Y0171950D01*
X0037450Y0171950D01*
X0084675Y0161340D02*
X0085675Y0160090D01*
X0084675Y0161340D02*
X0089175Y0161340D01*
X0089175Y0160090D02*
X0089175Y0162590D01*
X0089175Y0158325D02*
X0089175Y0157325D01*
X0089173Y0157265D01*
X0089168Y0157204D01*
X0089159Y0157145D01*
X0089146Y0157086D01*
X0089130Y0157027D01*
X0089110Y0156970D01*
X0089087Y0156915D01*
X0089060Y0156860D01*
X0089031Y0156808D01*
X0088998Y0156757D01*
X0088962Y0156708D01*
X0088924Y0156662D01*
X0088882Y0156618D01*
X0088838Y0156576D01*
X0088792Y0156538D01*
X0088743Y0156502D01*
X0088692Y0156469D01*
X0088640Y0156440D01*
X0088585Y0156413D01*
X0088530Y0156390D01*
X0088473Y0156370D01*
X0088414Y0156354D01*
X0088355Y0156341D01*
X0088296Y0156332D01*
X0088235Y0156327D01*
X0088175Y0156325D01*
X0085675Y0156325D01*
X0085615Y0156327D01*
X0085554Y0156332D01*
X0085495Y0156341D01*
X0085436Y0156354D01*
X0085377Y0156370D01*
X0085320Y0156390D01*
X0085265Y0156413D01*
X0085210Y0156440D01*
X0085158Y0156469D01*
X0085107Y0156502D01*
X0085058Y0156538D01*
X0085012Y0156576D01*
X0084968Y0156618D01*
X0084926Y0156662D01*
X0084888Y0156708D01*
X0084852Y0156757D01*
X0084819Y0156808D01*
X0084790Y0156860D01*
X0084763Y0156915D01*
X0084740Y0156970D01*
X0084720Y0157027D01*
X0084704Y0157086D01*
X0084691Y0157145D01*
X0084682Y0157204D01*
X0084677Y0157265D01*
X0084675Y0157325D01*
X0084675Y0158325D01*
X0087500Y0168225D02*
X0089500Y0168225D01*
X0089569Y0168227D01*
X0089638Y0168233D01*
X0089706Y0168242D01*
X0089773Y0168255D01*
X0089840Y0168272D01*
X0089906Y0168293D01*
X0089970Y0168317D01*
X0090033Y0168345D01*
X0090095Y0168376D01*
X0090155Y0168410D01*
X0090212Y0168448D01*
X0090268Y0168489D01*
X0090321Y0168532D01*
X0090372Y0168579D01*
X0090420Y0168628D01*
X0090465Y0168680D01*
X0090507Y0168735D01*
X0090546Y0168791D01*
X0090583Y0168850D01*
X0090615Y0168911D01*
X0090645Y0168973D01*
X0090671Y0169037D01*
X0090693Y0169102D01*
X0090712Y0169168D01*
X0090727Y0169235D01*
X0090738Y0169303D01*
X0090746Y0169372D01*
X0090750Y0169441D01*
X0090750Y0169509D01*
X0090746Y0169578D01*
X0090738Y0169647D01*
X0090727Y0169715D01*
X0090712Y0169782D01*
X0090693Y0169848D01*
X0090671Y0169913D01*
X0090645Y0169977D01*
X0090615Y0170039D01*
X0090583Y0170100D01*
X0090546Y0170159D01*
X0090507Y0170215D01*
X0090465Y0170270D01*
X0090420Y0170322D01*
X0090372Y0170371D01*
X0090321Y0170418D01*
X0090268Y0170461D01*
X0090212Y0170502D01*
X0090155Y0170540D01*
X0090095Y0170574D01*
X0090033Y0170605D01*
X0089970Y0170633D01*
X0089906Y0170657D01*
X0089840Y0170678D01*
X0089773Y0170695D01*
X0089706Y0170708D01*
X0089638Y0170717D01*
X0089569Y0170723D01*
X0089500Y0170725D01*
X0087500Y0170725D01*
X0087431Y0170723D01*
X0087362Y0170717D01*
X0087294Y0170708D01*
X0087227Y0170695D01*
X0087160Y0170678D01*
X0087094Y0170657D01*
X0087030Y0170633D01*
X0086967Y0170605D01*
X0086905Y0170574D01*
X0086845Y0170540D01*
X0086788Y0170502D01*
X0086732Y0170461D01*
X0086679Y0170418D01*
X0086628Y0170371D01*
X0086580Y0170322D01*
X0086535Y0170270D01*
X0086493Y0170215D01*
X0086454Y0170159D01*
X0086417Y0170100D01*
X0086385Y0170039D01*
X0086355Y0169977D01*
X0086329Y0169913D01*
X0086307Y0169848D01*
X0086288Y0169782D01*
X0086273Y0169715D01*
X0086262Y0169647D01*
X0086254Y0169578D01*
X0086250Y0169509D01*
X0086250Y0169441D01*
X0086254Y0169372D01*
X0086262Y0169303D01*
X0086273Y0169235D01*
X0086288Y0169168D01*
X0086307Y0169102D01*
X0086329Y0169037D01*
X0086355Y0168973D01*
X0086385Y0168911D01*
X0086417Y0168850D01*
X0086454Y0168791D01*
X0086493Y0168735D01*
X0086535Y0168680D01*
X0086580Y0168628D01*
X0086628Y0168579D01*
X0086679Y0168532D01*
X0086732Y0168489D01*
X0086788Y0168448D01*
X0086845Y0168410D01*
X0086905Y0168376D01*
X0086967Y0168345D01*
X0087030Y0168317D01*
X0087094Y0168293D01*
X0087160Y0168272D01*
X0087227Y0168255D01*
X0087294Y0168242D01*
X0087362Y0168233D01*
X0087431Y0168227D01*
X0087500Y0168225D01*
X0086250Y0172950D02*
X0090750Y0172950D01*
X0089000Y0172950D02*
X0086250Y0175450D01*
X0087250Y0177225D02*
X0086250Y0178475D01*
X0090750Y0178475D01*
X0090750Y0177225D02*
X0090750Y0179725D01*
X0090750Y0175450D02*
X0088000Y0173950D01*
X0116000Y0170625D02*
X0116000Y0166125D01*
X0117250Y0166125D01*
X0117318Y0166127D01*
X0117385Y0166132D01*
X0117452Y0166141D01*
X0117519Y0166154D01*
X0117584Y0166171D01*
X0117649Y0166190D01*
X0117713Y0166214D01*
X0117775Y0166241D01*
X0117836Y0166271D01*
X0117894Y0166304D01*
X0117951Y0166340D01*
X0118006Y0166380D01*
X0118059Y0166422D01*
X0118110Y0166468D01*
X0118157Y0166515D01*
X0118203Y0166566D01*
X0118245Y0166619D01*
X0118285Y0166674D01*
X0118321Y0166731D01*
X0118354Y0166789D01*
X0118384Y0166850D01*
X0118411Y0166912D01*
X0118435Y0166976D01*
X0118454Y0167041D01*
X0118471Y0167106D01*
X0118484Y0167173D01*
X0118493Y0167240D01*
X0118498Y0167307D01*
X0118500Y0167375D01*
X0118500Y0169375D01*
X0118498Y0169443D01*
X0118493Y0169510D01*
X0118484Y0169577D01*
X0118471Y0169644D01*
X0118454Y0169709D01*
X0118435Y0169774D01*
X0118411Y0169838D01*
X0118384Y0169900D01*
X0118354Y0169961D01*
X0118321Y0170019D01*
X0118285Y0170076D01*
X0118245Y0170131D01*
X0118203Y0170184D01*
X0118157Y0170235D01*
X0118110Y0170282D01*
X0118059Y0170328D01*
X0118006Y0170370D01*
X0117951Y0170410D01*
X0117894Y0170446D01*
X0117836Y0170479D01*
X0117775Y0170509D01*
X0117713Y0170536D01*
X0117649Y0170560D01*
X0117584Y0170579D01*
X0117519Y0170596D01*
X0117452Y0170609D01*
X0117385Y0170618D01*
X0117318Y0170623D01*
X0117250Y0170625D01*
X0116000Y0170625D01*
X0122775Y0168625D02*
X0122821Y0168671D01*
X0122865Y0168720D01*
X0122905Y0168771D01*
X0122943Y0168824D01*
X0122978Y0168879D01*
X0123010Y0168936D01*
X0123039Y0168994D01*
X0123065Y0169054D01*
X0123087Y0169116D01*
X0123106Y0169178D01*
X0123122Y0169241D01*
X0123134Y0169305D01*
X0123143Y0169370D01*
X0123148Y0169435D01*
X0123150Y0169500D01*
X0122775Y0168625D02*
X0120650Y0166125D01*
X0123150Y0166125D01*
X0120650Y0169625D02*
X0120674Y0169694D01*
X0120702Y0169761D01*
X0120733Y0169827D01*
X0120767Y0169891D01*
X0120804Y0169953D01*
X0120845Y0170014D01*
X0120888Y0170072D01*
X0120934Y0170128D01*
X0120984Y0170182D01*
X0121035Y0170233D01*
X0121089Y0170281D01*
X0121146Y0170327D01*
X0121205Y0170370D01*
X0121266Y0170409D01*
X0121328Y0170446D01*
X0121393Y0170479D01*
X0121459Y0170510D01*
X0121527Y0170536D01*
X0121595Y0170560D01*
X0121665Y0170580D01*
X0121736Y0170596D01*
X0121808Y0170609D01*
X0121880Y0170618D01*
X0121952Y0170623D01*
X0122025Y0170625D01*
X0122090Y0170623D01*
X0122156Y0170617D01*
X0122220Y0170608D01*
X0122284Y0170595D01*
X0122348Y0170578D01*
X0122410Y0170557D01*
X0122471Y0170533D01*
X0122530Y0170505D01*
X0122588Y0170474D01*
X0122643Y0170440D01*
X0122697Y0170402D01*
X0122748Y0170362D01*
X0122797Y0170318D01*
X0122843Y0170272D01*
X0122887Y0170223D01*
X0122927Y0170172D01*
X0122965Y0170118D01*
X0122999Y0170063D01*
X0123030Y0170005D01*
X0123058Y0169946D01*
X0123082Y0169885D01*
X0123103Y0169823D01*
X0123120Y0169759D01*
X0123133Y0169695D01*
X0123142Y0169631D01*
X0123148Y0169565D01*
X0123150Y0169500D01*
X0181475Y0170625D02*
X0181475Y0166125D01*
X0182725Y0166125D01*
X0182793Y0166127D01*
X0182860Y0166132D01*
X0182927Y0166141D01*
X0182994Y0166154D01*
X0183059Y0166171D01*
X0183124Y0166190D01*
X0183188Y0166214D01*
X0183250Y0166241D01*
X0183311Y0166271D01*
X0183369Y0166304D01*
X0183426Y0166340D01*
X0183481Y0166380D01*
X0183534Y0166422D01*
X0183585Y0166468D01*
X0183632Y0166515D01*
X0183678Y0166566D01*
X0183720Y0166619D01*
X0183760Y0166674D01*
X0183796Y0166731D01*
X0183829Y0166789D01*
X0183859Y0166850D01*
X0183886Y0166912D01*
X0183910Y0166976D01*
X0183929Y0167041D01*
X0183946Y0167106D01*
X0183959Y0167173D01*
X0183968Y0167240D01*
X0183973Y0167307D01*
X0183975Y0167375D01*
X0183975Y0169375D01*
X0183973Y0169443D01*
X0183968Y0169510D01*
X0183959Y0169577D01*
X0183946Y0169644D01*
X0183929Y0169709D01*
X0183910Y0169774D01*
X0183886Y0169838D01*
X0183859Y0169900D01*
X0183829Y0169961D01*
X0183796Y0170019D01*
X0183760Y0170076D01*
X0183720Y0170131D01*
X0183678Y0170184D01*
X0183632Y0170235D01*
X0183585Y0170282D01*
X0183534Y0170328D01*
X0183481Y0170370D01*
X0183426Y0170410D01*
X0183369Y0170446D01*
X0183311Y0170479D01*
X0183250Y0170509D01*
X0183188Y0170536D01*
X0183124Y0170560D01*
X0183059Y0170579D01*
X0182994Y0170596D01*
X0182927Y0170609D01*
X0182860Y0170618D01*
X0182793Y0170623D01*
X0182725Y0170625D01*
X0181475Y0170625D01*
X0186125Y0168625D02*
X0186125Y0167375D01*
X0186127Y0167306D01*
X0186133Y0167237D01*
X0186142Y0167169D01*
X0186155Y0167102D01*
X0186172Y0167035D01*
X0186193Y0166969D01*
X0186217Y0166905D01*
X0186245Y0166842D01*
X0186276Y0166780D01*
X0186310Y0166720D01*
X0186348Y0166663D01*
X0186389Y0166607D01*
X0186432Y0166554D01*
X0186479Y0166503D01*
X0186528Y0166455D01*
X0186580Y0166410D01*
X0186635Y0166368D01*
X0186691Y0166329D01*
X0186750Y0166292D01*
X0186811Y0166260D01*
X0186873Y0166230D01*
X0186937Y0166204D01*
X0187002Y0166182D01*
X0187068Y0166163D01*
X0187135Y0166148D01*
X0187203Y0166137D01*
X0187272Y0166129D01*
X0187341Y0166125D01*
X0187409Y0166125D01*
X0187478Y0166129D01*
X0187547Y0166137D01*
X0187615Y0166148D01*
X0187682Y0166163D01*
X0187748Y0166182D01*
X0187813Y0166204D01*
X0187877Y0166230D01*
X0187939Y0166260D01*
X0188000Y0166292D01*
X0188059Y0166329D01*
X0188115Y0166368D01*
X0188170Y0166410D01*
X0188222Y0166455D01*
X0188271Y0166503D01*
X0188318Y0166554D01*
X0188361Y0166607D01*
X0188402Y0166663D01*
X0188440Y0166720D01*
X0188474Y0166780D01*
X0188505Y0166842D01*
X0188533Y0166905D01*
X0188557Y0166969D01*
X0188578Y0167035D01*
X0188595Y0167102D01*
X0188608Y0167169D01*
X0188617Y0167237D01*
X0188623Y0167306D01*
X0188625Y0167375D01*
X0188625Y0167625D01*
X0188623Y0167685D01*
X0188618Y0167746D01*
X0188609Y0167805D01*
X0188596Y0167864D01*
X0188580Y0167923D01*
X0188560Y0167980D01*
X0188537Y0168035D01*
X0188510Y0168090D01*
X0188481Y0168142D01*
X0188448Y0168193D01*
X0188412Y0168242D01*
X0188374Y0168288D01*
X0188332Y0168332D01*
X0188288Y0168374D01*
X0188242Y0168412D01*
X0188193Y0168448D01*
X0188142Y0168481D01*
X0188090Y0168510D01*
X0188035Y0168537D01*
X0187980Y0168560D01*
X0187923Y0168580D01*
X0187864Y0168596D01*
X0187805Y0168609D01*
X0187746Y0168618D01*
X0187685Y0168623D01*
X0187625Y0168625D01*
X0186125Y0168625D01*
X0186127Y0168712D01*
X0186133Y0168799D01*
X0186142Y0168886D01*
X0186155Y0168972D01*
X0186172Y0169058D01*
X0186193Y0169143D01*
X0186218Y0169226D01*
X0186246Y0169309D01*
X0186277Y0169390D01*
X0186312Y0169470D01*
X0186351Y0169548D01*
X0186393Y0169625D01*
X0186438Y0169700D01*
X0186487Y0169772D01*
X0186538Y0169843D01*
X0186593Y0169911D01*
X0186650Y0169976D01*
X0186711Y0170039D01*
X0186774Y0170100D01*
X0186839Y0170157D01*
X0186907Y0170212D01*
X0186978Y0170263D01*
X0187050Y0170312D01*
X0187125Y0170357D01*
X0187202Y0170399D01*
X0187280Y0170438D01*
X0187360Y0170473D01*
X0187441Y0170504D01*
X0187524Y0170532D01*
X0187607Y0170557D01*
X0187692Y0170578D01*
X0187778Y0170595D01*
X0187864Y0170608D01*
X0187951Y0170617D01*
X0188038Y0170623D01*
X0188125Y0170625D01*
X0222700Y0172525D02*
X0222700Y0177025D01*
X0223950Y0177025D01*
X0224019Y0177023D01*
X0224088Y0177017D01*
X0224156Y0177008D01*
X0224223Y0176995D01*
X0224290Y0176978D01*
X0224356Y0176957D01*
X0224420Y0176933D01*
X0224483Y0176905D01*
X0224545Y0176874D01*
X0224605Y0176840D01*
X0224662Y0176802D01*
X0224718Y0176761D01*
X0224771Y0176718D01*
X0224822Y0176671D01*
X0224870Y0176622D01*
X0224915Y0176570D01*
X0224957Y0176515D01*
X0224996Y0176459D01*
X0225033Y0176400D01*
X0225065Y0176339D01*
X0225095Y0176277D01*
X0225121Y0176213D01*
X0225143Y0176148D01*
X0225162Y0176082D01*
X0225177Y0176015D01*
X0225188Y0175947D01*
X0225196Y0175878D01*
X0225200Y0175809D01*
X0225200Y0175741D01*
X0225196Y0175672D01*
X0225188Y0175603D01*
X0225177Y0175535D01*
X0225162Y0175468D01*
X0225143Y0175402D01*
X0225121Y0175337D01*
X0225095Y0175273D01*
X0225065Y0175211D01*
X0225033Y0175150D01*
X0224996Y0175091D01*
X0224957Y0175035D01*
X0224915Y0174980D01*
X0224870Y0174928D01*
X0224822Y0174879D01*
X0224771Y0174832D01*
X0224718Y0174789D01*
X0224662Y0174748D01*
X0224605Y0174710D01*
X0224545Y0174676D01*
X0224483Y0174645D01*
X0224420Y0174617D01*
X0224356Y0174593D01*
X0224290Y0174572D01*
X0224223Y0174555D01*
X0224156Y0174542D01*
X0224088Y0174533D01*
X0224019Y0174527D01*
X0223950Y0174525D01*
X0222700Y0174525D01*
X0224200Y0174525D02*
X0225200Y0172525D01*
X0227167Y0172525D02*
X0228667Y0172525D01*
X0228727Y0172527D01*
X0228788Y0172532D01*
X0228847Y0172541D01*
X0228906Y0172554D01*
X0228965Y0172570D01*
X0229022Y0172590D01*
X0229077Y0172613D01*
X0229132Y0172640D01*
X0229184Y0172669D01*
X0229235Y0172702D01*
X0229284Y0172738D01*
X0229330Y0172776D01*
X0229374Y0172818D01*
X0229416Y0172862D01*
X0229454Y0172908D01*
X0229490Y0172957D01*
X0229523Y0173008D01*
X0229552Y0173060D01*
X0229579Y0173115D01*
X0229602Y0173170D01*
X0229622Y0173227D01*
X0229638Y0173286D01*
X0229651Y0173345D01*
X0229660Y0173404D01*
X0229665Y0173465D01*
X0229667Y0173525D01*
X0229667Y0174025D01*
X0229665Y0174085D01*
X0229660Y0174146D01*
X0229651Y0174205D01*
X0229638Y0174264D01*
X0229622Y0174323D01*
X0229602Y0174380D01*
X0229579Y0174435D01*
X0229552Y0174490D01*
X0229523Y0174542D01*
X0229490Y0174593D01*
X0229454Y0174642D01*
X0229416Y0174688D01*
X0229374Y0174732D01*
X0229330Y0174774D01*
X0229284Y0174812D01*
X0229235Y0174848D01*
X0229184Y0174881D01*
X0229132Y0174910D01*
X0229077Y0174937D01*
X0229022Y0174960D01*
X0228965Y0174980D01*
X0228906Y0174996D01*
X0228847Y0175009D01*
X0228788Y0175018D01*
X0228727Y0175023D01*
X0228667Y0175025D01*
X0227167Y0175025D01*
X0227167Y0177025D01*
X0229667Y0177025D01*
X0227550Y0200425D02*
X0225050Y0200425D01*
X0226300Y0200425D02*
X0226300Y0204925D01*
X0225050Y0203925D01*
X0222700Y0202300D02*
X0221325Y0203050D01*
X0221825Y0204925D02*
X0221905Y0204923D01*
X0221986Y0204918D01*
X0222066Y0204909D01*
X0222145Y0204897D01*
X0222224Y0204882D01*
X0222302Y0204863D01*
X0222380Y0204841D01*
X0222456Y0204816D01*
X0222531Y0204787D01*
X0222605Y0204755D01*
X0222677Y0204720D01*
X0222748Y0204682D01*
X0222817Y0204641D01*
X0222885Y0204597D01*
X0222950Y0204550D01*
X0221325Y0203050D02*
X0221273Y0203083D01*
X0221222Y0203119D01*
X0221174Y0203158D01*
X0221129Y0203200D01*
X0221086Y0203245D01*
X0221046Y0203293D01*
X0221009Y0203342D01*
X0220975Y0203394D01*
X0220944Y0203448D01*
X0220916Y0203504D01*
X0220892Y0203561D01*
X0220872Y0203620D01*
X0220855Y0203679D01*
X0220842Y0203740D01*
X0220833Y0203801D01*
X0220827Y0203863D01*
X0220825Y0203925D01*
X0220827Y0203985D01*
X0220832Y0204046D01*
X0220841Y0204105D01*
X0220854Y0204164D01*
X0220870Y0204223D01*
X0220890Y0204280D01*
X0220913Y0204335D01*
X0220940Y0204390D01*
X0220969Y0204442D01*
X0221002Y0204493D01*
X0221038Y0204542D01*
X0221076Y0204588D01*
X0221118Y0204632D01*
X0221162Y0204674D01*
X0221208Y0204712D01*
X0221257Y0204748D01*
X0221308Y0204781D01*
X0221360Y0204810D01*
X0221415Y0204837D01*
X0221470Y0204860D01*
X0221527Y0204880D01*
X0221586Y0204896D01*
X0221645Y0204909D01*
X0221704Y0204918D01*
X0221765Y0204923D01*
X0221825Y0204925D01*
X0220700Y0201049D02*
X0220763Y0200988D01*
X0220828Y0200930D01*
X0220896Y0200874D01*
X0220967Y0200821D01*
X0221039Y0200772D01*
X0221113Y0200725D01*
X0221189Y0200681D01*
X0221267Y0200641D01*
X0221347Y0200604D01*
X0221428Y0200570D01*
X0221510Y0200540D01*
X0221594Y0200513D01*
X0221679Y0200489D01*
X0221764Y0200469D01*
X0221850Y0200453D01*
X0221937Y0200440D01*
X0222025Y0200431D01*
X0222112Y0200426D01*
X0222200Y0200424D01*
X0222200Y0200425D02*
X0222260Y0200427D01*
X0222321Y0200432D01*
X0222380Y0200441D01*
X0222439Y0200454D01*
X0222498Y0200470D01*
X0222555Y0200490D01*
X0222610Y0200513D01*
X0222665Y0200540D01*
X0222717Y0200569D01*
X0222768Y0200602D01*
X0222817Y0200638D01*
X0222863Y0200676D01*
X0222907Y0200718D01*
X0222949Y0200762D01*
X0222987Y0200808D01*
X0223023Y0200857D01*
X0223056Y0200908D01*
X0223085Y0200960D01*
X0223112Y0201015D01*
X0223135Y0201070D01*
X0223155Y0201127D01*
X0223171Y0201186D01*
X0223184Y0201245D01*
X0223193Y0201304D01*
X0223198Y0201365D01*
X0223200Y0201425D01*
X0223198Y0201487D01*
X0223192Y0201549D01*
X0223183Y0201610D01*
X0223170Y0201671D01*
X0223153Y0201730D01*
X0223133Y0201789D01*
X0223109Y0201846D01*
X0223081Y0201902D01*
X0223050Y0201956D01*
X0223016Y0202008D01*
X0222979Y0202057D01*
X0222939Y0202105D01*
X0222896Y0202150D01*
X0222851Y0202192D01*
X0222803Y0202231D01*
X0222752Y0202267D01*
X0222700Y0202300D01*
X0264900Y0086865D02*
X0269400Y0086865D01*
X0269400Y0085615D02*
X0269400Y0088115D01*
X0265900Y0085615D02*
X0264900Y0086865D01*
X0269400Y0083615D02*
X0269400Y0081115D01*
X0269400Y0082365D02*
X0264900Y0082365D01*
X0265900Y0081115D01*
X0264900Y0079350D02*
X0264900Y0078350D01*
X0264902Y0078290D01*
X0264907Y0078229D01*
X0264916Y0078170D01*
X0264929Y0078111D01*
X0264945Y0078052D01*
X0264965Y0077995D01*
X0264988Y0077940D01*
X0265015Y0077885D01*
X0265044Y0077833D01*
X0265077Y0077782D01*
X0265113Y0077733D01*
X0265151Y0077687D01*
X0265193Y0077643D01*
X0265237Y0077601D01*
X0265283Y0077563D01*
X0265332Y0077527D01*
X0265383Y0077494D01*
X0265435Y0077465D01*
X0265490Y0077438D01*
X0265545Y0077415D01*
X0265602Y0077395D01*
X0265661Y0077379D01*
X0265720Y0077366D01*
X0265779Y0077357D01*
X0265840Y0077352D01*
X0265900Y0077350D01*
X0268400Y0077350D01*
X0268460Y0077352D01*
X0268521Y0077357D01*
X0268580Y0077366D01*
X0268639Y0077379D01*
X0268698Y0077395D01*
X0268755Y0077415D01*
X0268810Y0077438D01*
X0268865Y0077465D01*
X0268917Y0077494D01*
X0268968Y0077527D01*
X0269017Y0077563D01*
X0269063Y0077601D01*
X0269107Y0077643D01*
X0269149Y0077687D01*
X0269187Y0077733D01*
X0269223Y0077782D01*
X0269256Y0077833D01*
X0269285Y0077885D01*
X0269312Y0077940D01*
X0269335Y0077995D01*
X0269355Y0078052D01*
X0269371Y0078111D01*
X0269384Y0078170D01*
X0269393Y0078229D01*
X0269398Y0078290D01*
X0269400Y0078350D01*
X0269400Y0079350D01*
X0293475Y0036950D02*
X0294975Y0032450D01*
X0296475Y0036950D01*
X0300350Y0034950D02*
X0300396Y0034996D01*
X0300440Y0035045D01*
X0300480Y0035096D01*
X0300518Y0035149D01*
X0300553Y0035204D01*
X0300585Y0035261D01*
X0300614Y0035319D01*
X0300640Y0035379D01*
X0300662Y0035441D01*
X0300681Y0035503D01*
X0300697Y0035566D01*
X0300709Y0035630D01*
X0300718Y0035695D01*
X0300723Y0035760D01*
X0300725Y0035825D01*
X0300350Y0034950D02*
X0298225Y0032450D01*
X0300725Y0032450D01*
X0298225Y0035950D02*
X0298249Y0036019D01*
X0298277Y0036086D01*
X0298308Y0036152D01*
X0298342Y0036216D01*
X0298379Y0036278D01*
X0298420Y0036339D01*
X0298463Y0036397D01*
X0298509Y0036453D01*
X0298559Y0036507D01*
X0298610Y0036558D01*
X0298664Y0036606D01*
X0298721Y0036652D01*
X0298780Y0036695D01*
X0298841Y0036734D01*
X0298903Y0036771D01*
X0298968Y0036804D01*
X0299034Y0036835D01*
X0299102Y0036861D01*
X0299170Y0036885D01*
X0299240Y0036905D01*
X0299311Y0036921D01*
X0299383Y0036934D01*
X0299455Y0036943D01*
X0299527Y0036948D01*
X0299600Y0036950D01*
X0299665Y0036948D01*
X0299731Y0036942D01*
X0299795Y0036933D01*
X0299859Y0036920D01*
X0299923Y0036903D01*
X0299985Y0036882D01*
X0300046Y0036858D01*
X0300105Y0036830D01*
X0300163Y0036799D01*
X0300218Y0036765D01*
X0300272Y0036727D01*
X0300323Y0036687D01*
X0300372Y0036643D01*
X0300418Y0036597D01*
X0300462Y0036548D01*
X0300502Y0036497D01*
X0300540Y0036443D01*
X0300574Y0036388D01*
X0300605Y0036330D01*
X0300633Y0036271D01*
X0300657Y0036210D01*
X0300678Y0036148D01*
X0300695Y0036084D01*
X0300708Y0036020D01*
X0300717Y0035956D01*
X0300723Y0035890D01*
X0300725Y0035825D01*
X0291375Y0034325D02*
X0290000Y0035075D01*
X0290500Y0036950D02*
X0290580Y0036948D01*
X0290661Y0036943D01*
X0290741Y0036934D01*
X0290820Y0036922D01*
X0290899Y0036907D01*
X0290977Y0036888D01*
X0291055Y0036866D01*
X0291131Y0036841D01*
X0291206Y0036812D01*
X0291280Y0036780D01*
X0291352Y0036745D01*
X0291423Y0036707D01*
X0291492Y0036666D01*
X0291560Y0036622D01*
X0291625Y0036575D01*
X0290000Y0035075D02*
X0289948Y0035108D01*
X0289897Y0035144D01*
X0289849Y0035183D01*
X0289804Y0035225D01*
X0289761Y0035270D01*
X0289721Y0035318D01*
X0289684Y0035367D01*
X0289650Y0035419D01*
X0289619Y0035473D01*
X0289591Y0035529D01*
X0289567Y0035586D01*
X0289547Y0035645D01*
X0289530Y0035704D01*
X0289517Y0035765D01*
X0289508Y0035826D01*
X0289502Y0035888D01*
X0289500Y0035950D01*
X0289502Y0036010D01*
X0289507Y0036071D01*
X0289516Y0036130D01*
X0289529Y0036189D01*
X0289545Y0036248D01*
X0289565Y0036305D01*
X0289588Y0036360D01*
X0289615Y0036415D01*
X0289644Y0036467D01*
X0289677Y0036518D01*
X0289713Y0036567D01*
X0289751Y0036613D01*
X0289793Y0036657D01*
X0289837Y0036699D01*
X0289883Y0036737D01*
X0289932Y0036773D01*
X0289983Y0036806D01*
X0290035Y0036835D01*
X0290090Y0036862D01*
X0290145Y0036885D01*
X0290202Y0036905D01*
X0290261Y0036921D01*
X0290320Y0036934D01*
X0290379Y0036943D01*
X0290440Y0036948D01*
X0290500Y0036950D01*
X0289375Y0033075D02*
X0289438Y0033014D01*
X0289503Y0032956D01*
X0289571Y0032900D01*
X0289642Y0032847D01*
X0289714Y0032798D01*
X0289788Y0032751D01*
X0289864Y0032707D01*
X0289942Y0032667D01*
X0290022Y0032630D01*
X0290103Y0032596D01*
X0290185Y0032566D01*
X0290269Y0032539D01*
X0290354Y0032515D01*
X0290439Y0032495D01*
X0290525Y0032479D01*
X0290612Y0032466D01*
X0290700Y0032457D01*
X0290787Y0032452D01*
X0290875Y0032450D01*
X0290935Y0032452D01*
X0290996Y0032457D01*
X0291055Y0032466D01*
X0291114Y0032479D01*
X0291173Y0032495D01*
X0291230Y0032515D01*
X0291285Y0032538D01*
X0291340Y0032565D01*
X0291392Y0032594D01*
X0291443Y0032627D01*
X0291492Y0032663D01*
X0291538Y0032701D01*
X0291582Y0032743D01*
X0291624Y0032787D01*
X0291662Y0032833D01*
X0291698Y0032882D01*
X0291731Y0032933D01*
X0291760Y0032985D01*
X0291787Y0033040D01*
X0291810Y0033095D01*
X0291830Y0033152D01*
X0291846Y0033211D01*
X0291859Y0033270D01*
X0291868Y0033329D01*
X0291873Y0033390D01*
X0291875Y0033450D01*
X0291873Y0033512D01*
X0291867Y0033574D01*
X0291858Y0033635D01*
X0291845Y0033696D01*
X0291828Y0033755D01*
X0291808Y0033814D01*
X0291784Y0033871D01*
X0291756Y0033927D01*
X0291725Y0033981D01*
X0291691Y0034033D01*
X0291654Y0034082D01*
X0291614Y0034130D01*
X0291571Y0034175D01*
X0291526Y0034217D01*
X0291478Y0034256D01*
X0291427Y0034292D01*
X0291375Y0034325D01*
X0293125Y0018950D02*
X0293125Y0014450D01*
X0291875Y0014450D02*
X0294375Y0014450D01*
X0291875Y0017950D02*
X0293125Y0018950D01*
X0331875Y0032450D02*
X0333375Y0032450D01*
X0333435Y0032452D01*
X0333496Y0032457D01*
X0333555Y0032466D01*
X0333614Y0032479D01*
X0333673Y0032495D01*
X0333730Y0032515D01*
X0333785Y0032538D01*
X0333840Y0032565D01*
X0333892Y0032594D01*
X0333943Y0032627D01*
X0333992Y0032663D01*
X0334038Y0032701D01*
X0334082Y0032743D01*
X0334124Y0032787D01*
X0334162Y0032833D01*
X0334198Y0032882D01*
X0334231Y0032933D01*
X0334260Y0032985D01*
X0334287Y0033040D01*
X0334310Y0033095D01*
X0334330Y0033152D01*
X0334346Y0033211D01*
X0334359Y0033270D01*
X0334368Y0033329D01*
X0334373Y0033390D01*
X0334375Y0033450D01*
X0334375Y0033950D01*
X0334373Y0034010D01*
X0334368Y0034071D01*
X0334359Y0034130D01*
X0334346Y0034189D01*
X0334330Y0034248D01*
X0334310Y0034305D01*
X0334287Y0034360D01*
X0334260Y0034415D01*
X0334231Y0034467D01*
X0334198Y0034518D01*
X0334162Y0034567D01*
X0334124Y0034613D01*
X0334082Y0034657D01*
X0334038Y0034699D01*
X0333992Y0034737D01*
X0333943Y0034773D01*
X0333892Y0034806D01*
X0333840Y0034835D01*
X0333785Y0034862D01*
X0333730Y0034885D01*
X0333673Y0034905D01*
X0333614Y0034921D01*
X0333555Y0034934D01*
X0333496Y0034943D01*
X0333435Y0034948D01*
X0333375Y0034950D01*
X0331875Y0034950D01*
X0331875Y0036950D01*
X0334375Y0036950D01*
D13*
X0032550Y0160700D03*
D14*
X0026300Y0160700D03*
X0049800Y0160700D03*
D15*
X0118000Y0161375D03*
X0183475Y0161375D03*
D16*
X0178475Y0161375D03*
X0195975Y0161375D03*
X0130500Y0161375D03*
X0113000Y0161375D03*
D17*
X0237650Y0163075D02*
X0241150Y0163075D01*
X0243418Y0163075D02*
X0244818Y0163075D01*
X0244118Y0163075D02*
X0244118Y0169375D01*
X0243418Y0169375D02*
X0244818Y0169375D01*
X0247274Y0167975D02*
X0247274Y0164475D01*
X0247276Y0164402D01*
X0247282Y0164329D01*
X0247291Y0164256D01*
X0247305Y0164184D01*
X0247322Y0164113D01*
X0247343Y0164042D01*
X0247367Y0163973D01*
X0247395Y0163906D01*
X0247427Y0163839D01*
X0247462Y0163775D01*
X0247500Y0163713D01*
X0247541Y0163652D01*
X0247586Y0163594D01*
X0247634Y0163538D01*
X0247684Y0163485D01*
X0247737Y0163435D01*
X0247793Y0163387D01*
X0247851Y0163342D01*
X0247912Y0163301D01*
X0247974Y0163263D01*
X0248038Y0163228D01*
X0248105Y0163196D01*
X0248172Y0163168D01*
X0248241Y0163144D01*
X0248312Y0163123D01*
X0248383Y0163106D01*
X0248455Y0163092D01*
X0248528Y0163083D01*
X0248601Y0163077D01*
X0248674Y0163075D01*
X0250074Y0163075D01*
X0252420Y0163075D02*
X0255920Y0163075D01*
X0254170Y0163075D02*
X0254170Y0169375D01*
X0252420Y0167975D01*
X0250074Y0169375D02*
X0248674Y0169375D01*
X0248601Y0169373D01*
X0248528Y0169367D01*
X0248455Y0169358D01*
X0248383Y0169344D01*
X0248312Y0169327D01*
X0248241Y0169306D01*
X0248172Y0169282D01*
X0248105Y0169254D01*
X0248038Y0169222D01*
X0247974Y0169187D01*
X0247912Y0169149D01*
X0247851Y0169108D01*
X0247793Y0169063D01*
X0247737Y0169015D01*
X0247684Y0168965D01*
X0247634Y0168912D01*
X0247586Y0168856D01*
X0247541Y0168798D01*
X0247500Y0168737D01*
X0247462Y0168675D01*
X0247427Y0168611D01*
X0247395Y0168544D01*
X0247367Y0168477D01*
X0247343Y0168408D01*
X0247322Y0168337D01*
X0247305Y0168266D01*
X0247291Y0168194D01*
X0247282Y0168121D01*
X0247276Y0168048D01*
X0247274Y0167975D01*
X0241150Y0169375D02*
X0237650Y0163075D01*
X0237650Y0169375D02*
X0241150Y0169375D01*
D18*
X0236950Y0173675D02*
X0236950Y0174675D01*
X0227450Y0174675D01*
X0227450Y0173675D01*
X0227450Y0196675D02*
X0237450Y0196675D01*
X0237450Y0197675D01*
X0227450Y0197675D02*
X0227450Y0196675D01*
X0214475Y0081050D02*
X0214475Y0054050D01*
X0214473Y0053880D01*
X0214467Y0053709D01*
X0214456Y0053539D01*
X0214442Y0053369D01*
X0214423Y0053200D01*
X0214400Y0053031D01*
X0214374Y0052862D01*
X0214343Y0052695D01*
X0214308Y0052528D01*
X0214268Y0052362D01*
X0214225Y0052197D01*
X0214178Y0052033D01*
X0214127Y0051871D01*
X0214072Y0051709D01*
X0214013Y0051549D01*
X0213950Y0051391D01*
X0213884Y0051234D01*
X0213813Y0051079D01*
X0213739Y0050925D01*
X0213661Y0050774D01*
X0213579Y0050624D01*
X0213494Y0050476D01*
X0213405Y0050331D01*
X0213313Y0050188D01*
X0213217Y0050047D01*
X0213118Y0049908D01*
X0213015Y0049772D01*
X0212910Y0049638D01*
X0212801Y0049507D01*
X0212688Y0049379D01*
X0212573Y0049253D01*
X0212455Y0049130D01*
X0212334Y0049011D01*
X0212209Y0048894D01*
X0212082Y0048780D01*
X0211953Y0048669D01*
X0211820Y0048562D01*
X0211685Y0048458D01*
X0211548Y0048357D01*
X0211408Y0048259D01*
X0211266Y0048165D01*
X0211122Y0048075D01*
X0210975Y0047988D01*
X0210826Y0047904D01*
X0210676Y0047825D01*
X0210523Y0047749D01*
X0210369Y0047676D01*
X0210213Y0047608D01*
X0210055Y0047543D01*
X0209896Y0047482D01*
X0209735Y0047425D01*
X0209573Y0047372D01*
X0209410Y0047323D01*
X0209246Y0047278D01*
X0209080Y0047237D01*
X0208914Y0047199D01*
X0208746Y0047166D01*
X0208578Y0047138D01*
X0208410Y0047113D01*
X0208241Y0047092D01*
X0208071Y0047075D01*
X0207901Y0047063D01*
X0207731Y0047055D01*
X0207560Y0047051D01*
X0207390Y0047051D01*
X0207219Y0047055D01*
X0207049Y0047063D01*
X0206879Y0047075D01*
X0206709Y0047092D01*
X0206540Y0047113D01*
X0206372Y0047138D01*
X0206204Y0047166D01*
X0206036Y0047199D01*
X0205870Y0047237D01*
X0205704Y0047278D01*
X0205540Y0047323D01*
X0205377Y0047372D01*
X0205215Y0047425D01*
X0205054Y0047482D01*
X0204895Y0047543D01*
X0204737Y0047608D01*
X0204581Y0047676D01*
X0204427Y0047749D01*
X0204274Y0047825D01*
X0204124Y0047904D01*
X0203975Y0047988D01*
X0203828Y0048075D01*
X0203684Y0048165D01*
X0203542Y0048259D01*
X0203402Y0048357D01*
X0203265Y0048458D01*
X0203130Y0048562D01*
X0202997Y0048669D01*
X0202868Y0048780D01*
X0202741Y0048894D01*
X0202616Y0049011D01*
X0202495Y0049130D01*
X0202377Y0049253D01*
X0202262Y0049379D01*
X0202149Y0049507D01*
X0202040Y0049638D01*
X0201935Y0049772D01*
X0201832Y0049908D01*
X0201733Y0050047D01*
X0201637Y0050188D01*
X0201545Y0050331D01*
X0201456Y0050476D01*
X0201371Y0050624D01*
X0201289Y0050774D01*
X0201211Y0050925D01*
X0201137Y0051079D01*
X0201066Y0051234D01*
X0201000Y0051391D01*
X0200937Y0051549D01*
X0200878Y0051709D01*
X0200823Y0051871D01*
X0200772Y0052033D01*
X0200725Y0052197D01*
X0200682Y0052362D01*
X0200642Y0052528D01*
X0200607Y0052695D01*
X0200576Y0052862D01*
X0200550Y0053031D01*
X0200527Y0053200D01*
X0200508Y0053369D01*
X0200494Y0053539D01*
X0200483Y0053709D01*
X0200477Y0053880D01*
X0200475Y0054050D01*
X0200475Y0081050D01*
X0200477Y0081220D01*
X0200483Y0081391D01*
X0200494Y0081561D01*
X0200508Y0081731D01*
X0200527Y0081900D01*
X0200550Y0082069D01*
X0200576Y0082238D01*
X0200607Y0082405D01*
X0200642Y0082572D01*
X0200682Y0082738D01*
X0200725Y0082903D01*
X0200772Y0083067D01*
X0200823Y0083229D01*
X0200878Y0083391D01*
X0200937Y0083551D01*
X0201000Y0083709D01*
X0201066Y0083866D01*
X0201137Y0084021D01*
X0201211Y0084175D01*
X0201289Y0084326D01*
X0201371Y0084476D01*
X0201456Y0084624D01*
X0201545Y0084769D01*
X0201637Y0084912D01*
X0201733Y0085053D01*
X0201832Y0085192D01*
X0201935Y0085328D01*
X0202040Y0085462D01*
X0202149Y0085593D01*
X0202262Y0085721D01*
X0202377Y0085847D01*
X0202495Y0085970D01*
X0202616Y0086089D01*
X0202741Y0086206D01*
X0202868Y0086320D01*
X0202997Y0086431D01*
X0203130Y0086538D01*
X0203265Y0086642D01*
X0203402Y0086743D01*
X0203542Y0086841D01*
X0203684Y0086935D01*
X0203828Y0087025D01*
X0203975Y0087112D01*
X0204124Y0087196D01*
X0204274Y0087275D01*
X0204427Y0087351D01*
X0204581Y0087424D01*
X0204737Y0087492D01*
X0204895Y0087557D01*
X0205054Y0087618D01*
X0205215Y0087675D01*
X0205377Y0087728D01*
X0205540Y0087777D01*
X0205704Y0087822D01*
X0205870Y0087863D01*
X0206036Y0087901D01*
X0206204Y0087934D01*
X0206372Y0087962D01*
X0206540Y0087987D01*
X0206709Y0088008D01*
X0206879Y0088025D01*
X0207049Y0088037D01*
X0207219Y0088045D01*
X0207390Y0088049D01*
X0207560Y0088049D01*
X0207731Y0088045D01*
X0207901Y0088037D01*
X0208071Y0088025D01*
X0208241Y0088008D01*
X0208410Y0087987D01*
X0208578Y0087962D01*
X0208746Y0087934D01*
X0208914Y0087901D01*
X0209080Y0087863D01*
X0209246Y0087822D01*
X0209410Y0087777D01*
X0209573Y0087728D01*
X0209735Y0087675D01*
X0209896Y0087618D01*
X0210055Y0087557D01*
X0210213Y0087492D01*
X0210369Y0087424D01*
X0210523Y0087351D01*
X0210676Y0087275D01*
X0210826Y0087196D01*
X0210975Y0087112D01*
X0211122Y0087025D01*
X0211266Y0086935D01*
X0211408Y0086841D01*
X0211548Y0086743D01*
X0211685Y0086642D01*
X0211820Y0086538D01*
X0211953Y0086431D01*
X0212082Y0086320D01*
X0212209Y0086206D01*
X0212334Y0086089D01*
X0212455Y0085970D01*
X0212573Y0085847D01*
X0212688Y0085721D01*
X0212801Y0085593D01*
X0212910Y0085462D01*
X0213015Y0085328D01*
X0213118Y0085192D01*
X0213217Y0085053D01*
X0213313Y0084912D01*
X0213405Y0084769D01*
X0213494Y0084624D01*
X0213579Y0084476D01*
X0213661Y0084326D01*
X0213739Y0084175D01*
X0213813Y0084021D01*
X0213884Y0083866D01*
X0213950Y0083709D01*
X0214013Y0083551D01*
X0214072Y0083391D01*
X0214127Y0083229D01*
X0214178Y0083067D01*
X0214225Y0082903D01*
X0214268Y0082738D01*
X0214308Y0082572D01*
X0214343Y0082405D01*
X0214374Y0082238D01*
X0214400Y0082069D01*
X0214423Y0081900D01*
X0214442Y0081731D01*
X0214456Y0081561D01*
X0214467Y0081391D01*
X0214473Y0081220D01*
X0214475Y0081050D01*
D19*
X0219100Y0035500D02*
X0189100Y0035500D01*
X0189100Y0028000D01*
X0219100Y0028000D01*
X0219100Y0010500D01*
X0189100Y0010500D01*
X0189100Y0028000D01*
X0219100Y0028000D02*
X0219100Y0035500D01*
X0353400Y0053025D02*
X0353400Y0070525D01*
X0373400Y0070525D01*
X0373400Y0053025D01*
X0353400Y0053025D01*
X0353400Y0070525D02*
X0353400Y0078025D01*
X0373400Y0078025D01*
X0373400Y0070525D01*
X0353150Y0150900D02*
X0333150Y0150900D01*
X0333150Y0168400D01*
X0353150Y0168400D01*
X0353150Y0150900D01*
X0353150Y0168400D02*
X0353150Y0175900D01*
X0333150Y0175900D01*
X0333150Y0168400D01*
X0353025Y0177225D02*
X0313025Y0177225D01*
X0313025Y0194725D01*
X0353025Y0194725D01*
X0353025Y0177225D01*
X0353025Y0194725D02*
X0353025Y0202225D01*
X0313025Y0202225D01*
X0313025Y0194725D01*
X0290650Y0196825D02*
X0290650Y0189325D01*
X0260650Y0189325D01*
X0260650Y0196825D01*
X0290650Y0196825D01*
X0290650Y0189325D02*
X0290650Y0171825D01*
X0260650Y0171825D01*
X0260650Y0189325D01*
X0138100Y0196825D02*
X0138100Y0179325D01*
X0108100Y0179325D01*
X0108100Y0196825D01*
X0138100Y0196825D01*
X0138100Y0179325D02*
X0138100Y0171825D01*
X0108100Y0171825D01*
X0108100Y0179325D01*
X0048050Y0178650D02*
X0048050Y0171150D01*
X0028050Y0171150D01*
X0028050Y0178650D01*
X0048050Y0178650D01*
X0048050Y0196150D01*
X0028050Y0196150D01*
X0028050Y0178650D01*
D20*
X0042050Y0168450D02*
X0044450Y0164850D01*
X0045850Y0164850D02*
X0047850Y0164850D01*
X0046850Y0164850D02*
X0046850Y0168450D01*
X0045850Y0167650D01*
X0044450Y0168450D02*
X0042050Y0164850D01*
X0132100Y0165525D02*
X0134500Y0169125D01*
X0135900Y0169125D02*
X0137100Y0169125D01*
X0137156Y0169123D01*
X0137211Y0169117D01*
X0137266Y0169108D01*
X0137321Y0169094D01*
X0137374Y0169077D01*
X0137425Y0169056D01*
X0137476Y0169031D01*
X0137524Y0169003D01*
X0137570Y0168972D01*
X0137614Y0168938D01*
X0137656Y0168900D01*
X0137695Y0168860D01*
X0137730Y0168818D01*
X0137763Y0168772D01*
X0137793Y0168725D01*
X0137819Y0168676D01*
X0137842Y0168625D01*
X0137861Y0168572D01*
X0137876Y0168519D01*
X0137888Y0168464D01*
X0137896Y0168409D01*
X0137900Y0168353D01*
X0137900Y0168297D01*
X0137896Y0168241D01*
X0137888Y0168186D01*
X0137876Y0168131D01*
X0137861Y0168078D01*
X0137842Y0168025D01*
X0137819Y0167974D01*
X0137793Y0167925D01*
X0137763Y0167878D01*
X0137730Y0167832D01*
X0137695Y0167790D01*
X0137656Y0167750D01*
X0137614Y0167712D01*
X0137570Y0167678D01*
X0137524Y0167647D01*
X0137476Y0167619D01*
X0137425Y0167594D01*
X0137374Y0167573D01*
X0137321Y0167556D01*
X0137266Y0167542D01*
X0137211Y0167533D01*
X0137156Y0167527D01*
X0137100Y0167525D01*
X0136300Y0167525D01*
X0136900Y0167525D02*
X0136962Y0167523D01*
X0137023Y0167517D01*
X0137084Y0167508D01*
X0137144Y0167495D01*
X0137203Y0167478D01*
X0137261Y0167457D01*
X0137318Y0167433D01*
X0137373Y0167406D01*
X0137426Y0167375D01*
X0137478Y0167341D01*
X0137527Y0167304D01*
X0137574Y0167264D01*
X0137618Y0167221D01*
X0137659Y0167176D01*
X0137698Y0167128D01*
X0137734Y0167077D01*
X0137766Y0167025D01*
X0137795Y0166971D01*
X0137821Y0166915D01*
X0137843Y0166857D01*
X0137862Y0166799D01*
X0137877Y0166739D01*
X0137888Y0166678D01*
X0137896Y0166617D01*
X0137900Y0166556D01*
X0137900Y0166494D01*
X0137896Y0166433D01*
X0137888Y0166372D01*
X0137877Y0166311D01*
X0137862Y0166251D01*
X0137843Y0166193D01*
X0137821Y0166135D01*
X0137795Y0166079D01*
X0137766Y0166025D01*
X0137734Y0165973D01*
X0137698Y0165922D01*
X0137659Y0165874D01*
X0137618Y0165829D01*
X0137574Y0165786D01*
X0137527Y0165746D01*
X0137478Y0165709D01*
X0137426Y0165675D01*
X0137373Y0165644D01*
X0137318Y0165617D01*
X0137261Y0165593D01*
X0137203Y0165572D01*
X0137144Y0165555D01*
X0137084Y0165542D01*
X0137023Y0165533D01*
X0136962Y0165527D01*
X0136900Y0165525D01*
X0135900Y0165525D01*
X0134500Y0165525D02*
X0132100Y0169125D01*
X0260850Y0199525D02*
X0263250Y0203125D01*
X0264650Y0203125D02*
X0266650Y0203125D01*
X0265650Y0199525D01*
X0263250Y0199525D02*
X0260850Y0203125D01*
X0264650Y0203125D02*
X0264650Y0202725D01*
X0313225Y0204925D02*
X0315625Y0208525D01*
X0313225Y0208525D02*
X0315625Y0204925D01*
X0317025Y0204925D02*
X0319025Y0204925D01*
X0317025Y0204925D02*
X0318725Y0206925D01*
X0318125Y0208525D02*
X0318059Y0208523D01*
X0317993Y0208517D01*
X0317928Y0208508D01*
X0317863Y0208495D01*
X0317799Y0208478D01*
X0317736Y0208458D01*
X0317675Y0208434D01*
X0317615Y0208406D01*
X0317556Y0208375D01*
X0317500Y0208341D01*
X0317445Y0208304D01*
X0317393Y0208264D01*
X0317343Y0208220D01*
X0317296Y0208174D01*
X0317251Y0208125D01*
X0317209Y0208074D01*
X0317170Y0208021D01*
X0317135Y0207965D01*
X0317102Y0207908D01*
X0317073Y0207848D01*
X0317047Y0207787D01*
X0317025Y0207725D01*
X0318725Y0206925D02*
X0318767Y0206968D01*
X0318807Y0207013D01*
X0318843Y0207061D01*
X0318877Y0207111D01*
X0318907Y0207163D01*
X0318935Y0207217D01*
X0318958Y0207272D01*
X0318978Y0207329D01*
X0318995Y0207387D01*
X0319008Y0207445D01*
X0319018Y0207505D01*
X0319023Y0207565D01*
X0319025Y0207625D01*
X0319023Y0207684D01*
X0319017Y0207742D01*
X0319008Y0207801D01*
X0318994Y0207858D01*
X0318977Y0207914D01*
X0318956Y0207969D01*
X0318932Y0208023D01*
X0318904Y0208075D01*
X0318873Y0208125D01*
X0318839Y0208173D01*
X0318802Y0208218D01*
X0318761Y0208261D01*
X0318718Y0208302D01*
X0318673Y0208339D01*
X0318625Y0208373D01*
X0318575Y0208404D01*
X0318523Y0208432D01*
X0318469Y0208456D01*
X0318414Y0208477D01*
X0318358Y0208494D01*
X0318301Y0208508D01*
X0318242Y0208517D01*
X0318184Y0208523D01*
X0318125Y0208525D01*
X0333350Y0182200D02*
X0335750Y0178600D01*
X0337150Y0178600D02*
X0339150Y0178600D01*
X0338150Y0178600D02*
X0338150Y0182200D01*
X0337150Y0181400D01*
X0335750Y0182200D02*
X0333350Y0178600D01*
X0342450Y0179100D02*
X0342494Y0179194D01*
X0342534Y0179289D01*
X0342571Y0179386D01*
X0342605Y0179484D01*
X0342635Y0179583D01*
X0342662Y0179683D01*
X0342685Y0179783D01*
X0342705Y0179885D01*
X0342721Y0179987D01*
X0342734Y0180090D01*
X0342743Y0180193D01*
X0342748Y0180296D01*
X0342750Y0180400D01*
X0340750Y0180400D02*
X0340752Y0180296D01*
X0340757Y0180193D01*
X0340766Y0180090D01*
X0340779Y0179987D01*
X0340795Y0179885D01*
X0340815Y0179783D01*
X0340838Y0179683D01*
X0340865Y0179583D01*
X0340895Y0179484D01*
X0340929Y0179386D01*
X0340966Y0179289D01*
X0341006Y0179194D01*
X0341050Y0179100D01*
X0340950Y0179400D02*
X0342550Y0181400D01*
X0342450Y0181700D02*
X0342431Y0181750D01*
X0342408Y0181799D01*
X0342381Y0181846D01*
X0342351Y0181891D01*
X0342318Y0181934D01*
X0342282Y0181974D01*
X0342243Y0182012D01*
X0342202Y0182046D01*
X0342158Y0182077D01*
X0342112Y0182106D01*
X0342064Y0182130D01*
X0342014Y0182151D01*
X0341963Y0182169D01*
X0341911Y0182182D01*
X0341858Y0182192D01*
X0341804Y0182198D01*
X0341750Y0182200D01*
X0341696Y0182198D01*
X0341642Y0182192D01*
X0341589Y0182182D01*
X0341537Y0182169D01*
X0341486Y0182151D01*
X0341436Y0182130D01*
X0341388Y0182106D01*
X0341342Y0182077D01*
X0341298Y0182046D01*
X0341257Y0182012D01*
X0341218Y0181974D01*
X0341182Y0181934D01*
X0341149Y0181891D01*
X0341119Y0181846D01*
X0341092Y0181799D01*
X0341069Y0181750D01*
X0341050Y0181700D01*
X0342450Y0181700D02*
X0342494Y0181606D01*
X0342534Y0181511D01*
X0342571Y0181414D01*
X0342605Y0181316D01*
X0342635Y0181217D01*
X0342662Y0181117D01*
X0342685Y0181017D01*
X0342705Y0180915D01*
X0342721Y0180813D01*
X0342734Y0180710D01*
X0342743Y0180607D01*
X0342748Y0180504D01*
X0342750Y0180400D01*
X0340750Y0180400D02*
X0340752Y0180504D01*
X0340757Y0180607D01*
X0340766Y0180710D01*
X0340779Y0180813D01*
X0340795Y0180915D01*
X0340815Y0181017D01*
X0340838Y0181117D01*
X0340865Y0181217D01*
X0340895Y0181316D01*
X0340929Y0181414D01*
X0340966Y0181511D01*
X0341006Y0181606D01*
X0341050Y0181700D01*
X0342450Y0179100D02*
X0342431Y0179050D01*
X0342408Y0179001D01*
X0342381Y0178954D01*
X0342351Y0178909D01*
X0342318Y0178866D01*
X0342282Y0178826D01*
X0342243Y0178788D01*
X0342202Y0178754D01*
X0342158Y0178723D01*
X0342112Y0178694D01*
X0342064Y0178670D01*
X0342014Y0178649D01*
X0341963Y0178631D01*
X0341911Y0178618D01*
X0341858Y0178608D01*
X0341804Y0178602D01*
X0341750Y0178600D01*
X0341696Y0178602D01*
X0341642Y0178608D01*
X0341589Y0178618D01*
X0341537Y0178631D01*
X0341486Y0178649D01*
X0341436Y0178670D01*
X0341388Y0178694D01*
X0341342Y0178723D01*
X0341298Y0178754D01*
X0341257Y0178788D01*
X0341218Y0178826D01*
X0341182Y0178866D01*
X0341149Y0178909D01*
X0341119Y0178954D01*
X0341092Y0179001D01*
X0341069Y0179050D01*
X0341050Y0179100D01*
X0353600Y0084325D02*
X0356000Y0080725D01*
X0357400Y0080725D02*
X0359400Y0080725D01*
X0358400Y0080725D02*
X0358400Y0084325D01*
X0357400Y0083525D01*
X0356000Y0084325D02*
X0353600Y0080725D01*
X0361000Y0080725D02*
X0363000Y0080725D01*
X0362000Y0080725D02*
X0362000Y0084325D01*
X0361000Y0083525D01*
X0195100Y0039000D02*
X0193100Y0039000D01*
X0193900Y0041800D01*
X0194500Y0039800D02*
X0194500Y0038200D01*
X0191700Y0038200D02*
X0189300Y0041800D01*
X0191700Y0041800D02*
X0189300Y0038200D01*
D21*
X0186500Y0054425D02*
X0186500Y0060425D01*
X0184000Y0060425D02*
X0184000Y0054425D01*
X0147925Y0046425D02*
X0147925Y0043925D01*
X0147925Y0041425D01*
X0145425Y0041425D02*
X0145425Y0043925D01*
X0145425Y0046425D01*
X0184000Y0074675D02*
X0184000Y0080675D01*
X0186500Y0080675D02*
X0186500Y0074675D01*
X0147250Y0079225D02*
X0147250Y0081725D01*
X0147250Y0084225D01*
X0144750Y0084225D02*
X0144750Y0081725D01*
X0144750Y0079225D01*
X0144750Y0115675D02*
X0144750Y0118175D01*
X0144750Y0120675D01*
X0147250Y0120675D02*
X0147250Y0118175D01*
X0147250Y0115675D01*
X0097925Y0162875D02*
X0095425Y0162875D01*
X0092925Y0162875D01*
X0092925Y0165375D02*
X0095425Y0165375D01*
X0097925Y0165375D01*
X0273150Y0086400D02*
X0275650Y0086400D01*
X0278150Y0086400D01*
X0278150Y0083900D02*
X0275650Y0083900D01*
X0273150Y0083900D01*
M02*
