G75*
%MOIN*%
%OFA0B0*%
%FSLAX25Y25*%
%IPPOS*%
%LPD*%
%AMOC8*
5,1,8,0,0,1.08239X$1,22.5*
%
%ADD10C,0.05937*%
%ADD11C,0.05200*%
%ADD12OC8,0.05200*%
%ADD13C,0.06600*%
%ADD14C,0.04400*%
%ADD15C,0.06000*%
%ADD16OC8,0.06000*%
%ADD17OC8,0.06300*%
%ADD18C,0.01200*%
%ADD19C,0.01600*%
D10*
X0194100Y0020031D02*
X0194100Y0025969D01*
X0204100Y0025969D02*
X0204100Y0020031D01*
X0214100Y0020031D02*
X0214100Y0025969D01*
X0358400Y0062556D02*
X0358400Y0068494D01*
X0368400Y0068494D02*
X0368400Y0062556D01*
X0348150Y0160431D02*
X0348150Y0166369D01*
X0338150Y0166369D02*
X0338150Y0160431D01*
X0338025Y0186756D02*
X0338025Y0192694D01*
X0348025Y0192694D02*
X0348025Y0186756D01*
X0328025Y0186756D02*
X0328025Y0192694D01*
X0318025Y0192694D02*
X0318025Y0186756D01*
X0285650Y0187294D02*
X0285650Y0181356D01*
X0275650Y0181356D02*
X0275650Y0187294D01*
X0265650Y0187294D02*
X0265650Y0181356D01*
X0195875Y0181356D02*
X0195875Y0187294D01*
X0185875Y0187294D02*
X0185875Y0181356D01*
X0175875Y0181356D02*
X0175875Y0187294D01*
X0133100Y0187294D02*
X0133100Y0181356D01*
X0123100Y0181356D02*
X0123100Y0187294D01*
X0113100Y0187294D02*
X0113100Y0181356D01*
X0043050Y0180681D02*
X0043050Y0186619D01*
X0033050Y0186619D02*
X0033050Y0180681D01*
D11*
X0069500Y0184475D02*
X0069500Y0189675D01*
X0079500Y0189675D02*
X0079500Y0184475D01*
X0104150Y0161375D02*
X0109350Y0161375D01*
X0134150Y0161375D02*
X0139350Y0161375D01*
X0169625Y0161375D02*
X0174825Y0161375D01*
X0199625Y0161375D02*
X0204825Y0161375D01*
X0229700Y0152125D02*
X0234900Y0152125D01*
X0234900Y0142125D02*
X0229700Y0142125D01*
X0229700Y0132125D02*
X0234900Y0132125D01*
X0234900Y0122125D02*
X0229700Y0122125D01*
X0229700Y0112125D02*
X0234900Y0112125D01*
X0234900Y0102125D02*
X0229700Y0102125D01*
X0229700Y0092125D02*
X0234900Y0092125D01*
X0234900Y0082125D02*
X0229700Y0082125D01*
X0229700Y0072125D02*
X0234900Y0072125D01*
X0234900Y0062125D02*
X0229700Y0062125D01*
X0229700Y0052125D02*
X0234900Y0052125D01*
X0234900Y0042125D02*
X0229700Y0042125D01*
X0229700Y0032125D02*
X0234900Y0032125D01*
X0234900Y0022125D02*
X0229700Y0022125D01*
X0259700Y0022125D02*
X0264900Y0022125D01*
X0264900Y0032125D02*
X0259700Y0032125D01*
X0259700Y0042125D02*
X0264900Y0042125D01*
X0264900Y0052125D02*
X0259700Y0052125D01*
X0259700Y0062125D02*
X0264900Y0062125D01*
X0264900Y0072125D02*
X0259700Y0072125D01*
X0259700Y0082125D02*
X0264900Y0082125D01*
X0264900Y0092125D02*
X0259700Y0092125D01*
X0259700Y0102125D02*
X0264900Y0102125D01*
X0264900Y0112125D02*
X0259700Y0112125D01*
X0259700Y0122125D02*
X0264900Y0122125D01*
X0264900Y0132125D02*
X0259700Y0132125D01*
X0259700Y0142125D02*
X0264900Y0142125D01*
X0264900Y0152125D02*
X0259700Y0152125D01*
X0115050Y0119825D02*
X0109850Y0119825D01*
X0109850Y0109825D02*
X0115050Y0109825D01*
X0115050Y0099825D02*
X0109850Y0099825D01*
X0109850Y0089825D02*
X0115050Y0089825D01*
X0115050Y0079825D02*
X0109850Y0079825D01*
X0109850Y0069825D02*
X0115050Y0069825D01*
X0115050Y0059825D02*
X0109850Y0059825D01*
X0085050Y0059825D02*
X0079850Y0059825D01*
X0079850Y0069825D02*
X0085050Y0069825D01*
X0085050Y0079825D02*
X0079850Y0079825D01*
X0079850Y0089825D02*
X0085050Y0089825D01*
X0085050Y0099825D02*
X0079850Y0099825D01*
X0079850Y0109825D02*
X0085050Y0109825D01*
X0085050Y0119825D02*
X0079850Y0119825D01*
X0079500Y0149275D02*
X0079500Y0154475D01*
X0069500Y0154475D02*
X0069500Y0149275D01*
D12*
X0054400Y0148550D03*
X0054225Y0135175D03*
X0054400Y0120875D03*
X0024400Y0120875D03*
X0024225Y0135175D03*
X0024400Y0148550D03*
X0106750Y0147200D03*
X0136750Y0147200D03*
X0131050Y0130325D03*
X0161050Y0130325D03*
X0172225Y0147200D03*
X0202225Y0147200D03*
X0217450Y0166775D03*
X0247450Y0166775D03*
X0161725Y0093200D03*
X0180200Y0077675D03*
X0190200Y0077675D03*
X0190200Y0057425D03*
X0180200Y0057425D03*
X0161725Y0056075D03*
X0131725Y0056075D03*
X0131725Y0093200D03*
D13*
X0058050Y0160700D03*
X0018050Y0160700D03*
D14*
X0205275Y0077550D02*
X0209675Y0077550D01*
X0209675Y0057550D02*
X0205275Y0057550D01*
D15*
X0294125Y0028700D02*
X0294125Y0022700D01*
X0304125Y0022700D02*
X0304125Y0028700D01*
X0314125Y0028700D02*
X0314125Y0022700D01*
X0324125Y0022700D02*
X0324125Y0028700D01*
X0334125Y0028700D02*
X0334125Y0022700D01*
X0248250Y0176775D02*
X0242250Y0176775D01*
X0222650Y0176775D02*
X0216650Y0176775D01*
X0216650Y0194575D02*
X0222650Y0194575D01*
X0242250Y0194575D02*
X0248250Y0194575D01*
D16*
X0216925Y0133700D03*
X0216925Y0118175D03*
X0216925Y0104000D03*
D17*
X0275650Y0095100D03*
X0275650Y0075100D03*
X0156725Y0043925D03*
X0136725Y0043925D03*
X0136050Y0081725D03*
X0156050Y0081725D03*
X0156050Y0118175D03*
X0136050Y0118175D03*
X0095425Y0154075D03*
X0095425Y0174075D03*
D18*
X0020840Y0014220D02*
X0020381Y0013425D01*
X0360819Y0013425D01*
X0360360Y0014220D01*
X0359644Y0016892D01*
X0359644Y0019658D01*
X0360360Y0022330D01*
X0361743Y0024726D01*
X0363699Y0026681D01*
X0366095Y0028065D01*
X0368767Y0028780D01*
X0371533Y0028780D01*
X0374205Y0028065D01*
X0375000Y0027606D01*
X0375000Y0187534D01*
X0373530Y0186685D01*
X0370858Y0185969D01*
X0368092Y0185969D01*
X0365420Y0186685D01*
X0363024Y0188068D01*
X0361068Y0190024D01*
X0359685Y0192420D01*
X0358969Y0195092D01*
X0358969Y0197858D01*
X0359685Y0200530D01*
X0360144Y0201325D01*
X0080186Y0201325D01*
X0088236Y0193275D01*
X0089525Y0191986D01*
X0089525Y0161389D01*
X0088236Y0160100D01*
X0084811Y0156675D01*
X0091307Y0156675D01*
X0093457Y0158825D01*
X0097393Y0158825D01*
X0100175Y0156043D01*
X0100175Y0152107D01*
X0097393Y0149325D01*
X0093457Y0149325D01*
X0090675Y0152107D01*
X0090675Y0152275D01*
X0083700Y0152275D01*
X0083700Y0148440D01*
X0083061Y0146896D01*
X0081879Y0145714D01*
X0080335Y0145075D01*
X0078665Y0145075D01*
X0077121Y0145714D01*
X0075939Y0146896D01*
X0075300Y0148440D01*
X0075300Y0155310D01*
X0075939Y0156854D01*
X0077121Y0158036D01*
X0078665Y0158675D01*
X0080335Y0158675D01*
X0080515Y0158601D01*
X0085125Y0163211D01*
X0085125Y0190164D01*
X0076164Y0199125D01*
X0036386Y0199125D01*
X0024050Y0186789D01*
X0024050Y0175314D01*
X0022761Y0174025D01*
X0017361Y0168625D01*
X0016686Y0167950D01*
X0013250Y0164514D01*
X0013250Y0161916D01*
X0013896Y0163476D01*
X0015274Y0164854D01*
X0017075Y0165600D01*
X0019025Y0165600D01*
X0020826Y0164854D01*
X0022204Y0163476D01*
X0022950Y0161675D01*
X0022950Y0159725D01*
X0022712Y0159150D01*
X0025136Y0156725D01*
X0026425Y0155436D01*
X0026425Y0152465D01*
X0028600Y0150290D01*
X0028600Y0146810D01*
X0026425Y0144635D01*
X0026425Y0138915D01*
X0028425Y0136915D01*
X0028425Y0133435D01*
X0025965Y0130975D01*
X0022485Y0130975D01*
X0020025Y0133435D01*
X0020025Y0136915D01*
X0022025Y0138915D01*
X0022025Y0144985D01*
X0020200Y0146810D01*
X0020200Y0150290D01*
X0022025Y0152115D01*
X0022025Y0153614D01*
X0019600Y0156038D01*
X0019025Y0155800D01*
X0017075Y0155800D01*
X0015274Y0156546D01*
X0013896Y0157924D01*
X0013250Y0159484D01*
X0013250Y0117736D01*
X0038961Y0092025D01*
X0076215Y0092025D01*
X0076289Y0092204D01*
X0077471Y0093386D01*
X0079015Y0094025D01*
X0085885Y0094025D01*
X0087429Y0093386D01*
X0088611Y0092204D01*
X0089250Y0090660D01*
X0089250Y0088990D01*
X0088611Y0087446D01*
X0087429Y0086264D01*
X0085885Y0085625D01*
X0081361Y0085625D01*
X0079761Y0084025D01*
X0085885Y0084025D01*
X0087429Y0083386D01*
X0088611Y0082204D01*
X0089250Y0080660D01*
X0089250Y0078990D01*
X0088611Y0077446D01*
X0087429Y0076264D01*
X0085885Y0075625D01*
X0079015Y0075625D01*
X0077471Y0076264D01*
X0076700Y0077035D01*
X0076700Y0072615D01*
X0077471Y0073386D01*
X0079015Y0074025D01*
X0085885Y0074025D01*
X0087429Y0073386D01*
X0088611Y0072204D01*
X0089250Y0070660D01*
X0089250Y0068990D01*
X0088611Y0067446D01*
X0087429Y0066264D01*
X0085885Y0065625D01*
X0079015Y0065625D01*
X0077471Y0066264D01*
X0076700Y0067035D01*
X0076700Y0062615D01*
X0077471Y0063386D01*
X0079015Y0064025D01*
X0085885Y0064025D01*
X0087429Y0063386D01*
X0088611Y0062204D01*
X0089250Y0060660D01*
X0089250Y0058990D01*
X0088611Y0057446D01*
X0087429Y0056264D01*
X0085885Y0055625D01*
X0079015Y0055625D01*
X0077471Y0056264D01*
X0076700Y0057035D01*
X0076700Y0050236D01*
X0101736Y0025200D01*
X0189531Y0025200D01*
X0189531Y0026877D01*
X0190227Y0028556D01*
X0191512Y0029841D01*
X0193191Y0030537D01*
X0195009Y0030537D01*
X0196688Y0029841D01*
X0197259Y0029270D01*
X0215525Y0047536D01*
X0216814Y0048825D01*
X0227060Y0048825D01*
X0226139Y0049746D01*
X0225500Y0051290D01*
X0225500Y0052960D01*
X0226139Y0054504D01*
X0227321Y0055686D01*
X0228865Y0056325D01*
X0235735Y0056325D01*
X0237279Y0055686D01*
X0238461Y0054504D01*
X0239100Y0052960D01*
X0239100Y0051290D01*
X0238461Y0049746D01*
X0237540Y0048825D01*
X0242339Y0048825D01*
X0244425Y0050911D01*
X0244425Y0100039D01*
X0238586Y0094200D01*
X0239100Y0092960D01*
X0239100Y0091290D01*
X0238461Y0089746D01*
X0237279Y0088564D01*
X0235735Y0087925D01*
X0228865Y0087925D01*
X0227321Y0088564D01*
X0226139Y0089746D01*
X0225500Y0091290D01*
X0225500Y0092960D01*
X0226139Y0094504D01*
X0227321Y0095686D01*
X0228865Y0096325D01*
X0234489Y0096325D01*
X0236339Y0098175D01*
X0235735Y0097925D01*
X0228865Y0097925D01*
X0227321Y0098564D01*
X0226139Y0099746D01*
X0225500Y0101290D01*
X0225500Y0101800D01*
X0221230Y0101800D01*
X0218830Y0099400D01*
X0215020Y0099400D01*
X0212620Y0101800D01*
X0195561Y0101800D01*
X0163925Y0070164D01*
X0163925Y0059815D01*
X0165925Y0057815D01*
X0165925Y0054335D01*
X0163465Y0051875D01*
X0160636Y0051875D01*
X0158925Y0050164D01*
X0158925Y0048442D01*
X0161475Y0045893D01*
X0161475Y0041957D01*
X0158693Y0039175D01*
X0154757Y0039175D01*
X0151975Y0041957D01*
X0151975Y0045893D01*
X0154525Y0048442D01*
X0154525Y0051986D01*
X0157525Y0054986D01*
X0157525Y0057815D01*
X0159525Y0059815D01*
X0159525Y0071986D01*
X0193739Y0106200D01*
X0212620Y0106200D01*
X0215020Y0108600D01*
X0218830Y0108600D01*
X0221230Y0106200D01*
X0228563Y0106200D01*
X0228865Y0106325D01*
X0235735Y0106325D01*
X0237279Y0105686D01*
X0238461Y0104504D01*
X0239100Y0102960D01*
X0239100Y0101290D01*
X0238850Y0100686D01*
X0244425Y0106261D01*
X0244425Y0106261D01*
X0245250Y0107086D01*
X0245250Y0163035D01*
X0243250Y0165035D01*
X0243250Y0168515D01*
X0245710Y0170975D01*
X0249189Y0170975D01*
X0249550Y0171336D01*
X0249550Y0171336D01*
X0250839Y0172625D01*
X0250839Y0172625D01*
X0261081Y0182868D01*
X0261081Y0188202D01*
X0261777Y0189881D01*
X0263062Y0191166D01*
X0264741Y0191862D01*
X0266559Y0191862D01*
X0268027Y0191254D01*
X0266556Y0192725D01*
X0259094Y0192725D01*
X0250010Y0183641D01*
X0249334Y0182965D01*
X0248452Y0182600D01*
X0211048Y0182600D01*
X0210166Y0182965D01*
X0198381Y0194750D01*
X0189694Y0194750D01*
X0186800Y0191855D01*
X0188463Y0191166D01*
X0189748Y0189881D01*
X0190443Y0188202D01*
X0190443Y0180448D01*
X0189748Y0178769D01*
X0188463Y0177484D01*
X0188075Y0177323D01*
X0188075Y0164461D01*
X0201136Y0151400D01*
X0203965Y0151400D01*
X0206425Y0148940D01*
X0206425Y0145460D01*
X0203965Y0143000D01*
X0200485Y0143000D01*
X0198025Y0145460D01*
X0198025Y0148289D01*
X0183675Y0162639D01*
X0183675Y0177323D01*
X0183287Y0177484D01*
X0182002Y0178769D01*
X0181306Y0180448D01*
X0181306Y0186362D01*
X0180443Y0185499D01*
X0180443Y0180448D01*
X0179748Y0178769D01*
X0178463Y0177484D01*
X0176784Y0176788D01*
X0174966Y0176788D01*
X0173287Y0177484D01*
X0172002Y0178769D01*
X0171306Y0180448D01*
X0171306Y0188202D01*
X0172002Y0189881D01*
X0173287Y0191166D01*
X0174966Y0191862D01*
X0176784Y0191862D01*
X0178463Y0191166D01*
X0178893Y0190737D01*
X0182906Y0194750D01*
X0126919Y0194750D01*
X0124025Y0191855D01*
X0125688Y0191166D01*
X0126973Y0189881D01*
X0127668Y0188202D01*
X0127668Y0180448D01*
X0126973Y0178769D01*
X0125688Y0177484D01*
X0125300Y0177323D01*
X0125300Y0161761D01*
X0135661Y0151400D01*
X0138490Y0151400D01*
X0140950Y0148940D01*
X0140950Y0145460D01*
X0138490Y0143000D01*
X0135010Y0143000D01*
X0132550Y0145460D01*
X0132550Y0148289D01*
X0120900Y0159939D01*
X0120900Y0177323D01*
X0120512Y0177484D01*
X0119227Y0178769D01*
X0118531Y0180448D01*
X0118531Y0186362D01*
X0117668Y0185499D01*
X0117668Y0180448D01*
X0116973Y0178769D01*
X0115688Y0177484D01*
X0114009Y0176788D01*
X0112191Y0176788D01*
X0110512Y0177484D01*
X0109227Y0178769D01*
X0108531Y0180448D01*
X0108531Y0188202D01*
X0109227Y0189881D01*
X0110512Y0191166D01*
X0112191Y0191862D01*
X0114009Y0191862D01*
X0115688Y0191166D01*
X0116118Y0190737D01*
X0124566Y0199185D01*
X0125448Y0199550D01*
X0199852Y0199550D01*
X0200734Y0199185D01*
X0212519Y0187400D01*
X0246981Y0187400D01*
X0249834Y0190253D01*
X0249327Y0190088D01*
X0248612Y0189975D01*
X0245650Y0189975D01*
X0245650Y0194175D01*
X0245650Y0194975D01*
X0244850Y0194975D01*
X0244850Y0199175D01*
X0241888Y0199175D01*
X0241173Y0199062D01*
X0240484Y0198838D01*
X0239839Y0198509D01*
X0239253Y0198084D01*
X0238741Y0197572D01*
X0238316Y0196986D01*
X0237987Y0196341D01*
X0237763Y0195652D01*
X0237656Y0194975D01*
X0244850Y0194975D01*
X0244850Y0194175D01*
X0245650Y0194175D01*
X0252844Y0194175D01*
X0252737Y0193498D01*
X0252572Y0192991D01*
X0256065Y0196484D01*
X0256065Y0196484D01*
X0256741Y0197160D01*
X0257623Y0197525D01*
X0268027Y0197525D01*
X0268909Y0197160D01*
X0269585Y0196484D01*
X0274364Y0191706D01*
X0274741Y0191862D01*
X0276559Y0191862D01*
X0278238Y0191166D01*
X0279523Y0189881D01*
X0280218Y0188202D01*
X0280218Y0180448D01*
X0279523Y0178769D01*
X0278238Y0177484D01*
X0276559Y0176788D01*
X0274741Y0176788D01*
X0273062Y0177484D01*
X0271777Y0178769D01*
X0271081Y0180448D01*
X0271081Y0188199D01*
X0269610Y0189671D01*
X0270218Y0188202D01*
X0270218Y0180448D01*
X0269523Y0178769D01*
X0268238Y0177484D01*
X0266559Y0176788D01*
X0264741Y0176788D01*
X0263062Y0177484D01*
X0262491Y0178055D01*
X0257061Y0172625D01*
X0297814Y0172625D01*
X0313456Y0188268D01*
X0313456Y0193602D01*
X0314152Y0195281D01*
X0315437Y0196566D01*
X0317116Y0197262D01*
X0318934Y0197262D01*
X0320613Y0196566D01*
X0321898Y0195281D01*
X0322593Y0193602D01*
X0322593Y0185848D01*
X0321898Y0184169D01*
X0320613Y0182884D01*
X0318934Y0182188D01*
X0317116Y0182188D01*
X0315437Y0182884D01*
X0314866Y0183455D01*
X0300925Y0169514D01*
X0299636Y0168225D01*
X0252661Y0168225D01*
X0251650Y0167214D01*
X0251650Y0165035D01*
X0249650Y0163035D01*
X0249650Y0105264D01*
X0248825Y0104439D01*
X0248825Y0088711D01*
X0255500Y0082036D01*
X0255500Y0082960D01*
X0256139Y0084504D01*
X0257321Y0085686D01*
X0258865Y0086325D01*
X0265735Y0086325D01*
X0267279Y0085686D01*
X0268461Y0084504D01*
X0269100Y0082960D01*
X0269100Y0081290D01*
X0268461Y0079746D01*
X0267279Y0078564D01*
X0265735Y0077925D01*
X0259611Y0077925D01*
X0261211Y0076325D01*
X0265735Y0076325D01*
X0267279Y0075686D01*
X0268461Y0074504D01*
X0269100Y0072960D01*
X0269100Y0071290D01*
X0268461Y0069746D01*
X0268125Y0069411D01*
X0273450Y0064086D01*
X0273450Y0070582D01*
X0270900Y0073132D01*
X0270900Y0077068D01*
X0273682Y0079850D01*
X0277618Y0079850D01*
X0280400Y0077068D01*
X0280400Y0073132D01*
X0277850Y0070582D01*
X0277850Y0059686D01*
X0296325Y0041211D01*
X0296325Y0032768D01*
X0296731Y0032600D01*
X0298025Y0031306D01*
X0298725Y0029615D01*
X0298725Y0021785D01*
X0298182Y0020475D01*
X0300096Y0020475D01*
X0299862Y0020934D01*
X0299638Y0021623D01*
X0299525Y0022338D01*
X0299525Y0025300D01*
X0303725Y0025300D01*
X0303725Y0026100D01*
X0303725Y0033294D01*
X0303048Y0033187D01*
X0302359Y0032963D01*
X0301714Y0032634D01*
X0301128Y0032209D01*
X0300616Y0031697D01*
X0300191Y0031111D01*
X0299862Y0030466D01*
X0299638Y0029777D01*
X0299525Y0029062D01*
X0299525Y0026100D01*
X0303725Y0026100D01*
X0304525Y0026100D01*
X0304525Y0033294D01*
X0305202Y0033187D01*
X0305891Y0032963D01*
X0306536Y0032634D01*
X0307122Y0032209D01*
X0307634Y0031697D01*
X0308059Y0031111D01*
X0308388Y0030466D01*
X0308612Y0029777D01*
X0308725Y0029062D01*
X0308725Y0026100D01*
X0304525Y0026100D01*
X0304525Y0025300D01*
X0308725Y0025300D01*
X0308725Y0023411D01*
X0309525Y0024211D01*
X0309525Y0029615D01*
X0310225Y0031306D01*
X0311519Y0032600D01*
X0313210Y0033300D01*
X0315040Y0033300D01*
X0316731Y0032600D01*
X0317322Y0032008D01*
X0345000Y0059686D01*
X0345000Y0071836D01*
X0350400Y0077236D01*
X0351689Y0078525D01*
X0362961Y0078525D01*
X0364250Y0077236D01*
X0364250Y0077236D01*
X0368424Y0073062D01*
X0369309Y0073062D01*
X0370988Y0072366D01*
X0372273Y0071081D01*
X0372968Y0069402D01*
X0372968Y0061648D01*
X0372273Y0059969D01*
X0370988Y0058684D01*
X0369309Y0057988D01*
X0367491Y0057988D01*
X0365812Y0058684D01*
X0364527Y0059969D01*
X0363831Y0061648D01*
X0363831Y0069402D01*
X0364426Y0070838D01*
X0361139Y0074125D01*
X0353511Y0074125D01*
X0349400Y0070014D01*
X0349400Y0057864D01*
X0348111Y0056575D01*
X0324836Y0033300D01*
X0325040Y0033300D01*
X0326731Y0032600D01*
X0327322Y0032008D01*
X0354905Y0059591D01*
X0354527Y0059969D01*
X0353831Y0061648D01*
X0353831Y0069402D01*
X0354527Y0071081D01*
X0355812Y0072366D01*
X0357491Y0073062D01*
X0359309Y0073062D01*
X0360988Y0072366D01*
X0362273Y0071081D01*
X0362968Y0069402D01*
X0362968Y0061648D01*
X0362273Y0059969D01*
X0360988Y0058684D01*
X0359677Y0058140D01*
X0359311Y0057775D01*
X0334836Y0033300D01*
X0335040Y0033300D01*
X0336731Y0032600D01*
X0338025Y0031306D01*
X0338725Y0029615D01*
X0338725Y0021785D01*
X0338025Y0020094D01*
X0336731Y0018800D01*
X0335040Y0018100D01*
X0333210Y0018100D01*
X0331519Y0018800D01*
X0330225Y0020094D01*
X0329525Y0021785D01*
X0329525Y0027989D01*
X0328725Y0027189D01*
X0328725Y0021785D01*
X0328025Y0020094D01*
X0326731Y0018800D01*
X0325040Y0018100D01*
X0323210Y0018100D01*
X0321519Y0018800D01*
X0321328Y0018992D01*
X0316386Y0014050D01*
X0267264Y0014050D01*
X0265975Y0015339D01*
X0263389Y0017925D01*
X0258865Y0017925D01*
X0257321Y0018564D01*
X0256139Y0019746D01*
X0255500Y0021290D01*
X0255500Y0022960D01*
X0256139Y0024504D01*
X0256485Y0024850D01*
X0238136Y0024850D01*
X0238125Y0024839D01*
X0238461Y0024504D01*
X0239100Y0022960D01*
X0239100Y0021290D01*
X0238461Y0019746D01*
X0237279Y0018564D01*
X0235735Y0017925D01*
X0228865Y0017925D01*
X0227321Y0018564D01*
X0226139Y0019746D01*
X0225500Y0021290D01*
X0225500Y0022960D01*
X0226139Y0024504D01*
X0227321Y0025686D01*
X0228865Y0026325D01*
X0233389Y0026325D01*
X0234989Y0027925D01*
X0228865Y0027925D01*
X0227321Y0028564D01*
X0226139Y0029746D01*
X0225500Y0031290D01*
X0225500Y0032960D01*
X0226139Y0034504D01*
X0227321Y0035686D01*
X0228865Y0036325D01*
X0235735Y0036325D01*
X0237279Y0035686D01*
X0238461Y0034504D01*
X0239100Y0032960D01*
X0239100Y0031290D01*
X0238461Y0029746D01*
X0237965Y0029250D01*
X0256635Y0029250D01*
X0256139Y0029746D01*
X0255500Y0031290D01*
X0255500Y0032960D01*
X0256139Y0034504D01*
X0257321Y0035686D01*
X0258865Y0036325D01*
X0265735Y0036325D01*
X0267279Y0035686D01*
X0268461Y0034504D01*
X0269100Y0032960D01*
X0269100Y0031290D01*
X0268461Y0029746D01*
X0267965Y0029250D01*
X0269136Y0029250D01*
X0270425Y0027961D01*
X0270425Y0027961D01*
X0277911Y0020475D01*
X0290068Y0020475D01*
X0289525Y0021785D01*
X0289525Y0029615D01*
X0290225Y0031306D01*
X0291519Y0032600D01*
X0291925Y0032768D01*
X0291925Y0039389D01*
X0274739Y0056575D01*
X0269100Y0062214D01*
X0269100Y0061290D01*
X0268461Y0059746D01*
X0267279Y0058564D01*
X0265735Y0057925D01*
X0258865Y0057925D01*
X0257321Y0058564D01*
X0256139Y0059746D01*
X0255500Y0061290D01*
X0255500Y0062960D01*
X0256139Y0064504D01*
X0257321Y0065686D01*
X0258865Y0066325D01*
X0264989Y0066325D01*
X0263389Y0067925D01*
X0258865Y0067925D01*
X0257321Y0068564D01*
X0256139Y0069746D01*
X0255500Y0071290D01*
X0255500Y0072960D01*
X0256139Y0074504D01*
X0256475Y0074839D01*
X0248825Y0082489D01*
X0248825Y0049089D01*
X0247536Y0047800D01*
X0244161Y0044425D01*
X0238493Y0044425D01*
X0239100Y0042960D01*
X0239100Y0041290D01*
X0238461Y0039746D01*
X0237279Y0038564D01*
X0235735Y0037925D01*
X0228865Y0037925D01*
X0227321Y0038564D01*
X0226185Y0039700D01*
X0224586Y0039700D01*
X0216300Y0031414D01*
X0216300Y0030002D01*
X0216688Y0029841D01*
X0217973Y0028556D01*
X0218668Y0026877D01*
X0218668Y0019123D01*
X0217973Y0017444D01*
X0216688Y0016159D01*
X0215009Y0015463D01*
X0213191Y0015463D01*
X0211512Y0016159D01*
X0210227Y0017444D01*
X0209531Y0019123D01*
X0209531Y0026877D01*
X0210227Y0028556D01*
X0211512Y0029841D01*
X0211900Y0030002D01*
X0211900Y0033236D01*
X0221475Y0042811D01*
X0222764Y0044100D01*
X0225972Y0044100D01*
X0226107Y0044425D01*
X0218636Y0044425D01*
X0204709Y0030498D01*
X0205170Y0030425D01*
X0205854Y0030202D01*
X0206494Y0029876D01*
X0207076Y0029453D01*
X0207585Y0028945D01*
X0208007Y0028363D01*
X0208334Y0027722D01*
X0208556Y0027038D01*
X0208668Y0026328D01*
X0208668Y0023384D01*
X0204484Y0023384D01*
X0204484Y0022616D01*
X0204484Y0015467D01*
X0205170Y0015575D01*
X0205854Y0015798D01*
X0206494Y0016124D01*
X0207076Y0016547D01*
X0207585Y0017055D01*
X0208007Y0017637D01*
X0208334Y0018278D01*
X0208556Y0018962D01*
X0208668Y0019672D01*
X0208668Y0022616D01*
X0204484Y0022616D01*
X0203716Y0022616D01*
X0203716Y0015467D01*
X0203030Y0015575D01*
X0202346Y0015798D01*
X0201706Y0016124D01*
X0201124Y0016547D01*
X0200615Y0017055D01*
X0200193Y0017637D01*
X0199866Y0018278D01*
X0199644Y0018962D01*
X0199531Y0019672D01*
X0199531Y0022616D01*
X0203716Y0022616D01*
X0203716Y0023384D01*
X0199531Y0023384D01*
X0199531Y0025320D01*
X0198668Y0024457D01*
X0198668Y0019123D01*
X0197973Y0017444D01*
X0196688Y0016159D01*
X0195009Y0015463D01*
X0193191Y0015463D01*
X0191512Y0016159D01*
X0190227Y0017444D01*
X0189531Y0019123D01*
X0189531Y0020800D01*
X0099914Y0020800D01*
X0098625Y0022089D01*
X0072300Y0048414D01*
X0072300Y0082786D01*
X0073589Y0084075D01*
X0076625Y0087111D01*
X0076289Y0087446D01*
X0076215Y0087625D01*
X0037139Y0087625D01*
X0035850Y0088914D01*
X0010139Y0114625D01*
X0010139Y0114625D01*
X0008850Y0115914D01*
X0008850Y0166336D01*
X0013575Y0171061D01*
X0014250Y0171736D01*
X0019650Y0177136D01*
X0019650Y0188611D01*
X0032364Y0201325D01*
X0020095Y0201325D01*
X0020165Y0201205D01*
X0020880Y0198533D01*
X0020880Y0195767D01*
X0020165Y0193095D01*
X0018781Y0190699D01*
X0016826Y0188743D01*
X0014430Y0187360D01*
X0011758Y0186644D01*
X0008992Y0186644D01*
X0006320Y0187360D01*
X0006200Y0187430D01*
X0006200Y0027606D01*
X0006995Y0028065D01*
X0009667Y0028780D01*
X0012433Y0028780D01*
X0015105Y0028065D01*
X0017501Y0026681D01*
X0019456Y0024726D01*
X0020840Y0022330D01*
X0021555Y0019658D01*
X0021555Y0016892D01*
X0020840Y0014220D01*
X0020792Y0014138D02*
X0267175Y0014138D01*
X0265977Y0015337D02*
X0021139Y0015337D01*
X0021460Y0016535D02*
X0191135Y0016535D01*
X0190107Y0017734D02*
X0021555Y0017734D01*
X0021555Y0018932D02*
X0189610Y0018932D01*
X0189531Y0020131D02*
X0021429Y0020131D01*
X0021108Y0021330D02*
X0099384Y0021330D01*
X0098186Y0022528D02*
X0020725Y0022528D01*
X0020033Y0023727D02*
X0096987Y0023727D01*
X0095789Y0024925D02*
X0019257Y0024925D01*
X0018058Y0026124D02*
X0094590Y0026124D01*
X0093392Y0027322D02*
X0016391Y0027322D01*
X0013403Y0028521D02*
X0092193Y0028521D01*
X0090995Y0029719D02*
X0006200Y0029719D01*
X0006200Y0028521D02*
X0008697Y0028521D01*
X0006200Y0030918D02*
X0089796Y0030918D01*
X0088598Y0032116D02*
X0006200Y0032116D01*
X0006200Y0033315D02*
X0087399Y0033315D01*
X0086201Y0034513D02*
X0006200Y0034513D01*
X0006200Y0035712D02*
X0085002Y0035712D01*
X0083804Y0036910D02*
X0006200Y0036910D01*
X0006200Y0038109D02*
X0082605Y0038109D01*
X0081407Y0039307D02*
X0006200Y0039307D01*
X0006200Y0040506D02*
X0080208Y0040506D01*
X0079010Y0041704D02*
X0006200Y0041704D01*
X0006200Y0042903D02*
X0077811Y0042903D01*
X0076612Y0044101D02*
X0006200Y0044101D01*
X0006200Y0045300D02*
X0075414Y0045300D01*
X0074215Y0046498D02*
X0006200Y0046498D01*
X0006200Y0047697D02*
X0073017Y0047697D01*
X0072300Y0048895D02*
X0006200Y0048895D01*
X0006200Y0050094D02*
X0072300Y0050094D01*
X0072300Y0051292D02*
X0006200Y0051292D01*
X0006200Y0052491D02*
X0072300Y0052491D01*
X0072300Y0053689D02*
X0006200Y0053689D01*
X0006200Y0054888D02*
X0072300Y0054888D01*
X0072300Y0056086D02*
X0006200Y0056086D01*
X0006200Y0057285D02*
X0072300Y0057285D01*
X0072300Y0058483D02*
X0006200Y0058483D01*
X0006200Y0059682D02*
X0072300Y0059682D01*
X0072300Y0060880D02*
X0006200Y0060880D01*
X0006200Y0062079D02*
X0072300Y0062079D01*
X0072300Y0063277D02*
X0006200Y0063277D01*
X0006200Y0064476D02*
X0072300Y0064476D01*
X0072300Y0065674D02*
X0006200Y0065674D01*
X0006200Y0066873D02*
X0072300Y0066873D01*
X0072300Y0068071D02*
X0006200Y0068071D01*
X0006200Y0069270D02*
X0072300Y0069270D01*
X0072300Y0070468D02*
X0006200Y0070468D01*
X0006200Y0071667D02*
X0072300Y0071667D01*
X0072300Y0072866D02*
X0006200Y0072866D01*
X0006200Y0074064D02*
X0072300Y0074064D01*
X0072300Y0075263D02*
X0006200Y0075263D01*
X0006200Y0076461D02*
X0072300Y0076461D01*
X0072300Y0077660D02*
X0006200Y0077660D01*
X0006200Y0078858D02*
X0072300Y0078858D01*
X0072300Y0080057D02*
X0006200Y0080057D01*
X0006200Y0081255D02*
X0072300Y0081255D01*
X0072300Y0082454D02*
X0006200Y0082454D01*
X0006200Y0083652D02*
X0073166Y0083652D01*
X0074364Y0084851D02*
X0006200Y0084851D01*
X0006200Y0086049D02*
X0075563Y0086049D01*
X0076488Y0087248D02*
X0006200Y0087248D01*
X0006200Y0088446D02*
X0036318Y0088446D01*
X0035119Y0089645D02*
X0006200Y0089645D01*
X0006200Y0090843D02*
X0033921Y0090843D01*
X0032722Y0092042D02*
X0006200Y0092042D01*
X0006200Y0093240D02*
X0031524Y0093240D01*
X0030325Y0094439D02*
X0006200Y0094439D01*
X0006200Y0095637D02*
X0029127Y0095637D01*
X0027928Y0096836D02*
X0006200Y0096836D01*
X0006200Y0098034D02*
X0026729Y0098034D01*
X0025531Y0099233D02*
X0006200Y0099233D01*
X0006200Y0100431D02*
X0024332Y0100431D01*
X0023134Y0101630D02*
X0006200Y0101630D01*
X0006200Y0102828D02*
X0021935Y0102828D01*
X0020737Y0104027D02*
X0006200Y0104027D01*
X0006200Y0105225D02*
X0019538Y0105225D01*
X0018340Y0106424D02*
X0006200Y0106424D01*
X0006200Y0107622D02*
X0017141Y0107622D01*
X0015943Y0108821D02*
X0006200Y0108821D01*
X0006200Y0110019D02*
X0014744Y0110019D01*
X0013546Y0111218D02*
X0006200Y0111218D01*
X0006200Y0112416D02*
X0012347Y0112416D01*
X0011149Y0113615D02*
X0006200Y0113615D01*
X0006200Y0114813D02*
X0009950Y0114813D01*
X0008850Y0116012D02*
X0006200Y0116012D01*
X0006200Y0117210D02*
X0008850Y0117210D01*
X0008850Y0118409D02*
X0006200Y0118409D01*
X0006200Y0119607D02*
X0008850Y0119607D01*
X0008850Y0120806D02*
X0006200Y0120806D01*
X0006200Y0122004D02*
X0008850Y0122004D01*
X0008850Y0123203D02*
X0006200Y0123203D01*
X0006200Y0124401D02*
X0008850Y0124401D01*
X0008850Y0125600D02*
X0006200Y0125600D01*
X0006200Y0126799D02*
X0008850Y0126799D01*
X0008850Y0127997D02*
X0006200Y0127997D01*
X0006200Y0129196D02*
X0008850Y0129196D01*
X0008850Y0130394D02*
X0006200Y0130394D01*
X0006200Y0131593D02*
X0008850Y0131593D01*
X0008850Y0132791D02*
X0006200Y0132791D01*
X0006200Y0133990D02*
X0008850Y0133990D01*
X0008850Y0135188D02*
X0006200Y0135188D01*
X0006200Y0136387D02*
X0008850Y0136387D01*
X0008850Y0137585D02*
X0006200Y0137585D01*
X0006200Y0138784D02*
X0008850Y0138784D01*
X0008850Y0139982D02*
X0006200Y0139982D01*
X0006200Y0141181D02*
X0008850Y0141181D01*
X0008850Y0142379D02*
X0006200Y0142379D01*
X0006200Y0143578D02*
X0008850Y0143578D01*
X0008850Y0144776D02*
X0006200Y0144776D01*
X0006200Y0145975D02*
X0008850Y0145975D01*
X0008850Y0147173D02*
X0006200Y0147173D01*
X0006200Y0148372D02*
X0008850Y0148372D01*
X0008850Y0149570D02*
X0006200Y0149570D01*
X0006200Y0150769D02*
X0008850Y0150769D01*
X0008850Y0151967D02*
X0006200Y0151967D01*
X0006200Y0153166D02*
X0008850Y0153166D01*
X0008850Y0154364D02*
X0006200Y0154364D01*
X0006200Y0155563D02*
X0008850Y0155563D01*
X0008850Y0156761D02*
X0006200Y0156761D01*
X0006200Y0157960D02*
X0008850Y0157960D01*
X0008850Y0159158D02*
X0006200Y0159158D01*
X0006200Y0160357D02*
X0008850Y0160357D01*
X0008850Y0161555D02*
X0006200Y0161555D01*
X0006200Y0162754D02*
X0008850Y0162754D01*
X0008850Y0163952D02*
X0006200Y0163952D01*
X0006200Y0165151D02*
X0008850Y0165151D01*
X0008863Y0166349D02*
X0006200Y0166349D01*
X0006200Y0167548D02*
X0010062Y0167548D01*
X0011260Y0168746D02*
X0006200Y0168746D01*
X0006200Y0169945D02*
X0012459Y0169945D01*
X0013657Y0171143D02*
X0006200Y0171143D01*
X0006200Y0172342D02*
X0014856Y0172342D01*
X0016054Y0173540D02*
X0006200Y0173540D01*
X0006200Y0174739D02*
X0017253Y0174739D01*
X0018451Y0175937D02*
X0006200Y0175937D01*
X0006200Y0177136D02*
X0019650Y0177136D01*
X0019650Y0178334D02*
X0006200Y0178334D01*
X0006200Y0179533D02*
X0019650Y0179533D01*
X0019650Y0180732D02*
X0006200Y0180732D01*
X0006200Y0181930D02*
X0019650Y0181930D01*
X0019650Y0183129D02*
X0006200Y0183129D01*
X0006200Y0184327D02*
X0019650Y0184327D01*
X0019650Y0185526D02*
X0006200Y0185526D01*
X0006200Y0186724D02*
X0008695Y0186724D01*
X0012055Y0186724D02*
X0019650Y0186724D01*
X0019650Y0187923D02*
X0015404Y0187923D01*
X0017203Y0189121D02*
X0020160Y0189121D01*
X0021358Y0190320D02*
X0018402Y0190320D01*
X0019254Y0191518D02*
X0022557Y0191518D01*
X0023755Y0192717D02*
X0019946Y0192717D01*
X0020384Y0193915D02*
X0024954Y0193915D01*
X0026152Y0195114D02*
X0020705Y0195114D01*
X0020880Y0196312D02*
X0027351Y0196312D01*
X0028549Y0197511D02*
X0020880Y0197511D01*
X0020833Y0198709D02*
X0029748Y0198709D01*
X0030946Y0199908D02*
X0020512Y0199908D01*
X0020191Y0201106D02*
X0032145Y0201106D01*
X0035475Y0201325D02*
X0077075Y0201325D01*
X0087325Y0191075D01*
X0087325Y0162300D01*
X0079500Y0154475D01*
X0095025Y0154475D01*
X0095425Y0154075D01*
X0098836Y0150769D02*
X0104379Y0150769D01*
X0104550Y0150940D02*
X0102550Y0148940D01*
X0102550Y0146111D01*
X0095714Y0139275D01*
X0079664Y0139275D01*
X0070214Y0129825D01*
X0068925Y0128536D01*
X0068925Y0107814D01*
X0072975Y0103764D01*
X0074264Y0102475D01*
X0076560Y0102475D01*
X0076289Y0102204D01*
X0076215Y0102025D01*
X0070811Y0102025D01*
X0065225Y0107611D01*
X0065225Y0147639D01*
X0065513Y0147926D01*
X0065939Y0146896D01*
X0067121Y0145714D01*
X0068665Y0145075D01*
X0070335Y0145075D01*
X0071879Y0145714D01*
X0073061Y0146896D01*
X0073700Y0148440D01*
X0073700Y0155310D01*
X0073061Y0156854D01*
X0071879Y0158036D01*
X0070335Y0158675D01*
X0068665Y0158675D01*
X0067121Y0158036D01*
X0065939Y0156854D01*
X0065300Y0155310D01*
X0065300Y0153936D01*
X0060825Y0149461D01*
X0060825Y0130411D01*
X0055489Y0125075D01*
X0052660Y0125075D01*
X0050200Y0122615D01*
X0050200Y0119135D01*
X0052660Y0116675D01*
X0056140Y0116675D01*
X0058600Y0119135D01*
X0058600Y0121964D01*
X0060825Y0124189D01*
X0060825Y0105789D01*
X0068989Y0097625D01*
X0076215Y0097625D01*
X0076289Y0097446D01*
X0077471Y0096264D01*
X0079015Y0095625D01*
X0085885Y0095625D01*
X0087429Y0096264D01*
X0088611Y0097446D01*
X0089250Y0098990D01*
X0089250Y0100660D01*
X0089018Y0101221D01*
X0095925Y0094314D01*
X0095925Y0084189D01*
X0101200Y0078914D01*
X0102489Y0077625D01*
X0106215Y0077625D01*
X0106289Y0077446D01*
X0107471Y0076264D01*
X0109015Y0075625D01*
X0115885Y0075625D01*
X0117429Y0076264D01*
X0118611Y0077446D01*
X0119250Y0078990D01*
X0119250Y0080660D01*
X0118611Y0082204D01*
X0117429Y0083386D01*
X0115885Y0084025D01*
X0109015Y0084025D01*
X0107471Y0083386D01*
X0106289Y0082204D01*
X0106215Y0082025D01*
X0104311Y0082025D01*
X0100325Y0086011D01*
X0100325Y0096136D01*
X0099036Y0097425D01*
X0089586Y0106875D01*
X0088040Y0106875D01*
X0088611Y0107446D01*
X0089250Y0108990D01*
X0089250Y0110660D01*
X0088611Y0112204D01*
X0087429Y0113386D01*
X0085885Y0114025D01*
X0084650Y0114025D01*
X0084650Y0115625D01*
X0085885Y0115625D01*
X0087429Y0116264D01*
X0088611Y0117446D01*
X0089250Y0118990D01*
X0089250Y0120564D01*
X0097275Y0112539D01*
X0097275Y0100389D01*
X0104025Y0093639D01*
X0105314Y0092350D01*
X0106493Y0092350D01*
X0106258Y0092026D01*
X0105958Y0091437D01*
X0105753Y0090809D01*
X0105650Y0090156D01*
X0105650Y0090025D01*
X0112250Y0090025D01*
X0112250Y0089625D01*
X0112650Y0089625D01*
X0112650Y0090025D01*
X0119250Y0090025D01*
X0119250Y0090156D01*
X0119147Y0090809D01*
X0118942Y0091437D01*
X0118642Y0092026D01*
X0118407Y0092350D01*
X0127525Y0092350D01*
X0127525Y0091460D01*
X0129985Y0089000D01*
X0133465Y0089000D01*
X0135925Y0091460D01*
X0135925Y0094940D01*
X0133465Y0097400D01*
X0129985Y0097400D01*
X0129335Y0096750D01*
X0117915Y0096750D01*
X0118611Y0097446D01*
X0119250Y0098990D01*
X0119250Y0100660D01*
X0118611Y0102204D01*
X0118275Y0102539D01*
X0127386Y0111650D01*
X0128675Y0112939D01*
X0128675Y0119289D01*
X0131436Y0122050D01*
X0133208Y0122050D01*
X0131300Y0120143D01*
X0131300Y0118375D01*
X0135850Y0118375D01*
X0135850Y0117975D01*
X0136250Y0117975D01*
X0136250Y0118375D01*
X0140800Y0118375D01*
X0140800Y0120143D01*
X0138892Y0122050D01*
X0140886Y0122050D01*
X0157086Y0138250D01*
X0166386Y0138250D01*
X0167675Y0139539D01*
X0171136Y0143000D01*
X0173965Y0143000D01*
X0176425Y0145460D01*
X0176425Y0148940D01*
X0174425Y0150940D01*
X0174425Y0157175D01*
X0175660Y0157175D01*
X0177204Y0157814D01*
X0178386Y0158996D01*
X0179025Y0160540D01*
X0179025Y0162210D01*
X0178386Y0163754D01*
X0177204Y0164936D01*
X0175660Y0165575D01*
X0168790Y0165575D01*
X0167246Y0164936D01*
X0166064Y0163754D01*
X0165425Y0162210D01*
X0165425Y0160540D01*
X0166064Y0158996D01*
X0167246Y0157814D01*
X0168790Y0157175D01*
X0170025Y0157175D01*
X0170025Y0150940D01*
X0168025Y0148940D01*
X0168025Y0146111D01*
X0164564Y0142650D01*
X0155264Y0142650D01*
X0153975Y0141361D01*
X0139064Y0126450D01*
X0133115Y0126450D01*
X0135250Y0128585D01*
X0135250Y0132065D01*
X0132790Y0134525D01*
X0129310Y0134525D01*
X0127310Y0132525D01*
X0122039Y0132525D01*
X0120750Y0131236D01*
X0113539Y0124025D01*
X0109015Y0124025D01*
X0107471Y0123386D01*
X0106289Y0122204D01*
X0105650Y0120660D01*
X0105650Y0118990D01*
X0106289Y0117446D01*
X0107471Y0116264D01*
X0109015Y0115625D01*
X0110250Y0115625D01*
X0110250Y0114025D01*
X0109015Y0114025D01*
X0107471Y0113386D01*
X0106289Y0112204D01*
X0105650Y0110660D01*
X0105650Y0108990D01*
X0106289Y0107446D01*
X0107471Y0106264D01*
X0109015Y0105625D01*
X0115139Y0105625D01*
X0113539Y0104025D01*
X0109015Y0104025D01*
X0107471Y0103386D01*
X0106289Y0102204D01*
X0105650Y0100660D01*
X0105650Y0098990D01*
X0106183Y0097704D01*
X0101675Y0102211D01*
X0101675Y0114361D01*
X0100386Y0115650D01*
X0090936Y0125100D01*
X0084614Y0125100D01*
X0083539Y0124025D01*
X0079015Y0124025D01*
X0077471Y0123386D01*
X0076289Y0122204D01*
X0075650Y0120660D01*
X0075650Y0118990D01*
X0076289Y0117446D01*
X0077471Y0116264D01*
X0079015Y0115625D01*
X0080250Y0115625D01*
X0080250Y0114025D01*
X0079015Y0114025D01*
X0077471Y0113386D01*
X0076289Y0112204D01*
X0075650Y0110660D01*
X0075650Y0108990D01*
X0076289Y0107446D01*
X0076860Y0106875D01*
X0076086Y0106875D01*
X0073325Y0109636D01*
X0073325Y0126714D01*
X0081486Y0134875D01*
X0097536Y0134875D01*
X0098825Y0136164D01*
X0105661Y0143000D01*
X0108490Y0143000D01*
X0110950Y0145460D01*
X0110950Y0148940D01*
X0108950Y0150940D01*
X0108950Y0157175D01*
X0110185Y0157175D01*
X0111729Y0157814D01*
X0112911Y0158996D01*
X0113550Y0160540D01*
X0113550Y0162210D01*
X0112911Y0163754D01*
X0111729Y0164936D01*
X0110185Y0165575D01*
X0103315Y0165575D01*
X0101771Y0164936D01*
X0100589Y0163754D01*
X0099950Y0162210D01*
X0099950Y0160540D01*
X0100589Y0158996D01*
X0101771Y0157814D01*
X0103315Y0157175D01*
X0104550Y0157175D01*
X0104550Y0150940D01*
X0104550Y0151967D02*
X0100035Y0151967D01*
X0100175Y0153166D02*
X0104550Y0153166D01*
X0104550Y0154364D02*
X0100175Y0154364D01*
X0100175Y0155563D02*
X0104550Y0155563D01*
X0104550Y0156761D02*
X0099456Y0156761D01*
X0098258Y0157960D02*
X0101625Y0157960D01*
X0100522Y0159158D02*
X0087295Y0159158D01*
X0088493Y0160357D02*
X0100026Y0160357D01*
X0099950Y0161555D02*
X0089525Y0161555D01*
X0089525Y0162754D02*
X0100175Y0162754D01*
X0100788Y0163952D02*
X0089525Y0163952D01*
X0089525Y0165151D02*
X0102291Y0165151D01*
X0106750Y0161375D02*
X0106750Y0147200D01*
X0096625Y0137075D01*
X0080575Y0137075D01*
X0071125Y0127625D01*
X0071125Y0108725D01*
X0075175Y0104675D01*
X0088675Y0104675D01*
X0098125Y0095225D01*
X0098125Y0085100D01*
X0103400Y0079825D01*
X0112450Y0079825D01*
X0107274Y0076461D02*
X0087626Y0076461D01*
X0088699Y0077660D02*
X0102454Y0077660D01*
X0101256Y0078858D02*
X0089196Y0078858D01*
X0089250Y0080057D02*
X0100057Y0080057D01*
X0098859Y0081255D02*
X0089004Y0081255D01*
X0088361Y0082454D02*
X0097660Y0082454D01*
X0096462Y0083652D02*
X0086786Y0083652D01*
X0086909Y0086049D02*
X0095925Y0086049D01*
X0095925Y0084851D02*
X0080587Y0084851D01*
X0082450Y0089825D02*
X0074500Y0081875D01*
X0074500Y0049325D01*
X0100825Y0023000D01*
X0194100Y0023000D01*
X0217725Y0046625D01*
X0243250Y0046625D01*
X0246625Y0050000D01*
X0246625Y0087800D01*
X0246625Y0105350D01*
X0247450Y0106175D01*
X0247450Y0166775D01*
X0248100Y0166775D01*
X0251750Y0170425D01*
X0298725Y0170425D01*
X0318025Y0189725D01*
X0322593Y0190320D02*
X0323456Y0190320D01*
X0323456Y0190109D02*
X0327641Y0190109D01*
X0327641Y0189341D01*
X0328409Y0189341D01*
X0328409Y0182192D01*
X0329095Y0182300D01*
X0329779Y0182523D01*
X0330419Y0182849D01*
X0331001Y0183272D01*
X0331510Y0183780D01*
X0331932Y0184362D01*
X0332259Y0185003D01*
X0332481Y0185687D01*
X0332593Y0186397D01*
X0332593Y0189341D01*
X0328409Y0189341D01*
X0328409Y0190109D01*
X0332593Y0190109D01*
X0332593Y0193053D01*
X0332481Y0193763D01*
X0332259Y0194447D01*
X0331932Y0195088D01*
X0331510Y0195670D01*
X0331001Y0196178D01*
X0330419Y0196601D01*
X0329779Y0196927D01*
X0329095Y0197150D01*
X0328409Y0197258D01*
X0328409Y0190109D01*
X0327641Y0190109D01*
X0327641Y0197258D01*
X0326955Y0197150D01*
X0326271Y0196927D01*
X0325631Y0196601D01*
X0325049Y0196178D01*
X0324540Y0195670D01*
X0324118Y0195088D01*
X0323791Y0194447D01*
X0323569Y0193763D01*
X0323456Y0193053D01*
X0323456Y0190109D01*
X0323456Y0189341D02*
X0323456Y0186397D01*
X0323569Y0185687D01*
X0323791Y0185003D01*
X0324118Y0184362D01*
X0324540Y0183780D01*
X0325049Y0183272D01*
X0325631Y0182849D01*
X0326271Y0182523D01*
X0326955Y0182300D01*
X0327641Y0182192D01*
X0327641Y0189341D01*
X0323456Y0189341D01*
X0323456Y0189121D02*
X0322593Y0189121D01*
X0322593Y0187923D02*
X0323456Y0187923D01*
X0323456Y0186724D02*
X0322593Y0186724D01*
X0322460Y0185526D02*
X0323621Y0185526D01*
X0324143Y0184327D02*
X0321964Y0184327D01*
X0320858Y0183129D02*
X0325246Y0183129D01*
X0327641Y0183129D02*
X0328409Y0183129D01*
X0328409Y0184327D02*
X0327641Y0184327D01*
X0327641Y0185526D02*
X0328409Y0185526D01*
X0328409Y0186724D02*
X0327641Y0186724D01*
X0327641Y0187923D02*
X0328409Y0187923D01*
X0328409Y0189121D02*
X0327641Y0189121D01*
X0327641Y0190320D02*
X0328409Y0190320D01*
X0328409Y0191518D02*
X0327641Y0191518D01*
X0327641Y0192717D02*
X0328409Y0192717D01*
X0328409Y0193915D02*
X0327641Y0193915D01*
X0327641Y0195114D02*
X0328409Y0195114D01*
X0328409Y0196312D02*
X0327641Y0196312D01*
X0325233Y0196312D02*
X0320867Y0196312D01*
X0321967Y0195114D02*
X0324136Y0195114D01*
X0323618Y0193915D02*
X0322464Y0193915D01*
X0322593Y0192717D02*
X0323456Y0192717D01*
X0323456Y0191518D02*
X0322593Y0191518D01*
X0315183Y0196312D02*
X0269757Y0196312D01*
X0270955Y0195114D02*
X0314083Y0195114D01*
X0313586Y0193915D02*
X0272154Y0193915D01*
X0273352Y0192717D02*
X0313456Y0192717D01*
X0313456Y0191518D02*
X0287422Y0191518D01*
X0287404Y0191527D02*
X0286720Y0191750D01*
X0286034Y0191858D01*
X0286034Y0184709D01*
X0290218Y0184709D01*
X0290218Y0187653D01*
X0290106Y0188363D01*
X0289884Y0189047D01*
X0289557Y0189688D01*
X0289135Y0190270D01*
X0288626Y0190778D01*
X0288044Y0191201D01*
X0287404Y0191527D01*
X0286034Y0191518D02*
X0285266Y0191518D01*
X0285266Y0191858D02*
X0284580Y0191750D01*
X0283896Y0191527D01*
X0283256Y0191201D01*
X0282674Y0190778D01*
X0282165Y0190270D01*
X0281743Y0189688D01*
X0281416Y0189047D01*
X0281194Y0188363D01*
X0281081Y0187653D01*
X0281081Y0184709D01*
X0285266Y0184709D01*
X0285266Y0183941D01*
X0286034Y0183941D01*
X0286034Y0176792D01*
X0286720Y0176900D01*
X0287404Y0177123D01*
X0288044Y0177449D01*
X0288626Y0177872D01*
X0289135Y0178380D01*
X0289557Y0178962D01*
X0289884Y0179603D01*
X0290106Y0180287D01*
X0290218Y0180997D01*
X0290218Y0183941D01*
X0286034Y0183941D01*
X0286034Y0184709D01*
X0285266Y0184709D01*
X0285266Y0191858D01*
X0283878Y0191518D02*
X0277389Y0191518D01*
X0279085Y0190320D02*
X0282215Y0190320D01*
X0281454Y0189121D02*
X0279838Y0189121D01*
X0280218Y0187923D02*
X0281124Y0187923D01*
X0281081Y0186724D02*
X0280218Y0186724D01*
X0280218Y0185526D02*
X0281081Y0185526D01*
X0280218Y0184327D02*
X0285266Y0184327D01*
X0285266Y0183941D02*
X0281081Y0183941D01*
X0281081Y0180997D01*
X0281194Y0180287D01*
X0281416Y0179603D01*
X0281743Y0178962D01*
X0282165Y0178380D01*
X0282674Y0177872D01*
X0283256Y0177449D01*
X0283896Y0177123D01*
X0284580Y0176900D01*
X0285266Y0176792D01*
X0285266Y0183941D01*
X0285266Y0183129D02*
X0286034Y0183129D01*
X0286034Y0184327D02*
X0309516Y0184327D01*
X0310714Y0185526D02*
X0290218Y0185526D01*
X0290218Y0186724D02*
X0311913Y0186724D01*
X0313111Y0187923D02*
X0290176Y0187923D01*
X0289846Y0189121D02*
X0313456Y0189121D01*
X0313456Y0190320D02*
X0289085Y0190320D01*
X0286034Y0190320D02*
X0285266Y0190320D01*
X0285266Y0189121D02*
X0286034Y0189121D01*
X0286034Y0187923D02*
X0285266Y0187923D01*
X0285266Y0186724D02*
X0286034Y0186724D01*
X0286034Y0185526D02*
X0285266Y0185526D01*
X0285266Y0181930D02*
X0286034Y0181930D01*
X0286034Y0180732D02*
X0285266Y0180732D01*
X0285266Y0179533D02*
X0286034Y0179533D01*
X0286034Y0178334D02*
X0285266Y0178334D01*
X0285266Y0177136D02*
X0286034Y0177136D01*
X0287430Y0177136D02*
X0302325Y0177136D01*
X0303523Y0178334D02*
X0289089Y0178334D01*
X0289848Y0179533D02*
X0304722Y0179533D01*
X0305920Y0180732D02*
X0290176Y0180732D01*
X0290218Y0181930D02*
X0307119Y0181930D01*
X0308317Y0183129D02*
X0290218Y0183129D01*
X0282211Y0178334D02*
X0279089Y0178334D01*
X0279840Y0179533D02*
X0281452Y0179533D01*
X0281124Y0180732D02*
X0280218Y0180732D01*
X0280218Y0181930D02*
X0281081Y0181930D01*
X0281081Y0183129D02*
X0280218Y0183129D01*
X0275650Y0184325D02*
X0275650Y0189050D01*
X0271081Y0187923D02*
X0270218Y0187923D01*
X0270218Y0186724D02*
X0271081Y0186724D01*
X0271081Y0185526D02*
X0270218Y0185526D01*
X0270218Y0184327D02*
X0271081Y0184327D01*
X0271081Y0183129D02*
X0270218Y0183129D01*
X0270218Y0181930D02*
X0271081Y0181930D01*
X0271081Y0180732D02*
X0270218Y0180732D01*
X0269840Y0179533D02*
X0271460Y0179533D01*
X0272211Y0178334D02*
X0269089Y0178334D01*
X0267399Y0177136D02*
X0273901Y0177136D01*
X0277399Y0177136D02*
X0283870Y0177136D01*
X0298729Y0173540D02*
X0257977Y0173540D01*
X0259175Y0174739D02*
X0299928Y0174739D01*
X0301126Y0175937D02*
X0260374Y0175937D01*
X0261572Y0177136D02*
X0263901Y0177136D01*
X0258945Y0180732D02*
X0250718Y0180732D01*
X0250856Y0180675D02*
X0249165Y0181375D01*
X0241335Y0181375D01*
X0239644Y0180675D01*
X0238350Y0179381D01*
X0238182Y0178975D01*
X0226718Y0178975D01*
X0226550Y0179381D01*
X0225256Y0180675D01*
X0223565Y0181375D01*
X0215735Y0181375D01*
X0214044Y0180675D01*
X0212750Y0179381D01*
X0212050Y0177690D01*
X0212050Y0175860D01*
X0212750Y0174169D01*
X0214044Y0172875D01*
X0215250Y0172376D01*
X0215250Y0170515D01*
X0213250Y0168515D01*
X0213250Y0165035D01*
X0215710Y0162575D01*
X0218539Y0162575D01*
X0226375Y0154739D01*
X0226139Y0154504D01*
X0225500Y0152960D01*
X0225500Y0151290D01*
X0226139Y0149746D01*
X0227321Y0148564D01*
X0228865Y0147925D01*
X0235735Y0147925D01*
X0237279Y0148564D01*
X0238461Y0149746D01*
X0239100Y0151290D01*
X0239100Y0152960D01*
X0238461Y0154504D01*
X0237279Y0155686D01*
X0235735Y0156325D01*
X0231011Y0156325D01*
X0221650Y0165686D01*
X0221650Y0168515D01*
X0219650Y0170515D01*
X0219650Y0172175D01*
X0223565Y0172175D01*
X0225256Y0172875D01*
X0226550Y0174169D01*
X0226718Y0174575D01*
X0238182Y0174575D01*
X0238350Y0174169D01*
X0239644Y0172875D01*
X0241335Y0172175D01*
X0249165Y0172175D01*
X0250856Y0172875D01*
X0252150Y0174169D01*
X0252850Y0175860D01*
X0252850Y0177690D01*
X0252150Y0179381D01*
X0250856Y0180675D01*
X0251997Y0179533D02*
X0257747Y0179533D01*
X0256548Y0178334D02*
X0252583Y0178334D01*
X0252850Y0177136D02*
X0255350Y0177136D01*
X0254151Y0175937D02*
X0252850Y0175937D01*
X0252953Y0174739D02*
X0252386Y0174739D01*
X0251754Y0173540D02*
X0251521Y0173540D01*
X0250556Y0172342D02*
X0249568Y0172342D01*
X0249357Y0171143D02*
X0219650Y0171143D01*
X0220220Y0169945D02*
X0244680Y0169945D01*
X0243482Y0168746D02*
X0221418Y0168746D01*
X0221650Y0167548D02*
X0243250Y0167548D01*
X0243250Y0166349D02*
X0221650Y0166349D01*
X0222185Y0165151D02*
X0243250Y0165151D01*
X0244333Y0163952D02*
X0223384Y0163952D01*
X0224582Y0162754D02*
X0245250Y0162754D01*
X0245250Y0161555D02*
X0225781Y0161555D01*
X0226979Y0160357D02*
X0245250Y0160357D01*
X0245250Y0159158D02*
X0228178Y0159158D01*
X0229376Y0157960D02*
X0245250Y0157960D01*
X0245250Y0156761D02*
X0230575Y0156761D01*
X0225551Y0155563D02*
X0196973Y0155563D01*
X0195775Y0156761D02*
X0224352Y0156761D01*
X0223154Y0157960D02*
X0207270Y0157960D01*
X0207026Y0157783D02*
X0207561Y0158171D01*
X0208029Y0158639D01*
X0208417Y0159174D01*
X0208717Y0159763D01*
X0208922Y0160391D01*
X0209025Y0161044D01*
X0209025Y0161175D01*
X0202425Y0161175D01*
X0202425Y0161575D01*
X0202025Y0161575D01*
X0202025Y0165575D01*
X0199294Y0165575D01*
X0198641Y0165472D01*
X0198013Y0165267D01*
X0197424Y0164967D01*
X0196889Y0164579D01*
X0196421Y0164111D01*
X0196033Y0163576D01*
X0195733Y0162987D01*
X0195528Y0162359D01*
X0195425Y0161706D01*
X0195425Y0161575D01*
X0202025Y0161575D01*
X0202025Y0161175D01*
X0202425Y0161175D01*
X0202425Y0157175D01*
X0205156Y0157175D01*
X0205809Y0157278D01*
X0206437Y0157483D01*
X0207026Y0157783D01*
X0208406Y0159158D02*
X0221955Y0159158D01*
X0220757Y0160357D02*
X0208910Y0160357D01*
X0209025Y0161575D02*
X0209025Y0161706D01*
X0208922Y0162359D01*
X0208717Y0162987D01*
X0208417Y0163576D01*
X0208029Y0164111D01*
X0207561Y0164579D01*
X0207026Y0164967D01*
X0206437Y0165267D01*
X0205809Y0165472D01*
X0205156Y0165575D01*
X0202425Y0165575D01*
X0202425Y0161575D01*
X0209025Y0161575D01*
X0208793Y0162754D02*
X0215531Y0162754D01*
X0214333Y0163952D02*
X0208144Y0163952D01*
X0206666Y0165151D02*
X0213250Y0165151D01*
X0213250Y0166349D02*
X0188075Y0166349D01*
X0188075Y0165151D02*
X0197784Y0165151D01*
X0196306Y0163952D02*
X0188584Y0163952D01*
X0189782Y0162754D02*
X0195657Y0162754D01*
X0195425Y0161175D02*
X0195425Y0161044D01*
X0195528Y0160391D01*
X0195733Y0159763D01*
X0196033Y0159174D01*
X0196421Y0158639D01*
X0196889Y0158171D01*
X0197424Y0157783D01*
X0198013Y0157483D01*
X0198641Y0157278D01*
X0199294Y0157175D01*
X0202025Y0157175D01*
X0202025Y0161175D01*
X0195425Y0161175D01*
X0195540Y0160357D02*
X0192179Y0160357D01*
X0190981Y0161555D02*
X0202025Y0161555D01*
X0202225Y0161375D02*
X0195875Y0167725D01*
X0195875Y0184325D01*
X0196259Y0184327D02*
X0208804Y0184327D01*
X0210002Y0183129D02*
X0200443Y0183129D01*
X0200443Y0183941D02*
X0196259Y0183941D01*
X0196259Y0176792D01*
X0196945Y0176900D01*
X0197629Y0177123D01*
X0198269Y0177449D01*
X0198851Y0177872D01*
X0199360Y0178380D01*
X0199782Y0178962D01*
X0200109Y0179603D01*
X0200331Y0180287D01*
X0200443Y0180997D01*
X0200443Y0183941D01*
X0200443Y0184709D02*
X0196259Y0184709D01*
X0195491Y0184709D01*
X0195491Y0183941D01*
X0191306Y0183941D01*
X0191306Y0180997D01*
X0191419Y0180287D01*
X0191641Y0179603D01*
X0191968Y0178962D01*
X0192390Y0178380D01*
X0192899Y0177872D01*
X0193481Y0177449D01*
X0194121Y0177123D01*
X0194805Y0176900D01*
X0195491Y0176792D01*
X0195491Y0183941D01*
X0196259Y0183941D01*
X0196259Y0184709D01*
X0196259Y0191858D01*
X0196945Y0191750D01*
X0197629Y0191527D01*
X0198269Y0191201D01*
X0198851Y0190778D01*
X0199360Y0190270D01*
X0199782Y0189688D01*
X0200109Y0189047D01*
X0200331Y0188363D01*
X0200443Y0187653D01*
X0200443Y0184709D01*
X0200443Y0185526D02*
X0207605Y0185526D01*
X0206407Y0186724D02*
X0200443Y0186724D01*
X0200401Y0187923D02*
X0205208Y0187923D01*
X0204010Y0189121D02*
X0200071Y0189121D01*
X0199310Y0190320D02*
X0202811Y0190320D01*
X0201613Y0191518D02*
X0197647Y0191518D01*
X0196259Y0191518D02*
X0195491Y0191518D01*
X0195491Y0191858D02*
X0194805Y0191750D01*
X0194121Y0191527D01*
X0193481Y0191201D01*
X0192899Y0190778D01*
X0192390Y0190270D01*
X0191968Y0189688D01*
X0191641Y0189047D01*
X0191419Y0188363D01*
X0191306Y0187653D01*
X0191306Y0184709D01*
X0195491Y0184709D01*
X0195491Y0191858D01*
X0194103Y0191518D02*
X0187614Y0191518D01*
X0187661Y0192717D02*
X0200414Y0192717D01*
X0199216Y0193915D02*
X0188859Y0193915D01*
X0189310Y0190320D02*
X0192440Y0190320D01*
X0191679Y0189121D02*
X0190063Y0189121D01*
X0190443Y0187923D02*
X0191349Y0187923D01*
X0191306Y0186724D02*
X0190443Y0186724D01*
X0190443Y0185526D02*
X0191306Y0185526D01*
X0190443Y0184327D02*
X0195491Y0184327D01*
X0195491Y0183129D02*
X0196259Y0183129D01*
X0196259Y0181930D02*
X0195491Y0181930D01*
X0195491Y0180732D02*
X0196259Y0180732D01*
X0196259Y0179533D02*
X0195491Y0179533D01*
X0195491Y0178334D02*
X0196259Y0178334D01*
X0196259Y0177136D02*
X0195491Y0177136D01*
X0194095Y0177136D02*
X0188075Y0177136D01*
X0188075Y0175937D02*
X0212050Y0175937D01*
X0212050Y0177136D02*
X0197655Y0177136D01*
X0199314Y0178334D02*
X0212317Y0178334D01*
X0212903Y0179533D02*
X0200073Y0179533D01*
X0200401Y0180732D02*
X0214182Y0180732D01*
X0219650Y0176775D02*
X0245250Y0176775D01*
X0238979Y0173540D02*
X0225921Y0173540D01*
X0223968Y0172342D02*
X0240932Y0172342D01*
X0238503Y0179533D02*
X0226397Y0179533D01*
X0225118Y0180732D02*
X0239782Y0180732D01*
X0249498Y0183129D02*
X0261081Y0183129D01*
X0261081Y0184327D02*
X0250696Y0184327D01*
X0251895Y0185526D02*
X0261081Y0185526D01*
X0261081Y0186724D02*
X0253093Y0186724D01*
X0254292Y0187923D02*
X0261081Y0187923D01*
X0261462Y0189121D02*
X0255490Y0189121D01*
X0256689Y0190320D02*
X0262215Y0190320D01*
X0263911Y0191518D02*
X0257887Y0191518D01*
X0259086Y0192717D02*
X0266564Y0192717D01*
X0267389Y0191518D02*
X0267763Y0191518D01*
X0269838Y0189121D02*
X0270160Y0189121D01*
X0265650Y0184325D02*
X0251750Y0170425D01*
X0251984Y0167548D02*
X0333694Y0167548D01*
X0333581Y0167277D02*
X0333581Y0161943D01*
X0325964Y0154325D01*
X0268535Y0154325D01*
X0268461Y0154504D01*
X0267279Y0155686D01*
X0265735Y0156325D01*
X0258865Y0156325D01*
X0257321Y0155686D01*
X0256139Y0154504D01*
X0255500Y0152960D01*
X0255500Y0151290D01*
X0256139Y0149746D01*
X0257321Y0148564D01*
X0258865Y0147925D01*
X0265735Y0147925D01*
X0267279Y0148564D01*
X0268461Y0149746D01*
X0268535Y0149925D01*
X0327786Y0149925D01*
X0329075Y0151214D01*
X0334991Y0157130D01*
X0335562Y0156559D01*
X0337241Y0155863D01*
X0337502Y0155863D01*
X0325964Y0144325D01*
X0268535Y0144325D01*
X0268461Y0144504D01*
X0267279Y0145686D01*
X0265735Y0146325D01*
X0258865Y0146325D01*
X0257321Y0145686D01*
X0256139Y0144504D01*
X0255500Y0142960D01*
X0255500Y0141290D01*
X0256139Y0139746D01*
X0257321Y0138564D01*
X0258865Y0137925D01*
X0265735Y0137925D01*
X0267279Y0138564D01*
X0268461Y0139746D01*
X0268535Y0139925D01*
X0327786Y0139925D01*
X0344991Y0157130D01*
X0345562Y0156559D01*
X0347241Y0155863D01*
X0349059Y0155863D01*
X0350738Y0156559D01*
X0352023Y0157844D01*
X0352718Y0159523D01*
X0352718Y0167277D01*
X0352023Y0168956D01*
X0350738Y0170241D01*
X0350350Y0170402D01*
X0350350Y0182775D01*
X0350613Y0182884D01*
X0351898Y0184169D01*
X0352593Y0185848D01*
X0352593Y0193602D01*
X0351898Y0195281D01*
X0350613Y0196566D01*
X0348934Y0197262D01*
X0347116Y0197262D01*
X0345437Y0196566D01*
X0344152Y0195281D01*
X0343456Y0193602D01*
X0343456Y0185848D01*
X0344152Y0184169D01*
X0345437Y0182884D01*
X0345950Y0182671D01*
X0345950Y0170402D01*
X0345562Y0170241D01*
X0344277Y0168956D01*
X0343581Y0167277D01*
X0343581Y0161943D01*
X0342718Y0161080D01*
X0342718Y0167277D01*
X0342023Y0168956D01*
X0340738Y0170241D01*
X0340350Y0170402D01*
X0340350Y0182775D01*
X0340613Y0182884D01*
X0341898Y0184169D01*
X0342593Y0185848D01*
X0342593Y0193602D01*
X0341898Y0195281D01*
X0340613Y0196566D01*
X0338934Y0197262D01*
X0337116Y0197262D01*
X0335437Y0196566D01*
X0334152Y0195281D01*
X0333456Y0193602D01*
X0333456Y0185848D01*
X0334152Y0184169D01*
X0335437Y0182884D01*
X0335950Y0182671D01*
X0335950Y0170402D01*
X0335562Y0170241D01*
X0334277Y0168956D01*
X0333581Y0167277D01*
X0333581Y0166349D02*
X0251650Y0166349D01*
X0251650Y0165151D02*
X0333581Y0165151D01*
X0333581Y0163952D02*
X0250567Y0163952D01*
X0249650Y0162754D02*
X0333581Y0162754D01*
X0333194Y0161555D02*
X0249650Y0161555D01*
X0249650Y0160357D02*
X0331996Y0160357D01*
X0330797Y0159158D02*
X0249650Y0159158D01*
X0249650Y0157960D02*
X0329599Y0157960D01*
X0328400Y0156761D02*
X0249650Y0156761D01*
X0249650Y0155563D02*
X0257198Y0155563D01*
X0256081Y0154364D02*
X0249650Y0154364D01*
X0249650Y0153166D02*
X0255585Y0153166D01*
X0255500Y0151967D02*
X0249650Y0151967D01*
X0249650Y0150769D02*
X0255716Y0150769D01*
X0256315Y0149570D02*
X0249650Y0149570D01*
X0249650Y0148372D02*
X0257786Y0148372D01*
X0258019Y0145975D02*
X0249650Y0145975D01*
X0249650Y0147173D02*
X0328812Y0147173D01*
X0327613Y0145975D02*
X0266581Y0145975D01*
X0268188Y0144776D02*
X0326415Y0144776D01*
X0326875Y0142125D02*
X0348150Y0163400D01*
X0348150Y0189600D01*
X0348025Y0189725D01*
X0343456Y0190320D02*
X0342593Y0190320D01*
X0342593Y0191518D02*
X0343456Y0191518D01*
X0343456Y0192717D02*
X0342593Y0192717D01*
X0342464Y0193915D02*
X0343586Y0193915D01*
X0344083Y0195114D02*
X0341967Y0195114D01*
X0340867Y0196312D02*
X0345183Y0196312D01*
X0350867Y0196312D02*
X0358969Y0196312D01*
X0358969Y0195114D02*
X0351967Y0195114D01*
X0352464Y0193915D02*
X0359285Y0193915D01*
X0359606Y0192717D02*
X0352593Y0192717D01*
X0352593Y0191518D02*
X0360206Y0191518D01*
X0360898Y0190320D02*
X0352593Y0190320D01*
X0352593Y0189121D02*
X0361972Y0189121D01*
X0363277Y0187923D02*
X0352593Y0187923D01*
X0352593Y0186724D02*
X0365353Y0186724D01*
X0373597Y0186724D02*
X0375000Y0186724D01*
X0375000Y0185526D02*
X0352460Y0185526D01*
X0351964Y0184327D02*
X0375000Y0184327D01*
X0375000Y0183129D02*
X0350858Y0183129D01*
X0350350Y0181930D02*
X0375000Y0181930D01*
X0375000Y0180732D02*
X0350350Y0180732D01*
X0350350Y0179533D02*
X0375000Y0179533D01*
X0375000Y0178334D02*
X0350350Y0178334D01*
X0350350Y0177136D02*
X0375000Y0177136D01*
X0375000Y0175937D02*
X0350350Y0175937D01*
X0350350Y0174739D02*
X0375000Y0174739D01*
X0375000Y0173540D02*
X0350350Y0173540D01*
X0350350Y0172342D02*
X0375000Y0172342D01*
X0375000Y0171143D02*
X0350350Y0171143D01*
X0351034Y0169945D02*
X0375000Y0169945D01*
X0375000Y0168746D02*
X0352110Y0168746D01*
X0352606Y0167548D02*
X0375000Y0167548D01*
X0375000Y0166349D02*
X0352718Y0166349D01*
X0352718Y0165151D02*
X0375000Y0165151D01*
X0375000Y0163952D02*
X0352718Y0163952D01*
X0352718Y0162754D02*
X0375000Y0162754D01*
X0375000Y0161555D02*
X0352718Y0161555D01*
X0352718Y0160357D02*
X0375000Y0160357D01*
X0375000Y0159158D02*
X0352568Y0159158D01*
X0352071Y0157960D02*
X0375000Y0157960D01*
X0375000Y0156761D02*
X0350941Y0156761D01*
X0345359Y0156761D02*
X0344623Y0156761D01*
X0343424Y0155563D02*
X0375000Y0155563D01*
X0375000Y0154364D02*
X0342226Y0154364D01*
X0341027Y0153166D02*
X0375000Y0153166D01*
X0375000Y0151967D02*
X0339829Y0151967D01*
X0338630Y0150769D02*
X0375000Y0150769D01*
X0375000Y0149570D02*
X0337431Y0149570D01*
X0336233Y0148372D02*
X0375000Y0148372D01*
X0375000Y0147173D02*
X0335034Y0147173D01*
X0333836Y0145975D02*
X0375000Y0145975D01*
X0375000Y0144776D02*
X0332637Y0144776D01*
X0331439Y0143578D02*
X0375000Y0143578D01*
X0375000Y0142379D02*
X0330240Y0142379D01*
X0329042Y0141181D02*
X0375000Y0141181D01*
X0375000Y0139982D02*
X0327843Y0139982D01*
X0326875Y0142125D02*
X0262300Y0142125D01*
X0267475Y0142125D01*
X0267498Y0138784D02*
X0375000Y0138784D01*
X0375000Y0137585D02*
X0249650Y0137585D01*
X0249650Y0136387D02*
X0375000Y0136387D01*
X0375000Y0135188D02*
X0267777Y0135188D01*
X0267279Y0135686D02*
X0268461Y0134504D01*
X0269100Y0132960D01*
X0269100Y0131290D01*
X0268461Y0129746D01*
X0267279Y0128564D01*
X0265735Y0127925D01*
X0258865Y0127925D01*
X0257321Y0128564D01*
X0256139Y0129746D01*
X0255500Y0131290D01*
X0255500Y0132960D01*
X0256139Y0134504D01*
X0257321Y0135686D01*
X0258865Y0136325D01*
X0265735Y0136325D01*
X0267279Y0135686D01*
X0268674Y0133990D02*
X0375000Y0133990D01*
X0375000Y0132791D02*
X0269100Y0132791D01*
X0269100Y0131593D02*
X0375000Y0131593D01*
X0375000Y0130394D02*
X0268729Y0130394D01*
X0267910Y0129196D02*
X0375000Y0129196D01*
X0375000Y0127997D02*
X0265909Y0127997D01*
X0265735Y0126325D02*
X0258865Y0126325D01*
X0257321Y0125686D01*
X0256139Y0124504D01*
X0255500Y0122960D01*
X0255500Y0121290D01*
X0256139Y0119746D01*
X0257321Y0118564D01*
X0258865Y0117925D01*
X0265735Y0117925D01*
X0267279Y0118564D01*
X0268461Y0119746D01*
X0269100Y0121290D01*
X0269100Y0122960D01*
X0268461Y0124504D01*
X0267279Y0125686D01*
X0265735Y0126325D01*
X0267365Y0125600D02*
X0375000Y0125600D01*
X0375000Y0126799D02*
X0249650Y0126799D01*
X0249650Y0127997D02*
X0258691Y0127997D01*
X0256690Y0129196D02*
X0249650Y0129196D01*
X0249650Y0130394D02*
X0255871Y0130394D01*
X0255500Y0131593D02*
X0249650Y0131593D01*
X0249650Y0132791D02*
X0255500Y0132791D01*
X0255926Y0133990D02*
X0249650Y0133990D01*
X0249650Y0135188D02*
X0256823Y0135188D01*
X0257102Y0138784D02*
X0249650Y0138784D01*
X0249650Y0139982D02*
X0256042Y0139982D01*
X0255545Y0141181D02*
X0249650Y0141181D01*
X0249650Y0142379D02*
X0255500Y0142379D01*
X0255756Y0143578D02*
X0249650Y0143578D01*
X0249650Y0144776D02*
X0256411Y0144776D01*
X0262300Y0152125D02*
X0326875Y0152125D01*
X0338150Y0163400D01*
X0338150Y0189600D01*
X0338025Y0189725D01*
X0333456Y0190320D02*
X0332593Y0190320D01*
X0332593Y0191518D02*
X0333456Y0191518D01*
X0333456Y0192717D02*
X0332593Y0192717D01*
X0332432Y0193915D02*
X0333586Y0193915D01*
X0334083Y0195114D02*
X0331914Y0195114D01*
X0330817Y0196312D02*
X0335183Y0196312D01*
X0333456Y0189121D02*
X0332593Y0189121D01*
X0332593Y0187923D02*
X0333456Y0187923D01*
X0333456Y0186724D02*
X0332593Y0186724D01*
X0332429Y0185526D02*
X0333590Y0185526D01*
X0334086Y0184327D02*
X0331907Y0184327D01*
X0330804Y0183129D02*
X0335192Y0183129D01*
X0335950Y0181930D02*
X0313341Y0181930D01*
X0312143Y0180732D02*
X0335950Y0180732D01*
X0335950Y0179533D02*
X0310944Y0179533D01*
X0309746Y0178334D02*
X0335950Y0178334D01*
X0335950Y0177136D02*
X0308547Y0177136D01*
X0307349Y0175937D02*
X0335950Y0175937D01*
X0335950Y0174739D02*
X0306150Y0174739D01*
X0304952Y0173540D02*
X0335950Y0173540D01*
X0335950Y0172342D02*
X0303753Y0172342D01*
X0302555Y0171143D02*
X0335950Y0171143D01*
X0335266Y0169945D02*
X0301356Y0169945D01*
X0300158Y0168746D02*
X0334190Y0168746D01*
X0340350Y0171143D02*
X0345950Y0171143D01*
X0345950Y0172342D02*
X0340350Y0172342D01*
X0340350Y0173540D02*
X0345950Y0173540D01*
X0345950Y0174739D02*
X0340350Y0174739D01*
X0340350Y0175937D02*
X0345950Y0175937D01*
X0345950Y0177136D02*
X0340350Y0177136D01*
X0340350Y0178334D02*
X0345950Y0178334D01*
X0345950Y0179533D02*
X0340350Y0179533D01*
X0340350Y0180732D02*
X0345950Y0180732D01*
X0345950Y0181930D02*
X0340350Y0181930D01*
X0340858Y0183129D02*
X0345192Y0183129D01*
X0344086Y0184327D02*
X0341964Y0184327D01*
X0342460Y0185526D02*
X0343590Y0185526D01*
X0343456Y0186724D02*
X0342593Y0186724D01*
X0342593Y0187923D02*
X0343456Y0187923D01*
X0343456Y0189121D02*
X0342593Y0189121D01*
X0358969Y0197511D02*
X0268062Y0197511D01*
X0257588Y0197511D02*
X0251803Y0197511D01*
X0251759Y0197572D02*
X0251247Y0198084D01*
X0250661Y0198509D01*
X0250016Y0198838D01*
X0249327Y0199062D01*
X0248612Y0199175D01*
X0245650Y0199175D01*
X0245650Y0194975D01*
X0252844Y0194975D01*
X0252737Y0195652D01*
X0252513Y0196341D01*
X0252184Y0196986D01*
X0251759Y0197572D01*
X0252522Y0196312D02*
X0255893Y0196312D01*
X0254695Y0195114D02*
X0252822Y0195114D01*
X0252803Y0193915D02*
X0253496Y0193915D01*
X0250269Y0198709D02*
X0359198Y0198709D01*
X0359519Y0199908D02*
X0081604Y0199908D01*
X0082802Y0198709D02*
X0124090Y0198709D01*
X0122892Y0197511D02*
X0084001Y0197511D01*
X0085199Y0196312D02*
X0121693Y0196312D01*
X0120495Y0195114D02*
X0086398Y0195114D01*
X0087596Y0193915D02*
X0119296Y0193915D01*
X0118098Y0192717D02*
X0088795Y0192717D01*
X0089525Y0191518D02*
X0111361Y0191518D01*
X0109665Y0190320D02*
X0089525Y0190320D01*
X0089525Y0189121D02*
X0108912Y0189121D01*
X0108531Y0187923D02*
X0089525Y0187923D01*
X0089525Y0186724D02*
X0108531Y0186724D01*
X0108531Y0185526D02*
X0089525Y0185526D01*
X0089525Y0184327D02*
X0108531Y0184327D01*
X0108531Y0183129D02*
X0089525Y0183129D01*
X0089525Y0181930D02*
X0108531Y0181930D01*
X0108531Y0180732D02*
X0089525Y0180732D01*
X0089525Y0179533D02*
X0108910Y0179533D01*
X0109661Y0178334D02*
X0097883Y0178334D01*
X0097393Y0178825D02*
X0100175Y0176043D01*
X0100175Y0174275D01*
X0095625Y0174275D01*
X0095225Y0174275D01*
X0095225Y0178825D01*
X0093457Y0178825D01*
X0090675Y0176043D01*
X0090675Y0174275D01*
X0095225Y0174275D01*
X0095225Y0173875D01*
X0090675Y0173875D01*
X0090675Y0172107D01*
X0093457Y0169325D01*
X0095225Y0169325D01*
X0095225Y0173875D01*
X0095625Y0173875D01*
X0095625Y0174275D01*
X0095625Y0178825D01*
X0097393Y0178825D01*
X0095625Y0178334D02*
X0095225Y0178334D01*
X0095225Y0177136D02*
X0095625Y0177136D01*
X0095625Y0175937D02*
X0095225Y0175937D01*
X0095225Y0174739D02*
X0095625Y0174739D01*
X0095625Y0173875D02*
X0100175Y0173875D01*
X0100175Y0172107D01*
X0097393Y0169325D01*
X0095625Y0169325D01*
X0095625Y0173875D01*
X0095625Y0173540D02*
X0095225Y0173540D01*
X0095225Y0172342D02*
X0095625Y0172342D01*
X0095625Y0171143D02*
X0095225Y0171143D01*
X0095225Y0169945D02*
X0095625Y0169945D01*
X0098012Y0169945D02*
X0120900Y0169945D01*
X0120900Y0171143D02*
X0099211Y0171143D01*
X0100175Y0172342D02*
X0120900Y0172342D01*
X0120900Y0173540D02*
X0100175Y0173540D01*
X0100175Y0174739D02*
X0120900Y0174739D01*
X0120900Y0175937D02*
X0100175Y0175937D01*
X0099082Y0177136D02*
X0111351Y0177136D01*
X0114849Y0177136D02*
X0120900Y0177136D01*
X0119661Y0178334D02*
X0116539Y0178334D01*
X0117290Y0179533D02*
X0118910Y0179533D01*
X0118531Y0180732D02*
X0117668Y0180732D01*
X0117668Y0181930D02*
X0118531Y0181930D01*
X0118531Y0183129D02*
X0117668Y0183129D01*
X0117668Y0184327D02*
X0118531Y0184327D01*
X0118531Y0185526D02*
X0117695Y0185526D01*
X0123100Y0184325D02*
X0123100Y0160850D01*
X0136750Y0147200D01*
X0132550Y0147173D02*
X0110950Y0147173D01*
X0110950Y0145975D02*
X0132550Y0145975D01*
X0133234Y0144776D02*
X0110266Y0144776D01*
X0109067Y0143578D02*
X0134433Y0143578D01*
X0139067Y0143578D02*
X0165491Y0143578D01*
X0166690Y0144776D02*
X0140266Y0144776D01*
X0140950Y0145975D02*
X0167888Y0145975D01*
X0168025Y0147173D02*
X0140950Y0147173D01*
X0140950Y0148372D02*
X0168025Y0148372D01*
X0168656Y0149570D02*
X0140319Y0149570D01*
X0139121Y0150769D02*
X0169854Y0150769D01*
X0170025Y0151967D02*
X0135094Y0151967D01*
X0133895Y0153166D02*
X0170025Y0153166D01*
X0170025Y0154364D02*
X0132697Y0154364D01*
X0131498Y0155563D02*
X0170025Y0155563D01*
X0170025Y0156761D02*
X0130300Y0156761D01*
X0129101Y0157960D02*
X0131705Y0157960D01*
X0131949Y0157783D02*
X0132538Y0157483D01*
X0133166Y0157278D01*
X0133819Y0157175D01*
X0136550Y0157175D01*
X0136550Y0161175D01*
X0136950Y0161175D01*
X0136950Y0161575D01*
X0136550Y0161575D01*
X0136550Y0165575D01*
X0133819Y0165575D01*
X0133166Y0165472D01*
X0132538Y0165267D01*
X0131949Y0164967D01*
X0131414Y0164579D01*
X0130946Y0164111D01*
X0130558Y0163576D01*
X0130258Y0162987D01*
X0130053Y0162359D01*
X0129950Y0161706D01*
X0129950Y0161575D01*
X0136550Y0161575D01*
X0136550Y0161175D01*
X0129950Y0161175D01*
X0129950Y0161044D01*
X0130053Y0160391D01*
X0130258Y0159763D01*
X0130558Y0159174D01*
X0130946Y0158639D01*
X0131414Y0158171D01*
X0131949Y0157783D01*
X0130569Y0159158D02*
X0127903Y0159158D01*
X0126704Y0160357D02*
X0130065Y0160357D01*
X0130182Y0162754D02*
X0125300Y0162754D01*
X0125300Y0163952D02*
X0130831Y0163952D01*
X0132309Y0165151D02*
X0125300Y0165151D01*
X0125300Y0166349D02*
X0183675Y0166349D01*
X0183675Y0165151D02*
X0176684Y0165151D01*
X0178187Y0163952D02*
X0183675Y0163952D01*
X0183675Y0162754D02*
X0178800Y0162754D01*
X0179025Y0161555D02*
X0184758Y0161555D01*
X0185957Y0160357D02*
X0178949Y0160357D01*
X0178453Y0159158D02*
X0187155Y0159158D01*
X0188354Y0157960D02*
X0177349Y0157960D01*
X0174425Y0156761D02*
X0189552Y0156761D01*
X0190751Y0155563D02*
X0174425Y0155563D01*
X0174425Y0154364D02*
X0191949Y0154364D01*
X0193148Y0153166D02*
X0174425Y0153166D01*
X0174425Y0151967D02*
X0194346Y0151967D01*
X0195545Y0150769D02*
X0174596Y0150769D01*
X0175794Y0149570D02*
X0196743Y0149570D01*
X0197942Y0148372D02*
X0176425Y0148372D01*
X0176425Y0147173D02*
X0198025Y0147173D01*
X0198025Y0145975D02*
X0176425Y0145975D01*
X0175741Y0144776D02*
X0198709Y0144776D01*
X0199908Y0143578D02*
X0174542Y0143578D01*
X0170515Y0142379D02*
X0225500Y0142379D01*
X0225500Y0142960D02*
X0225500Y0141290D01*
X0226139Y0139746D01*
X0227321Y0138564D01*
X0228865Y0137925D01*
X0235735Y0137925D01*
X0237279Y0138564D01*
X0238461Y0139746D01*
X0239100Y0141290D01*
X0239100Y0142960D01*
X0238461Y0144504D01*
X0237279Y0145686D01*
X0235735Y0146325D01*
X0228865Y0146325D01*
X0227321Y0145686D01*
X0226139Y0144504D01*
X0225500Y0142960D01*
X0225756Y0143578D02*
X0204542Y0143578D01*
X0205741Y0144776D02*
X0226411Y0144776D01*
X0228019Y0145975D02*
X0206425Y0145975D01*
X0206425Y0147173D02*
X0245250Y0147173D01*
X0245250Y0145975D02*
X0236581Y0145975D01*
X0238188Y0144776D02*
X0245250Y0144776D01*
X0245250Y0143578D02*
X0238844Y0143578D01*
X0239100Y0142379D02*
X0245250Y0142379D01*
X0245250Y0141181D02*
X0239055Y0141181D01*
X0238558Y0139982D02*
X0245250Y0139982D01*
X0245250Y0138784D02*
X0237498Y0138784D01*
X0235735Y0136325D02*
X0237279Y0135686D01*
X0238461Y0134504D01*
X0239100Y0132960D01*
X0239100Y0131290D01*
X0238461Y0129746D01*
X0237279Y0128564D01*
X0235735Y0127925D01*
X0228865Y0127925D01*
X0227321Y0128564D01*
X0226139Y0129746D01*
X0225500Y0131290D01*
X0225500Y0132960D01*
X0226139Y0134504D01*
X0227321Y0135686D01*
X0228865Y0136325D01*
X0235735Y0136325D01*
X0237777Y0135188D02*
X0245250Y0135188D01*
X0245250Y0133990D02*
X0238674Y0133990D01*
X0239100Y0132791D02*
X0245250Y0132791D01*
X0245250Y0131593D02*
X0239100Y0131593D01*
X0238729Y0130394D02*
X0245250Y0130394D01*
X0245250Y0129196D02*
X0237910Y0129196D01*
X0235909Y0127997D02*
X0245250Y0127997D01*
X0245250Y0126799D02*
X0226938Y0126799D01*
X0227837Y0125899D02*
X0221525Y0132211D01*
X0221525Y0135605D01*
X0218830Y0138300D01*
X0215020Y0138300D01*
X0212620Y0135900D01*
X0163514Y0135900D01*
X0162225Y0134611D01*
X0162139Y0134525D01*
X0159310Y0134525D01*
X0156850Y0132065D01*
X0156850Y0129236D01*
X0153850Y0126236D01*
X0153850Y0122693D01*
X0151300Y0120143D01*
X0151300Y0116207D01*
X0154082Y0113425D01*
X0158018Y0113425D01*
X0160800Y0116207D01*
X0160800Y0120143D01*
X0158250Y0122693D01*
X0158250Y0124414D01*
X0159961Y0126125D01*
X0162790Y0126125D01*
X0165250Y0128585D01*
X0165250Y0131414D01*
X0165336Y0131500D01*
X0212620Y0131500D01*
X0215020Y0129100D01*
X0218414Y0129100D01*
X0225500Y0122014D01*
X0225500Y0121290D01*
X0226139Y0119746D01*
X0227321Y0118564D01*
X0228865Y0117925D01*
X0235735Y0117925D01*
X0237279Y0118564D01*
X0238461Y0119746D01*
X0239100Y0121290D01*
X0239100Y0122960D01*
X0238461Y0124504D01*
X0237279Y0125686D01*
X0235735Y0126325D01*
X0228865Y0126325D01*
X0227837Y0125899D01*
X0228691Y0127997D02*
X0225739Y0127997D01*
X0226690Y0129196D02*
X0224541Y0129196D01*
X0223342Y0130394D02*
X0225871Y0130394D01*
X0225500Y0131593D02*
X0222144Y0131593D01*
X0221525Y0132791D02*
X0225500Y0132791D01*
X0225926Y0133990D02*
X0221525Y0133990D01*
X0221525Y0135188D02*
X0226823Y0135188D01*
X0220744Y0136387D02*
X0245250Y0136387D01*
X0245250Y0137585D02*
X0219545Y0137585D01*
X0226042Y0139982D02*
X0168118Y0139982D01*
X0166920Y0138784D02*
X0227102Y0138784D01*
X0225545Y0141181D02*
X0169317Y0141181D01*
X0165475Y0140450D02*
X0156175Y0140450D01*
X0139975Y0124250D01*
X0130525Y0124250D01*
X0126475Y0120200D01*
X0126475Y0113850D01*
X0112450Y0099825D01*
X0106914Y0102828D02*
X0101675Y0102828D01*
X0101675Y0104027D02*
X0113541Y0104027D01*
X0114739Y0105225D02*
X0101675Y0105225D01*
X0101675Y0106424D02*
X0107311Y0106424D01*
X0106216Y0107622D02*
X0101675Y0107622D01*
X0101675Y0108821D02*
X0105720Y0108821D01*
X0105650Y0110019D02*
X0101675Y0110019D01*
X0101675Y0111218D02*
X0105881Y0111218D01*
X0106502Y0112416D02*
X0101675Y0112416D01*
X0101675Y0113615D02*
X0108024Y0113615D01*
X0108080Y0116012D02*
X0100024Y0116012D01*
X0098826Y0117210D02*
X0106525Y0117210D01*
X0105890Y0118409D02*
X0097627Y0118409D01*
X0096429Y0119607D02*
X0105650Y0119607D01*
X0105710Y0120806D02*
X0095230Y0120806D01*
X0094032Y0122004D02*
X0106207Y0122004D01*
X0107288Y0123203D02*
X0092833Y0123203D01*
X0091635Y0124401D02*
X0113915Y0124401D01*
X0115114Y0125600D02*
X0073325Y0125600D01*
X0073325Y0124401D02*
X0083915Y0124401D01*
X0085525Y0122900D02*
X0090025Y0122900D01*
X0099475Y0113450D01*
X0099475Y0101300D01*
X0106225Y0094550D01*
X0130375Y0094550D01*
X0131725Y0093200D01*
X0135925Y0093240D02*
X0157525Y0093240D01*
X0157525Y0092111D02*
X0157525Y0094940D01*
X0159985Y0097400D01*
X0162814Y0097400D01*
X0184500Y0119086D01*
X0185789Y0120375D01*
X0212620Y0120375D01*
X0215020Y0122775D01*
X0218830Y0122775D01*
X0221525Y0120080D01*
X0221525Y0116686D01*
X0223886Y0114325D01*
X0226065Y0114325D01*
X0226139Y0114504D01*
X0227321Y0115686D01*
X0228865Y0116325D01*
X0235735Y0116325D01*
X0237279Y0115686D01*
X0238461Y0114504D01*
X0239100Y0112960D01*
X0239100Y0111290D01*
X0238461Y0109746D01*
X0237279Y0108564D01*
X0235735Y0107925D01*
X0228865Y0107925D01*
X0227321Y0108564D01*
X0226139Y0109746D01*
X0226065Y0109925D01*
X0222064Y0109925D01*
X0220775Y0111214D01*
X0218414Y0113575D01*
X0215020Y0113575D01*
X0212620Y0115975D01*
X0187611Y0115975D01*
X0165925Y0094289D01*
X0165925Y0091460D01*
X0163465Y0089000D01*
X0160636Y0089000D01*
X0158250Y0086614D01*
X0158250Y0086242D01*
X0160800Y0083693D01*
X0160800Y0079757D01*
X0158018Y0076975D01*
X0154082Y0076975D01*
X0151300Y0079757D01*
X0151300Y0083693D01*
X0153850Y0086242D01*
X0153850Y0088436D01*
X0157525Y0092111D01*
X0157455Y0092042D02*
X0135925Y0092042D01*
X0135308Y0090843D02*
X0156257Y0090843D01*
X0155058Y0089645D02*
X0134109Y0089645D01*
X0129341Y0089645D02*
X0112650Y0089645D01*
X0112650Y0089625D02*
X0119250Y0089625D01*
X0119250Y0089494D01*
X0119147Y0088841D01*
X0118942Y0088213D01*
X0118642Y0087624D01*
X0118254Y0087089D01*
X0117786Y0086621D01*
X0117251Y0086233D01*
X0116662Y0085933D01*
X0116034Y0085728D01*
X0115381Y0085625D01*
X0112650Y0085625D01*
X0112650Y0089625D01*
X0112250Y0089625D02*
X0112250Y0085625D01*
X0109519Y0085625D01*
X0108866Y0085728D01*
X0108238Y0085933D01*
X0107649Y0086233D01*
X0107114Y0086621D01*
X0106646Y0087089D01*
X0106258Y0087624D01*
X0105958Y0088213D01*
X0105753Y0088841D01*
X0105650Y0089494D01*
X0105650Y0089625D01*
X0112250Y0089625D01*
X0112250Y0089645D02*
X0100325Y0089645D01*
X0100325Y0090843D02*
X0105765Y0090843D01*
X0106269Y0092042D02*
X0100325Y0092042D01*
X0100325Y0093240D02*
X0104424Y0093240D01*
X0103225Y0094439D02*
X0100325Y0094439D01*
X0100325Y0095637D02*
X0102027Y0095637D01*
X0100828Y0096836D02*
X0099626Y0096836D01*
X0099629Y0098034D02*
X0098427Y0098034D01*
X0098431Y0099233D02*
X0097229Y0099233D01*
X0097275Y0100431D02*
X0096030Y0100431D01*
X0094831Y0101630D02*
X0097275Y0101630D01*
X0097275Y0102828D02*
X0093633Y0102828D01*
X0092434Y0104027D02*
X0097275Y0104027D01*
X0097275Y0105225D02*
X0091236Y0105225D01*
X0090037Y0106424D02*
X0097275Y0106424D01*
X0097275Y0107622D02*
X0088684Y0107622D01*
X0089180Y0108821D02*
X0097275Y0108821D01*
X0097275Y0110019D02*
X0089250Y0110019D01*
X0089019Y0111218D02*
X0097275Y0111218D01*
X0097275Y0112416D02*
X0088398Y0112416D01*
X0086876Y0113615D02*
X0096199Y0113615D01*
X0095000Y0114813D02*
X0084650Y0114813D01*
X0086820Y0116012D02*
X0093802Y0116012D01*
X0092603Y0117210D02*
X0088375Y0117210D01*
X0089009Y0118409D02*
X0091405Y0118409D01*
X0090206Y0119607D02*
X0089250Y0119607D01*
X0085525Y0122900D02*
X0082450Y0119825D01*
X0082450Y0109825D01*
X0078024Y0113615D02*
X0073325Y0113615D01*
X0073325Y0114813D02*
X0080250Y0114813D01*
X0078080Y0116012D02*
X0073325Y0116012D01*
X0073325Y0117210D02*
X0076525Y0117210D01*
X0075890Y0118409D02*
X0073325Y0118409D01*
X0073325Y0119607D02*
X0075650Y0119607D01*
X0075710Y0120806D02*
X0073325Y0120806D01*
X0073325Y0122004D02*
X0076207Y0122004D01*
X0077288Y0123203D02*
X0073325Y0123203D01*
X0073410Y0126799D02*
X0116312Y0126799D01*
X0117511Y0127997D02*
X0074608Y0127997D01*
X0075807Y0129196D02*
X0118709Y0129196D01*
X0119908Y0130394D02*
X0077005Y0130394D01*
X0078204Y0131593D02*
X0121106Y0131593D01*
X0122950Y0130325D02*
X0131050Y0130325D01*
X0135250Y0130394D02*
X0143008Y0130394D01*
X0144206Y0131593D02*
X0135250Y0131593D01*
X0134524Y0132791D02*
X0145405Y0132791D01*
X0146603Y0133990D02*
X0133325Y0133990D01*
X0128775Y0133990D02*
X0080601Y0133990D01*
X0079402Y0132791D02*
X0127576Y0132791D01*
X0122950Y0130325D02*
X0112450Y0119825D01*
X0112450Y0109825D01*
X0119763Y0104027D02*
X0169441Y0104027D01*
X0170639Y0105225D02*
X0120962Y0105225D01*
X0122160Y0106424D02*
X0171838Y0106424D01*
X0173036Y0107622D02*
X0123359Y0107622D01*
X0124557Y0108821D02*
X0174235Y0108821D01*
X0175433Y0110019D02*
X0125756Y0110019D01*
X0126954Y0111218D02*
X0176632Y0111218D01*
X0177830Y0112416D02*
X0128153Y0112416D01*
X0128675Y0113615D02*
X0133893Y0113615D01*
X0134082Y0113425D02*
X0135850Y0113425D01*
X0135850Y0117975D01*
X0131300Y0117975D01*
X0131300Y0116207D01*
X0134082Y0113425D01*
X0135850Y0113615D02*
X0136250Y0113615D01*
X0136250Y0113425D02*
X0138018Y0113425D01*
X0140800Y0116207D01*
X0140800Y0117975D01*
X0136250Y0117975D01*
X0136250Y0113425D01*
X0136250Y0114813D02*
X0135850Y0114813D01*
X0135850Y0116012D02*
X0136250Y0116012D01*
X0136250Y0117210D02*
X0135850Y0117210D01*
X0132694Y0114813D02*
X0128675Y0114813D01*
X0128675Y0116012D02*
X0131496Y0116012D01*
X0131300Y0117210D02*
X0128675Y0117210D01*
X0128675Y0118409D02*
X0131300Y0118409D01*
X0131300Y0119607D02*
X0128994Y0119607D01*
X0130192Y0120806D02*
X0131963Y0120806D01*
X0131391Y0122004D02*
X0133162Y0122004D01*
X0138938Y0122004D02*
X0153162Y0122004D01*
X0153850Y0123203D02*
X0142039Y0123203D01*
X0143238Y0124401D02*
X0153850Y0124401D01*
X0153850Y0125600D02*
X0144436Y0125600D01*
X0145635Y0126799D02*
X0154412Y0126799D01*
X0155611Y0127997D02*
X0146833Y0127997D01*
X0148032Y0129196D02*
X0156809Y0129196D01*
X0156850Y0130394D02*
X0149230Y0130394D01*
X0150429Y0131593D02*
X0156850Y0131593D01*
X0157576Y0132791D02*
X0151627Y0132791D01*
X0152826Y0133990D02*
X0158775Y0133990D01*
X0162802Y0135188D02*
X0154024Y0135188D01*
X0155223Y0136387D02*
X0213106Y0136387D01*
X0214305Y0137585D02*
X0156421Y0137585D01*
X0153794Y0141181D02*
X0103842Y0141181D01*
X0105040Y0142379D02*
X0154993Y0142379D01*
X0153975Y0141361D02*
X0153975Y0141361D01*
X0152596Y0139982D02*
X0102643Y0139982D01*
X0101445Y0138784D02*
X0151397Y0138784D01*
X0150199Y0137585D02*
X0100246Y0137585D01*
X0099048Y0136387D02*
X0149000Y0136387D01*
X0147802Y0135188D02*
X0097849Y0135188D01*
X0096421Y0139982D02*
X0065225Y0139982D01*
X0065225Y0138784D02*
X0079172Y0138784D01*
X0077974Y0137585D02*
X0065225Y0137585D01*
X0065225Y0136387D02*
X0076775Y0136387D01*
X0075577Y0135188D02*
X0065225Y0135188D01*
X0065225Y0133990D02*
X0074378Y0133990D01*
X0073180Y0132791D02*
X0065225Y0132791D01*
X0065225Y0131593D02*
X0071981Y0131593D01*
X0070783Y0130394D02*
X0065225Y0130394D01*
X0065225Y0129196D02*
X0069584Y0129196D01*
X0068925Y0127997D02*
X0065225Y0127997D01*
X0065225Y0126799D02*
X0068925Y0126799D01*
X0068925Y0125600D02*
X0065225Y0125600D01*
X0065225Y0124401D02*
X0068925Y0124401D01*
X0068925Y0123203D02*
X0065225Y0123203D01*
X0065225Y0122004D02*
X0068925Y0122004D01*
X0068925Y0120806D02*
X0065225Y0120806D01*
X0065225Y0119607D02*
X0068925Y0119607D01*
X0068925Y0118409D02*
X0065225Y0118409D01*
X0065225Y0117210D02*
X0068925Y0117210D01*
X0068925Y0116012D02*
X0065225Y0116012D01*
X0065225Y0114813D02*
X0068925Y0114813D01*
X0068925Y0113615D02*
X0065225Y0113615D01*
X0065225Y0112416D02*
X0068925Y0112416D01*
X0068925Y0111218D02*
X0065225Y0111218D01*
X0065225Y0110019D02*
X0068925Y0110019D01*
X0068925Y0108821D02*
X0065225Y0108821D01*
X0065225Y0107622D02*
X0069116Y0107622D01*
X0070315Y0106424D02*
X0066412Y0106424D01*
X0067611Y0105225D02*
X0071513Y0105225D01*
X0072712Y0104027D02*
X0068809Y0104027D01*
X0070008Y0102828D02*
X0073910Y0102828D01*
X0069900Y0099825D02*
X0063025Y0106700D01*
X0063025Y0129500D01*
X0063025Y0148550D01*
X0068950Y0154475D01*
X0069500Y0154475D01*
X0073700Y0154364D02*
X0075300Y0154364D01*
X0075300Y0153166D02*
X0073700Y0153166D01*
X0073700Y0151967D02*
X0075300Y0151967D01*
X0075300Y0150769D02*
X0073700Y0150769D01*
X0073700Y0149570D02*
X0075300Y0149570D01*
X0075328Y0148372D02*
X0073672Y0148372D01*
X0073175Y0147173D02*
X0075825Y0147173D01*
X0076861Y0145975D02*
X0072139Y0145975D01*
X0066861Y0145975D02*
X0065225Y0145975D01*
X0065225Y0147173D02*
X0065825Y0147173D01*
X0065225Y0144776D02*
X0101215Y0144776D01*
X0100016Y0143578D02*
X0065225Y0143578D01*
X0065225Y0142379D02*
X0098818Y0142379D01*
X0097619Y0141181D02*
X0065225Y0141181D01*
X0060825Y0141181D02*
X0056425Y0141181D01*
X0056425Y0142379D02*
X0060825Y0142379D01*
X0060825Y0143578D02*
X0056425Y0143578D01*
X0056425Y0144635D02*
X0058600Y0146810D01*
X0058600Y0149639D01*
X0080411Y0171450D01*
X0080411Y0171450D01*
X0081700Y0172739D01*
X0081700Y0180840D01*
X0081879Y0180914D01*
X0083061Y0182096D01*
X0083700Y0183640D01*
X0083700Y0190510D01*
X0083061Y0192054D01*
X0081879Y0193236D01*
X0080335Y0193875D01*
X0078665Y0193875D01*
X0077121Y0193236D01*
X0075939Y0192054D01*
X0075300Y0190510D01*
X0075300Y0183640D01*
X0075939Y0182096D01*
X0077121Y0180914D01*
X0077300Y0180840D01*
X0077300Y0174561D01*
X0062950Y0160211D01*
X0062950Y0161675D01*
X0062204Y0163476D01*
X0060826Y0164854D01*
X0059025Y0165600D01*
X0057075Y0165600D01*
X0056500Y0165362D01*
X0045250Y0176611D01*
X0045250Y0176648D01*
X0045638Y0176809D01*
X0046923Y0178094D01*
X0047618Y0179773D01*
X0047618Y0187527D01*
X0046923Y0189206D01*
X0045638Y0190491D01*
X0043959Y0191187D01*
X0042141Y0191187D01*
X0040462Y0190491D01*
X0039177Y0189206D01*
X0038481Y0187527D01*
X0038481Y0179773D01*
X0039177Y0178094D01*
X0040462Y0176809D01*
X0040850Y0176648D01*
X0040850Y0174789D01*
X0053388Y0162250D01*
X0053150Y0161675D01*
X0053150Y0159725D01*
X0053896Y0157924D01*
X0055274Y0156546D01*
X0057075Y0155800D01*
X0058539Y0155800D01*
X0055489Y0152750D01*
X0052660Y0152750D01*
X0050200Y0150290D01*
X0050200Y0146810D01*
X0052025Y0144985D01*
X0052025Y0138915D01*
X0050025Y0136915D01*
X0050025Y0133435D01*
X0052485Y0130975D01*
X0055965Y0130975D01*
X0058425Y0133435D01*
X0058425Y0136915D01*
X0056425Y0138915D01*
X0056425Y0144635D01*
X0056566Y0144776D02*
X0060825Y0144776D01*
X0060825Y0145975D02*
X0057764Y0145975D01*
X0058600Y0147173D02*
X0060825Y0147173D01*
X0060825Y0148372D02*
X0058600Y0148372D01*
X0058600Y0149570D02*
X0060934Y0149570D01*
X0062132Y0150769D02*
X0059730Y0150769D01*
X0060929Y0151967D02*
X0063331Y0151967D01*
X0064529Y0153166D02*
X0062127Y0153166D01*
X0063326Y0154364D02*
X0065300Y0154364D01*
X0065405Y0155563D02*
X0064524Y0155563D01*
X0065723Y0156761D02*
X0065901Y0156761D01*
X0066921Y0157960D02*
X0067045Y0157960D01*
X0068120Y0159158D02*
X0081072Y0159158D01*
X0082271Y0160357D02*
X0069318Y0160357D01*
X0070517Y0161555D02*
X0083469Y0161555D01*
X0084668Y0162754D02*
X0071715Y0162754D01*
X0072914Y0163952D02*
X0085125Y0163952D01*
X0085125Y0165151D02*
X0074112Y0165151D01*
X0075311Y0166349D02*
X0085125Y0166349D01*
X0085125Y0167548D02*
X0076509Y0167548D01*
X0077708Y0168746D02*
X0085125Y0168746D01*
X0085125Y0169945D02*
X0078906Y0169945D01*
X0080105Y0171143D02*
X0085125Y0171143D01*
X0085125Y0172342D02*
X0081303Y0172342D01*
X0081700Y0173540D02*
X0085125Y0173540D01*
X0085125Y0174739D02*
X0081700Y0174739D01*
X0081700Y0175937D02*
X0085125Y0175937D01*
X0085125Y0177136D02*
X0081700Y0177136D01*
X0081700Y0178334D02*
X0085125Y0178334D01*
X0085125Y0179533D02*
X0081700Y0179533D01*
X0081700Y0180732D02*
X0085125Y0180732D01*
X0085125Y0181930D02*
X0082895Y0181930D01*
X0083488Y0183129D02*
X0085125Y0183129D01*
X0085125Y0184327D02*
X0083700Y0184327D01*
X0083700Y0185526D02*
X0085125Y0185526D01*
X0085125Y0186724D02*
X0083700Y0186724D01*
X0083700Y0187923D02*
X0085125Y0187923D01*
X0085125Y0189121D02*
X0083700Y0189121D01*
X0083700Y0190320D02*
X0084969Y0190320D01*
X0083771Y0191518D02*
X0083283Y0191518D01*
X0082572Y0192717D02*
X0082398Y0192717D01*
X0081374Y0193915D02*
X0063171Y0193915D01*
X0064370Y0192717D02*
X0066602Y0192717D01*
X0067121Y0193236D02*
X0065939Y0192054D01*
X0065674Y0191413D01*
X0060436Y0196650D01*
X0039839Y0196650D01*
X0038550Y0195361D01*
X0034254Y0191065D01*
X0033959Y0191187D01*
X0032141Y0191187D01*
X0030462Y0190491D01*
X0029177Y0189206D01*
X0028481Y0187527D01*
X0028481Y0179773D01*
X0029177Y0178094D01*
X0030462Y0176809D01*
X0032141Y0176113D01*
X0033959Y0176113D01*
X0035638Y0176809D01*
X0036923Y0178094D01*
X0037618Y0179773D01*
X0037618Y0187527D01*
X0037419Y0188008D01*
X0041661Y0192250D01*
X0058614Y0192250D01*
X0065300Y0185564D01*
X0065300Y0183640D01*
X0065939Y0182096D01*
X0067121Y0180914D01*
X0068665Y0180275D01*
X0070335Y0180275D01*
X0071879Y0180914D01*
X0073061Y0182096D01*
X0073700Y0183640D01*
X0073700Y0190510D01*
X0073061Y0192054D01*
X0071879Y0193236D01*
X0070335Y0193875D01*
X0068665Y0193875D01*
X0067121Y0193236D01*
X0065717Y0191518D02*
X0065568Y0191518D01*
X0061743Y0189121D02*
X0046958Y0189121D01*
X0047455Y0187923D02*
X0062941Y0187923D01*
X0064140Y0186724D02*
X0047618Y0186724D01*
X0047618Y0185526D02*
X0065300Y0185526D01*
X0065300Y0184327D02*
X0047618Y0184327D01*
X0047618Y0183129D02*
X0065512Y0183129D01*
X0066105Y0181930D02*
X0047618Y0181930D01*
X0047618Y0180732D02*
X0067562Y0180732D01*
X0071438Y0180732D02*
X0077300Y0180732D01*
X0077300Y0179533D02*
X0047519Y0179533D01*
X0047023Y0178334D02*
X0077300Y0178334D01*
X0077300Y0177136D02*
X0045965Y0177136D01*
X0045924Y0175937D02*
X0077300Y0175937D01*
X0077300Y0174739D02*
X0047122Y0174739D01*
X0048321Y0173540D02*
X0076279Y0173540D01*
X0075081Y0172342D02*
X0049519Y0172342D01*
X0050718Y0171143D02*
X0073882Y0171143D01*
X0072684Y0169945D02*
X0051916Y0169945D01*
X0053115Y0168746D02*
X0071485Y0168746D01*
X0070287Y0167548D02*
X0054313Y0167548D01*
X0055512Y0166349D02*
X0069088Y0166349D01*
X0067890Y0165151D02*
X0060109Y0165151D01*
X0061727Y0163952D02*
X0066691Y0163952D01*
X0065493Y0162754D02*
X0062503Y0162754D01*
X0062950Y0161555D02*
X0064294Y0161555D01*
X0063096Y0160357D02*
X0062950Y0160357D01*
X0058050Y0160700D02*
X0043050Y0175700D01*
X0043050Y0183650D01*
X0038481Y0183129D02*
X0037618Y0183129D01*
X0037618Y0184327D02*
X0038481Y0184327D01*
X0038481Y0185526D02*
X0037618Y0185526D01*
X0037618Y0186724D02*
X0038481Y0186724D01*
X0038645Y0187923D02*
X0037455Y0187923D01*
X0038532Y0189121D02*
X0039142Y0189121D01*
X0039731Y0190320D02*
X0040290Y0190320D01*
X0040929Y0191518D02*
X0059346Y0191518D01*
X0060544Y0190320D02*
X0045810Y0190320D01*
X0040750Y0194450D02*
X0059525Y0194450D01*
X0069500Y0184475D01*
X0073700Y0184327D02*
X0075300Y0184327D01*
X0075300Y0185526D02*
X0073700Y0185526D01*
X0073700Y0186724D02*
X0075300Y0186724D01*
X0075300Y0187923D02*
X0073700Y0187923D01*
X0073700Y0189121D02*
X0075300Y0189121D01*
X0075300Y0190320D02*
X0073700Y0190320D01*
X0073283Y0191518D02*
X0075717Y0191518D01*
X0076602Y0192717D02*
X0072398Y0192717D01*
X0077778Y0197511D02*
X0034772Y0197511D01*
X0035970Y0198709D02*
X0076580Y0198709D01*
X0078977Y0196312D02*
X0060774Y0196312D01*
X0061973Y0195114D02*
X0080175Y0195114D01*
X0080405Y0201106D02*
X0360018Y0201106D01*
X0315192Y0183129D02*
X0314540Y0183129D01*
X0341034Y0169945D02*
X0345266Y0169945D01*
X0344190Y0168746D02*
X0342110Y0168746D01*
X0342606Y0167548D02*
X0343694Y0167548D01*
X0343581Y0166349D02*
X0342718Y0166349D01*
X0342718Y0165151D02*
X0343581Y0165151D01*
X0343581Y0163952D02*
X0342718Y0163952D01*
X0342718Y0162754D02*
X0343581Y0162754D01*
X0343194Y0161555D02*
X0342718Y0161555D01*
X0335359Y0156761D02*
X0334623Y0156761D01*
X0333424Y0155563D02*
X0337202Y0155563D01*
X0336003Y0154364D02*
X0332226Y0154364D01*
X0331027Y0153166D02*
X0334805Y0153166D01*
X0333606Y0151967D02*
X0329829Y0151967D01*
X0328630Y0150769D02*
X0332407Y0150769D01*
X0331209Y0149570D02*
X0268285Y0149570D01*
X0266814Y0148372D02*
X0330010Y0148372D01*
X0326003Y0154364D02*
X0268519Y0154364D01*
X0267402Y0155563D02*
X0327202Y0155563D01*
X0375000Y0124401D02*
X0268503Y0124401D01*
X0269000Y0123203D02*
X0375000Y0123203D01*
X0375000Y0122004D02*
X0269100Y0122004D01*
X0268900Y0120806D02*
X0375000Y0120806D01*
X0375000Y0119607D02*
X0268322Y0119607D01*
X0266904Y0118409D02*
X0375000Y0118409D01*
X0375000Y0117210D02*
X0249650Y0117210D01*
X0249650Y0116012D02*
X0258109Y0116012D01*
X0258865Y0116325D02*
X0257321Y0115686D01*
X0256139Y0114504D01*
X0255500Y0112960D01*
X0255500Y0111290D01*
X0256139Y0109746D01*
X0257321Y0108564D01*
X0258865Y0107925D01*
X0265735Y0107925D01*
X0267279Y0108564D01*
X0268461Y0109746D01*
X0269100Y0111290D01*
X0269100Y0112960D01*
X0268461Y0114504D01*
X0267279Y0115686D01*
X0265735Y0116325D01*
X0258865Y0116325D01*
X0257696Y0118409D02*
X0249650Y0118409D01*
X0249650Y0119607D02*
X0256278Y0119607D01*
X0255700Y0120806D02*
X0249650Y0120806D01*
X0249650Y0122004D02*
X0255500Y0122004D01*
X0255600Y0123203D02*
X0249650Y0123203D01*
X0249650Y0124401D02*
X0256097Y0124401D01*
X0257235Y0125600D02*
X0249650Y0125600D01*
X0245250Y0125600D02*
X0237365Y0125600D01*
X0238503Y0124401D02*
X0245250Y0124401D01*
X0245250Y0123203D02*
X0239000Y0123203D01*
X0239100Y0122004D02*
X0245250Y0122004D01*
X0245250Y0120806D02*
X0238900Y0120806D01*
X0238322Y0119607D02*
X0245250Y0119607D01*
X0245250Y0118409D02*
X0236904Y0118409D01*
X0236491Y0116012D02*
X0245250Y0116012D01*
X0245250Y0117210D02*
X0221525Y0117210D01*
X0221525Y0118409D02*
X0227696Y0118409D01*
X0226278Y0119607D02*
X0221525Y0119607D01*
X0220799Y0120806D02*
X0225700Y0120806D01*
X0225500Y0122004D02*
X0219601Y0122004D01*
X0223112Y0124401D02*
X0158250Y0124401D01*
X0158250Y0123203D02*
X0224311Y0123203D01*
X0221914Y0125600D02*
X0159436Y0125600D01*
X0156050Y0125325D02*
X0161050Y0130325D01*
X0164425Y0133700D01*
X0216925Y0133700D01*
X0228500Y0122125D01*
X0232300Y0122125D01*
X0228109Y0116012D02*
X0222199Y0116012D01*
X0223398Y0114813D02*
X0226449Y0114813D01*
X0222975Y0112125D02*
X0232300Y0112125D01*
X0238151Y0114813D02*
X0245250Y0114813D01*
X0245250Y0113615D02*
X0238829Y0113615D01*
X0239100Y0112416D02*
X0245250Y0112416D01*
X0245250Y0111218D02*
X0239070Y0111218D01*
X0238574Y0110019D02*
X0245250Y0110019D01*
X0245250Y0108821D02*
X0237536Y0108821D01*
X0237739Y0105225D02*
X0243389Y0105225D01*
X0242191Y0104027D02*
X0238658Y0104027D01*
X0239100Y0102828D02*
X0240992Y0102828D01*
X0239794Y0101630D02*
X0239100Y0101630D01*
X0246625Y0105350D02*
X0233400Y0092125D01*
X0232300Y0092125D01*
X0238359Y0089645D02*
X0244425Y0089645D01*
X0244425Y0090843D02*
X0238915Y0090843D01*
X0239100Y0092042D02*
X0244425Y0092042D01*
X0244425Y0093240D02*
X0238984Y0093240D01*
X0238825Y0094439D02*
X0244425Y0094439D01*
X0244425Y0095637D02*
X0240023Y0095637D01*
X0241222Y0096836D02*
X0244425Y0096836D01*
X0244425Y0098034D02*
X0242420Y0098034D01*
X0243619Y0099233D02*
X0244425Y0099233D01*
X0248825Y0099233D02*
X0256653Y0099233D01*
X0256139Y0099746D02*
X0257321Y0098564D01*
X0258865Y0097925D01*
X0265735Y0097925D01*
X0267279Y0098564D01*
X0268461Y0099746D01*
X0269100Y0101290D01*
X0269100Y0102960D01*
X0268461Y0104504D01*
X0267279Y0105686D01*
X0265735Y0106325D01*
X0258865Y0106325D01*
X0257321Y0105686D01*
X0256139Y0104504D01*
X0255500Y0102960D01*
X0255500Y0101290D01*
X0256139Y0099746D01*
X0255856Y0100431D02*
X0248825Y0100431D01*
X0248825Y0101630D02*
X0255500Y0101630D01*
X0255500Y0102828D02*
X0248825Y0102828D01*
X0248825Y0104027D02*
X0255942Y0104027D01*
X0256861Y0105225D02*
X0249612Y0105225D01*
X0249650Y0106424D02*
X0375000Y0106424D01*
X0375000Y0107622D02*
X0249650Y0107622D01*
X0249650Y0108821D02*
X0257064Y0108821D01*
X0256026Y0110019D02*
X0249650Y0110019D01*
X0249650Y0111218D02*
X0255530Y0111218D01*
X0255500Y0112416D02*
X0249650Y0112416D01*
X0249650Y0113615D02*
X0255771Y0113615D01*
X0256449Y0114813D02*
X0249650Y0114813D01*
X0245250Y0107622D02*
X0219808Y0107622D01*
X0221007Y0106424D02*
X0244588Y0106424D01*
X0232300Y0102125D02*
X0230425Y0104000D01*
X0216925Y0104000D01*
X0194650Y0104000D01*
X0161725Y0071075D01*
X0161725Y0056075D01*
X0156725Y0051075D01*
X0156725Y0043925D01*
X0160023Y0040506D02*
X0208494Y0040506D01*
X0207296Y0039307D02*
X0158825Y0039307D01*
X0161222Y0041704D02*
X0209693Y0041704D01*
X0210891Y0042903D02*
X0161475Y0042903D01*
X0161475Y0044101D02*
X0212090Y0044101D01*
X0213288Y0045300D02*
X0161475Y0045300D01*
X0160869Y0046498D02*
X0214487Y0046498D01*
X0215685Y0047697D02*
X0159671Y0047697D01*
X0158925Y0048895D02*
X0226990Y0048895D01*
X0225995Y0050094D02*
X0158925Y0050094D01*
X0160054Y0051292D02*
X0225500Y0051292D01*
X0225500Y0052491D02*
X0164080Y0052491D01*
X0165279Y0053689D02*
X0177996Y0053689D01*
X0178460Y0053225D02*
X0180000Y0053225D01*
X0180000Y0057225D01*
X0180400Y0057225D01*
X0180400Y0057625D01*
X0184400Y0057625D01*
X0184400Y0059165D01*
X0181940Y0061625D01*
X0180400Y0061625D01*
X0180400Y0057625D01*
X0180000Y0057625D01*
X0180000Y0061625D01*
X0178460Y0061625D01*
X0176000Y0059165D01*
X0176000Y0057625D01*
X0180000Y0057625D01*
X0180000Y0057225D01*
X0176000Y0057225D01*
X0176000Y0055685D01*
X0178460Y0053225D01*
X0180000Y0053689D02*
X0180400Y0053689D01*
X0180400Y0053225D02*
X0181940Y0053225D01*
X0184400Y0055685D01*
X0184400Y0057225D01*
X0180400Y0057225D01*
X0180400Y0053225D01*
X0180400Y0054888D02*
X0180000Y0054888D01*
X0180000Y0056086D02*
X0180400Y0056086D01*
X0180400Y0057285D02*
X0186000Y0057285D01*
X0186000Y0058483D02*
X0184400Y0058483D01*
X0183883Y0059682D02*
X0186517Y0059682D01*
X0186000Y0059165D02*
X0186000Y0055685D01*
X0188460Y0053225D01*
X0191940Y0053225D01*
X0193940Y0055225D01*
X0202226Y0055225D01*
X0203122Y0054329D01*
X0204519Y0053750D01*
X0210431Y0053750D01*
X0211828Y0054329D01*
X0212896Y0055397D01*
X0213100Y0055889D01*
X0217161Y0059950D01*
X0226055Y0059950D01*
X0226139Y0059746D01*
X0227321Y0058564D01*
X0228865Y0057925D01*
X0235735Y0057925D01*
X0237279Y0058564D01*
X0238461Y0059746D01*
X0239100Y0061290D01*
X0239100Y0062960D01*
X0238461Y0064504D01*
X0237279Y0065686D01*
X0235735Y0066325D01*
X0228865Y0066325D01*
X0227321Y0065686D01*
X0226139Y0064504D01*
X0226076Y0064350D01*
X0215339Y0064350D01*
X0214050Y0063061D01*
X0211780Y0060791D01*
X0210431Y0061350D01*
X0204519Y0061350D01*
X0203122Y0060771D01*
X0202054Y0059703D01*
X0202021Y0059625D01*
X0193940Y0059625D01*
X0191940Y0061625D01*
X0188460Y0061625D01*
X0186000Y0059165D01*
X0187716Y0060880D02*
X0182684Y0060880D01*
X0180400Y0060880D02*
X0180000Y0060880D01*
X0180000Y0059682D02*
X0180400Y0059682D01*
X0180400Y0058483D02*
X0180000Y0058483D01*
X0180000Y0057285D02*
X0165925Y0057285D01*
X0165925Y0056086D02*
X0176000Y0056086D01*
X0176797Y0054888D02*
X0165925Y0054888D01*
X0165256Y0058483D02*
X0176000Y0058483D01*
X0176517Y0059682D02*
X0164058Y0059682D01*
X0163925Y0060880D02*
X0177716Y0060880D01*
X0184400Y0056086D02*
X0186000Y0056086D01*
X0186797Y0054888D02*
X0183603Y0054888D01*
X0182404Y0053689D02*
X0187996Y0053689D01*
X0192404Y0053689D02*
X0225802Y0053689D01*
X0226523Y0054888D02*
X0212387Y0054888D01*
X0213298Y0056086D02*
X0228288Y0056086D01*
X0227517Y0058483D02*
X0215695Y0058483D01*
X0216893Y0059682D02*
X0226203Y0059682D01*
X0226128Y0064476D02*
X0163925Y0064476D01*
X0163925Y0065674D02*
X0227310Y0065674D01*
X0228511Y0068071D02*
X0163925Y0068071D01*
X0163925Y0066873D02*
X0244425Y0066873D01*
X0244425Y0068071D02*
X0236089Y0068071D01*
X0235735Y0067925D02*
X0237279Y0068564D01*
X0238461Y0069746D01*
X0239100Y0071290D01*
X0239100Y0072960D01*
X0238461Y0074504D01*
X0237279Y0075686D01*
X0235735Y0076325D01*
X0228865Y0076325D01*
X0227321Y0075686D01*
X0226139Y0074504D01*
X0226065Y0074325D01*
X0216636Y0074325D01*
X0213475Y0077486D01*
X0213475Y0078306D01*
X0212896Y0079703D01*
X0211828Y0080771D01*
X0210431Y0081350D01*
X0204519Y0081350D01*
X0203122Y0080771D01*
X0202101Y0079750D01*
X0194065Y0079750D01*
X0191940Y0081875D01*
X0188460Y0081875D01*
X0186000Y0079415D01*
X0186000Y0075935D01*
X0188460Y0073475D01*
X0191940Y0073475D01*
X0193815Y0075350D01*
X0202101Y0075350D01*
X0203122Y0074329D01*
X0204519Y0073750D01*
X0210431Y0073750D01*
X0210825Y0073913D01*
X0214814Y0069925D01*
X0226065Y0069925D01*
X0226139Y0069746D01*
X0227321Y0068564D01*
X0228865Y0067925D01*
X0235735Y0067925D01*
X0237985Y0069270D02*
X0244425Y0069270D01*
X0244425Y0070468D02*
X0238760Y0070468D01*
X0239100Y0071667D02*
X0244425Y0071667D01*
X0244425Y0072866D02*
X0239100Y0072866D01*
X0238643Y0074064D02*
X0244425Y0074064D01*
X0244425Y0075263D02*
X0237702Y0075263D01*
X0236512Y0078233D02*
X0237101Y0078533D01*
X0237636Y0078921D01*
X0238104Y0079389D01*
X0238492Y0079924D01*
X0238792Y0080513D01*
X0238997Y0081141D01*
X0239100Y0081794D01*
X0239100Y0081925D01*
X0232500Y0081925D01*
X0232500Y0082325D01*
X0232100Y0082325D01*
X0232100Y0086325D01*
X0229369Y0086325D01*
X0228716Y0086222D01*
X0228088Y0086017D01*
X0227499Y0085717D01*
X0226964Y0085329D01*
X0226496Y0084861D01*
X0226108Y0084326D01*
X0225808Y0083737D01*
X0225603Y0083109D01*
X0225500Y0082456D01*
X0225500Y0082325D01*
X0232100Y0082325D01*
X0232100Y0081925D01*
X0232500Y0081925D01*
X0232500Y0077925D01*
X0235231Y0077925D01*
X0235884Y0078028D01*
X0236512Y0078233D01*
X0237549Y0078858D02*
X0244425Y0078858D01*
X0244425Y0077660D02*
X0213475Y0077660D01*
X0213246Y0078858D02*
X0227051Y0078858D01*
X0226964Y0078921D02*
X0227499Y0078533D01*
X0228088Y0078233D01*
X0228716Y0078028D01*
X0229369Y0077925D01*
X0232100Y0077925D01*
X0232100Y0081925D01*
X0225500Y0081925D01*
X0225500Y0081794D01*
X0225603Y0081141D01*
X0225808Y0080513D01*
X0226108Y0079924D01*
X0226496Y0079389D01*
X0226964Y0078921D01*
X0226040Y0080057D02*
X0212542Y0080057D01*
X0210660Y0081255D02*
X0225585Y0081255D01*
X0225500Y0082454D02*
X0176215Y0082454D01*
X0177413Y0083652D02*
X0225780Y0083652D01*
X0226489Y0084851D02*
X0178612Y0084851D01*
X0179810Y0086049D02*
X0228186Y0086049D01*
X0227606Y0088446D02*
X0182207Y0088446D01*
X0181009Y0087248D02*
X0244425Y0087248D01*
X0244425Y0088446D02*
X0236994Y0088446D01*
X0236414Y0086049D02*
X0244425Y0086049D01*
X0244425Y0084851D02*
X0238111Y0084851D01*
X0238104Y0084861D02*
X0237636Y0085329D01*
X0237101Y0085717D01*
X0236512Y0086017D01*
X0235884Y0086222D01*
X0235231Y0086325D01*
X0232500Y0086325D01*
X0232500Y0082325D01*
X0239100Y0082325D01*
X0239100Y0082456D01*
X0238997Y0083109D01*
X0238792Y0083737D01*
X0238492Y0084326D01*
X0238104Y0084861D01*
X0238820Y0083652D02*
X0244425Y0083652D01*
X0244425Y0082454D02*
X0239100Y0082454D01*
X0239015Y0081255D02*
X0244425Y0081255D01*
X0244425Y0080057D02*
X0238560Y0080057D01*
X0232500Y0080057D02*
X0232100Y0080057D01*
X0232100Y0081255D02*
X0232500Y0081255D01*
X0232500Y0082454D02*
X0232100Y0082454D01*
X0232100Y0083652D02*
X0232500Y0083652D01*
X0232500Y0084851D02*
X0232100Y0084851D01*
X0232100Y0086049D02*
X0232500Y0086049D01*
X0226241Y0089645D02*
X0183406Y0089645D01*
X0184604Y0090843D02*
X0225685Y0090843D01*
X0225500Y0092042D02*
X0185803Y0092042D01*
X0187001Y0093240D02*
X0225616Y0093240D01*
X0226112Y0094439D02*
X0188200Y0094439D01*
X0189398Y0095637D02*
X0227273Y0095637D01*
X0228601Y0098034D02*
X0191796Y0098034D01*
X0192994Y0099233D02*
X0226653Y0099233D01*
X0225856Y0100431D02*
X0219862Y0100431D01*
X0221060Y0101630D02*
X0225500Y0101630D01*
X0227064Y0108821D02*
X0180457Y0108821D01*
X0181656Y0110019D02*
X0221969Y0110019D01*
X0220771Y0111218D02*
X0182854Y0111218D01*
X0184053Y0112416D02*
X0219572Y0112416D01*
X0222975Y0112125D02*
X0216925Y0118175D01*
X0186700Y0118175D01*
X0161725Y0093200D01*
X0156050Y0087525D01*
X0156050Y0081725D01*
X0151300Y0081255D02*
X0140800Y0081255D01*
X0140800Y0081525D02*
X0136250Y0081525D01*
X0136250Y0081925D01*
X0140800Y0081925D01*
X0140800Y0083693D01*
X0138018Y0086475D01*
X0136250Y0086475D01*
X0136250Y0081925D01*
X0135850Y0081925D01*
X0135850Y0086475D01*
X0134082Y0086475D01*
X0131300Y0083693D01*
X0131300Y0081925D01*
X0135850Y0081925D01*
X0135850Y0081525D01*
X0136250Y0081525D01*
X0136250Y0076975D01*
X0138018Y0076975D01*
X0140800Y0079757D01*
X0140800Y0081525D01*
X0140800Y0082454D02*
X0151300Y0082454D01*
X0151300Y0083652D02*
X0140800Y0083652D01*
X0139642Y0084851D02*
X0152458Y0084851D01*
X0153657Y0086049D02*
X0138443Y0086049D01*
X0136250Y0086049D02*
X0135850Y0086049D01*
X0135850Y0084851D02*
X0136250Y0084851D01*
X0136250Y0083652D02*
X0135850Y0083652D01*
X0135850Y0082454D02*
X0136250Y0082454D01*
X0135850Y0081525D02*
X0131300Y0081525D01*
X0131300Y0079757D01*
X0134082Y0076975D01*
X0135850Y0076975D01*
X0135850Y0081525D01*
X0135850Y0081255D02*
X0136250Y0081255D01*
X0136250Y0080057D02*
X0135850Y0080057D01*
X0135850Y0078858D02*
X0136250Y0078858D01*
X0136250Y0077660D02*
X0135850Y0077660D01*
X0133398Y0077660D02*
X0118699Y0077660D01*
X0119196Y0078858D02*
X0132199Y0078858D01*
X0131300Y0080057D02*
X0119250Y0080057D01*
X0119004Y0081255D02*
X0131300Y0081255D01*
X0131300Y0082454D02*
X0118361Y0082454D01*
X0116786Y0083652D02*
X0131300Y0083652D01*
X0132458Y0084851D02*
X0101486Y0084851D01*
X0100325Y0086049D02*
X0108009Y0086049D01*
X0106531Y0087248D02*
X0100325Y0087248D01*
X0100325Y0088446D02*
X0105882Y0088446D01*
X0112250Y0088446D02*
X0112650Y0088446D01*
X0112650Y0087248D02*
X0112250Y0087248D01*
X0112250Y0086049D02*
X0112650Y0086049D01*
X0116891Y0086049D02*
X0133657Y0086049D01*
X0128142Y0090843D02*
X0119135Y0090843D01*
X0118631Y0092042D02*
X0127525Y0092042D01*
X0129421Y0096836D02*
X0118000Y0096836D01*
X0118854Y0098034D02*
X0163448Y0098034D01*
X0164646Y0099233D02*
X0119250Y0099233D01*
X0119250Y0100431D02*
X0165845Y0100431D01*
X0167044Y0101630D02*
X0118848Y0101630D01*
X0118565Y0102828D02*
X0168242Y0102828D01*
X0172068Y0100431D02*
X0187970Y0100431D01*
X0186771Y0099233D02*
X0170869Y0099233D01*
X0169670Y0098034D02*
X0185573Y0098034D01*
X0184374Y0096836D02*
X0168472Y0096836D01*
X0167273Y0095637D02*
X0183176Y0095637D01*
X0181977Y0094439D02*
X0166075Y0094439D01*
X0165925Y0093240D02*
X0180779Y0093240D01*
X0179580Y0092042D02*
X0165925Y0092042D01*
X0165308Y0090843D02*
X0178382Y0090843D01*
X0177183Y0089645D02*
X0164109Y0089645D01*
X0160082Y0088446D02*
X0175985Y0088446D01*
X0174786Y0087248D02*
X0158884Y0087248D01*
X0158443Y0086049D02*
X0173588Y0086049D01*
X0172389Y0084851D02*
X0159642Y0084851D01*
X0160800Y0083652D02*
X0171191Y0083652D01*
X0169992Y0082454D02*
X0160800Y0082454D01*
X0160800Y0081255D02*
X0168794Y0081255D01*
X0167595Y0080057D02*
X0160800Y0080057D01*
X0159901Y0078858D02*
X0166397Y0078858D01*
X0165198Y0077660D02*
X0158702Y0077660D01*
X0161603Y0074064D02*
X0076700Y0074064D01*
X0076700Y0072866D02*
X0076951Y0072866D01*
X0076700Y0075263D02*
X0162801Y0075263D01*
X0164000Y0076461D02*
X0117626Y0076461D01*
X0115885Y0074025D02*
X0109015Y0074025D01*
X0107471Y0073386D01*
X0106289Y0072204D01*
X0105650Y0070660D01*
X0105650Y0068990D01*
X0106289Y0067446D01*
X0107471Y0066264D01*
X0109015Y0065625D01*
X0110250Y0065625D01*
X0110250Y0064025D01*
X0109015Y0064025D01*
X0107471Y0063386D01*
X0106289Y0062204D01*
X0105650Y0060660D01*
X0105650Y0058990D01*
X0106289Y0057446D01*
X0107471Y0056264D01*
X0109015Y0055625D01*
X0113539Y0055625D01*
X0114000Y0055164D01*
X0115289Y0053875D01*
X0127985Y0053875D01*
X0129985Y0051875D01*
X0133465Y0051875D01*
X0135925Y0054335D01*
X0135925Y0057815D01*
X0133465Y0060275D01*
X0129985Y0060275D01*
X0127985Y0058275D01*
X0118954Y0058275D01*
X0119250Y0058990D01*
X0119250Y0060660D01*
X0118611Y0062204D01*
X0117429Y0063386D01*
X0115885Y0064025D01*
X0114650Y0064025D01*
X0114650Y0065625D01*
X0115885Y0065625D01*
X0117429Y0066264D01*
X0118611Y0067446D01*
X0119250Y0068990D01*
X0119250Y0070660D01*
X0118611Y0072204D01*
X0117429Y0073386D01*
X0115885Y0074025D01*
X0117949Y0072866D02*
X0160404Y0072866D01*
X0159525Y0071667D02*
X0118833Y0071667D01*
X0119250Y0070468D02*
X0159525Y0070468D01*
X0159525Y0069270D02*
X0119250Y0069270D01*
X0118870Y0068071D02*
X0159525Y0068071D01*
X0159525Y0066873D02*
X0118038Y0066873D01*
X0116005Y0065674D02*
X0159525Y0065674D01*
X0159525Y0064476D02*
X0114650Y0064476D01*
X0117537Y0063277D02*
X0159525Y0063277D01*
X0159525Y0062079D02*
X0118662Y0062079D01*
X0119159Y0060880D02*
X0159525Y0060880D01*
X0159392Y0059682D02*
X0134058Y0059682D01*
X0135256Y0058483D02*
X0158194Y0058483D01*
X0157525Y0057285D02*
X0135925Y0057285D01*
X0135925Y0056086D02*
X0157525Y0056086D01*
X0157427Y0054888D02*
X0135925Y0054888D01*
X0135279Y0053689D02*
X0156228Y0053689D01*
X0155030Y0052491D02*
X0134080Y0052491D01*
X0134757Y0048675D02*
X0131975Y0045893D01*
X0131975Y0044125D01*
X0136525Y0044125D01*
X0136525Y0048675D01*
X0134757Y0048675D01*
X0133779Y0047697D02*
X0079239Y0047697D01*
X0078041Y0048895D02*
X0154525Y0048895D01*
X0154525Y0050094D02*
X0076842Y0050094D01*
X0076700Y0051292D02*
X0154525Y0051292D01*
X0153779Y0047697D02*
X0139671Y0047697D01*
X0138693Y0048675D02*
X0136925Y0048675D01*
X0136925Y0044125D01*
X0141475Y0044125D01*
X0141475Y0045893D01*
X0138693Y0048675D01*
X0136925Y0047697D02*
X0136525Y0047697D01*
X0136525Y0046498D02*
X0136925Y0046498D01*
X0136925Y0045300D02*
X0136525Y0045300D01*
X0136525Y0044125D02*
X0136925Y0044125D01*
X0136925Y0043725D01*
X0141475Y0043725D01*
X0141475Y0041957D01*
X0138693Y0039175D01*
X0136925Y0039175D01*
X0136925Y0043725D01*
X0136525Y0043725D01*
X0136525Y0039175D01*
X0134757Y0039175D01*
X0131975Y0041957D01*
X0131975Y0043725D01*
X0136525Y0043725D01*
X0136525Y0044125D01*
X0136525Y0044101D02*
X0082835Y0044101D01*
X0084034Y0042903D02*
X0131975Y0042903D01*
X0132228Y0041704D02*
X0085232Y0041704D01*
X0086431Y0040506D02*
X0133427Y0040506D01*
X0134625Y0039307D02*
X0087629Y0039307D01*
X0088828Y0038109D02*
X0206097Y0038109D01*
X0204899Y0036910D02*
X0090026Y0036910D01*
X0091225Y0035712D02*
X0203700Y0035712D01*
X0202502Y0034513D02*
X0092423Y0034513D01*
X0093622Y0033315D02*
X0201303Y0033315D01*
X0200105Y0032116D02*
X0094820Y0032116D01*
X0096019Y0030918D02*
X0198906Y0030918D01*
X0197708Y0029719D02*
X0196810Y0029719D01*
X0191390Y0029719D02*
X0097217Y0029719D01*
X0098416Y0028521D02*
X0190212Y0028521D01*
X0189716Y0027322D02*
X0099614Y0027322D01*
X0100813Y0026124D02*
X0189531Y0026124D01*
X0198668Y0023727D02*
X0199531Y0023727D01*
X0199531Y0024925D02*
X0199136Y0024925D01*
X0199531Y0022528D02*
X0198668Y0022528D01*
X0198668Y0021330D02*
X0199531Y0021330D01*
X0199531Y0020131D02*
X0198668Y0020131D01*
X0198590Y0018932D02*
X0199653Y0018932D01*
X0200143Y0017734D02*
X0198093Y0017734D01*
X0197065Y0016535D02*
X0201139Y0016535D01*
X0203716Y0016535D02*
X0204484Y0016535D01*
X0204484Y0017734D02*
X0203716Y0017734D01*
X0203716Y0018932D02*
X0204484Y0018932D01*
X0204484Y0020131D02*
X0203716Y0020131D01*
X0203716Y0021330D02*
X0204484Y0021330D01*
X0204484Y0022528D02*
X0203716Y0022528D01*
X0208668Y0022528D02*
X0209531Y0022528D01*
X0209531Y0021330D02*
X0208668Y0021330D01*
X0208668Y0020131D02*
X0209531Y0020131D01*
X0209610Y0018932D02*
X0208547Y0018932D01*
X0208057Y0017734D02*
X0210107Y0017734D01*
X0211135Y0016535D02*
X0207061Y0016535D01*
X0214100Y0023000D02*
X0214100Y0032325D01*
X0223675Y0041900D01*
X0232075Y0041900D01*
X0232300Y0042125D01*
X0236179Y0038109D02*
X0258421Y0038109D01*
X0258865Y0037925D02*
X0265735Y0037925D01*
X0267279Y0038564D01*
X0268461Y0039746D01*
X0269100Y0041290D01*
X0269100Y0042960D01*
X0268461Y0044504D01*
X0267279Y0045686D01*
X0265735Y0046325D01*
X0258865Y0046325D01*
X0257321Y0045686D01*
X0256139Y0044504D01*
X0255500Y0042960D01*
X0255500Y0041290D01*
X0256139Y0039746D01*
X0257321Y0038564D01*
X0258865Y0037925D01*
X0257384Y0035712D02*
X0237216Y0035712D01*
X0238452Y0034513D02*
X0256148Y0034513D01*
X0255647Y0033315D02*
X0238953Y0033315D01*
X0239100Y0032116D02*
X0255500Y0032116D01*
X0255654Y0030918D02*
X0238946Y0030918D01*
X0238434Y0029719D02*
X0256166Y0029719D01*
X0255817Y0023727D02*
X0238783Y0023727D01*
X0239100Y0022528D02*
X0255500Y0022528D01*
X0255500Y0021330D02*
X0239100Y0021330D01*
X0238620Y0020131D02*
X0255980Y0020131D01*
X0256953Y0018932D02*
X0237647Y0018932D01*
X0232300Y0022125D02*
X0237225Y0027050D01*
X0268225Y0027050D01*
X0277000Y0018275D01*
X0306700Y0018275D01*
X0314125Y0025700D01*
X0347200Y0058775D01*
X0347200Y0070925D01*
X0352600Y0076325D01*
X0362050Y0076325D01*
X0368400Y0069975D01*
X0368400Y0065525D01*
X0372968Y0065674D02*
X0375000Y0065674D01*
X0375000Y0064476D02*
X0372968Y0064476D01*
X0372968Y0063277D02*
X0375000Y0063277D01*
X0375000Y0062079D02*
X0372968Y0062079D01*
X0372651Y0060880D02*
X0375000Y0060880D01*
X0375000Y0059682D02*
X0371986Y0059682D01*
X0370505Y0058483D02*
X0375000Y0058483D01*
X0375000Y0057285D02*
X0358821Y0057285D01*
X0357623Y0056086D02*
X0375000Y0056086D01*
X0375000Y0054888D02*
X0356424Y0054888D01*
X0355226Y0053689D02*
X0375000Y0053689D01*
X0375000Y0052491D02*
X0354027Y0052491D01*
X0352829Y0051292D02*
X0375000Y0051292D01*
X0375000Y0050094D02*
X0351630Y0050094D01*
X0350432Y0048895D02*
X0375000Y0048895D01*
X0375000Y0047697D02*
X0349233Y0047697D01*
X0348035Y0046498D02*
X0375000Y0046498D01*
X0375000Y0045300D02*
X0346836Y0045300D01*
X0345637Y0044101D02*
X0375000Y0044101D01*
X0375000Y0042903D02*
X0344439Y0042903D01*
X0343240Y0041704D02*
X0375000Y0041704D01*
X0375000Y0040506D02*
X0342042Y0040506D01*
X0340843Y0039307D02*
X0375000Y0039307D01*
X0375000Y0038109D02*
X0339645Y0038109D01*
X0338446Y0036910D02*
X0375000Y0036910D01*
X0375000Y0035712D02*
X0337248Y0035712D01*
X0336049Y0034513D02*
X0375000Y0034513D01*
X0375000Y0033315D02*
X0334851Y0033315D01*
X0337214Y0032116D02*
X0375000Y0032116D01*
X0375000Y0030918D02*
X0338185Y0030918D01*
X0338682Y0029719D02*
X0375000Y0029719D01*
X0375000Y0028521D02*
X0372503Y0028521D01*
X0367797Y0028521D02*
X0338725Y0028521D01*
X0338725Y0027322D02*
X0364809Y0027322D01*
X0363142Y0026124D02*
X0338725Y0026124D01*
X0338725Y0024925D02*
X0361943Y0024925D01*
X0361167Y0023727D02*
X0338725Y0023727D01*
X0338725Y0022528D02*
X0360475Y0022528D01*
X0360092Y0021330D02*
X0338536Y0021330D01*
X0338040Y0020131D02*
X0359771Y0020131D01*
X0359644Y0018932D02*
X0336863Y0018932D01*
X0331387Y0018932D02*
X0326863Y0018932D01*
X0328040Y0020131D02*
X0330210Y0020131D01*
X0329714Y0021330D02*
X0328536Y0021330D01*
X0328725Y0022528D02*
X0329525Y0022528D01*
X0329525Y0023727D02*
X0328725Y0023727D01*
X0328725Y0024925D02*
X0329525Y0024925D01*
X0329525Y0026124D02*
X0328725Y0026124D01*
X0328858Y0027322D02*
X0329525Y0027322D01*
X0324125Y0025700D02*
X0324125Y0024900D01*
X0315475Y0016250D01*
X0268175Y0016250D01*
X0262300Y0022125D01*
X0263580Y0017734D02*
X0218093Y0017734D01*
X0218590Y0018932D02*
X0226953Y0018932D01*
X0225980Y0020131D02*
X0218668Y0020131D01*
X0218668Y0021330D02*
X0225500Y0021330D01*
X0225500Y0022528D02*
X0218668Y0022528D01*
X0218668Y0023727D02*
X0225817Y0023727D01*
X0226560Y0024925D02*
X0218668Y0024925D01*
X0218668Y0026124D02*
X0228378Y0026124D01*
X0227427Y0028521D02*
X0217988Y0028521D01*
X0218484Y0027322D02*
X0234386Y0027322D01*
X0226166Y0029719D02*
X0216810Y0029719D01*
X0216300Y0030918D02*
X0225654Y0030918D01*
X0225500Y0032116D02*
X0217002Y0032116D01*
X0218201Y0033315D02*
X0225647Y0033315D01*
X0226148Y0034513D02*
X0219399Y0034513D01*
X0220598Y0035712D02*
X0227384Y0035712D01*
X0228421Y0038109D02*
X0222995Y0038109D01*
X0224193Y0039307D02*
X0226578Y0039307D01*
X0221796Y0036910D02*
X0291925Y0036910D01*
X0291925Y0035712D02*
X0267216Y0035712D01*
X0268452Y0034513D02*
X0291925Y0034513D01*
X0291925Y0033315D02*
X0268953Y0033315D01*
X0269100Y0032116D02*
X0291036Y0032116D01*
X0290065Y0030918D02*
X0268946Y0030918D01*
X0268434Y0029719D02*
X0289568Y0029719D01*
X0289525Y0028521D02*
X0269866Y0028521D01*
X0271064Y0027322D02*
X0289525Y0027322D01*
X0289525Y0026124D02*
X0272263Y0026124D01*
X0273461Y0024925D02*
X0289525Y0024925D01*
X0289525Y0023727D02*
X0274660Y0023727D01*
X0275858Y0022528D02*
X0289525Y0022528D01*
X0289714Y0021330D02*
X0277057Y0021330D01*
X0264778Y0016535D02*
X0217065Y0016535D01*
X0209531Y0023727D02*
X0208668Y0023727D01*
X0208668Y0024925D02*
X0209531Y0024925D01*
X0209531Y0026124D02*
X0208668Y0026124D01*
X0208464Y0027322D02*
X0209716Y0027322D01*
X0210212Y0028521D02*
X0207893Y0028521D01*
X0206710Y0029719D02*
X0211390Y0029719D01*
X0211900Y0030918D02*
X0205129Y0030918D01*
X0206327Y0032116D02*
X0211900Y0032116D01*
X0211978Y0033315D02*
X0207526Y0033315D01*
X0208724Y0034513D02*
X0213177Y0034513D01*
X0214375Y0035712D02*
X0209923Y0035712D01*
X0211121Y0036910D02*
X0215574Y0036910D01*
X0216772Y0038109D02*
X0212320Y0038109D01*
X0213518Y0039307D02*
X0217971Y0039307D01*
X0219169Y0040506D02*
X0214717Y0040506D01*
X0215915Y0041704D02*
X0220368Y0041704D01*
X0221566Y0042903D02*
X0217114Y0042903D01*
X0218312Y0044101D02*
X0225973Y0044101D01*
X0237610Y0048895D02*
X0242409Y0048895D01*
X0243608Y0050094D02*
X0238605Y0050094D01*
X0239100Y0051292D02*
X0244425Y0051292D01*
X0244425Y0052491D02*
X0239100Y0052491D01*
X0238798Y0053689D02*
X0244425Y0053689D01*
X0244425Y0054888D02*
X0238077Y0054888D01*
X0236312Y0056086D02*
X0244425Y0056086D01*
X0244425Y0057285D02*
X0214496Y0057285D01*
X0211650Y0057550D02*
X0216250Y0062150D01*
X0232275Y0062150D01*
X0232300Y0062125D01*
X0238397Y0059682D02*
X0244425Y0059682D01*
X0244425Y0060880D02*
X0238930Y0060880D01*
X0239100Y0062079D02*
X0244425Y0062079D01*
X0244425Y0063277D02*
X0238969Y0063277D01*
X0238472Y0064476D02*
X0244425Y0064476D01*
X0244425Y0065674D02*
X0237290Y0065674D01*
X0232300Y0072125D02*
X0215725Y0072125D01*
X0210300Y0077550D01*
X0207475Y0077550D01*
X0190325Y0077550D01*
X0190200Y0077675D01*
X0186000Y0077660D02*
X0180400Y0077660D01*
X0180400Y0077475D02*
X0180400Y0077875D01*
X0184400Y0077875D01*
X0184400Y0079415D01*
X0181940Y0081875D01*
X0180400Y0081875D01*
X0180400Y0077875D01*
X0180000Y0077875D01*
X0180000Y0081875D01*
X0178460Y0081875D01*
X0176000Y0079415D01*
X0176000Y0077875D01*
X0180000Y0077875D01*
X0180000Y0077475D01*
X0180400Y0077475D01*
X0184400Y0077475D01*
X0184400Y0075935D01*
X0181940Y0073475D01*
X0180400Y0073475D01*
X0180400Y0077475D01*
X0180000Y0077475D02*
X0180000Y0073475D01*
X0178460Y0073475D01*
X0176000Y0075935D01*
X0176000Y0077475D01*
X0180000Y0077475D01*
X0180000Y0077660D02*
X0171421Y0077660D01*
X0172619Y0078858D02*
X0176000Y0078858D01*
X0176642Y0080057D02*
X0173818Y0080057D01*
X0175016Y0081255D02*
X0177840Y0081255D01*
X0180000Y0081255D02*
X0180400Y0081255D01*
X0180400Y0080057D02*
X0180000Y0080057D01*
X0180000Y0078858D02*
X0180400Y0078858D01*
X0180400Y0076461D02*
X0180000Y0076461D01*
X0180000Y0075263D02*
X0180400Y0075263D01*
X0180400Y0074064D02*
X0180000Y0074064D01*
X0177871Y0074064D02*
X0167825Y0074064D01*
X0166627Y0072866D02*
X0211873Y0072866D01*
X0213072Y0071667D02*
X0165428Y0071667D01*
X0164230Y0070468D02*
X0214270Y0070468D01*
X0215699Y0075263D02*
X0226898Y0075263D01*
X0232100Y0078858D02*
X0232500Y0078858D01*
X0244425Y0076461D02*
X0214500Y0076461D01*
X0203761Y0074064D02*
X0192529Y0074064D01*
X0193727Y0075263D02*
X0202188Y0075263D01*
X0202408Y0080057D02*
X0193758Y0080057D01*
X0192560Y0081255D02*
X0204290Y0081255D01*
X0187840Y0081255D02*
X0182560Y0081255D01*
X0183758Y0080057D02*
X0186642Y0080057D01*
X0186000Y0078858D02*
X0184400Y0078858D01*
X0184400Y0076461D02*
X0186000Y0076461D01*
X0186673Y0075263D02*
X0183727Y0075263D01*
X0182529Y0074064D02*
X0187871Y0074064D01*
X0176673Y0075263D02*
X0169024Y0075263D01*
X0170222Y0076461D02*
X0176000Y0076461D01*
X0163925Y0069270D02*
X0226615Y0069270D01*
X0214266Y0063277D02*
X0163925Y0063277D01*
X0163925Y0062079D02*
X0213068Y0062079D01*
X0211869Y0060880D02*
X0211565Y0060880D01*
X0211650Y0057550D02*
X0207475Y0057550D01*
X0207350Y0057425D01*
X0190200Y0057425D01*
X0192684Y0060880D02*
X0203385Y0060880D01*
X0202045Y0059682D02*
X0193883Y0059682D01*
X0193603Y0054888D02*
X0202563Y0054888D01*
X0237083Y0058483D02*
X0244425Y0058483D01*
X0248825Y0058483D02*
X0257517Y0058483D01*
X0256203Y0059682D02*
X0248825Y0059682D01*
X0248825Y0060880D02*
X0255669Y0060880D01*
X0255500Y0062079D02*
X0248825Y0062079D01*
X0248825Y0063277D02*
X0255631Y0063277D01*
X0256128Y0064476D02*
X0248825Y0064476D01*
X0248825Y0065674D02*
X0257310Y0065674D01*
X0258511Y0068071D02*
X0248825Y0068071D01*
X0248825Y0066873D02*
X0264441Y0066873D01*
X0268266Y0069270D02*
X0273450Y0069270D01*
X0273450Y0070468D02*
X0268760Y0070468D01*
X0269100Y0071667D02*
X0272365Y0071667D01*
X0271167Y0072866D02*
X0269100Y0072866D01*
X0268643Y0074064D02*
X0270900Y0074064D01*
X0270900Y0075263D02*
X0267702Y0075263D01*
X0270900Y0076461D02*
X0261075Y0076461D01*
X0259877Y0077660D02*
X0271492Y0077660D01*
X0272691Y0078858D02*
X0267573Y0078858D01*
X0268589Y0080057D02*
X0375000Y0080057D01*
X0375000Y0081255D02*
X0269086Y0081255D01*
X0269100Y0082454D02*
X0375000Y0082454D01*
X0375000Y0083652D02*
X0268813Y0083652D01*
X0268114Y0084851D02*
X0375000Y0084851D01*
X0375000Y0086049D02*
X0266401Y0086049D01*
X0265884Y0088028D02*
X0266512Y0088233D01*
X0267101Y0088533D01*
X0267636Y0088921D01*
X0268104Y0089389D01*
X0268492Y0089924D01*
X0268792Y0090513D01*
X0268997Y0091141D01*
X0269100Y0091794D01*
X0269100Y0091925D01*
X0262500Y0091925D01*
X0262500Y0092325D01*
X0262100Y0092325D01*
X0262100Y0096325D01*
X0259369Y0096325D01*
X0258716Y0096222D01*
X0258088Y0096017D01*
X0257499Y0095717D01*
X0256964Y0095329D01*
X0256496Y0094861D01*
X0256108Y0094326D01*
X0255808Y0093737D01*
X0255603Y0093109D01*
X0255500Y0092456D01*
X0255500Y0092325D01*
X0262100Y0092325D01*
X0262100Y0091925D01*
X0262500Y0091925D01*
X0262500Y0087925D01*
X0265231Y0087925D01*
X0265884Y0088028D01*
X0266931Y0088446D02*
X0375000Y0088446D01*
X0375000Y0087248D02*
X0250289Y0087248D01*
X0251487Y0086049D02*
X0258199Y0086049D01*
X0258716Y0088028D02*
X0258088Y0088233D01*
X0257499Y0088533D01*
X0256964Y0088921D01*
X0256496Y0089389D01*
X0256108Y0089924D01*
X0255808Y0090513D01*
X0255603Y0091141D01*
X0255500Y0091794D01*
X0255500Y0091925D01*
X0262100Y0091925D01*
X0262100Y0087925D01*
X0259369Y0087925D01*
X0258716Y0088028D01*
X0257669Y0088446D02*
X0249090Y0088446D01*
X0248825Y0089645D02*
X0256311Y0089645D01*
X0255700Y0090843D02*
X0248825Y0090843D01*
X0248825Y0092042D02*
X0262100Y0092042D01*
X0262500Y0092042D02*
X0271991Y0092042D01*
X0270900Y0093132D02*
X0273682Y0090350D01*
X0275450Y0090350D01*
X0275450Y0094900D01*
X0270900Y0094900D01*
X0270900Y0093132D01*
X0270900Y0093240D02*
X0268954Y0093240D01*
X0268997Y0093109D02*
X0268792Y0093737D01*
X0268492Y0094326D01*
X0268104Y0094861D01*
X0267636Y0095329D01*
X0267101Y0095717D01*
X0266512Y0096017D01*
X0265884Y0096222D01*
X0265231Y0096325D01*
X0262500Y0096325D01*
X0262500Y0092325D01*
X0269100Y0092325D01*
X0269100Y0092456D01*
X0268997Y0093109D01*
X0268410Y0094439D02*
X0270900Y0094439D01*
X0270900Y0095300D02*
X0275450Y0095300D01*
X0275450Y0099850D01*
X0273682Y0099850D01*
X0270900Y0097068D01*
X0270900Y0095300D01*
X0270900Y0095637D02*
X0267211Y0095637D01*
X0265999Y0098034D02*
X0271867Y0098034D01*
X0270900Y0096836D02*
X0248825Y0096836D01*
X0248825Y0098034D02*
X0258601Y0098034D01*
X0257389Y0095637D02*
X0248825Y0095637D01*
X0248825Y0094439D02*
X0256190Y0094439D01*
X0255646Y0093240D02*
X0248825Y0093240D01*
X0246625Y0087800D02*
X0262300Y0072125D01*
X0275650Y0058775D01*
X0294125Y0040300D01*
X0294125Y0025700D01*
X0298725Y0026124D02*
X0299525Y0026124D01*
X0299525Y0027322D02*
X0298725Y0027322D01*
X0298725Y0028521D02*
X0299525Y0028521D01*
X0299629Y0029719D02*
X0298682Y0029719D01*
X0298185Y0030918D02*
X0300092Y0030918D01*
X0301036Y0032116D02*
X0297214Y0032116D01*
X0296325Y0033315D02*
X0318628Y0033315D01*
X0317430Y0032116D02*
X0317214Y0032116D01*
X0319827Y0034513D02*
X0296325Y0034513D01*
X0296325Y0035712D02*
X0321025Y0035712D01*
X0322224Y0036910D02*
X0296325Y0036910D01*
X0296325Y0038109D02*
X0323422Y0038109D01*
X0324621Y0039307D02*
X0296325Y0039307D01*
X0296325Y0040506D02*
X0325819Y0040506D01*
X0327018Y0041704D02*
X0295832Y0041704D01*
X0294634Y0042903D02*
X0328216Y0042903D01*
X0329415Y0044101D02*
X0293435Y0044101D01*
X0292237Y0045300D02*
X0330613Y0045300D01*
X0331812Y0046498D02*
X0291038Y0046498D01*
X0289839Y0047697D02*
X0333011Y0047697D01*
X0334209Y0048895D02*
X0288641Y0048895D01*
X0287442Y0050094D02*
X0335408Y0050094D01*
X0336606Y0051292D02*
X0286244Y0051292D01*
X0285045Y0052491D02*
X0337805Y0052491D01*
X0339003Y0053689D02*
X0283847Y0053689D01*
X0282648Y0054888D02*
X0340202Y0054888D01*
X0341400Y0056086D02*
X0281450Y0056086D01*
X0280251Y0057285D02*
X0342599Y0057285D01*
X0343797Y0058483D02*
X0279053Y0058483D01*
X0277854Y0059682D02*
X0344996Y0059682D01*
X0345000Y0060880D02*
X0277850Y0060880D01*
X0277850Y0062079D02*
X0345000Y0062079D01*
X0345000Y0063277D02*
X0277850Y0063277D01*
X0277850Y0064476D02*
X0345000Y0064476D01*
X0345000Y0065674D02*
X0277850Y0065674D01*
X0277850Y0066873D02*
X0345000Y0066873D01*
X0345000Y0068071D02*
X0277850Y0068071D01*
X0277850Y0069270D02*
X0345000Y0069270D01*
X0345000Y0070468D02*
X0277850Y0070468D01*
X0278934Y0071667D02*
X0345000Y0071667D01*
X0346029Y0072866D02*
X0280133Y0072866D01*
X0280400Y0074064D02*
X0347228Y0074064D01*
X0348426Y0075263D02*
X0280400Y0075263D01*
X0280400Y0076461D02*
X0349625Y0076461D01*
X0350823Y0077660D02*
X0279808Y0077660D01*
X0278609Y0078858D02*
X0375000Y0078858D01*
X0375000Y0077660D02*
X0363827Y0077660D01*
X0365025Y0076461D02*
X0375000Y0076461D01*
X0375000Y0075263D02*
X0366224Y0075263D01*
X0367422Y0074064D02*
X0375000Y0074064D01*
X0375000Y0072866D02*
X0369783Y0072866D01*
X0371687Y0071667D02*
X0375000Y0071667D01*
X0375000Y0070468D02*
X0372527Y0070468D01*
X0372968Y0069270D02*
X0375000Y0069270D01*
X0375000Y0068071D02*
X0372968Y0068071D01*
X0372968Y0066873D02*
X0375000Y0066873D01*
X0364273Y0070468D02*
X0362527Y0070468D01*
X0362968Y0069270D02*
X0363831Y0069270D01*
X0363831Y0068071D02*
X0362968Y0068071D01*
X0362968Y0066873D02*
X0363831Y0066873D01*
X0363831Y0065674D02*
X0362968Y0065674D01*
X0362968Y0064476D02*
X0363831Y0064476D01*
X0363831Y0063277D02*
X0362968Y0063277D01*
X0362968Y0062079D02*
X0363831Y0062079D01*
X0364149Y0060880D02*
X0362651Y0060880D01*
X0361986Y0059682D02*
X0364814Y0059682D01*
X0366295Y0058483D02*
X0360505Y0058483D01*
X0358400Y0059975D02*
X0358400Y0062000D01*
X0358400Y0064175D01*
X0358400Y0065525D01*
X0353831Y0065674D02*
X0349400Y0065674D01*
X0349400Y0064476D02*
X0353831Y0064476D01*
X0353831Y0063277D02*
X0349400Y0063277D01*
X0349400Y0062079D02*
X0353831Y0062079D01*
X0354149Y0060880D02*
X0349400Y0060880D01*
X0349400Y0059682D02*
X0354814Y0059682D01*
X0353797Y0058483D02*
X0349400Y0058483D01*
X0348821Y0057285D02*
X0352599Y0057285D01*
X0351400Y0056086D02*
X0347623Y0056086D01*
X0346424Y0054888D02*
X0350202Y0054888D01*
X0349003Y0053689D02*
X0345226Y0053689D01*
X0344027Y0052491D02*
X0347805Y0052491D01*
X0346606Y0051292D02*
X0342829Y0051292D01*
X0341630Y0050094D02*
X0345408Y0050094D01*
X0344209Y0048895D02*
X0340432Y0048895D01*
X0339233Y0047697D02*
X0343011Y0047697D01*
X0341812Y0046498D02*
X0338035Y0046498D01*
X0336836Y0045300D02*
X0340613Y0045300D01*
X0339415Y0044101D02*
X0335637Y0044101D01*
X0334439Y0042903D02*
X0338216Y0042903D01*
X0337018Y0041704D02*
X0333240Y0041704D01*
X0332042Y0040506D02*
X0335819Y0040506D01*
X0334621Y0039307D02*
X0330843Y0039307D01*
X0329645Y0038109D02*
X0333422Y0038109D01*
X0332224Y0036910D02*
X0328446Y0036910D01*
X0327248Y0035712D02*
X0331025Y0035712D01*
X0329827Y0034513D02*
X0326049Y0034513D01*
X0324851Y0033315D02*
X0328628Y0033315D01*
X0327430Y0032116D02*
X0327214Y0032116D01*
X0324125Y0025700D02*
X0358400Y0059975D01*
X0353831Y0066873D02*
X0349400Y0066873D01*
X0349400Y0068071D02*
X0353831Y0068071D01*
X0353831Y0069270D02*
X0349400Y0069270D01*
X0349855Y0070468D02*
X0354273Y0070468D01*
X0355113Y0071667D02*
X0351053Y0071667D01*
X0352252Y0072866D02*
X0357017Y0072866D01*
X0359783Y0072866D02*
X0362398Y0072866D01*
X0361687Y0071667D02*
X0363597Y0071667D01*
X0361200Y0074064D02*
X0353450Y0074064D01*
X0375000Y0089645D02*
X0268289Y0089645D01*
X0268900Y0090843D02*
X0273189Y0090843D01*
X0275450Y0090843D02*
X0275850Y0090843D01*
X0275850Y0090350D02*
X0277618Y0090350D01*
X0280400Y0093132D01*
X0280400Y0094900D01*
X0275850Y0094900D01*
X0275850Y0095300D01*
X0275450Y0095300D01*
X0275450Y0094900D01*
X0275850Y0094900D01*
X0275850Y0090350D01*
X0275850Y0092042D02*
X0275450Y0092042D01*
X0275450Y0093240D02*
X0275850Y0093240D01*
X0275850Y0094439D02*
X0275450Y0094439D01*
X0275850Y0095300D02*
X0280400Y0095300D01*
X0280400Y0097068D01*
X0277618Y0099850D01*
X0275850Y0099850D01*
X0275850Y0095300D01*
X0275850Y0095637D02*
X0275450Y0095637D01*
X0275450Y0096836D02*
X0275850Y0096836D01*
X0275850Y0098034D02*
X0275450Y0098034D01*
X0275450Y0099233D02*
X0275850Y0099233D01*
X0278235Y0099233D02*
X0375000Y0099233D01*
X0375000Y0100431D02*
X0268744Y0100431D01*
X0269100Y0101630D02*
X0375000Y0101630D01*
X0375000Y0102828D02*
X0269100Y0102828D01*
X0268658Y0104027D02*
X0375000Y0104027D01*
X0375000Y0105225D02*
X0267739Y0105225D01*
X0267536Y0108821D02*
X0375000Y0108821D01*
X0375000Y0110019D02*
X0268574Y0110019D01*
X0269070Y0111218D02*
X0375000Y0111218D01*
X0375000Y0112416D02*
X0269100Y0112416D01*
X0268829Y0113615D02*
X0375000Y0113615D01*
X0375000Y0114813D02*
X0268151Y0114813D01*
X0266491Y0116012D02*
X0375000Y0116012D01*
X0375000Y0098034D02*
X0279433Y0098034D01*
X0280400Y0096836D02*
X0375000Y0096836D01*
X0375000Y0095637D02*
X0280400Y0095637D01*
X0280400Y0094439D02*
X0375000Y0094439D01*
X0375000Y0093240D02*
X0280400Y0093240D01*
X0279309Y0092042D02*
X0375000Y0092042D01*
X0375000Y0090843D02*
X0278111Y0090843D01*
X0273065Y0099233D02*
X0267947Y0099233D01*
X0262500Y0095637D02*
X0262100Y0095637D01*
X0262100Y0094439D02*
X0262500Y0094439D01*
X0262500Y0093240D02*
X0262100Y0093240D01*
X0262100Y0090843D02*
X0262500Y0090843D01*
X0262500Y0089645D02*
X0262100Y0089645D01*
X0262100Y0088446D02*
X0262500Y0088446D01*
X0256486Y0084851D02*
X0252686Y0084851D01*
X0253884Y0083652D02*
X0255787Y0083652D01*
X0255500Y0082454D02*
X0255083Y0082454D01*
X0252456Y0078858D02*
X0248825Y0078858D01*
X0248825Y0077660D02*
X0253654Y0077660D01*
X0254853Y0076461D02*
X0248825Y0076461D01*
X0248825Y0075263D02*
X0256051Y0075263D01*
X0255957Y0074064D02*
X0248825Y0074064D01*
X0248825Y0072866D02*
X0255500Y0072866D01*
X0255500Y0071667D02*
X0248825Y0071667D01*
X0248825Y0070468D02*
X0255840Y0070468D01*
X0256615Y0069270D02*
X0248825Y0069270D01*
X0248825Y0080057D02*
X0251257Y0080057D01*
X0250059Y0081255D02*
X0248825Y0081255D01*
X0248825Y0082454D02*
X0248860Y0082454D01*
X0269465Y0068071D02*
X0273450Y0068071D01*
X0273450Y0066873D02*
X0270663Y0066873D01*
X0271862Y0065674D02*
X0273450Y0065674D01*
X0273450Y0064476D02*
X0273060Y0064476D01*
X0269235Y0062079D02*
X0269100Y0062079D01*
X0268930Y0060880D02*
X0270433Y0060880D01*
X0271632Y0059682D02*
X0268397Y0059682D01*
X0267083Y0058483D02*
X0272830Y0058483D01*
X0274029Y0057285D02*
X0248825Y0057285D01*
X0248825Y0056086D02*
X0258288Y0056086D01*
X0258865Y0056325D02*
X0257321Y0055686D01*
X0256139Y0054504D01*
X0255500Y0052960D01*
X0255500Y0051290D01*
X0256139Y0049746D01*
X0257321Y0048564D01*
X0258865Y0047925D01*
X0265735Y0047925D01*
X0267279Y0048564D01*
X0268461Y0049746D01*
X0269100Y0051290D01*
X0269100Y0052960D01*
X0268461Y0054504D01*
X0267279Y0055686D01*
X0265735Y0056325D01*
X0258865Y0056325D01*
X0256523Y0054888D02*
X0248825Y0054888D01*
X0248825Y0053689D02*
X0255802Y0053689D01*
X0255500Y0052491D02*
X0248825Y0052491D01*
X0248825Y0051292D02*
X0255500Y0051292D01*
X0255995Y0050094D02*
X0248825Y0050094D01*
X0248632Y0048895D02*
X0256990Y0048895D01*
X0256935Y0045300D02*
X0245036Y0045300D01*
X0246235Y0046498D02*
X0284815Y0046498D01*
X0283617Y0047697D02*
X0247433Y0047697D01*
X0255973Y0044101D02*
X0238627Y0044101D01*
X0239100Y0042903D02*
X0255500Y0042903D01*
X0255500Y0041704D02*
X0239100Y0041704D01*
X0238775Y0040506D02*
X0255825Y0040506D01*
X0256578Y0039307D02*
X0238022Y0039307D01*
X0266179Y0038109D02*
X0291925Y0038109D01*
X0291925Y0039307D02*
X0268022Y0039307D01*
X0268775Y0040506D02*
X0290808Y0040506D01*
X0289610Y0041704D02*
X0269100Y0041704D01*
X0269100Y0042903D02*
X0288411Y0042903D01*
X0287212Y0044101D02*
X0268627Y0044101D01*
X0267665Y0045300D02*
X0286014Y0045300D01*
X0282418Y0048895D02*
X0267610Y0048895D01*
X0268605Y0050094D02*
X0281220Y0050094D01*
X0280021Y0051292D02*
X0269100Y0051292D01*
X0269100Y0052491D02*
X0278823Y0052491D01*
X0277624Y0053689D02*
X0268798Y0053689D01*
X0268077Y0054888D02*
X0276426Y0054888D01*
X0275227Y0056086D02*
X0266312Y0056086D01*
X0275650Y0058775D02*
X0275650Y0075100D01*
X0234999Y0096836D02*
X0190597Y0096836D01*
X0194193Y0100431D02*
X0213988Y0100431D01*
X0212790Y0101630D02*
X0195391Y0101630D01*
X0192764Y0105225D02*
X0176862Y0105225D01*
X0178060Y0106424D02*
X0212843Y0106424D01*
X0214042Y0107622D02*
X0179259Y0107622D01*
X0175663Y0104027D02*
X0191566Y0104027D01*
X0190367Y0102828D02*
X0174465Y0102828D01*
X0173266Y0101630D02*
X0189169Y0101630D01*
X0185251Y0113615D02*
X0214980Y0113615D01*
X0213781Y0114813D02*
X0186450Y0114813D01*
X0183823Y0118409D02*
X0160800Y0118409D01*
X0160800Y0119607D02*
X0185021Y0119607D01*
X0182624Y0117210D02*
X0160800Y0117210D01*
X0160604Y0116012D02*
X0181426Y0116012D01*
X0180227Y0114813D02*
X0159406Y0114813D01*
X0158207Y0113615D02*
X0179029Y0113615D01*
X0160137Y0120806D02*
X0213051Y0120806D01*
X0214249Y0122004D02*
X0158938Y0122004D01*
X0156050Y0125325D02*
X0156050Y0118175D01*
X0152694Y0114813D02*
X0139406Y0114813D01*
X0138207Y0113615D02*
X0153893Y0113615D01*
X0151496Y0116012D02*
X0140604Y0116012D01*
X0140800Y0117210D02*
X0151300Y0117210D01*
X0151300Y0118409D02*
X0140800Y0118409D01*
X0140800Y0119607D02*
X0151300Y0119607D01*
X0151963Y0120806D02*
X0140137Y0120806D01*
X0139412Y0126799D02*
X0133463Y0126799D01*
X0134662Y0127997D02*
X0140611Y0127997D01*
X0141809Y0129196D02*
X0135250Y0129196D01*
X0163463Y0126799D02*
X0220715Y0126799D01*
X0219517Y0127997D02*
X0164662Y0127997D01*
X0165250Y0129196D02*
X0214924Y0129196D01*
X0213726Y0130394D02*
X0165250Y0130394D01*
X0165475Y0140450D02*
X0172225Y0147200D01*
X0172225Y0161375D01*
X0166263Y0163952D02*
X0142669Y0163952D01*
X0142554Y0164111D02*
X0142086Y0164579D01*
X0141551Y0164967D01*
X0140962Y0165267D01*
X0140334Y0165472D01*
X0139681Y0165575D01*
X0136950Y0165575D01*
X0136950Y0161575D01*
X0143550Y0161575D01*
X0143550Y0161706D01*
X0143447Y0162359D01*
X0143242Y0162987D01*
X0142942Y0163576D01*
X0142554Y0164111D01*
X0143318Y0162754D02*
X0165650Y0162754D01*
X0165425Y0161555D02*
X0136950Y0161555D01*
X0136750Y0161375D02*
X0133100Y0165025D01*
X0133100Y0184325D01*
X0133484Y0184327D02*
X0171306Y0184327D01*
X0171306Y0183129D02*
X0137668Y0183129D01*
X0137668Y0183941D02*
X0133484Y0183941D01*
X0133484Y0176792D01*
X0134170Y0176900D01*
X0134854Y0177123D01*
X0135494Y0177449D01*
X0136076Y0177872D01*
X0136585Y0178380D01*
X0137007Y0178962D01*
X0137334Y0179603D01*
X0137556Y0180287D01*
X0137668Y0180997D01*
X0137668Y0183941D01*
X0137668Y0184709D02*
X0133484Y0184709D01*
X0132716Y0184709D01*
X0132716Y0183941D01*
X0128531Y0183941D01*
X0128531Y0180997D01*
X0128644Y0180287D01*
X0128866Y0179603D01*
X0129193Y0178962D01*
X0129615Y0178380D01*
X0130124Y0177872D01*
X0130706Y0177449D01*
X0131346Y0177123D01*
X0132030Y0176900D01*
X0132716Y0176792D01*
X0132716Y0183941D01*
X0133484Y0183941D01*
X0133484Y0184709D01*
X0133484Y0191858D01*
X0134170Y0191750D01*
X0134854Y0191527D01*
X0135494Y0191201D01*
X0136076Y0190778D01*
X0136585Y0190270D01*
X0137007Y0189688D01*
X0137334Y0189047D01*
X0137556Y0188363D01*
X0137668Y0187653D01*
X0137668Y0184709D01*
X0137668Y0185526D02*
X0171306Y0185526D01*
X0171306Y0186724D02*
X0137668Y0186724D01*
X0137626Y0187923D02*
X0171306Y0187923D01*
X0171687Y0189121D02*
X0137296Y0189121D01*
X0136535Y0190320D02*
X0172440Y0190320D01*
X0174136Y0191518D02*
X0134872Y0191518D01*
X0133484Y0191518D02*
X0132716Y0191518D01*
X0132716Y0191858D02*
X0132030Y0191750D01*
X0131346Y0191527D01*
X0130706Y0191201D01*
X0130124Y0190778D01*
X0129615Y0190270D01*
X0129193Y0189688D01*
X0128866Y0189047D01*
X0128644Y0188363D01*
X0128531Y0187653D01*
X0128531Y0184709D01*
X0132716Y0184709D01*
X0132716Y0191858D01*
X0131328Y0191518D02*
X0124839Y0191518D01*
X0124886Y0192717D02*
X0180873Y0192717D01*
X0182071Y0193915D02*
X0126084Y0193915D01*
X0126535Y0190320D02*
X0129665Y0190320D01*
X0128904Y0189121D02*
X0127288Y0189121D01*
X0127668Y0187923D02*
X0128574Y0187923D01*
X0128531Y0186724D02*
X0127668Y0186724D01*
X0127668Y0185526D02*
X0128531Y0185526D01*
X0127668Y0184327D02*
X0132716Y0184327D01*
X0132716Y0183129D02*
X0133484Y0183129D01*
X0133484Y0181930D02*
X0132716Y0181930D01*
X0132716Y0180732D02*
X0133484Y0180732D01*
X0133484Y0179533D02*
X0132716Y0179533D01*
X0132716Y0178334D02*
X0133484Y0178334D01*
X0133484Y0177136D02*
X0132716Y0177136D01*
X0131320Y0177136D02*
X0125300Y0177136D01*
X0125300Y0175937D02*
X0183675Y0175937D01*
X0183675Y0174739D02*
X0125300Y0174739D01*
X0125300Y0173540D02*
X0183675Y0173540D01*
X0183675Y0172342D02*
X0125300Y0172342D01*
X0125300Y0171143D02*
X0183675Y0171143D01*
X0183675Y0169945D02*
X0125300Y0169945D01*
X0125300Y0168746D02*
X0183675Y0168746D01*
X0183675Y0167548D02*
X0125300Y0167548D01*
X0120900Y0167548D02*
X0089525Y0167548D01*
X0089525Y0168746D02*
X0120900Y0168746D01*
X0120900Y0166349D02*
X0089525Y0166349D01*
X0089525Y0169945D02*
X0092838Y0169945D01*
X0091639Y0171143D02*
X0089525Y0171143D01*
X0089525Y0172342D02*
X0090675Y0172342D01*
X0090675Y0173540D02*
X0089525Y0173540D01*
X0089525Y0174739D02*
X0090675Y0174739D01*
X0090675Y0175937D02*
X0089525Y0175937D01*
X0089525Y0177136D02*
X0091768Y0177136D01*
X0092967Y0178334D02*
X0089525Y0178334D01*
X0079500Y0173650D02*
X0079500Y0184475D01*
X0075512Y0183129D02*
X0073488Y0183129D01*
X0072895Y0181930D02*
X0076105Y0181930D01*
X0079500Y0173650D02*
X0054400Y0148550D01*
X0054225Y0148375D01*
X0054225Y0135175D01*
X0058425Y0135188D02*
X0060825Y0135188D01*
X0060825Y0133990D02*
X0058425Y0133990D01*
X0057781Y0132791D02*
X0060825Y0132791D01*
X0060825Y0131593D02*
X0056582Y0131593D01*
X0059609Y0129196D02*
X0013250Y0129196D01*
X0013250Y0130394D02*
X0060808Y0130394D01*
X0063025Y0129500D02*
X0054400Y0120875D01*
X0058600Y0120806D02*
X0060825Y0120806D01*
X0060825Y0122004D02*
X0058641Y0122004D01*
X0059839Y0123203D02*
X0060825Y0123203D01*
X0057212Y0126799D02*
X0013250Y0126799D01*
X0013250Y0127997D02*
X0058411Y0127997D01*
X0056014Y0125600D02*
X0013250Y0125600D01*
X0013250Y0124401D02*
X0021987Y0124401D01*
X0022660Y0125075D02*
X0020200Y0122615D01*
X0020200Y0121075D01*
X0024200Y0121075D01*
X0024200Y0125075D01*
X0022660Y0125075D01*
X0024200Y0124401D02*
X0024600Y0124401D01*
X0024600Y0125075D02*
X0024600Y0121075D01*
X0028600Y0121075D01*
X0028600Y0122615D01*
X0026140Y0125075D01*
X0024600Y0125075D01*
X0024600Y0123203D02*
X0024200Y0123203D01*
X0024200Y0122004D02*
X0024600Y0122004D01*
X0024600Y0121075D02*
X0024200Y0121075D01*
X0024200Y0120675D01*
X0024600Y0120675D01*
X0024600Y0121075D01*
X0024600Y0120806D02*
X0050200Y0120806D01*
X0050200Y0122004D02*
X0028600Y0122004D01*
X0028600Y0120675D02*
X0024600Y0120675D01*
X0024600Y0116675D01*
X0026140Y0116675D01*
X0028600Y0119135D01*
X0028600Y0120675D01*
X0028600Y0119607D02*
X0050200Y0119607D01*
X0050926Y0118409D02*
X0027874Y0118409D01*
X0026675Y0117210D02*
X0052125Y0117210D01*
X0056675Y0117210D02*
X0060825Y0117210D01*
X0060825Y0116012D02*
X0014974Y0116012D01*
X0013776Y0117210D02*
X0022125Y0117210D01*
X0022660Y0116675D02*
X0024200Y0116675D01*
X0024200Y0120675D01*
X0020200Y0120675D01*
X0020200Y0119135D01*
X0022660Y0116675D01*
X0024200Y0117210D02*
X0024600Y0117210D01*
X0024600Y0118409D02*
X0024200Y0118409D01*
X0024200Y0119607D02*
X0024600Y0119607D01*
X0024200Y0120806D02*
X0013250Y0120806D01*
X0013250Y0122004D02*
X0020200Y0122004D01*
X0020788Y0123203D02*
X0013250Y0123203D01*
X0013250Y0119607D02*
X0020200Y0119607D01*
X0020926Y0118409D02*
X0013250Y0118409D01*
X0011050Y0116825D02*
X0011050Y0165425D01*
X0015775Y0170150D01*
X0016450Y0170825D01*
X0021850Y0176225D01*
X0021850Y0187700D01*
X0035475Y0201325D01*
X0033573Y0196312D02*
X0039501Y0196312D01*
X0038302Y0195114D02*
X0032375Y0195114D01*
X0031176Y0193915D02*
X0037104Y0193915D01*
X0035905Y0192717D02*
X0029978Y0192717D01*
X0028779Y0191518D02*
X0034707Y0191518D01*
X0030290Y0190320D02*
X0027581Y0190320D01*
X0026382Y0189121D02*
X0029142Y0189121D01*
X0028645Y0187923D02*
X0025184Y0187923D01*
X0024050Y0186724D02*
X0028481Y0186724D01*
X0028481Y0185526D02*
X0024050Y0185526D01*
X0024050Y0184327D02*
X0028481Y0184327D01*
X0028481Y0183129D02*
X0024050Y0183129D01*
X0024050Y0181930D02*
X0028481Y0181930D01*
X0028481Y0180732D02*
X0024050Y0180732D01*
X0024050Y0179533D02*
X0028581Y0179533D01*
X0029077Y0178334D02*
X0024050Y0178334D01*
X0024050Y0177136D02*
X0030135Y0177136D01*
X0024050Y0175937D02*
X0040850Y0175937D01*
X0040900Y0174739D02*
X0023475Y0174739D01*
X0022277Y0173540D02*
X0042098Y0173540D01*
X0043297Y0172342D02*
X0021078Y0172342D01*
X0019880Y0171143D02*
X0044495Y0171143D01*
X0045694Y0169945D02*
X0018681Y0169945D01*
X0017483Y0168746D02*
X0046892Y0168746D01*
X0048091Y0167548D02*
X0016284Y0167548D01*
X0015086Y0166349D02*
X0049289Y0166349D01*
X0050488Y0165151D02*
X0020109Y0165151D01*
X0021727Y0163952D02*
X0051686Y0163952D01*
X0052885Y0162754D02*
X0022503Y0162754D01*
X0022950Y0161555D02*
X0053150Y0161555D01*
X0053150Y0160357D02*
X0022950Y0160357D01*
X0022715Y0159158D02*
X0053385Y0159158D01*
X0053881Y0157960D02*
X0023901Y0157960D01*
X0025100Y0156761D02*
X0055059Y0156761D01*
X0058302Y0155563D02*
X0026298Y0155563D01*
X0026425Y0154364D02*
X0057103Y0154364D01*
X0055905Y0153166D02*
X0026425Y0153166D01*
X0026922Y0151967D02*
X0051878Y0151967D01*
X0050679Y0150769D02*
X0028121Y0150769D01*
X0028600Y0149570D02*
X0050200Y0149570D01*
X0050200Y0148372D02*
X0028600Y0148372D01*
X0028600Y0147173D02*
X0050200Y0147173D01*
X0051036Y0145975D02*
X0027764Y0145975D01*
X0026566Y0144776D02*
X0052025Y0144776D01*
X0052025Y0143578D02*
X0026425Y0143578D01*
X0026425Y0142379D02*
X0052025Y0142379D01*
X0052025Y0141181D02*
X0026425Y0141181D01*
X0026425Y0139982D02*
X0052025Y0139982D01*
X0051894Y0138784D02*
X0026556Y0138784D01*
X0027755Y0137585D02*
X0050695Y0137585D01*
X0050025Y0136387D02*
X0028425Y0136387D01*
X0028425Y0135188D02*
X0050025Y0135188D01*
X0050025Y0133990D02*
X0028425Y0133990D01*
X0027781Y0132791D02*
X0050669Y0132791D01*
X0051868Y0131593D02*
X0026582Y0131593D01*
X0024225Y0135175D02*
X0024225Y0148375D01*
X0024225Y0154525D01*
X0018050Y0160700D01*
X0013597Y0162754D02*
X0013250Y0162754D01*
X0013250Y0163952D02*
X0014373Y0163952D01*
X0013887Y0165151D02*
X0015991Y0165151D01*
X0013385Y0159158D02*
X0013250Y0159158D01*
X0013250Y0157960D02*
X0013881Y0157960D01*
X0013250Y0156761D02*
X0015059Y0156761D01*
X0013250Y0155563D02*
X0020076Y0155563D01*
X0021274Y0154364D02*
X0013250Y0154364D01*
X0013250Y0153166D02*
X0022025Y0153166D01*
X0021878Y0151967D02*
X0013250Y0151967D01*
X0013250Y0150769D02*
X0020679Y0150769D01*
X0020200Y0149570D02*
X0013250Y0149570D01*
X0013250Y0148372D02*
X0020200Y0148372D01*
X0020200Y0147173D02*
X0013250Y0147173D01*
X0013250Y0145975D02*
X0021036Y0145975D01*
X0022025Y0144776D02*
X0013250Y0144776D01*
X0013250Y0143578D02*
X0022025Y0143578D01*
X0022025Y0142379D02*
X0013250Y0142379D01*
X0013250Y0141181D02*
X0022025Y0141181D01*
X0022025Y0139982D02*
X0013250Y0139982D01*
X0013250Y0138784D02*
X0021894Y0138784D01*
X0020695Y0137585D02*
X0013250Y0137585D01*
X0013250Y0136387D02*
X0020025Y0136387D01*
X0020025Y0135188D02*
X0013250Y0135188D01*
X0013250Y0133990D02*
X0020025Y0133990D01*
X0020669Y0132791D02*
X0013250Y0132791D01*
X0013250Y0131593D02*
X0021868Y0131593D01*
X0026813Y0124401D02*
X0051987Y0124401D01*
X0050788Y0123203D02*
X0028012Y0123203D01*
X0016173Y0114813D02*
X0060825Y0114813D01*
X0060825Y0113615D02*
X0017371Y0113615D01*
X0018570Y0112416D02*
X0060825Y0112416D01*
X0060825Y0111218D02*
X0019768Y0111218D01*
X0020967Y0110019D02*
X0060825Y0110019D01*
X0060825Y0108821D02*
X0022165Y0108821D01*
X0023364Y0107622D02*
X0060825Y0107622D01*
X0060825Y0106424D02*
X0024562Y0106424D01*
X0025761Y0105225D02*
X0061388Y0105225D01*
X0062587Y0104027D02*
X0026959Y0104027D01*
X0028158Y0102828D02*
X0063785Y0102828D01*
X0064984Y0101630D02*
X0029356Y0101630D01*
X0030555Y0100431D02*
X0066182Y0100431D01*
X0067381Y0099233D02*
X0031754Y0099233D01*
X0032952Y0098034D02*
X0068579Y0098034D01*
X0069900Y0099825D02*
X0082450Y0099825D01*
X0088854Y0098034D02*
X0092204Y0098034D01*
X0091006Y0099233D02*
X0089250Y0099233D01*
X0089250Y0100431D02*
X0089807Y0100431D01*
X0088000Y0096836D02*
X0093403Y0096836D01*
X0094602Y0095637D02*
X0085915Y0095637D01*
X0087574Y0093240D02*
X0095925Y0093240D01*
X0095925Y0092042D02*
X0088678Y0092042D01*
X0089174Y0090843D02*
X0095925Y0090843D01*
X0095925Y0089645D02*
X0089250Y0089645D01*
X0089025Y0088446D02*
X0095925Y0088446D01*
X0095925Y0087248D02*
X0088412Y0087248D01*
X0082450Y0089825D02*
X0038050Y0089825D01*
X0011050Y0116825D01*
X0034151Y0096836D02*
X0076900Y0096836D01*
X0078985Y0095637D02*
X0035349Y0095637D01*
X0036548Y0094439D02*
X0095800Y0094439D01*
X0104654Y0099233D02*
X0105650Y0099233D01*
X0105650Y0100431D02*
X0103455Y0100431D01*
X0102256Y0101630D02*
X0106052Y0101630D01*
X0106046Y0098034D02*
X0105852Y0098034D01*
X0119018Y0088446D02*
X0153860Y0088446D01*
X0153850Y0087248D02*
X0118369Y0087248D01*
X0108114Y0083652D02*
X0102684Y0083652D01*
X0103883Y0082454D02*
X0106539Y0082454D01*
X0106951Y0072866D02*
X0087949Y0072866D01*
X0088833Y0071667D02*
X0106067Y0071667D01*
X0105650Y0070468D02*
X0089250Y0070468D01*
X0089250Y0069270D02*
X0105650Y0069270D01*
X0106030Y0068071D02*
X0088870Y0068071D01*
X0088038Y0066873D02*
X0106862Y0066873D01*
X0108895Y0065674D02*
X0086005Y0065674D01*
X0078895Y0065674D02*
X0076700Y0065674D01*
X0076700Y0064476D02*
X0110250Y0064476D01*
X0107363Y0063277D02*
X0087537Y0063277D01*
X0088662Y0062079D02*
X0106238Y0062079D01*
X0105741Y0060880D02*
X0089159Y0060880D01*
X0089250Y0059682D02*
X0105650Y0059682D01*
X0105860Y0058483D02*
X0089040Y0058483D01*
X0088450Y0057285D02*
X0106450Y0057285D01*
X0107901Y0056086D02*
X0086999Y0056086D01*
X0077901Y0056086D02*
X0076700Y0056086D01*
X0076700Y0054888D02*
X0114276Y0054888D01*
X0116200Y0056075D02*
X0131725Y0056075D01*
X0128194Y0058483D02*
X0119040Y0058483D01*
X0119250Y0059682D02*
X0129392Y0059682D01*
X0128171Y0053689D02*
X0076700Y0053689D01*
X0076700Y0052491D02*
X0129369Y0052491D01*
X0132581Y0046498D02*
X0080438Y0046498D01*
X0081637Y0045300D02*
X0131975Y0045300D01*
X0136925Y0044101D02*
X0151975Y0044101D01*
X0151975Y0042903D02*
X0141475Y0042903D01*
X0141222Y0041704D02*
X0152228Y0041704D01*
X0153427Y0040506D02*
X0140023Y0040506D01*
X0138825Y0039307D02*
X0154625Y0039307D01*
X0151975Y0045300D02*
X0141475Y0045300D01*
X0140869Y0046498D02*
X0152581Y0046498D01*
X0136925Y0042903D02*
X0136525Y0042903D01*
X0136525Y0041704D02*
X0136925Y0041704D01*
X0136925Y0040506D02*
X0136525Y0040506D01*
X0136525Y0039307D02*
X0136925Y0039307D01*
X0116200Y0056075D02*
X0112450Y0059825D01*
X0112450Y0069825D01*
X0138702Y0077660D02*
X0153398Y0077660D01*
X0152199Y0078858D02*
X0139901Y0078858D01*
X0140800Y0080057D02*
X0151300Y0080057D01*
X0157525Y0094439D02*
X0135925Y0094439D01*
X0135227Y0095637D02*
X0158223Y0095637D01*
X0159421Y0096836D02*
X0134029Y0096836D01*
X0110250Y0114813D02*
X0101223Y0114813D01*
X0076502Y0112416D02*
X0073325Y0112416D01*
X0073325Y0111218D02*
X0075881Y0111218D01*
X0075650Y0110019D02*
X0073325Y0110019D01*
X0074140Y0108821D02*
X0075720Y0108821D01*
X0075339Y0107622D02*
X0076216Y0107622D01*
X0060825Y0118409D02*
X0057874Y0118409D01*
X0058600Y0119607D02*
X0060825Y0119607D01*
X0060825Y0136387D02*
X0058425Y0136387D01*
X0057755Y0137585D02*
X0060825Y0137585D01*
X0060825Y0138784D02*
X0056556Y0138784D01*
X0056425Y0139982D02*
X0060825Y0139982D01*
X0082139Y0145975D02*
X0102413Y0145975D01*
X0102550Y0147173D02*
X0083175Y0147173D01*
X0083672Y0148372D02*
X0102550Y0148372D01*
X0103181Y0149570D02*
X0097638Y0149570D01*
X0093212Y0149570D02*
X0083700Y0149570D01*
X0083700Y0150769D02*
X0092014Y0150769D01*
X0090815Y0151967D02*
X0083700Y0151967D01*
X0075405Y0155563D02*
X0073595Y0155563D01*
X0073099Y0156761D02*
X0075901Y0156761D01*
X0077045Y0157960D02*
X0071955Y0157960D01*
X0084898Y0156761D02*
X0091394Y0156761D01*
X0092592Y0157960D02*
X0086096Y0157960D01*
X0108950Y0156761D02*
X0124077Y0156761D01*
X0122879Y0157960D02*
X0111874Y0157960D01*
X0112978Y0159158D02*
X0121680Y0159158D01*
X0120900Y0160357D02*
X0113474Y0160357D01*
X0113550Y0161555D02*
X0120900Y0161555D01*
X0120900Y0162754D02*
X0113325Y0162754D01*
X0112712Y0163952D02*
X0120900Y0163952D01*
X0120900Y0165151D02*
X0111209Y0165151D01*
X0125506Y0161555D02*
X0136550Y0161555D01*
X0136950Y0161175D02*
X0136950Y0157175D01*
X0139681Y0157175D01*
X0140334Y0157278D01*
X0140962Y0157483D01*
X0141551Y0157783D01*
X0142086Y0158171D01*
X0142554Y0158639D01*
X0142942Y0159174D01*
X0143242Y0159763D01*
X0143447Y0160391D01*
X0143550Y0161044D01*
X0143550Y0161175D01*
X0136950Y0161175D01*
X0136950Y0160357D02*
X0136550Y0160357D01*
X0136550Y0159158D02*
X0136950Y0159158D01*
X0136950Y0157960D02*
X0136550Y0157960D01*
X0136550Y0162754D02*
X0136950Y0162754D01*
X0136950Y0163952D02*
X0136550Y0163952D01*
X0136550Y0165151D02*
X0136950Y0165151D01*
X0141191Y0165151D02*
X0167766Y0165151D01*
X0165501Y0160357D02*
X0143435Y0160357D01*
X0142931Y0159158D02*
X0165997Y0159158D01*
X0167100Y0157960D02*
X0141795Y0157960D01*
X0130070Y0150769D02*
X0109121Y0150769D01*
X0108950Y0151967D02*
X0128871Y0151967D01*
X0127673Y0153166D02*
X0108950Y0153166D01*
X0108950Y0154364D02*
X0126474Y0154364D01*
X0125276Y0155563D02*
X0108950Y0155563D01*
X0110319Y0149570D02*
X0131268Y0149570D01*
X0132467Y0148372D02*
X0110950Y0148372D01*
X0134880Y0177136D02*
X0174126Y0177136D01*
X0172436Y0178334D02*
X0136539Y0178334D01*
X0137298Y0179533D02*
X0171685Y0179533D01*
X0171306Y0180732D02*
X0137626Y0180732D01*
X0137668Y0181930D02*
X0171306Y0181930D01*
X0179314Y0178334D02*
X0182436Y0178334D01*
X0181685Y0179533D02*
X0180065Y0179533D01*
X0180443Y0180732D02*
X0181306Y0180732D01*
X0181306Y0181930D02*
X0180443Y0181930D01*
X0180443Y0183129D02*
X0181306Y0183129D01*
X0181306Y0184327D02*
X0180443Y0184327D01*
X0180470Y0185526D02*
X0181306Y0185526D01*
X0185875Y0184325D02*
X0185875Y0163550D01*
X0202225Y0147200D01*
X0205794Y0149570D02*
X0226315Y0149570D01*
X0225716Y0150769D02*
X0204596Y0150769D01*
X0206425Y0148372D02*
X0227786Y0148372D01*
X0225500Y0151967D02*
X0200569Y0151967D01*
X0199370Y0153166D02*
X0225585Y0153166D01*
X0226081Y0154364D02*
X0198172Y0154364D01*
X0197180Y0157960D02*
X0194576Y0157960D01*
X0193378Y0159158D02*
X0196044Y0159158D01*
X0202025Y0159158D02*
X0202425Y0159158D01*
X0202425Y0157960D02*
X0202025Y0157960D01*
X0202025Y0160357D02*
X0202425Y0160357D01*
X0202425Y0161555D02*
X0219558Y0161555D01*
X0217450Y0166775D02*
X0217450Y0174575D01*
X0219650Y0176775D01*
X0215250Y0172342D02*
X0188075Y0172342D01*
X0188075Y0173540D02*
X0213379Y0173540D01*
X0212514Y0174739D02*
X0188075Y0174739D01*
X0188075Y0171143D02*
X0215250Y0171143D01*
X0214680Y0169945D02*
X0188075Y0169945D01*
X0188075Y0168746D02*
X0213482Y0168746D01*
X0213250Y0167548D02*
X0188075Y0167548D01*
X0202025Y0165151D02*
X0202425Y0165151D01*
X0202425Y0163952D02*
X0202025Y0163952D01*
X0202025Y0162754D02*
X0202425Y0162754D01*
X0217450Y0166775D02*
X0232100Y0152125D01*
X0232300Y0152125D01*
X0236814Y0148372D02*
X0245250Y0148372D01*
X0245250Y0149570D02*
X0238285Y0149570D01*
X0238884Y0150769D02*
X0245250Y0150769D01*
X0245250Y0151967D02*
X0239100Y0151967D01*
X0239015Y0153166D02*
X0245250Y0153166D01*
X0245250Y0154364D02*
X0238519Y0154364D01*
X0237402Y0155563D02*
X0245250Y0155563D01*
X0260144Y0181930D02*
X0200443Y0181930D01*
X0196259Y0185526D02*
X0195491Y0185526D01*
X0195491Y0186724D02*
X0196259Y0186724D01*
X0196259Y0187923D02*
X0195491Y0187923D01*
X0195491Y0189121D02*
X0196259Y0189121D01*
X0196259Y0190320D02*
X0195491Y0190320D01*
X0191306Y0183129D02*
X0190443Y0183129D01*
X0190443Y0181930D02*
X0191306Y0181930D01*
X0191349Y0180732D02*
X0190443Y0180732D01*
X0190065Y0179533D02*
X0191677Y0179533D01*
X0192436Y0178334D02*
X0189314Y0178334D01*
X0183675Y0177136D02*
X0177624Y0177136D01*
X0177614Y0191518D02*
X0179674Y0191518D01*
X0201210Y0198709D02*
X0214631Y0198709D01*
X0214884Y0198838D02*
X0214239Y0198509D01*
X0213653Y0198084D01*
X0213141Y0197572D01*
X0212716Y0196986D01*
X0212387Y0196341D01*
X0212163Y0195652D01*
X0212056Y0194975D01*
X0219250Y0194975D01*
X0219250Y0199175D01*
X0216288Y0199175D01*
X0215573Y0199062D01*
X0214884Y0198838D01*
X0213097Y0197511D02*
X0202408Y0197511D01*
X0203607Y0196312D02*
X0212378Y0196312D01*
X0212078Y0195114D02*
X0204805Y0195114D01*
X0206004Y0193915D02*
X0212097Y0193915D01*
X0212056Y0194175D02*
X0212163Y0193498D01*
X0212387Y0192809D01*
X0212716Y0192164D01*
X0213141Y0191578D01*
X0213653Y0191066D01*
X0214239Y0190641D01*
X0214884Y0190312D01*
X0215573Y0190088D01*
X0216288Y0189975D01*
X0219250Y0189975D01*
X0219250Y0194175D01*
X0220050Y0194175D01*
X0220050Y0194975D01*
X0219250Y0194975D01*
X0219250Y0194175D01*
X0212056Y0194175D01*
X0212434Y0192717D02*
X0207202Y0192717D01*
X0208401Y0191518D02*
X0213201Y0191518D01*
X0214869Y0190320D02*
X0209599Y0190320D01*
X0210798Y0189121D02*
X0248702Y0189121D01*
X0247503Y0187923D02*
X0211997Y0187923D01*
X0219250Y0190320D02*
X0220050Y0190320D01*
X0220050Y0189975D02*
X0223012Y0189975D01*
X0223727Y0190088D01*
X0224416Y0190312D01*
X0225061Y0190641D01*
X0225647Y0191066D01*
X0226159Y0191578D01*
X0226584Y0192164D01*
X0226913Y0192809D01*
X0227137Y0193498D01*
X0227244Y0194175D01*
X0220050Y0194175D01*
X0220050Y0189975D01*
X0220050Y0191518D02*
X0219250Y0191518D01*
X0219250Y0192717D02*
X0220050Y0192717D01*
X0220050Y0193915D02*
X0219250Y0193915D01*
X0219250Y0195114D02*
X0220050Y0195114D01*
X0220050Y0194975D02*
X0220050Y0199175D01*
X0223012Y0199175D01*
X0223727Y0199062D01*
X0224416Y0198838D01*
X0225061Y0198509D01*
X0225647Y0198084D01*
X0226159Y0197572D01*
X0226584Y0196986D01*
X0226913Y0196341D01*
X0227137Y0195652D01*
X0227244Y0194975D01*
X0220050Y0194975D01*
X0220050Y0196312D02*
X0219250Y0196312D01*
X0219250Y0197511D02*
X0220050Y0197511D01*
X0220050Y0198709D02*
X0219250Y0198709D01*
X0224669Y0198709D02*
X0240231Y0198709D01*
X0238697Y0197511D02*
X0226203Y0197511D01*
X0226922Y0196312D02*
X0237978Y0196312D01*
X0237678Y0195114D02*
X0227222Y0195114D01*
X0227203Y0193915D02*
X0237697Y0193915D01*
X0237656Y0194175D02*
X0237763Y0193498D01*
X0237987Y0192809D01*
X0238316Y0192164D01*
X0238741Y0191578D01*
X0239253Y0191066D01*
X0239839Y0190641D01*
X0240484Y0190312D01*
X0241173Y0190088D01*
X0241888Y0189975D01*
X0244850Y0189975D01*
X0244850Y0194175D01*
X0237656Y0194175D01*
X0238034Y0192717D02*
X0226866Y0192717D01*
X0226098Y0191518D02*
X0238801Y0191518D01*
X0240469Y0190320D02*
X0224431Y0190320D01*
X0244850Y0190320D02*
X0245650Y0190320D01*
X0245650Y0191518D02*
X0244850Y0191518D01*
X0244850Y0192717D02*
X0245650Y0192717D01*
X0245650Y0193915D02*
X0244850Y0193915D01*
X0244850Y0195114D02*
X0245650Y0195114D01*
X0245650Y0196312D02*
X0244850Y0196312D01*
X0244850Y0197511D02*
X0245650Y0197511D01*
X0245650Y0198709D02*
X0244850Y0198709D01*
X0133484Y0190320D02*
X0132716Y0190320D01*
X0132716Y0189121D02*
X0133484Y0189121D01*
X0133484Y0187923D02*
X0132716Y0187923D01*
X0132716Y0186724D02*
X0133484Y0186724D01*
X0133484Y0185526D02*
X0132716Y0185526D01*
X0128531Y0183129D02*
X0127668Y0183129D01*
X0127668Y0181930D02*
X0128531Y0181930D01*
X0128574Y0180732D02*
X0127668Y0180732D01*
X0127290Y0179533D02*
X0128902Y0179533D01*
X0129661Y0178334D02*
X0126539Y0178334D01*
X0116899Y0191518D02*
X0114839Y0191518D01*
X0040750Y0194450D02*
X0033050Y0186750D01*
X0033050Y0183650D01*
X0037618Y0181930D02*
X0038481Y0181930D01*
X0038481Y0180732D02*
X0037618Y0180732D01*
X0037519Y0179533D02*
X0038581Y0179533D01*
X0039077Y0178334D02*
X0037023Y0178334D01*
X0035965Y0177136D02*
X0040135Y0177136D01*
X0024400Y0148550D02*
X0024225Y0148375D01*
X0037746Y0093240D02*
X0077326Y0093240D01*
X0076222Y0092042D02*
X0038945Y0092042D01*
X0076700Y0076461D02*
X0077274Y0076461D01*
X0076862Y0066873D02*
X0076700Y0066873D01*
X0076700Y0063277D02*
X0077363Y0063277D01*
X0235999Y0098034D02*
X0236198Y0098034D01*
X0303725Y0032116D02*
X0304525Y0032116D01*
X0304525Y0030918D02*
X0303725Y0030918D01*
X0303725Y0029719D02*
X0304525Y0029719D01*
X0304525Y0028521D02*
X0303725Y0028521D01*
X0303725Y0027322D02*
X0304525Y0027322D01*
X0304525Y0026124D02*
X0303725Y0026124D01*
X0299525Y0024925D02*
X0298725Y0024925D01*
X0298725Y0023727D02*
X0299525Y0023727D01*
X0299525Y0022528D02*
X0298725Y0022528D01*
X0298536Y0021330D02*
X0299734Y0021330D01*
X0308725Y0023727D02*
X0309040Y0023727D01*
X0308725Y0024925D02*
X0309525Y0024925D01*
X0309525Y0026124D02*
X0308725Y0026124D01*
X0308725Y0027322D02*
X0309525Y0027322D01*
X0309525Y0028521D02*
X0308725Y0028521D01*
X0308621Y0029719D02*
X0309568Y0029719D01*
X0310065Y0030918D02*
X0308158Y0030918D01*
X0307214Y0032116D02*
X0311036Y0032116D01*
X0324125Y0024900D02*
X0324125Y0024775D01*
X0321387Y0018932D02*
X0321269Y0018932D01*
X0320070Y0017734D02*
X0359644Y0017734D01*
X0359740Y0016535D02*
X0318872Y0016535D01*
X0317673Y0015337D02*
X0360061Y0015337D01*
X0360408Y0014138D02*
X0316475Y0014138D01*
D19*
X0275650Y0184325D02*
X0275650Y0187025D01*
X0267550Y0195125D01*
X0258100Y0195125D01*
X0247975Y0185000D01*
X0211525Y0185000D01*
X0199375Y0197150D01*
X0189250Y0197150D01*
X0188700Y0197150D01*
X0125925Y0197150D01*
X0113100Y0184325D01*
X0175875Y0184325D02*
X0188700Y0197150D01*
X0275650Y0188375D02*
X0275650Y0184325D01*
M02*
