%
M48
M72
T01C0.03200
T02C0.04000
T03C0.05200
%
T01
X28000Y55500
X43000Y55500
X58000Y55500
X88000Y55500
X103000Y55500
X118000Y55500
X148000Y55500
X163000Y55500
X178000Y55500
X208000Y55500
X223000Y55500
X238000Y55500
X238000Y85500
X223000Y85500
X208000Y85500
X178000Y85500
X163000Y85500
X148000Y85500
X148000Y100500
X118000Y100500
X118000Y85500
X103000Y85500
X88000Y85500
X88000Y100500
X58000Y100500
X58000Y85500
X43000Y85500
X28000Y85500
X28000Y100500
X178000Y100500
X208000Y100500
X238000Y100500
T02
X233000Y120500
X243000Y120500
X223000Y120500
X213000Y120500
X203000Y120500
X183000Y120500
X173000Y120500
X163000Y120500
X153000Y120500
X143000Y120500
X123000Y120500
X113000Y120500
X103000Y120500
X93000Y120500
X83000Y120500
X63000Y120500
X53000Y120500
X43000Y120500
X33000Y120500
X23000Y120500
T03
X33100Y25500
X52900Y25500
X93100Y25500
X112900Y25500
X153100Y25500
X172900Y25500
X213100Y25500
X232900Y25500
M30
