G75*
%MOIN*%
%OFA0B0*%
%FSLAX25Y25*%
%IPPOS*%
%LPD*%
%AMOC8*
5,1,8,0,0,1.08239X$1,22.5*
%
%ADD10C,0.05200*%
%ADD11C,0.04400*%
%ADD12C,0.06000*%
%ADD13OC8,0.05200*%
%ADD14OC8,0.06300*%
%ADD15C,0.05937*%
%ADD16C,0.05200*%
%ADD17C,0.02400*%
%ADD18C,0.04750*%
%ADD19C,0.01600*%
D10*
X0070376Y0087875D02*
X0070376Y0093075D01*
X0070376Y0117875D02*
X0070376Y0123075D01*
X0069699Y0131749D02*
X0069699Y0136949D01*
X0069699Y0161749D02*
X0069699Y0166949D01*
X0196551Y0168401D02*
X0201751Y0168401D01*
X0201751Y0178401D02*
X0196551Y0178401D01*
X0196551Y0188401D02*
X0201751Y0188401D01*
X0201751Y0198401D02*
X0196551Y0198401D01*
X0196551Y0208401D02*
X0201751Y0208401D01*
X0201751Y0218401D02*
X0196551Y0218401D01*
X0226551Y0218401D02*
X0231751Y0218401D01*
X0231751Y0208401D02*
X0226551Y0208401D01*
X0226551Y0198401D02*
X0231751Y0198401D01*
X0231751Y0188401D02*
X0226551Y0188401D01*
X0226551Y0178401D02*
X0231751Y0178401D01*
X0231751Y0168401D02*
X0226551Y0168401D01*
X0226551Y0158401D02*
X0231751Y0158401D01*
X0231751Y0148401D02*
X0226551Y0148401D01*
X0226551Y0138401D02*
X0231751Y0138401D01*
X0231751Y0128401D02*
X0226551Y0128401D01*
X0226551Y0118401D02*
X0231751Y0118401D01*
X0231751Y0108401D02*
X0226551Y0108401D01*
X0226551Y0098401D02*
X0231751Y0098401D01*
X0231751Y0088401D02*
X0226551Y0088401D01*
X0201751Y0088401D02*
X0196551Y0088401D01*
X0196551Y0098401D02*
X0201751Y0098401D01*
X0201751Y0108401D02*
X0196551Y0108401D01*
X0196551Y0118401D02*
X0201751Y0118401D01*
X0201751Y0128401D02*
X0196551Y0128401D01*
X0196551Y0138401D02*
X0201751Y0138401D01*
X0201751Y0148401D02*
X0196551Y0148401D01*
X0196551Y0158401D02*
X0201751Y0158401D01*
D11*
X0138725Y0115476D02*
X0134325Y0115476D01*
X0134325Y0095476D02*
X0138725Y0095476D01*
D12*
X0218575Y0060675D02*
X0224575Y0060675D01*
X0224575Y0050675D02*
X0218575Y0050675D01*
X0218575Y0040675D02*
X0224575Y0040675D01*
X0224575Y0030675D02*
X0218575Y0030675D01*
X0218575Y0020675D02*
X0224575Y0020675D01*
X0096976Y0195799D02*
X0090976Y0195799D01*
X0071376Y0195799D02*
X0065376Y0195799D01*
X0065376Y0213599D02*
X0071376Y0213599D01*
X0090976Y0213599D02*
X0096976Y0213599D01*
D13*
X0096851Y0183099D03*
X0085227Y0164349D03*
X0066851Y0183099D03*
X0085227Y0134349D03*
X0085900Y0120475D03*
X0085900Y0090475D03*
X0153250Y0155425D03*
X0183250Y0155425D03*
X0183251Y0190525D03*
X0153251Y0190525D03*
D14*
X0158926Y0177699D03*
X0178926Y0177699D03*
X0178249Y0139224D03*
X0158249Y0139224D03*
X0158249Y0114925D03*
X0178249Y0114925D03*
X0178249Y0095350D03*
X0158249Y0095350D03*
X0091851Y0227650D03*
X0071851Y0227650D03*
X0054726Y0228326D03*
X0034726Y0228326D03*
D15*
X0040406Y0208623D02*
X0046344Y0208623D01*
X0046344Y0198623D02*
X0040406Y0198623D01*
X0040406Y0188623D02*
X0046344Y0188623D01*
X0045668Y0157998D02*
X0039731Y0157998D01*
X0039731Y0147998D02*
X0045668Y0147998D01*
X0045668Y0137998D02*
X0039731Y0137998D01*
X0041081Y0113451D02*
X0047018Y0113451D01*
X0047018Y0103451D02*
X0041081Y0103451D01*
X0041081Y0093451D02*
X0047018Y0093451D01*
X0112350Y0221306D02*
X0112350Y0227244D01*
X0122350Y0227244D02*
X0122350Y0221306D01*
X0132350Y0221306D02*
X0132350Y0227244D01*
X0150550Y0227244D02*
X0150550Y0221306D01*
X0160550Y0221306D02*
X0160550Y0227244D01*
X0170550Y0227244D02*
X0170550Y0221306D01*
X0180550Y0221306D02*
X0180550Y0227244D01*
X0266499Y0098992D02*
X0266499Y0093055D01*
X0276499Y0093055D02*
X0276499Y0098992D01*
X0286499Y0098992D02*
X0286499Y0093055D01*
X0296499Y0093055D02*
X0296499Y0098992D01*
X0306499Y0098992D02*
X0306499Y0093055D01*
X0316499Y0093055D02*
X0316499Y0098992D01*
X0326499Y0098992D02*
X0326499Y0093055D01*
D16*
X0139375Y0147175D03*
X0139375Y0157175D03*
X0139375Y0167175D03*
X0139375Y0177175D03*
X0109375Y0177175D03*
X0109375Y0167175D03*
X0109375Y0157175D03*
X0109375Y0147175D03*
D17*
X0089575Y0064084D02*
X0089575Y0022056D01*
X0091136Y0022474D01*
X0094164Y0022474D01*
X0097089Y0021691D01*
X0099711Y0020177D01*
X0101852Y0018036D01*
X0103366Y0015414D01*
X0104149Y0012489D01*
X0104149Y0009461D01*
X0103731Y0007900D01*
X0236638Y0007900D01*
X0236401Y0008786D01*
X0236401Y0011814D01*
X0237184Y0014739D01*
X0238698Y0017361D01*
X0240839Y0019502D01*
X0243461Y0021016D01*
X0246386Y0021799D01*
X0249414Y0021799D01*
X0250300Y0021562D01*
X0250300Y0064084D01*
X0251168Y0066179D01*
X0252771Y0067782D01*
X0254866Y0068650D01*
X0345313Y0068650D01*
X0345076Y0069536D01*
X0345076Y0072564D01*
X0345859Y0075489D01*
X0347373Y0078111D01*
X0349514Y0080252D01*
X0352136Y0081766D01*
X0355061Y0082549D01*
X0358089Y0082549D01*
X0359650Y0082131D01*
X0359650Y0239519D01*
X0358089Y0239101D01*
X0355061Y0239101D01*
X0354855Y0239156D01*
X0354855Y0236988D01*
X0354099Y0234163D01*
X0352637Y0231631D01*
X0350569Y0229563D01*
X0351175Y0230169D01*
X0351175Y0100931D01*
X0350569Y0101537D01*
X0348037Y0102999D01*
X0345212Y0103755D01*
X0342288Y0103755D01*
X0339463Y0102999D01*
X0336931Y0101537D01*
X0334863Y0099469D01*
X0333401Y0096937D01*
X0332644Y0094112D01*
X0332644Y0091188D01*
X0333401Y0088363D01*
X0334863Y0085831D01*
X0335469Y0085225D01*
X0327132Y0085225D01*
X0328765Y0086858D01*
X0329890Y0087984D01*
X0330106Y0088503D01*
X0331390Y0089787D01*
X0332268Y0091907D01*
X0332268Y0100139D01*
X0331390Y0102259D01*
X0329767Y0103882D01*
X0327647Y0104760D01*
X0325352Y0104760D01*
X0323985Y0104194D01*
X0287513Y0140667D01*
X0286387Y0141792D01*
X0284917Y0142401D01*
X0283456Y0142401D01*
X0248816Y0177041D01*
X0247346Y0177650D01*
X0241825Y0177650D01*
X0241825Y0230169D01*
X0242431Y0229563D01*
X0244963Y0228101D01*
X0247788Y0227344D01*
X0250712Y0227344D01*
X0253537Y0228101D01*
X0256069Y0229563D01*
X0258137Y0231631D01*
X0259599Y0234163D01*
X0260355Y0236988D01*
X0260355Y0239912D01*
X0259599Y0242737D01*
X0258137Y0245269D01*
X0257531Y0245875D01*
X0335469Y0245875D01*
X0334863Y0245269D01*
X0333401Y0242737D01*
X0332644Y0239912D01*
X0332644Y0236988D01*
X0333401Y0234163D01*
X0334863Y0231631D01*
X0336931Y0229563D01*
X0339463Y0228101D01*
X0342288Y0227344D01*
X0345212Y0227344D01*
X0348037Y0228101D01*
X0350569Y0229563D01*
X0348037Y0228101D01*
X0345212Y0227344D01*
X0342288Y0227344D01*
X0339463Y0228101D01*
X0336931Y0229563D01*
X0334863Y0231631D01*
X0333401Y0234163D01*
X0332644Y0236988D01*
X0332644Y0239912D01*
X0333401Y0242737D01*
X0334863Y0245269D01*
X0336931Y0247337D01*
X0339463Y0248799D01*
X0342288Y0249555D01*
X0345076Y0249555D01*
X0345076Y0252114D01*
X0345313Y0253000D01*
X0021562Y0253000D01*
X0021799Y0252114D01*
X0021799Y0249086D01*
X0021016Y0246161D01*
X0019502Y0243539D01*
X0017361Y0241398D01*
X0014739Y0239884D01*
X0011814Y0239101D01*
X0008786Y0239101D01*
X0007900Y0239338D01*
X0007900Y0082312D01*
X0008786Y0082549D01*
X0011814Y0082549D01*
X0014739Y0081766D01*
X0017361Y0080252D01*
X0019502Y0078111D01*
X0021016Y0075489D01*
X0021799Y0072564D01*
X0021799Y0069536D01*
X0021562Y0068650D01*
X0085009Y0068650D01*
X0087104Y0067782D01*
X0088707Y0066179D01*
X0089575Y0064084D01*
X0089189Y0065015D02*
X0208725Y0065015D01*
X0208725Y0062617D02*
X0089575Y0062617D01*
X0089575Y0060218D02*
X0208725Y0060218D01*
X0208725Y0057820D02*
X0089575Y0057820D01*
X0089575Y0055421D02*
X0208725Y0055421D01*
X0208725Y0053023D02*
X0089575Y0053023D01*
X0089575Y0050624D02*
X0208725Y0050624D01*
X0208725Y0049449D02*
X0209243Y0048199D01*
X0210199Y0047243D01*
X0214065Y0043376D01*
X0213375Y0041709D01*
X0213375Y0039641D01*
X0214167Y0037729D01*
X0215629Y0036267D01*
X0217092Y0035661D01*
X0216579Y0035494D01*
X0215850Y0035122D01*
X0215187Y0034641D01*
X0214609Y0034063D01*
X0214128Y0033400D01*
X0213756Y0032671D01*
X0213503Y0031893D01*
X0213375Y0031084D01*
X0213375Y0030675D01*
X0221575Y0030675D01*
X0221575Y0030675D01*
X0213375Y0030675D01*
X0213375Y0030266D01*
X0213503Y0029457D01*
X0213756Y0028679D01*
X0214128Y0027950D01*
X0214609Y0027287D01*
X0215187Y0026709D01*
X0215850Y0026228D01*
X0216579Y0025856D01*
X0217092Y0025689D01*
X0215629Y0025083D01*
X0214167Y0023621D01*
X0213375Y0021709D01*
X0213375Y0019641D01*
X0214167Y0017729D01*
X0215629Y0016267D01*
X0217541Y0015475D01*
X0225609Y0015475D01*
X0227521Y0016267D01*
X0228983Y0017729D01*
X0229775Y0019641D01*
X0229775Y0021709D01*
X0229085Y0023376D01*
X0242401Y0036693D01*
X0243357Y0037649D01*
X0243875Y0038899D01*
X0243875Y0063567D01*
X0253358Y0073050D01*
X0313376Y0073050D01*
X0314626Y0073568D01*
X0328425Y0087367D01*
X0329382Y0088323D01*
X0329597Y0088843D01*
X0330881Y0090127D01*
X0331668Y0092027D01*
X0331668Y0100020D01*
X0330881Y0101919D01*
X0329427Y0103373D01*
X0327527Y0104160D01*
X0325471Y0104160D01*
X0323845Y0103486D01*
X0287004Y0140327D01*
X0286048Y0141283D01*
X0284798Y0141801D01*
X0283207Y0141801D01*
X0248476Y0176532D01*
X0247226Y0177050D01*
X0236386Y0177050D01*
X0236551Y0177446D01*
X0236551Y0179356D01*
X0235820Y0181120D01*
X0234470Y0182470D01*
X0232705Y0183201D01*
X0225596Y0183201D01*
X0223832Y0182470D01*
X0222481Y0181120D01*
X0221751Y0179356D01*
X0221751Y0177446D01*
X0221915Y0177050D01*
X0213723Y0177050D01*
X0212474Y0176532D01*
X0211517Y0175576D01*
X0210525Y0174584D01*
X0210525Y0221066D01*
X0221893Y0209699D01*
X0221751Y0209356D01*
X0221751Y0207446D01*
X0222481Y0205682D01*
X0223832Y0204332D01*
X0225596Y0203601D01*
X0232705Y0203601D01*
X0234470Y0204332D01*
X0235820Y0205682D01*
X0236551Y0207446D01*
X0236551Y0209356D01*
X0235820Y0211120D01*
X0234470Y0212470D01*
X0232705Y0213201D01*
X0228007Y0213201D01*
X0227607Y0213601D01*
X0232705Y0213601D01*
X0234470Y0214332D01*
X0235820Y0215682D01*
X0236551Y0217446D01*
X0236551Y0219356D01*
X0235820Y0221120D01*
X0234470Y0222470D01*
X0232705Y0223201D01*
X0229159Y0223201D01*
X0217466Y0234894D01*
X0216216Y0235412D01*
X0177898Y0235412D01*
X0176649Y0234894D01*
X0175692Y0233938D01*
X0173408Y0231654D01*
X0171578Y0232412D01*
X0169522Y0232412D01*
X0167622Y0231625D01*
X0166168Y0230171D01*
X0165532Y0228635D01*
X0165340Y0229228D01*
X0164970Y0229952D01*
X0164492Y0230611D01*
X0163917Y0231186D01*
X0163259Y0231664D01*
X0162534Y0232033D01*
X0161760Y0232285D01*
X0160957Y0232412D01*
X0160550Y0232412D01*
X0160550Y0224275D01*
X0160550Y0224275D01*
X0160550Y0232412D01*
X0160143Y0232412D01*
X0159340Y0232285D01*
X0158566Y0232033D01*
X0157841Y0231664D01*
X0157183Y0231186D01*
X0156608Y0230611D01*
X0156130Y0229952D01*
X0155760Y0229228D01*
X0155568Y0228635D01*
X0154932Y0230171D01*
X0153478Y0231625D01*
X0151578Y0232412D01*
X0149522Y0232412D01*
X0147622Y0231625D01*
X0146168Y0230171D01*
X0145381Y0228272D01*
X0145381Y0220278D01*
X0146140Y0218448D01*
X0141192Y0213500D01*
X0121733Y0213500D01*
X0116768Y0218466D01*
X0117368Y0219915D01*
X0117560Y0219322D01*
X0117930Y0218598D01*
X0118408Y0217939D01*
X0118983Y0217364D01*
X0119641Y0216886D01*
X0120366Y0216517D01*
X0121140Y0216265D01*
X0121943Y0216138D01*
X0122350Y0216138D01*
X0122757Y0216138D01*
X0123560Y0216265D01*
X0124334Y0216517D01*
X0125059Y0216886D01*
X0125717Y0217364D01*
X0126292Y0217939D01*
X0126770Y0218598D01*
X0127140Y0219322D01*
X0127332Y0219915D01*
X0127968Y0218379D01*
X0129422Y0216925D01*
X0131322Y0216138D01*
X0133378Y0216138D01*
X0135278Y0216925D01*
X0136732Y0218379D01*
X0137518Y0220278D01*
X0137518Y0228272D01*
X0136732Y0230171D01*
X0135278Y0231625D01*
X0133378Y0232412D01*
X0131322Y0232412D01*
X0129695Y0231738D01*
X0119032Y0242401D01*
X0118076Y0243357D01*
X0116826Y0243875D01*
X0031899Y0243875D01*
X0030649Y0243357D01*
X0029693Y0242401D01*
X0025643Y0238351D01*
X0025249Y0237957D01*
X0021874Y0234582D01*
X0020918Y0233626D01*
X0020400Y0232376D01*
X0020400Y0088599D01*
X0020918Y0087349D01*
X0028343Y0079924D01*
X0029299Y0078968D01*
X0030549Y0078450D01*
X0181076Y0078450D01*
X0182326Y0078968D01*
X0190426Y0087068D01*
X0191382Y0088024D01*
X0191751Y0088913D01*
X0191751Y0087446D01*
X0192481Y0085682D01*
X0193832Y0084332D01*
X0195596Y0083601D01*
X0199142Y0083601D01*
X0208725Y0074018D01*
X0208725Y0049449D01*
X0209232Y0048226D02*
X0089575Y0048226D01*
X0089575Y0045827D02*
X0211615Y0045827D01*
X0214013Y0043429D02*
X0089575Y0043429D01*
X0089575Y0041030D02*
X0213375Y0041030D01*
X0213793Y0038632D02*
X0089575Y0038632D01*
X0089575Y0036233D02*
X0215711Y0036233D01*
X0214443Y0033835D02*
X0089575Y0033835D01*
X0089575Y0031436D02*
X0213431Y0031436D01*
X0213639Y0029038D02*
X0089575Y0029038D01*
X0089575Y0026639D02*
X0215283Y0026639D01*
X0214787Y0024241D02*
X0089575Y0024241D01*
X0096523Y0021842D02*
X0213430Y0021842D01*
X0213457Y0019443D02*
X0100444Y0019443D01*
X0102424Y0017045D02*
X0214851Y0017045D01*
X0221575Y0020675D02*
X0240475Y0039575D01*
X0240475Y0064975D01*
X0251950Y0076450D01*
X0312700Y0076450D01*
X0326499Y0090249D01*
X0326499Y0096023D01*
X0284122Y0138401D01*
X0281799Y0138401D01*
X0246550Y0173650D01*
X0214400Y0173650D01*
X0207525Y0166775D01*
X0207125Y0167175D01*
X0207125Y0220500D01*
X0204700Y0222925D01*
X0193900Y0222925D01*
X0181075Y0210100D01*
X0142600Y0210100D01*
X0150550Y0218050D01*
X0150550Y0224275D01*
X0145381Y0223317D02*
X0137518Y0223317D01*
X0137518Y0225715D02*
X0145381Y0225715D01*
X0145381Y0228114D02*
X0137518Y0228114D01*
X0136390Y0230512D02*
X0146510Y0230512D01*
X0154590Y0230512D02*
X0156536Y0230512D01*
X0160550Y0230512D02*
X0160550Y0230512D01*
X0160550Y0228114D02*
X0160550Y0228114D01*
X0160550Y0225715D02*
X0160550Y0225715D01*
X0160550Y0224275D02*
X0160550Y0216138D01*
X0160957Y0216138D01*
X0161760Y0216265D01*
X0162534Y0216517D01*
X0163259Y0216886D01*
X0163917Y0217364D01*
X0164492Y0217939D01*
X0164970Y0218598D01*
X0165340Y0219322D01*
X0165532Y0219915D01*
X0166168Y0218379D01*
X0167622Y0216925D01*
X0169522Y0216138D01*
X0171578Y0216138D01*
X0173478Y0216925D01*
X0174932Y0218379D01*
X0175550Y0219872D01*
X0176168Y0218379D01*
X0177622Y0216925D01*
X0179522Y0216138D01*
X0181578Y0216138D01*
X0182818Y0216652D01*
X0179667Y0213500D01*
X0150808Y0213500D01*
X0153432Y0216124D01*
X0153950Y0217374D01*
X0153950Y0217397D01*
X0154932Y0218379D01*
X0155568Y0219915D01*
X0155760Y0219322D01*
X0156130Y0218598D01*
X0156608Y0217939D01*
X0157183Y0217364D01*
X0157841Y0216886D01*
X0158566Y0216517D01*
X0159340Y0216265D01*
X0160143Y0216138D01*
X0160550Y0216138D01*
X0160550Y0224275D01*
X0160550Y0224275D01*
X0160550Y0223317D02*
X0160550Y0223317D01*
X0160550Y0220918D02*
X0160550Y0220918D01*
X0160550Y0218520D02*
X0160550Y0218520D01*
X0164914Y0218520D02*
X0166110Y0218520D01*
X0170550Y0224275D02*
X0170838Y0224275D01*
X0178575Y0232012D01*
X0215540Y0232012D01*
X0229151Y0218401D01*
X0229043Y0223317D02*
X0359650Y0223317D01*
X0359650Y0225715D02*
X0226644Y0225715D01*
X0224246Y0228114D02*
X0244941Y0228114D01*
X0241825Y0228114D01*
X0242431Y0229563D02*
X0244963Y0228101D01*
X0247788Y0227344D01*
X0250712Y0227344D01*
X0253537Y0228101D01*
X0256069Y0229563D01*
X0258137Y0231631D01*
X0259599Y0234163D01*
X0260355Y0236988D01*
X0260355Y0239912D01*
X0259599Y0242737D01*
X0258137Y0245269D01*
X0256069Y0247337D01*
X0253537Y0248799D01*
X0250712Y0249555D01*
X0247788Y0249555D01*
X0244963Y0248799D01*
X0242431Y0247337D01*
X0240363Y0245269D01*
X0238901Y0242737D01*
X0238144Y0239912D01*
X0238144Y0236988D01*
X0238901Y0234163D01*
X0240363Y0231631D01*
X0242431Y0229563D01*
X0241482Y0230512D02*
X0221847Y0230512D01*
X0219449Y0232911D02*
X0239624Y0232911D01*
X0238594Y0235309D02*
X0216463Y0235309D01*
X0209425Y0226975D02*
X0227999Y0208401D01*
X0229151Y0208401D01*
X0233980Y0204129D02*
X0359650Y0204129D01*
X0359650Y0206527D02*
X0236170Y0206527D01*
X0236551Y0208926D02*
X0359650Y0208926D01*
X0359650Y0211324D02*
X0235615Y0211324D01*
X0233000Y0213723D02*
X0359650Y0213723D01*
X0359650Y0216121D02*
X0236002Y0216121D01*
X0236551Y0218520D02*
X0359650Y0218520D01*
X0359650Y0220918D02*
X0235903Y0220918D01*
X0241825Y0220918D02*
X0351175Y0220918D01*
X0351175Y0218520D02*
X0241825Y0218520D01*
X0241825Y0216121D02*
X0351175Y0216121D01*
X0351175Y0213723D02*
X0241825Y0213723D01*
X0241825Y0211324D02*
X0351175Y0211324D01*
X0351175Y0208926D02*
X0241825Y0208926D01*
X0241825Y0206527D02*
X0351175Y0206527D01*
X0351175Y0204129D02*
X0241825Y0204129D01*
X0241825Y0201730D02*
X0351175Y0201730D01*
X0351175Y0199332D02*
X0241825Y0199332D01*
X0241825Y0196933D02*
X0351175Y0196933D01*
X0351175Y0194535D02*
X0241825Y0194535D01*
X0241825Y0192136D02*
X0351175Y0192136D01*
X0351175Y0189738D02*
X0241825Y0189738D01*
X0241825Y0187339D02*
X0351175Y0187339D01*
X0351175Y0184941D02*
X0241825Y0184941D01*
X0241825Y0182542D02*
X0351175Y0182542D01*
X0351175Y0180144D02*
X0241825Y0180144D01*
X0241825Y0177745D02*
X0351175Y0177745D01*
X0351175Y0175347D02*
X0250510Y0175347D01*
X0249662Y0175347D02*
X0359650Y0175347D01*
X0359650Y0177745D02*
X0236551Y0177745D01*
X0236224Y0180144D02*
X0359650Y0180144D01*
X0359650Y0182542D02*
X0234296Y0182542D01*
X0234470Y0184332D02*
X0235820Y0185682D01*
X0236551Y0187446D01*
X0236551Y0189356D01*
X0235820Y0191120D01*
X0234470Y0192470D01*
X0232705Y0193201D01*
X0225596Y0193201D01*
X0223832Y0192470D01*
X0222481Y0191120D01*
X0221751Y0189356D01*
X0221751Y0187446D01*
X0222481Y0185682D01*
X0223832Y0184332D01*
X0225596Y0183601D01*
X0232705Y0183601D01*
X0234470Y0184332D01*
X0235079Y0184941D02*
X0359650Y0184941D01*
X0359650Y0187339D02*
X0236506Y0187339D01*
X0236392Y0189738D02*
X0359650Y0189738D01*
X0359650Y0192136D02*
X0234803Y0192136D01*
X0234470Y0194332D02*
X0235820Y0195682D01*
X0236551Y0197446D01*
X0236551Y0199356D01*
X0235820Y0201120D01*
X0234470Y0202470D01*
X0232705Y0203201D01*
X0225596Y0203201D01*
X0223832Y0202470D01*
X0222481Y0201120D01*
X0221751Y0199356D01*
X0221751Y0197446D01*
X0222481Y0195682D01*
X0223832Y0194332D01*
X0225596Y0193601D01*
X0232705Y0193601D01*
X0234470Y0194332D01*
X0234673Y0194535D02*
X0359650Y0194535D01*
X0359650Y0196933D02*
X0236338Y0196933D01*
X0236551Y0199332D02*
X0359650Y0199332D01*
X0359650Y0201730D02*
X0235209Y0201730D01*
X0224321Y0204129D02*
X0210525Y0204129D01*
X0210525Y0206527D02*
X0222131Y0206527D01*
X0221751Y0208926D02*
X0210525Y0208926D01*
X0210525Y0211324D02*
X0220267Y0211324D01*
X0217869Y0213723D02*
X0210525Y0213723D01*
X0210525Y0216121D02*
X0215470Y0216121D01*
X0213072Y0218520D02*
X0210525Y0218520D01*
X0210525Y0220918D02*
X0210673Y0220918D01*
X0209425Y0226975D02*
X0183250Y0226975D01*
X0180550Y0224275D01*
X0176110Y0218520D02*
X0174990Y0218520D01*
X0179890Y0213723D02*
X0151031Y0213723D01*
X0153430Y0216121D02*
X0182288Y0216121D01*
X0187108Y0211324D02*
X0187266Y0211324D01*
X0189506Y0213723D02*
X0189664Y0213723D01*
X0191905Y0216121D02*
X0192063Y0216121D01*
X0192230Y0216289D02*
X0179991Y0204050D01*
X0145299Y0204050D01*
X0144049Y0203532D01*
X0133767Y0193250D01*
X0101548Y0193250D01*
X0102176Y0194765D01*
X0102176Y0196834D01*
X0101384Y0198745D01*
X0099922Y0200208D01*
X0098010Y0200999D01*
X0089942Y0200999D01*
X0088030Y0200208D01*
X0087022Y0199199D01*
X0075330Y0199199D01*
X0074322Y0200208D01*
X0072410Y0200999D01*
X0064342Y0200999D01*
X0062430Y0200208D01*
X0060968Y0198745D01*
X0060176Y0196834D01*
X0060176Y0194765D01*
X0060968Y0192854D01*
X0062430Y0191391D01*
X0064342Y0190599D01*
X0072410Y0190599D01*
X0074322Y0191391D01*
X0075330Y0192399D01*
X0087022Y0192399D01*
X0088030Y0191391D01*
X0089942Y0190599D01*
X0093451Y0190599D01*
X0093451Y0186487D01*
X0092051Y0185087D01*
X0092051Y0181111D01*
X0094863Y0178299D01*
X0098839Y0178299D01*
X0101651Y0181111D01*
X0101651Y0185087D01*
X0100624Y0186115D01*
X0100959Y0186450D01*
X0135851Y0186450D01*
X0137101Y0186968D01*
X0138057Y0187924D01*
X0147383Y0197250D01*
X0182076Y0197250D01*
X0183326Y0197768D01*
X0184282Y0198724D01*
X0192118Y0206560D01*
X0192481Y0205682D01*
X0193832Y0204332D01*
X0195596Y0203601D01*
X0202705Y0203601D01*
X0203725Y0204024D01*
X0203725Y0202778D01*
X0202705Y0203201D01*
X0195596Y0203201D01*
X0193832Y0202470D01*
X0192481Y0201120D01*
X0191751Y0199356D01*
X0191751Y0197446D01*
X0192481Y0195682D01*
X0193832Y0194332D01*
X0195596Y0193601D01*
X0202705Y0193601D01*
X0203725Y0194024D01*
X0203725Y0192778D01*
X0202705Y0193201D01*
X0195596Y0193201D01*
X0193832Y0192470D01*
X0193162Y0191801D01*
X0190765Y0191801D01*
X0190526Y0191900D01*
X0189050Y0191900D01*
X0188051Y0191486D01*
X0188051Y0192513D01*
X0185239Y0195325D01*
X0181263Y0195325D01*
X0178451Y0192513D01*
X0178451Y0188537D01*
X0179851Y0187137D01*
X0179851Y0183433D01*
X0179467Y0183049D01*
X0176710Y0183049D01*
X0173576Y0179915D01*
X0173576Y0175483D01*
X0176710Y0172349D01*
X0181041Y0172349D01*
X0180368Y0171676D01*
X0179850Y0170427D01*
X0179850Y0158813D01*
X0178450Y0157413D01*
X0178450Y0153437D01*
X0179850Y0152037D01*
X0179850Y0145634D01*
X0178790Y0144574D01*
X0176033Y0144574D01*
X0172899Y0141440D01*
X0172899Y0137008D01*
X0176033Y0133874D01*
X0180465Y0133874D01*
X0183599Y0137008D01*
X0183599Y0139766D01*
X0185176Y0141344D01*
X0186133Y0142300D01*
X0186650Y0143550D01*
X0186650Y0152037D01*
X0188050Y0153437D01*
X0188050Y0157413D01*
X0186650Y0158813D01*
X0186650Y0168342D01*
X0193236Y0174928D01*
X0193832Y0174332D01*
X0195596Y0173601D01*
X0202705Y0173601D01*
X0203725Y0174024D01*
X0203725Y0172778D01*
X0202705Y0173201D01*
X0195596Y0173201D01*
X0193832Y0172470D01*
X0192481Y0171120D01*
X0191751Y0169356D01*
X0191751Y0167446D01*
X0192481Y0165682D01*
X0193832Y0164332D01*
X0195596Y0163601D01*
X0199542Y0163601D01*
X0199142Y0163201D01*
X0195596Y0163201D01*
X0193832Y0162470D01*
X0192481Y0161120D01*
X0191751Y0159356D01*
X0191751Y0157446D01*
X0192481Y0155682D01*
X0193832Y0154332D01*
X0195596Y0153601D01*
X0202705Y0153601D01*
X0204470Y0154332D01*
X0205820Y0155682D01*
X0206551Y0157446D01*
X0206551Y0159356D01*
X0206071Y0160513D01*
X0209451Y0163893D01*
X0210407Y0164849D01*
X0210407Y0164849D01*
X0215808Y0170250D01*
X0222121Y0170250D01*
X0221751Y0169356D01*
X0221751Y0167446D01*
X0222481Y0165682D01*
X0223832Y0164332D01*
X0225596Y0163601D01*
X0232705Y0163601D01*
X0234470Y0164332D01*
X0235820Y0165682D01*
X0236551Y0167446D01*
X0236551Y0169356D01*
X0236180Y0170250D01*
X0245142Y0170250D01*
X0273591Y0141801D01*
X0235139Y0141801D01*
X0234470Y0142470D01*
X0232705Y0143201D01*
X0225596Y0143201D01*
X0223832Y0142470D01*
X0222481Y0141120D01*
X0221751Y0139356D01*
X0221751Y0137446D01*
X0222481Y0135682D01*
X0223832Y0134332D01*
X0225596Y0133601D01*
X0232705Y0133601D01*
X0234470Y0134332D01*
X0235139Y0135001D01*
X0282713Y0135001D01*
X0314129Y0103585D01*
X0313791Y0103412D01*
X0313132Y0102934D01*
X0312557Y0102359D01*
X0312079Y0101701D01*
X0311710Y0100976D01*
X0311517Y0100384D01*
X0310881Y0101919D01*
X0309427Y0103373D01*
X0307527Y0104160D01*
X0305471Y0104160D01*
X0303572Y0103373D01*
X0302118Y0101919D01*
X0301499Y0100427D01*
X0300881Y0101919D01*
X0299427Y0103373D01*
X0299312Y0103421D01*
X0298425Y0104308D01*
X0286276Y0116457D01*
X0285026Y0116975D01*
X0236355Y0116975D01*
X0236551Y0117446D01*
X0236551Y0119356D01*
X0235820Y0121120D01*
X0234470Y0122470D01*
X0232705Y0123201D01*
X0225596Y0123201D01*
X0223832Y0122470D01*
X0222481Y0121120D01*
X0221751Y0119356D01*
X0221751Y0117446D01*
X0222481Y0115682D01*
X0223832Y0114332D01*
X0225596Y0113601D01*
X0229142Y0113601D01*
X0229542Y0113201D01*
X0225596Y0113201D01*
X0223832Y0112470D01*
X0222481Y0111120D01*
X0221751Y0109356D01*
X0221751Y0108758D01*
X0220925Y0109583D01*
X0220925Y0121617D01*
X0223736Y0124428D01*
X0223832Y0124332D01*
X0225596Y0123601D01*
X0232705Y0123601D01*
X0234470Y0124332D01*
X0235820Y0125682D01*
X0236551Y0127446D01*
X0236551Y0129356D01*
X0235820Y0131120D01*
X0234470Y0132470D01*
X0232705Y0133201D01*
X0225596Y0133201D01*
X0223832Y0132470D01*
X0223162Y0131801D01*
X0222225Y0131801D01*
X0220975Y0131283D01*
X0220019Y0130327D01*
X0214643Y0124951D01*
X0214125Y0123701D01*
X0214125Y0107499D01*
X0214643Y0106249D01*
X0215599Y0105293D01*
X0219649Y0101243D01*
X0220899Y0100725D01*
X0222318Y0100725D01*
X0221751Y0099356D01*
X0221751Y0097446D01*
X0222481Y0095682D01*
X0223832Y0094332D01*
X0225596Y0093601D01*
X0229142Y0093601D01*
X0229542Y0093201D01*
X0225596Y0093201D01*
X0223832Y0092470D01*
X0222481Y0091120D01*
X0221751Y0089356D01*
X0221751Y0087446D01*
X0222481Y0085682D01*
X0223832Y0084332D01*
X0225596Y0083601D01*
X0229142Y0083601D01*
X0230325Y0082418D01*
X0230325Y0058283D01*
X0227241Y0055199D01*
X0226092Y0055675D01*
X0227521Y0056267D01*
X0228983Y0057729D01*
X0229775Y0059641D01*
X0229775Y0061709D01*
X0228983Y0063621D01*
X0227521Y0065083D01*
X0225609Y0065875D01*
X0217541Y0065875D01*
X0215629Y0065083D01*
X0215525Y0064979D01*
X0215525Y0076103D01*
X0215007Y0077353D01*
X0214051Y0078309D01*
X0206071Y0086289D01*
X0206551Y0087446D01*
X0206551Y0089356D01*
X0205820Y0091120D01*
X0204470Y0092470D01*
X0202705Y0093201D01*
X0195596Y0093201D01*
X0193832Y0092470D01*
X0192481Y0091120D01*
X0191900Y0089716D01*
X0191900Y0096342D01*
X0192118Y0096560D01*
X0192481Y0095682D01*
X0193832Y0094332D01*
X0195596Y0093601D01*
X0202705Y0093601D01*
X0204470Y0094332D01*
X0205820Y0095682D01*
X0206551Y0097446D01*
X0206551Y0099356D01*
X0205820Y0101120D01*
X0204470Y0102470D01*
X0202705Y0103201D01*
X0198759Y0103201D01*
X0199159Y0103601D01*
X0202705Y0103601D01*
X0204470Y0104332D01*
X0205820Y0105682D01*
X0206551Y0107446D01*
X0206551Y0109356D01*
X0205820Y0111120D01*
X0205762Y0111178D01*
X0206232Y0111649D01*
X0210001Y0115418D01*
X0210957Y0116374D01*
X0211475Y0117624D01*
X0211475Y0136526D01*
X0210957Y0137776D01*
X0207947Y0140786D01*
X0207451Y0141282D01*
X0207451Y0141282D01*
X0207451Y0141282D01*
X0206860Y0141527D01*
X0206202Y0141800D01*
X0206202Y0141800D01*
X0206201Y0141800D01*
X0205583Y0141800D01*
X0205140Y0141800D01*
X0204470Y0142470D01*
X0202705Y0143201D01*
X0195596Y0143201D01*
X0193832Y0142470D01*
X0192481Y0141120D01*
X0191751Y0139356D01*
X0191751Y0137446D01*
X0192481Y0135682D01*
X0193832Y0134332D01*
X0195596Y0133601D01*
X0202705Y0133601D01*
X0204470Y0134332D01*
X0204627Y0134489D01*
X0204675Y0134442D01*
X0204675Y0132265D01*
X0204470Y0132470D01*
X0202705Y0133201D01*
X0195596Y0133201D01*
X0193832Y0132470D01*
X0192481Y0131120D01*
X0191751Y0129356D01*
X0191751Y0127446D01*
X0192230Y0126289D01*
X0191692Y0125750D01*
X0165668Y0125750D01*
X0164999Y0125750D01*
X0164999Y0125750D01*
X0164999Y0125750D01*
X0164331Y0125473D01*
X0163749Y0125232D01*
X0163287Y0124771D01*
X0158791Y0120275D01*
X0156033Y0120275D01*
X0152899Y0117141D01*
X0152899Y0114382D01*
X0152792Y0114275D01*
X0142990Y0114275D01*
X0143125Y0114601D01*
X0143125Y0116351D01*
X0142455Y0117968D01*
X0141217Y0119206D01*
X0139600Y0119876D01*
X0133449Y0119876D01*
X0131832Y0119206D01*
X0130594Y0117968D01*
X0129925Y0116351D01*
X0129925Y0114601D01*
X0130594Y0112983D01*
X0131832Y0111746D01*
X0133449Y0111076D01*
X0136116Y0111076D01*
X0138243Y0108949D01*
X0138765Y0108427D01*
X0139199Y0107993D01*
X0139199Y0107993D01*
X0139199Y0107993D01*
X0139864Y0107717D01*
X0140449Y0107475D01*
X0141132Y0107475D01*
X0141801Y0107475D01*
X0141801Y0107475D01*
X0153524Y0107475D01*
X0154198Y0107475D01*
X0154876Y0107475D01*
X0154876Y0107475D01*
X0154877Y0107475D01*
X0155524Y0107743D01*
X0156126Y0107993D01*
X0156625Y0108492D01*
X0157082Y0108949D01*
X0157082Y0108949D01*
X0157708Y0109575D01*
X0160465Y0109575D01*
X0163599Y0112709D01*
X0163599Y0115466D01*
X0167083Y0118950D01*
X0174708Y0118950D01*
X0172899Y0117141D01*
X0172899Y0114925D01*
X0178249Y0114925D01*
X0178249Y0114925D01*
X0183599Y0114925D01*
X0183599Y0117141D01*
X0181790Y0118950D01*
X0191751Y0118950D01*
X0191751Y0117446D01*
X0192133Y0116523D01*
X0191974Y0116457D01*
X0191018Y0115501D01*
X0183042Y0107525D01*
X0166349Y0107525D01*
X0165099Y0107007D01*
X0164143Y0106051D01*
X0158791Y0100700D01*
X0156033Y0100700D01*
X0152899Y0097566D01*
X0152899Y0095375D01*
X0143125Y0095375D01*
X0143125Y0096351D01*
X0142455Y0097968D01*
X0141217Y0099206D01*
X0139600Y0099876D01*
X0133449Y0099876D01*
X0131832Y0099206D01*
X0130594Y0097968D01*
X0129925Y0096351D01*
X0129925Y0094601D01*
X0130594Y0092983D01*
X0131832Y0091746D01*
X0133449Y0091076D01*
X0136116Y0091076D01*
X0137143Y0090049D01*
X0137657Y0089535D01*
X0138099Y0089093D01*
X0138099Y0089093D01*
X0138099Y0089093D01*
X0138765Y0088817D01*
X0139348Y0088575D01*
X0139349Y0088575D01*
X0140030Y0088575D01*
X0140701Y0088575D01*
X0140701Y0088575D01*
X0154199Y0088575D01*
X0154199Y0088575D01*
X0154874Y0088575D01*
X0155551Y0088575D01*
X0155551Y0088575D01*
X0155552Y0088575D01*
X0156214Y0088850D01*
X0156801Y0089093D01*
X0156801Y0089093D01*
X0156801Y0089093D01*
X0157322Y0089614D01*
X0157708Y0090000D01*
X0160465Y0090000D01*
X0163599Y0093134D01*
X0163599Y0095891D01*
X0168433Y0100725D01*
X0185126Y0100725D01*
X0186376Y0101243D01*
X0191993Y0106860D01*
X0192230Y0106289D01*
X0185618Y0099676D01*
X0185100Y0098427D01*
X0185100Y0091358D01*
X0178992Y0085250D01*
X0074484Y0085250D01*
X0075176Y0086920D01*
X0075176Y0087075D01*
X0082511Y0087075D01*
X0083911Y0085675D01*
X0087888Y0085675D01*
X0090700Y0088486D01*
X0090700Y0090466D01*
X0107401Y0107168D01*
X0108357Y0108124D01*
X0108875Y0109374D01*
X0108875Y0124317D01*
X0128333Y0143775D01*
X0135987Y0143775D01*
X0136656Y0143106D01*
X0138420Y0142375D01*
X0140330Y0142375D01*
X0142094Y0143106D01*
X0143444Y0144456D01*
X0144175Y0146220D01*
X0144175Y0148130D01*
X0143959Y0148650D01*
X0150552Y0148650D01*
X0151801Y0149168D01*
X0152758Y0150124D01*
X0153259Y0150625D01*
X0155239Y0150625D01*
X0158050Y0153437D01*
X0158050Y0157413D01*
X0155239Y0160225D01*
X0151262Y0160225D01*
X0148450Y0157413D01*
X0148450Y0155450D01*
X0143856Y0155450D01*
X0144175Y0156220D01*
X0144175Y0158130D01*
X0143444Y0159894D01*
X0142775Y0160563D01*
X0142775Y0161592D01*
X0143120Y0161937D01*
X0146432Y0165249D01*
X0147901Y0166718D01*
X0148857Y0167674D01*
X0149375Y0168924D01*
X0149375Y0181841D01*
X0153259Y0185725D01*
X0155239Y0185725D01*
X0158051Y0188537D01*
X0158051Y0192513D01*
X0155239Y0195325D01*
X0151263Y0195325D01*
X0148451Y0192513D01*
X0148451Y0190534D01*
X0143093Y0185175D01*
X0142575Y0183926D01*
X0142575Y0180763D01*
X0142502Y0180836D01*
X0141891Y0181280D01*
X0141218Y0181623D01*
X0140499Y0181857D01*
X0139753Y0181975D01*
X0139375Y0181975D01*
X0139375Y0177175D01*
X0139375Y0177175D01*
X0139375Y0172375D01*
X0139753Y0172375D01*
X0140499Y0172493D01*
X0141218Y0172727D01*
X0141891Y0173070D01*
X0142502Y0173514D01*
X0142575Y0173587D01*
X0142575Y0171008D01*
X0142452Y0170886D01*
X0142094Y0171244D01*
X0140330Y0171975D01*
X0138420Y0171975D01*
X0136656Y0171244D01*
X0135306Y0169894D01*
X0134575Y0168130D01*
X0134575Y0166220D01*
X0135306Y0164456D01*
X0135975Y0163787D01*
X0135975Y0160563D01*
X0135306Y0159894D01*
X0134575Y0158130D01*
X0134575Y0157458D01*
X0121976Y0170057D01*
X0120726Y0170575D01*
X0112775Y0170575D01*
X0112775Y0173787D01*
X0113444Y0174456D01*
X0114175Y0176220D01*
X0114175Y0178130D01*
X0113444Y0179894D01*
X0112094Y0181244D01*
X0110330Y0181975D01*
X0108420Y0181975D01*
X0106656Y0181244D01*
X0105306Y0179894D01*
X0104575Y0178130D01*
X0104575Y0176220D01*
X0105306Y0174456D01*
X0105975Y0173787D01*
X0105975Y0170563D01*
X0105306Y0169894D01*
X0104575Y0168130D01*
X0104575Y0166220D01*
X0104842Y0165575D01*
X0100808Y0165575D01*
X0088782Y0177601D01*
X0087826Y0178557D01*
X0086576Y0179075D01*
X0075158Y0179075D01*
X0071651Y0182582D01*
X0071651Y0185087D01*
X0068839Y0187899D01*
X0064863Y0187899D01*
X0063463Y0186499D01*
X0051058Y0186499D01*
X0051512Y0187595D01*
X0051512Y0189651D01*
X0050838Y0191278D01*
X0062210Y0202650D01*
X0122351Y0202650D01*
X0123601Y0203168D01*
X0127133Y0206700D01*
X0181751Y0206700D01*
X0183001Y0207218D01*
X0192184Y0216400D01*
X0192230Y0216289D01*
X0199151Y0218401D02*
X0181400Y0200650D01*
X0145975Y0200650D01*
X0135175Y0189850D01*
X0099551Y0189850D01*
X0096851Y0187150D01*
X0096851Y0192924D01*
X0093976Y0195799D01*
X0068376Y0195799D01*
X0075067Y0192136D02*
X0087285Y0192136D01*
X0093451Y0189738D02*
X0051476Y0189738D01*
X0051406Y0187339D02*
X0064303Y0187339D01*
X0066851Y0183099D02*
X0048899Y0183099D01*
X0043375Y0188623D01*
X0060802Y0206050D01*
X0121675Y0206050D01*
X0125725Y0210100D01*
X0142600Y0210100D01*
X0141415Y0213723D02*
X0121510Y0213723D01*
X0122350Y0216138D02*
X0122350Y0224275D01*
X0124375Y0222250D01*
X0124375Y0226975D01*
X0122350Y0229000D01*
X0120325Y0226975D01*
X0120325Y0226012D01*
X0120325Y0217525D01*
X0119112Y0216121D02*
X0143813Y0216121D01*
X0146110Y0218520D02*
X0136790Y0218520D01*
X0137518Y0220918D02*
X0145381Y0220918D01*
X0154990Y0218520D02*
X0156186Y0218520D01*
X0164564Y0230512D02*
X0166510Y0230512D01*
X0174665Y0232911D02*
X0128522Y0232911D01*
X0126124Y0235309D02*
X0177651Y0235309D01*
X0184709Y0208926D02*
X0184867Y0208926D01*
X0182469Y0206527D02*
X0126961Y0206527D01*
X0124562Y0204129D02*
X0180070Y0204129D01*
X0184890Y0199332D02*
X0191751Y0199332D01*
X0191963Y0196933D02*
X0147067Y0196933D01*
X0144668Y0194535D02*
X0150472Y0194535D01*
X0148451Y0192136D02*
X0142270Y0192136D01*
X0139871Y0189738D02*
X0147655Y0189738D01*
X0145257Y0187339D02*
X0137473Y0187339D01*
X0142995Y0184941D02*
X0101651Y0184941D01*
X0101651Y0182542D02*
X0142575Y0182542D01*
X0139375Y0181975D02*
X0138997Y0181975D01*
X0138251Y0181857D01*
X0137532Y0181623D01*
X0136859Y0181280D01*
X0136248Y0180836D01*
X0135714Y0180302D01*
X0135270Y0179691D01*
X0134927Y0179018D01*
X0134693Y0178299D01*
X0134575Y0177553D01*
X0134575Y0177175D01*
X0139375Y0177175D01*
X0139375Y0177175D01*
X0139375Y0177175D01*
X0139375Y0181975D01*
X0139375Y0180144D02*
X0139375Y0180144D01*
X0139375Y0177745D02*
X0139375Y0177745D01*
X0139375Y0177175D02*
X0134575Y0177175D01*
X0134575Y0176797D01*
X0134693Y0176051D01*
X0134927Y0175332D01*
X0135270Y0174659D01*
X0135714Y0174048D01*
X0136248Y0173514D01*
X0136859Y0173070D01*
X0137532Y0172727D01*
X0138251Y0172493D01*
X0138997Y0172375D01*
X0139375Y0172375D01*
X0139375Y0177175D01*
X0139375Y0175347D02*
X0139375Y0175347D01*
X0139375Y0172948D02*
X0139375Y0172948D01*
X0141652Y0172948D02*
X0142575Y0172948D01*
X0145975Y0169600D02*
X0145975Y0183249D01*
X0153251Y0190525D01*
X0156029Y0194535D02*
X0180472Y0194535D01*
X0178451Y0192136D02*
X0158051Y0192136D01*
X0158051Y0189738D02*
X0178451Y0189738D01*
X0179648Y0187339D02*
X0156853Y0187339D01*
X0156710Y0183049D02*
X0153576Y0179915D01*
X0153576Y0177699D01*
X0153576Y0175483D01*
X0156710Y0172349D01*
X0158926Y0172349D01*
X0161142Y0172349D01*
X0164276Y0175483D01*
X0164276Y0177699D01*
X0158926Y0177699D01*
X0158926Y0172349D01*
X0158926Y0177699D01*
X0158926Y0177699D01*
X0158926Y0177699D01*
X0164276Y0177699D01*
X0164276Y0179915D01*
X0161142Y0183049D01*
X0158926Y0183049D01*
X0158926Y0177700D01*
X0158926Y0177700D01*
X0158926Y0183049D01*
X0156710Y0183049D01*
X0156203Y0182542D02*
X0150076Y0182542D01*
X0149375Y0180144D02*
X0153804Y0180144D01*
X0153576Y0177745D02*
X0149375Y0177745D01*
X0149375Y0175347D02*
X0153712Y0175347D01*
X0153576Y0177699D02*
X0158926Y0177699D01*
X0158926Y0177699D01*
X0153576Y0177699D01*
X0158926Y0177745D02*
X0158926Y0177745D01*
X0158926Y0175347D02*
X0158926Y0175347D01*
X0158926Y0172948D02*
X0158926Y0172948D01*
X0161741Y0172948D02*
X0176111Y0172948D01*
X0173712Y0175347D02*
X0164139Y0175347D01*
X0164276Y0177745D02*
X0173576Y0177745D01*
X0173804Y0180144D02*
X0164047Y0180144D01*
X0161649Y0182542D02*
X0176203Y0182542D01*
X0179851Y0184941D02*
X0152475Y0184941D01*
X0158926Y0182542D02*
X0158926Y0182542D01*
X0158926Y0180144D02*
X0158926Y0180144D01*
X0156111Y0172948D02*
X0149375Y0172948D01*
X0149375Y0170550D02*
X0179901Y0170550D01*
X0179850Y0168151D02*
X0149055Y0168151D01*
X0147901Y0166718D02*
X0147901Y0166718D01*
X0146936Y0165753D02*
X0179850Y0165753D01*
X0179850Y0163354D02*
X0144537Y0163354D01*
X0142775Y0160956D02*
X0179850Y0160956D01*
X0179594Y0158557D02*
X0156907Y0158557D01*
X0158050Y0156159D02*
X0178450Y0156159D01*
X0178450Y0153760D02*
X0158050Y0153760D01*
X0155975Y0151362D02*
X0179850Y0151362D01*
X0179850Y0148963D02*
X0151307Y0148963D01*
X0149875Y0152050D02*
X0135175Y0152050D01*
X0120050Y0167175D01*
X0109375Y0167175D01*
X0109375Y0177175D01*
X0113813Y0175347D02*
X0134922Y0175347D01*
X0134605Y0177745D02*
X0114175Y0177745D01*
X0113194Y0180144D02*
X0135599Y0180144D01*
X0137098Y0172948D02*
X0112775Y0172948D01*
X0105975Y0172948D02*
X0093435Y0172948D01*
X0095834Y0170550D02*
X0105961Y0170550D01*
X0104584Y0168151D02*
X0098232Y0168151D01*
X0100631Y0165753D02*
X0104769Y0165753D01*
X0099400Y0162175D02*
X0085900Y0175675D01*
X0073750Y0175675D01*
X0066851Y0182574D01*
X0066851Y0183099D01*
X0071691Y0182542D02*
X0092051Y0182542D01*
X0092051Y0184941D02*
X0071651Y0184941D01*
X0069399Y0187339D02*
X0093451Y0187339D01*
X0096851Y0187150D02*
X0096851Y0183099D01*
X0093018Y0180144D02*
X0074090Y0180144D01*
X0069270Y0175347D02*
X0038000Y0175347D01*
X0038000Y0177745D02*
X0066871Y0177745D01*
X0066317Y0178299D02*
X0071824Y0172793D01*
X0073074Y0172275D01*
X0084492Y0172275D01*
X0097474Y0159293D01*
X0098724Y0158775D01*
X0104842Y0158775D01*
X0104841Y0158771D01*
X0085218Y0139149D01*
X0083239Y0139149D01*
X0081839Y0137749D01*
X0074499Y0137749D01*
X0074499Y0137904D01*
X0073768Y0139668D01*
X0072418Y0141018D01*
X0070654Y0141749D01*
X0068744Y0141749D01*
X0066980Y0141018D01*
X0065630Y0139668D01*
X0064899Y0137904D01*
X0064899Y0130794D01*
X0065630Y0129030D01*
X0066980Y0127680D01*
X0068007Y0127254D01*
X0067860Y0127180D01*
X0067249Y0126736D01*
X0066715Y0126202D01*
X0066271Y0125590D01*
X0065928Y0124917D01*
X0065694Y0124199D01*
X0065576Y0123452D01*
X0065576Y0120475D01*
X0070376Y0120475D01*
X0075176Y0120475D01*
X0075176Y0123452D01*
X0075058Y0124199D01*
X0074824Y0124917D01*
X0074481Y0125590D01*
X0074037Y0126202D01*
X0073503Y0126736D01*
X0072892Y0127180D01*
X0072219Y0127523D01*
X0072118Y0127555D01*
X0072418Y0127680D01*
X0073768Y0129030D01*
X0074499Y0130794D01*
X0074499Y0130949D01*
X0081839Y0130949D01*
X0083239Y0129549D01*
X0087215Y0129549D01*
X0090027Y0132361D01*
X0090027Y0134341D01*
X0105112Y0149425D01*
X0104575Y0148130D01*
X0104575Y0146220D01*
X0105306Y0144456D01*
X0106656Y0143106D01*
X0108420Y0142375D01*
X0110330Y0142375D01*
X0112094Y0143106D01*
X0113444Y0144456D01*
X0114175Y0146220D01*
X0114175Y0147167D01*
X0117526Y0150518D01*
X0118482Y0151474D01*
X0119000Y0152724D01*
X0119000Y0160151D01*
X0118482Y0161401D01*
X0116108Y0163775D01*
X0118642Y0163775D01*
X0131842Y0150575D01*
X0126249Y0150575D01*
X0124999Y0150057D01*
X0124043Y0149101D01*
X0102593Y0127651D01*
X0102075Y0126401D01*
X0102075Y0111458D01*
X0085891Y0095275D01*
X0083911Y0095275D01*
X0082511Y0093875D01*
X0075176Y0093875D01*
X0075176Y0094029D01*
X0074445Y0095794D01*
X0073095Y0097144D01*
X0071331Y0097875D01*
X0069421Y0097875D01*
X0067657Y0097144D01*
X0066307Y0095794D01*
X0065576Y0094029D01*
X0065576Y0086920D01*
X0066268Y0085250D01*
X0032633Y0085250D01*
X0027200Y0090683D01*
X0027200Y0230292D01*
X0030057Y0233149D01*
X0030451Y0233543D01*
X0033983Y0237075D01*
X0114742Y0237075D01*
X0119980Y0231837D01*
X0119641Y0231664D01*
X0118983Y0231186D01*
X0118408Y0230611D01*
X0117930Y0229952D01*
X0117560Y0229228D01*
X0117368Y0228635D01*
X0116732Y0230171D01*
X0115278Y0231625D01*
X0113378Y0232412D01*
X0111322Y0232412D01*
X0109422Y0231625D01*
X0107968Y0230171D01*
X0107181Y0228272D01*
X0107181Y0225713D01*
X0097201Y0225713D01*
X0097201Y0227650D01*
X0091851Y0227650D01*
X0091851Y0227650D01*
X0086501Y0227650D01*
X0086501Y0225713D01*
X0077201Y0225713D01*
X0077201Y0229866D01*
X0074067Y0233000D01*
X0069635Y0233000D01*
X0066501Y0229866D01*
X0066501Y0227109D01*
X0065106Y0225713D01*
X0059680Y0225713D01*
X0060076Y0226110D01*
X0060076Y0228326D01*
X0060076Y0230542D01*
X0056942Y0233676D01*
X0054726Y0233676D01*
X0054726Y0228326D01*
X0054726Y0228326D01*
X0054726Y0233676D01*
X0052510Y0233676D01*
X0049376Y0230542D01*
X0049376Y0228326D01*
X0054726Y0228326D01*
X0060076Y0228326D01*
X0054726Y0228326D01*
X0054726Y0228326D01*
X0054726Y0228326D01*
X0049376Y0228326D01*
X0049376Y0226110D01*
X0049772Y0225713D01*
X0042147Y0225713D01*
X0040076Y0227784D01*
X0040076Y0230542D01*
X0036942Y0233676D01*
X0032510Y0233676D01*
X0029376Y0230542D01*
X0029376Y0226110D01*
X0032510Y0222976D01*
X0035268Y0222976D01*
X0037856Y0220387D01*
X0038812Y0219431D01*
X0040062Y0218913D01*
X0107747Y0218913D01*
X0107968Y0218379D01*
X0108951Y0217396D01*
X0109468Y0216149D01*
X0116167Y0209450D01*
X0100112Y0209450D01*
X0100364Y0209633D01*
X0100942Y0210212D01*
X0101423Y0210874D01*
X0101795Y0211603D01*
X0102048Y0212382D01*
X0102176Y0213190D01*
X0102176Y0213599D01*
X0093976Y0213599D01*
X0093976Y0213599D01*
X0085776Y0213599D01*
X0085776Y0213190D01*
X0085904Y0212382D01*
X0086157Y0211603D01*
X0086529Y0210874D01*
X0087010Y0210212D01*
X0087588Y0209633D01*
X0087840Y0209450D01*
X0074512Y0209450D01*
X0074764Y0209633D01*
X0075342Y0210212D01*
X0075823Y0210874D01*
X0076195Y0211603D01*
X0076448Y0212382D01*
X0076576Y0213190D01*
X0076576Y0213599D01*
X0068376Y0213599D01*
X0068376Y0213599D01*
X0060176Y0213599D01*
X0060176Y0213190D01*
X0060304Y0212382D01*
X0060557Y0211603D01*
X0060929Y0210874D01*
X0061410Y0210212D01*
X0061988Y0209633D01*
X0062240Y0209450D01*
X0060126Y0209450D01*
X0058876Y0208932D01*
X0057920Y0207976D01*
X0050950Y0201007D01*
X0050725Y0201551D01*
X0049271Y0203005D01*
X0047735Y0203641D01*
X0048328Y0203833D01*
X0049052Y0204203D01*
X0049711Y0204681D01*
X0050286Y0205256D01*
X0050764Y0205914D01*
X0051133Y0206639D01*
X0051385Y0207413D01*
X0051512Y0208216D01*
X0051512Y0208623D01*
X0043375Y0208623D01*
X0043375Y0208623D01*
X0035238Y0208623D01*
X0035238Y0208216D01*
X0035365Y0207413D01*
X0035617Y0206639D01*
X0035986Y0205914D01*
X0036464Y0205256D01*
X0037039Y0204681D01*
X0037698Y0204203D01*
X0038422Y0203833D01*
X0039015Y0203641D01*
X0037479Y0203005D01*
X0036025Y0201551D01*
X0035238Y0199651D01*
X0035238Y0197595D01*
X0035912Y0195968D01*
X0031718Y0191774D01*
X0031200Y0190524D01*
X0031200Y0122224D01*
X0031718Y0120974D01*
X0036586Y0116106D01*
X0035912Y0114479D01*
X0035912Y0112423D01*
X0036699Y0110523D01*
X0038153Y0109069D01*
X0039646Y0108451D01*
X0038153Y0107833D01*
X0036699Y0106379D01*
X0035912Y0104479D01*
X0035912Y0102423D01*
X0036699Y0100523D01*
X0038153Y0099069D01*
X0039689Y0098433D01*
X0039097Y0098241D01*
X0038372Y0097871D01*
X0037714Y0097393D01*
X0037138Y0096818D01*
X0036660Y0096160D01*
X0036291Y0095435D01*
X0036039Y0094661D01*
X0035912Y0093858D01*
X0035912Y0093451D01*
X0044049Y0093451D01*
X0044049Y0093451D01*
X0035912Y0093451D01*
X0035912Y0093044D01*
X0036039Y0092241D01*
X0036291Y0091467D01*
X0036660Y0090742D01*
X0037138Y0090084D01*
X0037714Y0089509D01*
X0038372Y0089030D01*
X0039097Y0088661D01*
X0039870Y0088410D01*
X0040674Y0088282D01*
X0044049Y0088282D01*
X0044049Y0093451D01*
X0044049Y0093451D01*
X0044049Y0088282D01*
X0047424Y0088282D01*
X0048228Y0088410D01*
X0049002Y0088661D01*
X0049727Y0089030D01*
X0050385Y0089509D01*
X0050960Y0090084D01*
X0051438Y0090742D01*
X0051808Y0091467D01*
X0052059Y0092241D01*
X0052186Y0093044D01*
X0052186Y0093451D01*
X0052186Y0093858D01*
X0052059Y0094661D01*
X0051808Y0095435D01*
X0051438Y0096160D01*
X0050960Y0096818D01*
X0050385Y0097393D01*
X0049727Y0097871D01*
X0049002Y0098241D01*
X0048410Y0098433D01*
X0049945Y0099069D01*
X0050927Y0100051D01*
X0069552Y0100051D01*
X0070802Y0100569D01*
X0085908Y0115675D01*
X0087888Y0115675D01*
X0090700Y0118486D01*
X0090700Y0122463D01*
X0087888Y0125275D01*
X0083911Y0125275D01*
X0081100Y0122463D01*
X0081100Y0120483D01*
X0067468Y0106851D01*
X0050927Y0106851D01*
X0049945Y0107833D01*
X0048453Y0108451D01*
X0049945Y0109069D01*
X0051399Y0110523D01*
X0052186Y0112423D01*
X0052186Y0114479D01*
X0051399Y0116379D01*
X0049945Y0117833D01*
X0048046Y0118619D01*
X0043689Y0118619D01*
X0038000Y0124309D01*
X0038000Y0133126D01*
X0038520Y0132957D01*
X0039324Y0132830D01*
X0042699Y0132830D01*
X0042699Y0137998D01*
X0042699Y0137998D01*
X0042699Y0132830D01*
X0046074Y0132830D01*
X0046878Y0132957D01*
X0047652Y0133209D01*
X0048377Y0133578D01*
X0049035Y0134056D01*
X0049610Y0134631D01*
X0050088Y0135290D01*
X0050458Y0136014D01*
X0050709Y0136788D01*
X0050836Y0137592D01*
X0050836Y0137998D01*
X0042699Y0137998D01*
X0042699Y0137998D01*
X0050836Y0137998D01*
X0050836Y0138405D01*
X0050709Y0139209D01*
X0050458Y0139982D01*
X0050088Y0140707D01*
X0049610Y0141365D01*
X0049035Y0141941D01*
X0048377Y0142419D01*
X0047652Y0142788D01*
X0047060Y0142981D01*
X0048595Y0143617D01*
X0049577Y0144598D01*
X0069553Y0144598D01*
X0070802Y0145116D01*
X0085235Y0159549D01*
X0087215Y0159549D01*
X0090027Y0162361D01*
X0090027Y0166337D01*
X0087215Y0169149D01*
X0083239Y0169149D01*
X0080427Y0166337D01*
X0080427Y0164357D01*
X0067468Y0151398D01*
X0049577Y0151398D01*
X0048595Y0152380D01*
X0047103Y0152998D01*
X0048595Y0153617D01*
X0050049Y0155071D01*
X0050836Y0156970D01*
X0050836Y0159027D01*
X0050049Y0160926D01*
X0048595Y0162380D01*
X0046696Y0163167D01*
X0039091Y0163167D01*
X0038000Y0164258D01*
X0038000Y0184026D01*
X0039378Y0183455D01*
X0043735Y0183455D01*
X0046973Y0180217D01*
X0048223Y0179699D01*
X0063463Y0179699D01*
X0064863Y0178299D01*
X0066317Y0178299D01*
X0071668Y0172948D02*
X0038000Y0172948D01*
X0038000Y0170550D02*
X0066512Y0170550D01*
X0066572Y0170610D02*
X0066038Y0170076D01*
X0065594Y0169465D01*
X0065251Y0168791D01*
X0065017Y0168073D01*
X0064899Y0167327D01*
X0064899Y0164349D01*
X0069699Y0164349D01*
X0069699Y0164349D01*
X0069699Y0171749D01*
X0069321Y0171749D01*
X0068575Y0171631D01*
X0067857Y0171397D01*
X0067183Y0171054D01*
X0066572Y0170610D01*
X0065043Y0168151D02*
X0038000Y0168151D01*
X0038000Y0165753D02*
X0064899Y0165753D01*
X0064899Y0164349D02*
X0064899Y0161371D01*
X0065017Y0160625D01*
X0065251Y0159906D01*
X0065594Y0159233D01*
X0066038Y0158622D01*
X0066572Y0158088D01*
X0067183Y0157643D01*
X0067857Y0157300D01*
X0068575Y0157067D01*
X0069321Y0156949D01*
X0069699Y0156949D01*
X0069699Y0164349D01*
X0069699Y0164349D01*
X0064899Y0164349D01*
X0064899Y0163354D02*
X0038904Y0163354D01*
X0034600Y0162850D02*
X0034600Y0122900D01*
X0044049Y0113451D01*
X0039012Y0108188D02*
X0027200Y0108188D01*
X0027200Y0105790D02*
X0036455Y0105790D01*
X0035912Y0103391D02*
X0027200Y0103391D01*
X0027200Y0100993D02*
X0036505Y0100993D01*
X0039300Y0098594D02*
X0027200Y0098594D01*
X0027200Y0096196D02*
X0036686Y0096196D01*
X0035912Y0093797D02*
X0027200Y0093797D01*
X0027200Y0091399D02*
X0036326Y0091399D01*
X0038431Y0089000D02*
X0028883Y0089000D01*
X0031282Y0086602D02*
X0065708Y0086602D01*
X0065576Y0089000D02*
X0049667Y0089000D01*
X0051773Y0091399D02*
X0065576Y0091399D01*
X0065576Y0093797D02*
X0052186Y0093797D01*
X0052186Y0093451D02*
X0044049Y0093451D01*
X0044049Y0093451D01*
X0052186Y0093451D01*
X0051412Y0096196D02*
X0066709Y0096196D01*
X0071226Y0100993D02*
X0091610Y0100993D01*
X0094008Y0103391D02*
X0073625Y0103391D01*
X0076023Y0105790D02*
X0096407Y0105790D01*
X0098805Y0108188D02*
X0078422Y0108188D01*
X0080820Y0110587D02*
X0101204Y0110587D01*
X0102075Y0112985D02*
X0083219Y0112985D01*
X0085617Y0115384D02*
X0102075Y0115384D01*
X0102075Y0117782D02*
X0089996Y0117782D01*
X0090700Y0120181D02*
X0102075Y0120181D01*
X0102075Y0122579D02*
X0090583Y0122579D01*
X0088184Y0124978D02*
X0102075Y0124978D01*
X0102479Y0127376D02*
X0072506Y0127376D01*
X0074077Y0129775D02*
X0083012Y0129775D01*
X0087441Y0129775D02*
X0104717Y0129775D01*
X0107115Y0132174D02*
X0089840Y0132174D01*
X0090258Y0134572D02*
X0109514Y0134572D01*
X0111912Y0136971D02*
X0092657Y0136971D01*
X0095055Y0139369D02*
X0114311Y0139369D01*
X0116709Y0141768D02*
X0097454Y0141768D01*
X0099852Y0144166D02*
X0105596Y0144166D01*
X0104575Y0146565D02*
X0102251Y0146565D01*
X0104649Y0148963D02*
X0104920Y0148963D01*
X0109375Y0147175D02*
X0115600Y0153400D01*
X0115600Y0159475D01*
X0112900Y0162175D01*
X0099400Y0162175D01*
X0095811Y0160956D02*
X0088622Y0160956D01*
X0090027Y0163354D02*
X0093413Y0163354D01*
X0091014Y0165753D02*
X0090027Y0165753D01*
X0088615Y0168151D02*
X0088213Y0168151D01*
X0086217Y0170550D02*
X0072887Y0170550D01*
X0072826Y0170610D02*
X0072215Y0171054D01*
X0071542Y0171397D01*
X0070823Y0171631D01*
X0070077Y0171749D01*
X0069699Y0171749D01*
X0069699Y0164349D01*
X0069699Y0164349D01*
X0074499Y0164349D01*
X0074499Y0167327D01*
X0074381Y0168073D01*
X0074148Y0168791D01*
X0073805Y0169465D01*
X0073360Y0170076D01*
X0072826Y0170610D01*
X0074356Y0168151D02*
X0082241Y0168151D01*
X0080427Y0165753D02*
X0074499Y0165753D01*
X0074499Y0164349D02*
X0069699Y0164349D01*
X0069699Y0164349D01*
X0069699Y0156949D01*
X0070077Y0156949D01*
X0070823Y0157067D01*
X0071542Y0157300D01*
X0072215Y0157643D01*
X0072826Y0158088D01*
X0073360Y0158622D01*
X0073805Y0159233D01*
X0074148Y0159906D01*
X0074381Y0160625D01*
X0074499Y0161371D01*
X0074499Y0164349D01*
X0074499Y0163354D02*
X0079424Y0163354D01*
X0077025Y0160956D02*
X0074433Y0160956D01*
X0074627Y0158557D02*
X0073296Y0158557D01*
X0072228Y0156159D02*
X0050500Y0156159D01*
X0050836Y0158557D02*
X0066103Y0158557D01*
X0064965Y0160956D02*
X0050020Y0160956D01*
X0042699Y0157998D02*
X0039452Y0157998D01*
X0034600Y0162850D01*
X0034600Y0189848D01*
X0043375Y0198623D01*
X0048908Y0204129D02*
X0054073Y0204129D01*
X0056471Y0206527D02*
X0051076Y0206527D01*
X0051512Y0208623D02*
X0051512Y0209030D01*
X0051385Y0209833D01*
X0051133Y0210607D01*
X0050764Y0211332D01*
X0050286Y0211990D01*
X0049711Y0212565D01*
X0049052Y0213044D01*
X0048328Y0213413D01*
X0047554Y0213664D01*
X0046750Y0213792D01*
X0043375Y0213792D01*
X0040000Y0213792D01*
X0039196Y0213664D01*
X0038422Y0213413D01*
X0037698Y0213044D01*
X0037039Y0212565D01*
X0036464Y0211990D01*
X0035986Y0211332D01*
X0035617Y0210607D01*
X0035365Y0209833D01*
X0035238Y0209030D01*
X0035238Y0208623D01*
X0043375Y0208623D01*
X0043375Y0208623D01*
X0051512Y0208623D01*
X0051512Y0208926D02*
X0058870Y0208926D01*
X0060699Y0211324D02*
X0050768Y0211324D01*
X0047184Y0213723D02*
X0060176Y0213723D01*
X0060176Y0213599D02*
X0068376Y0213599D01*
X0068376Y0213599D01*
X0076576Y0213599D01*
X0076576Y0214009D01*
X0076448Y0214817D01*
X0076195Y0215596D01*
X0075823Y0216325D01*
X0075342Y0216987D01*
X0074764Y0217566D01*
X0074101Y0218047D01*
X0073372Y0218418D01*
X0072594Y0218671D01*
X0071785Y0218799D01*
X0068376Y0218799D01*
X0064967Y0218799D01*
X0064158Y0218671D01*
X0063380Y0218418D01*
X0062651Y0218047D01*
X0061988Y0217566D01*
X0061410Y0216987D01*
X0060929Y0216325D01*
X0060557Y0215596D01*
X0060304Y0214817D01*
X0060176Y0214009D01*
X0060176Y0213599D01*
X0060825Y0216121D02*
X0027200Y0216121D01*
X0027200Y0213723D02*
X0039566Y0213723D01*
X0043375Y0213723D02*
X0043375Y0213723D01*
X0043375Y0213792D02*
X0043375Y0208623D01*
X0043375Y0208623D01*
X0043375Y0213792D01*
X0043375Y0211324D02*
X0043375Y0211324D01*
X0043375Y0208926D02*
X0043375Y0208926D01*
X0037842Y0204129D02*
X0027200Y0204129D01*
X0027200Y0206527D02*
X0035674Y0206527D01*
X0035238Y0208926D02*
X0027200Y0208926D01*
X0027200Y0211324D02*
X0035982Y0211324D01*
X0036204Y0201730D02*
X0027200Y0201730D01*
X0027200Y0199332D02*
X0035238Y0199332D01*
X0035512Y0196933D02*
X0027200Y0196933D01*
X0027200Y0194535D02*
X0034478Y0194535D01*
X0032080Y0192136D02*
X0027200Y0192136D01*
X0027200Y0189738D02*
X0031200Y0189738D01*
X0031200Y0187339D02*
X0027200Y0187339D01*
X0027200Y0184941D02*
X0031200Y0184941D01*
X0031200Y0182542D02*
X0027200Y0182542D01*
X0027200Y0180144D02*
X0031200Y0180144D01*
X0031200Y0177745D02*
X0027200Y0177745D01*
X0027200Y0175347D02*
X0031200Y0175347D01*
X0031200Y0172948D02*
X0027200Y0172948D01*
X0027200Y0170550D02*
X0031200Y0170550D01*
X0031200Y0168151D02*
X0027200Y0168151D01*
X0027200Y0165753D02*
X0031200Y0165753D01*
X0031200Y0163354D02*
X0027200Y0163354D01*
X0027200Y0160956D02*
X0031200Y0160956D01*
X0031200Y0158557D02*
X0027200Y0158557D01*
X0027200Y0156159D02*
X0031200Y0156159D01*
X0031200Y0153760D02*
X0027200Y0153760D01*
X0027200Y0151362D02*
X0031200Y0151362D01*
X0031200Y0148963D02*
X0027200Y0148963D01*
X0027200Y0146565D02*
X0031200Y0146565D01*
X0031200Y0144166D02*
X0027200Y0144166D01*
X0027200Y0141768D02*
X0031200Y0141768D01*
X0031200Y0139369D02*
X0027200Y0139369D01*
X0027200Y0136971D02*
X0031200Y0136971D01*
X0031200Y0134572D02*
X0027200Y0134572D01*
X0027200Y0132174D02*
X0031200Y0132174D01*
X0031200Y0129775D02*
X0027200Y0129775D01*
X0027200Y0127376D02*
X0031200Y0127376D01*
X0031200Y0124978D02*
X0027200Y0124978D01*
X0027200Y0122579D02*
X0031200Y0122579D01*
X0032511Y0120181D02*
X0027200Y0120181D01*
X0027200Y0117782D02*
X0034909Y0117782D01*
X0036287Y0115384D02*
X0027200Y0115384D01*
X0027200Y0112985D02*
X0035912Y0112985D01*
X0036673Y0110587D02*
X0027200Y0110587D01*
X0020400Y0110587D02*
X0007900Y0110587D01*
X0007900Y0112985D02*
X0020400Y0112985D01*
X0020400Y0115384D02*
X0007900Y0115384D01*
X0007900Y0117782D02*
X0020400Y0117782D01*
X0020400Y0120181D02*
X0007900Y0120181D01*
X0007900Y0122579D02*
X0020400Y0122579D01*
X0020400Y0124978D02*
X0007900Y0124978D01*
X0007900Y0127376D02*
X0020400Y0127376D01*
X0020400Y0129775D02*
X0007900Y0129775D01*
X0007900Y0132174D02*
X0020400Y0132174D01*
X0020400Y0134572D02*
X0007900Y0134572D01*
X0007900Y0136971D02*
X0020400Y0136971D01*
X0020400Y0139369D02*
X0007900Y0139369D01*
X0007900Y0141768D02*
X0020400Y0141768D01*
X0020400Y0144166D02*
X0007900Y0144166D01*
X0007900Y0146565D02*
X0020400Y0146565D01*
X0020400Y0148963D02*
X0007900Y0148963D01*
X0007900Y0151362D02*
X0020400Y0151362D01*
X0020400Y0153760D02*
X0007900Y0153760D01*
X0007900Y0156159D02*
X0020400Y0156159D01*
X0020400Y0158557D02*
X0007900Y0158557D01*
X0007900Y0160956D02*
X0020400Y0160956D01*
X0020400Y0163354D02*
X0007900Y0163354D01*
X0007900Y0165753D02*
X0020400Y0165753D01*
X0020400Y0168151D02*
X0007900Y0168151D01*
X0007900Y0170550D02*
X0020400Y0170550D01*
X0020400Y0172948D02*
X0007900Y0172948D01*
X0007900Y0175347D02*
X0020400Y0175347D01*
X0020400Y0177745D02*
X0007900Y0177745D01*
X0007900Y0180144D02*
X0020400Y0180144D01*
X0020400Y0182542D02*
X0007900Y0182542D01*
X0007900Y0184941D02*
X0020400Y0184941D01*
X0020400Y0187339D02*
X0007900Y0187339D01*
X0007900Y0189738D02*
X0020400Y0189738D01*
X0020400Y0192136D02*
X0007900Y0192136D01*
X0007900Y0194535D02*
X0020400Y0194535D01*
X0020400Y0196933D02*
X0007900Y0196933D01*
X0007900Y0199332D02*
X0020400Y0199332D01*
X0020400Y0201730D02*
X0007900Y0201730D01*
X0007900Y0204129D02*
X0020400Y0204129D01*
X0020400Y0206527D02*
X0007900Y0206527D01*
X0007900Y0208926D02*
X0020400Y0208926D01*
X0020400Y0211324D02*
X0007900Y0211324D01*
X0007900Y0213723D02*
X0020400Y0213723D01*
X0020400Y0216121D02*
X0007900Y0216121D01*
X0007900Y0218520D02*
X0020400Y0218520D01*
X0020400Y0220918D02*
X0007900Y0220918D01*
X0007900Y0223317D02*
X0020400Y0223317D01*
X0020400Y0225715D02*
X0007900Y0225715D01*
X0007900Y0228114D02*
X0020400Y0228114D01*
X0020400Y0230512D02*
X0007900Y0230512D01*
X0007900Y0232911D02*
X0020621Y0232911D01*
X0022601Y0235309D02*
X0007900Y0235309D01*
X0007900Y0237708D02*
X0025000Y0237708D01*
X0025643Y0238351D02*
X0025643Y0238351D01*
X0027398Y0240107D02*
X0015123Y0240107D01*
X0018467Y0242505D02*
X0029797Y0242505D01*
X0032575Y0240475D02*
X0116150Y0240475D01*
X0132350Y0224275D01*
X0127910Y0218520D02*
X0126714Y0218520D01*
X0124375Y0218200D02*
X0124375Y0222250D01*
X0122350Y0223317D02*
X0122350Y0223317D01*
X0122350Y0224275D02*
X0122350Y0216138D01*
X0122350Y0218520D02*
X0122350Y0218520D01*
X0122350Y0220918D02*
X0122350Y0220918D01*
X0122350Y0224275D02*
X0122350Y0224275D01*
X0117625Y0229000D01*
X0117337Y0229000D01*
X0120325Y0226012D01*
X0122350Y0225715D02*
X0122350Y0225715D01*
X0122350Y0226975D02*
X0118975Y0230350D01*
X0118975Y0232375D01*
X0122350Y0229000D01*
X0122350Y0229467D02*
X0122350Y0224275D01*
X0122350Y0226975D01*
X0122350Y0228114D02*
X0122350Y0228114D01*
X0122350Y0229467D02*
X0122350Y0229467D01*
X0122350Y0224275D01*
X0122350Y0224275D01*
X0117337Y0229000D02*
X0116806Y0229531D01*
X0116390Y0230512D02*
X0118336Y0230512D01*
X0118906Y0232911D02*
X0094156Y0232911D01*
X0094067Y0233000D02*
X0091851Y0233000D01*
X0089635Y0233000D01*
X0086501Y0229866D01*
X0086501Y0227650D01*
X0091851Y0227650D01*
X0091851Y0227650D01*
X0097201Y0227650D01*
X0097201Y0229866D01*
X0094067Y0233000D01*
X0091851Y0233000D02*
X0091851Y0227651D01*
X0091851Y0233000D01*
X0091851Y0232911D02*
X0091851Y0232911D01*
X0089546Y0232911D02*
X0074156Y0232911D01*
X0076555Y0230512D02*
X0087147Y0230512D01*
X0086501Y0228114D02*
X0077201Y0228114D01*
X0077201Y0225715D02*
X0086501Y0225715D01*
X0091851Y0227651D02*
X0091851Y0227651D01*
X0091851Y0228114D02*
X0091851Y0228114D01*
X0091851Y0230512D02*
X0091851Y0230512D01*
X0096555Y0230512D02*
X0108310Y0230512D01*
X0107181Y0228114D02*
X0097201Y0228114D01*
X0097201Y0225715D02*
X0107181Y0225715D01*
X0110388Y0222313D02*
X0112350Y0224275D01*
X0112350Y0218075D01*
X0120325Y0210100D01*
X0125725Y0210100D01*
X0117986Y0218520D02*
X0116790Y0218520D01*
X0111894Y0213723D02*
X0102176Y0213723D01*
X0102176Y0213599D02*
X0102176Y0214009D01*
X0102048Y0214817D01*
X0101795Y0215596D01*
X0101423Y0216325D01*
X0100942Y0216987D01*
X0100364Y0217566D01*
X0099701Y0218047D01*
X0098972Y0218418D01*
X0098194Y0218671D01*
X0097385Y0218799D01*
X0093976Y0218799D01*
X0090567Y0218799D01*
X0089758Y0218671D01*
X0088980Y0218418D01*
X0088251Y0218047D01*
X0087588Y0217566D01*
X0087010Y0216987D01*
X0086529Y0216325D01*
X0086157Y0215596D01*
X0085904Y0214817D01*
X0085776Y0214009D01*
X0085776Y0213599D01*
X0093976Y0213599D01*
X0093976Y0213599D01*
X0102176Y0213599D01*
X0101653Y0211324D02*
X0114292Y0211324D01*
X0109495Y0216121D02*
X0101527Y0216121D01*
X0098660Y0218520D02*
X0107910Y0218520D01*
X0110388Y0222313D02*
X0066514Y0222313D01*
X0071851Y0227650D01*
X0066501Y0228114D02*
X0060076Y0228114D01*
X0060076Y0230512D02*
X0067147Y0230512D01*
X0069546Y0232911D02*
X0057707Y0232911D01*
X0054726Y0232911D02*
X0054726Y0232911D01*
X0054726Y0230512D02*
X0054726Y0230512D01*
X0051745Y0232911D02*
X0037707Y0232911D01*
X0040076Y0230512D02*
X0049376Y0230512D01*
X0049376Y0228114D02*
X0040076Y0228114D01*
X0042145Y0225715D02*
X0049770Y0225715D01*
X0040738Y0222313D02*
X0066514Y0222313D01*
X0065108Y0225715D02*
X0059682Y0225715D01*
X0063692Y0218520D02*
X0027200Y0218520D01*
X0027200Y0220918D02*
X0037325Y0220918D01*
X0040738Y0222313D02*
X0034726Y0228326D01*
X0029770Y0225715D02*
X0027200Y0225715D01*
X0027200Y0223317D02*
X0032169Y0223317D01*
X0029376Y0228114D02*
X0027200Y0228114D01*
X0027421Y0230512D02*
X0029376Y0230512D01*
X0029819Y0232911D02*
X0031745Y0232911D01*
X0030451Y0233543D02*
X0030451Y0233543D01*
X0032218Y0235309D02*
X0116507Y0235309D01*
X0121327Y0240107D02*
X0238197Y0240107D01*
X0238144Y0237708D02*
X0123725Y0237708D01*
X0118928Y0242505D02*
X0238839Y0242505D01*
X0240152Y0244904D02*
X0020289Y0244904D01*
X0021321Y0247302D02*
X0242396Y0247302D01*
X0256103Y0247302D02*
X0336896Y0247302D01*
X0334652Y0244904D02*
X0258348Y0244904D01*
X0334652Y0244904D01*
X0333339Y0242505D02*
X0259661Y0242505D01*
X0333339Y0242505D01*
X0332697Y0240107D02*
X0260303Y0240107D01*
X0332697Y0240107D01*
X0332644Y0237708D02*
X0260355Y0237708D01*
X0332644Y0237708D01*
X0333094Y0235309D02*
X0259906Y0235309D01*
X0333094Y0235309D01*
X0334124Y0232911D02*
X0258876Y0232911D01*
X0334124Y0232911D01*
X0335982Y0230512D02*
X0257018Y0230512D01*
X0335982Y0230512D01*
X0339441Y0228114D02*
X0253558Y0228114D01*
X0339441Y0228114D01*
X0348058Y0228114D02*
X0351175Y0228114D01*
X0351175Y0225715D02*
X0241825Y0225715D01*
X0241825Y0223317D02*
X0351175Y0223317D01*
X0348058Y0228114D02*
X0359650Y0228114D01*
X0359650Y0230512D02*
X0351518Y0230512D01*
X0353376Y0232911D02*
X0359650Y0232911D01*
X0359650Y0235309D02*
X0354406Y0235309D01*
X0354855Y0237708D02*
X0359650Y0237708D01*
X0345076Y0249701D02*
X0021799Y0249701D01*
X0021799Y0252099D02*
X0345076Y0252099D01*
X0351175Y0172948D02*
X0252909Y0172948D01*
X0252060Y0172948D02*
X0359650Y0172948D01*
X0359650Y0170550D02*
X0254459Y0170550D01*
X0255307Y0170550D02*
X0351175Y0170550D01*
X0351175Y0168151D02*
X0257706Y0168151D01*
X0256857Y0168151D02*
X0359650Y0168151D01*
X0359650Y0165753D02*
X0259256Y0165753D01*
X0260104Y0165753D02*
X0351175Y0165753D01*
X0351175Y0163354D02*
X0262503Y0163354D01*
X0261654Y0163354D02*
X0359650Y0163354D01*
X0359650Y0160956D02*
X0264053Y0160956D01*
X0264901Y0160956D02*
X0351175Y0160956D01*
X0351175Y0158557D02*
X0267300Y0158557D01*
X0266451Y0158557D02*
X0359650Y0158557D01*
X0359650Y0156159D02*
X0268850Y0156159D01*
X0269698Y0156159D02*
X0351175Y0156159D01*
X0351175Y0153760D02*
X0272097Y0153760D01*
X0271248Y0153760D02*
X0359650Y0153760D01*
X0359650Y0151362D02*
X0273647Y0151362D01*
X0274495Y0151362D02*
X0351175Y0151362D01*
X0351175Y0148963D02*
X0276894Y0148963D01*
X0276045Y0148963D02*
X0359650Y0148963D01*
X0359650Y0146565D02*
X0278444Y0146565D01*
X0279292Y0146565D02*
X0351175Y0146565D01*
X0351175Y0144166D02*
X0281691Y0144166D01*
X0280842Y0144166D02*
X0359650Y0144166D01*
X0359650Y0141768D02*
X0284879Y0141768D01*
X0286412Y0141768D02*
X0351175Y0141768D01*
X0351175Y0139369D02*
X0288810Y0139369D01*
X0287962Y0139369D02*
X0359650Y0139369D01*
X0359650Y0136971D02*
X0290360Y0136971D01*
X0291209Y0136971D02*
X0351175Y0136971D01*
X0351175Y0134572D02*
X0293607Y0134572D01*
X0292759Y0134572D02*
X0359650Y0134572D01*
X0359650Y0132174D02*
X0295157Y0132174D01*
X0296006Y0132174D02*
X0351175Y0132174D01*
X0351175Y0129775D02*
X0298404Y0129775D01*
X0297556Y0129775D02*
X0359650Y0129775D01*
X0359650Y0127376D02*
X0299954Y0127376D01*
X0300803Y0127376D02*
X0351175Y0127376D01*
X0351175Y0124978D02*
X0303202Y0124978D01*
X0302353Y0124978D02*
X0359650Y0124978D01*
X0359650Y0122579D02*
X0304751Y0122579D01*
X0305600Y0122579D02*
X0351175Y0122579D01*
X0351175Y0120181D02*
X0307999Y0120181D01*
X0307150Y0120181D02*
X0359650Y0120181D01*
X0359650Y0117782D02*
X0309548Y0117782D01*
X0310397Y0117782D02*
X0351175Y0117782D01*
X0351175Y0115384D02*
X0312796Y0115384D01*
X0311947Y0115384D02*
X0359650Y0115384D01*
X0359650Y0112985D02*
X0314346Y0112985D01*
X0315194Y0112985D02*
X0351175Y0112985D01*
X0351175Y0110587D02*
X0317593Y0110587D01*
X0316744Y0110587D02*
X0359650Y0110587D01*
X0359650Y0108188D02*
X0319143Y0108188D01*
X0319991Y0108188D02*
X0351175Y0108188D01*
X0351175Y0105790D02*
X0322390Y0105790D01*
X0321541Y0105790D02*
X0359650Y0105790D01*
X0359650Y0103391D02*
X0346571Y0103391D01*
X0351175Y0103391D01*
X0350569Y0101537D02*
X0348037Y0102999D01*
X0345212Y0103755D01*
X0342288Y0103755D01*
X0339463Y0102999D01*
X0336931Y0101537D01*
X0334863Y0099469D01*
X0333401Y0096937D01*
X0332644Y0094112D01*
X0332644Y0091188D01*
X0333401Y0088363D01*
X0334863Y0085831D01*
X0336931Y0083763D01*
X0339463Y0082301D01*
X0342288Y0081544D01*
X0345212Y0081544D01*
X0348037Y0082301D01*
X0350569Y0083763D01*
X0352637Y0085831D01*
X0354099Y0088363D01*
X0354855Y0091188D01*
X0354855Y0094112D01*
X0354099Y0096937D01*
X0352637Y0099469D01*
X0350569Y0101537D01*
X0351113Y0100993D02*
X0351175Y0100993D01*
X0351113Y0100993D02*
X0359650Y0100993D01*
X0359650Y0098594D02*
X0353142Y0098594D01*
X0354297Y0096196D02*
X0359650Y0096196D01*
X0359650Y0093797D02*
X0354855Y0093797D01*
X0354855Y0091399D02*
X0359650Y0091399D01*
X0359650Y0089000D02*
X0354269Y0089000D01*
X0353082Y0086602D02*
X0359650Y0086602D01*
X0359650Y0084203D02*
X0351009Y0084203D01*
X0352283Y0081805D02*
X0346183Y0081805D01*
X0348669Y0079406D02*
X0320465Y0079406D01*
X0322863Y0081805D02*
X0341317Y0081805D01*
X0336491Y0084203D02*
X0325262Y0084203D01*
X0327660Y0086602D02*
X0334418Y0086602D01*
X0328509Y0086602D01*
X0329754Y0089000D02*
X0333231Y0089000D01*
X0330603Y0089000D01*
X0331408Y0091399D02*
X0332644Y0091399D01*
X0332057Y0091399D01*
X0332268Y0093797D02*
X0332644Y0093797D01*
X0331668Y0093797D01*
X0331668Y0096196D02*
X0333203Y0096196D01*
X0332268Y0096196D01*
X0332268Y0098594D02*
X0334358Y0098594D01*
X0331668Y0098594D01*
X0331914Y0100993D02*
X0336387Y0100993D01*
X0331265Y0100993D01*
X0330258Y0103391D02*
X0340929Y0103391D01*
X0329384Y0103391D01*
X0316499Y0101215D02*
X0316499Y0096023D01*
X0316499Y0096023D01*
X0316499Y0087886D01*
X0316093Y0087886D01*
X0315289Y0088013D01*
X0314515Y0088265D01*
X0313791Y0088634D01*
X0313132Y0089112D01*
X0312557Y0089688D01*
X0312079Y0090346D01*
X0311710Y0091071D01*
X0311517Y0091663D01*
X0310881Y0090127D01*
X0309899Y0089145D01*
X0309899Y0087798D01*
X0309382Y0086548D01*
X0308425Y0085592D01*
X0302683Y0079850D01*
X0311292Y0079850D01*
X0321957Y0090515D01*
X0321482Y0091663D01*
X0321289Y0091071D01*
X0320920Y0090346D01*
X0320442Y0089688D01*
X0319866Y0089112D01*
X0319208Y0088634D01*
X0318483Y0088265D01*
X0317710Y0088013D01*
X0316906Y0087886D01*
X0316499Y0087886D01*
X0316499Y0096023D01*
X0316499Y0101001D01*
X0312025Y0105475D01*
X0311924Y0105790D02*
X0296943Y0105790D01*
X0297792Y0105790D02*
X0308025Y0105790D01*
X0308025Y0106271D02*
X0308025Y0104679D01*
X0308063Y0104588D01*
X0307647Y0104760D01*
X0305352Y0104760D01*
X0303232Y0103882D01*
X0301609Y0102259D01*
X0301499Y0101994D01*
X0301390Y0102259D01*
X0299767Y0103882D01*
X0299652Y0103930D01*
X0298765Y0104817D01*
X0287741Y0115841D01*
X0286616Y0116966D01*
X0285146Y0117575D01*
X0241825Y0117575D01*
X0241825Y0134401D01*
X0282465Y0134401D01*
X0308879Y0107986D01*
X0308634Y0107741D01*
X0308025Y0106271D01*
X0308677Y0108188D02*
X0295393Y0108188D01*
X0294545Y0108188D02*
X0309526Y0108188D01*
X0307127Y0110587D02*
X0292146Y0110587D01*
X0292995Y0110587D02*
X0306279Y0110587D01*
X0304729Y0112985D02*
X0289748Y0112985D01*
X0290596Y0112985D02*
X0303880Y0112985D01*
X0302330Y0115384D02*
X0287349Y0115384D01*
X0287741Y0115841D02*
X0287741Y0115841D01*
X0288198Y0115384D02*
X0301482Y0115384D01*
X0299932Y0117782D02*
X0236551Y0117782D01*
X0236209Y0120181D02*
X0297533Y0120181D01*
X0296685Y0120181D02*
X0241825Y0120181D01*
X0241825Y0122579D02*
X0294286Y0122579D01*
X0295135Y0122579D02*
X0234206Y0122579D01*
X0235116Y0124978D02*
X0292736Y0124978D01*
X0291888Y0124978D02*
X0241825Y0124978D01*
X0241825Y0127376D02*
X0289489Y0127376D01*
X0290338Y0127376D02*
X0236522Y0127376D01*
X0236377Y0129775D02*
X0287939Y0129775D01*
X0287091Y0129775D02*
X0241825Y0129775D01*
X0241825Y0132174D02*
X0284692Y0132174D01*
X0285541Y0132174D02*
X0234766Y0132174D01*
X0234710Y0134572D02*
X0283142Y0134572D01*
X0281799Y0138401D02*
X0229151Y0138401D01*
X0231175Y0138400D01*
X0232705Y0143601D02*
X0225596Y0143601D01*
X0223832Y0144332D01*
X0222481Y0145682D01*
X0221751Y0147446D01*
X0221751Y0149356D01*
X0222481Y0151120D01*
X0223832Y0152470D01*
X0225596Y0153201D01*
X0232705Y0153201D01*
X0234470Y0152470D01*
X0235820Y0151120D01*
X0236551Y0149356D01*
X0236551Y0147446D01*
X0235820Y0145682D01*
X0234470Y0144332D01*
X0232705Y0143601D01*
X0234070Y0144166D02*
X0271226Y0144166D01*
X0270377Y0144166D02*
X0241825Y0144166D01*
X0241825Y0142401D02*
X0272142Y0142401D01*
X0244893Y0169650D01*
X0241825Y0169650D01*
X0241825Y0142401D01*
X0241825Y0146565D02*
X0267979Y0146565D01*
X0268827Y0146565D02*
X0236185Y0146565D01*
X0236551Y0148963D02*
X0266429Y0148963D01*
X0265580Y0148963D02*
X0241825Y0148963D01*
X0241825Y0151362D02*
X0263182Y0151362D01*
X0264030Y0151362D02*
X0235578Y0151362D01*
X0234266Y0154296D02*
X0234878Y0154740D01*
X0235412Y0155274D01*
X0235856Y0155885D01*
X0236199Y0156558D01*
X0236432Y0157277D01*
X0236551Y0158023D01*
X0236551Y0158401D01*
X0236551Y0158779D01*
X0236432Y0159525D01*
X0236199Y0160244D01*
X0235856Y0160917D01*
X0235412Y0161528D01*
X0234878Y0162062D01*
X0234266Y0162506D01*
X0233593Y0162849D01*
X0232875Y0163083D01*
X0232128Y0163201D01*
X0229151Y0163201D01*
X0229151Y0158401D01*
X0236551Y0158401D01*
X0229151Y0158401D01*
X0229151Y0158401D01*
X0229151Y0158401D01*
X0229151Y0153601D01*
X0232128Y0153601D01*
X0232875Y0153719D01*
X0233593Y0153953D01*
X0234266Y0154296D01*
X0233001Y0153760D02*
X0261632Y0153760D01*
X0260783Y0153760D02*
X0241825Y0153760D01*
X0241825Y0156159D02*
X0258385Y0156159D01*
X0259233Y0156159D02*
X0235995Y0156159D01*
X0236551Y0158557D02*
X0256835Y0158557D01*
X0255986Y0158557D02*
X0241825Y0158557D01*
X0241825Y0160956D02*
X0253587Y0160956D01*
X0254436Y0160956D02*
X0235828Y0160956D01*
X0241825Y0163354D02*
X0251189Y0163354D01*
X0252038Y0163354D02*
X0208912Y0163354D01*
X0209451Y0163893D02*
X0209451Y0163893D01*
X0211311Y0165753D02*
X0222452Y0165753D01*
X0221751Y0168151D02*
X0213709Y0168151D01*
X0207525Y0166775D02*
X0199151Y0158401D01*
X0199295Y0163354D02*
X0186650Y0163354D01*
X0186650Y0160956D02*
X0192413Y0160956D01*
X0191751Y0158557D02*
X0186907Y0158557D01*
X0188050Y0156159D02*
X0192284Y0156159D01*
X0195212Y0153760D02*
X0188050Y0153760D01*
X0186650Y0151362D02*
X0192768Y0151362D01*
X0192889Y0151528D02*
X0192445Y0150917D01*
X0192102Y0150244D01*
X0191869Y0149525D01*
X0191751Y0148779D01*
X0191751Y0148401D01*
X0191751Y0148023D01*
X0191869Y0147277D01*
X0192102Y0146558D01*
X0192445Y0145885D01*
X0192889Y0145274D01*
X0193424Y0144740D01*
X0194035Y0144296D01*
X0194708Y0143953D01*
X0195427Y0143719D01*
X0196173Y0143601D01*
X0199151Y0143601D01*
X0202128Y0143601D01*
X0202875Y0143719D01*
X0203593Y0143953D01*
X0204266Y0144296D01*
X0204878Y0144740D01*
X0205412Y0145274D01*
X0205856Y0145885D01*
X0206199Y0146558D01*
X0206432Y0147277D01*
X0206551Y0148023D01*
X0206551Y0148401D01*
X0206551Y0148779D01*
X0206432Y0149525D01*
X0206199Y0150244D01*
X0205856Y0150917D01*
X0205412Y0151528D01*
X0204878Y0152062D01*
X0204266Y0152506D01*
X0203593Y0152849D01*
X0202875Y0153083D01*
X0202128Y0153201D01*
X0199151Y0153201D01*
X0199151Y0148401D01*
X0206551Y0148401D01*
X0199151Y0148401D01*
X0199151Y0148401D01*
X0199151Y0148401D01*
X0199151Y0143601D01*
X0199151Y0148401D01*
X0199151Y0148401D01*
X0199151Y0153201D01*
X0196173Y0153201D01*
X0195427Y0153083D01*
X0194708Y0152849D01*
X0194035Y0152506D01*
X0193424Y0152062D01*
X0192889Y0151528D01*
X0191780Y0148963D02*
X0186650Y0148963D01*
X0186650Y0146565D02*
X0192100Y0146565D01*
X0191751Y0148401D02*
X0199150Y0148401D01*
X0199150Y0148401D01*
X0191751Y0148401D01*
X0194289Y0144166D02*
X0186650Y0144166D01*
X0185600Y0141768D02*
X0193129Y0141768D01*
X0191756Y0139369D02*
X0183599Y0139369D01*
X0183561Y0136971D02*
X0191948Y0136971D01*
X0193591Y0134572D02*
X0181162Y0134572D01*
X0178249Y0139224D02*
X0183250Y0144226D01*
X0183250Y0155425D01*
X0183250Y0169750D01*
X0191901Y0178401D01*
X0199151Y0178401D01*
X0203316Y0172948D02*
X0203725Y0172948D01*
X0210525Y0175347D02*
X0211288Y0175347D01*
X0210525Y0177745D02*
X0221751Y0177745D01*
X0222077Y0180144D02*
X0210525Y0180144D01*
X0210525Y0182542D02*
X0224006Y0182542D01*
X0223223Y0184941D02*
X0210525Y0184941D01*
X0210525Y0187339D02*
X0221795Y0187339D01*
X0221909Y0189738D02*
X0210525Y0189738D01*
X0210525Y0192136D02*
X0223498Y0192136D01*
X0223629Y0194535D02*
X0210525Y0194535D01*
X0210525Y0196933D02*
X0221963Y0196933D01*
X0221751Y0199332D02*
X0210525Y0199332D01*
X0210525Y0201730D02*
X0223092Y0201730D01*
X0199151Y0188401D02*
X0189949Y0188401D01*
X0189850Y0188500D01*
X0189726Y0188500D01*
X0183251Y0182024D01*
X0183251Y0190525D01*
X0186029Y0194535D02*
X0193629Y0194535D01*
X0193498Y0192136D02*
X0188051Y0192136D01*
X0187288Y0201730D02*
X0193092Y0201730D01*
X0194321Y0204129D02*
X0189687Y0204129D01*
X0192085Y0206527D02*
X0192131Y0206527D01*
X0183251Y0182024D02*
X0178926Y0177699D01*
X0188858Y0170550D02*
X0192245Y0170550D01*
X0191751Y0168151D02*
X0186650Y0168151D01*
X0186650Y0165753D02*
X0192452Y0165753D01*
X0191257Y0172948D02*
X0194986Y0172948D01*
X0206514Y0160956D02*
X0222474Y0160956D01*
X0222445Y0160917D02*
X0222102Y0160244D01*
X0221869Y0159525D01*
X0221751Y0158779D01*
X0221751Y0158401D01*
X0221751Y0158023D01*
X0221869Y0157277D01*
X0222102Y0156558D01*
X0222445Y0155885D01*
X0222889Y0155274D01*
X0223424Y0154740D01*
X0224035Y0154296D01*
X0224708Y0153953D01*
X0225427Y0153719D01*
X0226173Y0153601D01*
X0229151Y0153601D01*
X0229151Y0158401D01*
X0229151Y0158401D01*
X0229151Y0163201D01*
X0226173Y0163201D01*
X0225427Y0163083D01*
X0224708Y0162849D01*
X0224035Y0162506D01*
X0223424Y0162062D01*
X0222889Y0161528D01*
X0222445Y0160917D01*
X0221751Y0158557D02*
X0206551Y0158557D01*
X0206017Y0156159D02*
X0222306Y0156159D01*
X0221751Y0158401D02*
X0229150Y0158401D01*
X0229150Y0158401D01*
X0221751Y0158401D01*
X0225301Y0153760D02*
X0203090Y0153760D01*
X0205533Y0151362D02*
X0222723Y0151362D01*
X0221751Y0148963D02*
X0206521Y0148963D01*
X0206201Y0146565D02*
X0222116Y0146565D01*
X0224232Y0144166D02*
X0204012Y0144166D01*
X0206280Y0141768D02*
X0223129Y0141768D01*
X0221756Y0139369D02*
X0209364Y0139369D01*
X0211291Y0136971D02*
X0221948Y0136971D01*
X0223591Y0134572D02*
X0211475Y0134572D01*
X0211475Y0132174D02*
X0223535Y0132174D01*
X0222901Y0128401D02*
X0229151Y0128401D01*
X0222901Y0128401D02*
X0217525Y0123025D01*
X0217525Y0108175D01*
X0221575Y0104125D01*
X0224604Y0104125D01*
X0224728Y0104001D01*
X0233573Y0104001D01*
X0233697Y0104125D01*
X0272200Y0104125D01*
X0276499Y0099826D01*
X0276499Y0096023D01*
X0271499Y0090052D02*
X0271609Y0089787D01*
X0273232Y0088164D01*
X0275352Y0087286D01*
X0277647Y0087286D01*
X0279767Y0088164D01*
X0281390Y0089787D01*
X0281499Y0090052D01*
X0281609Y0089787D01*
X0283232Y0088164D01*
X0285352Y0087286D01*
X0287647Y0087286D01*
X0289767Y0088164D01*
X0291390Y0089787D01*
X0291499Y0090052D01*
X0291609Y0089787D01*
X0293232Y0088164D01*
X0295352Y0087286D01*
X0297647Y0087286D01*
X0299767Y0088164D01*
X0301390Y0089787D01*
X0301499Y0090052D01*
X0301609Y0089787D01*
X0301882Y0089514D01*
X0297593Y0085225D01*
X0257531Y0085225D01*
X0258137Y0085831D01*
X0259599Y0088363D01*
X0260355Y0091188D01*
X0260355Y0094112D01*
X0259599Y0096937D01*
X0258137Y0099469D01*
X0257481Y0100125D01*
X0260731Y0100125D01*
X0260731Y0091907D01*
X0261609Y0089787D01*
X0263232Y0088164D01*
X0265352Y0087286D01*
X0267647Y0087286D01*
X0269767Y0088164D01*
X0271390Y0089787D01*
X0271499Y0090052D01*
X0270603Y0089000D02*
X0272396Y0089000D01*
X0280603Y0089000D02*
X0282396Y0089000D01*
X0286499Y0096023D02*
X0274122Y0108401D01*
X0229151Y0108401D01*
X0225075Y0112985D02*
X0220925Y0112985D01*
X0220925Y0110587D02*
X0222261Y0110587D01*
X0222779Y0115384D02*
X0220925Y0115384D01*
X0220925Y0117782D02*
X0221751Y0117782D01*
X0222092Y0120181D02*
X0220925Y0120181D01*
X0221888Y0122579D02*
X0224095Y0122579D01*
X0229151Y0118401D02*
X0233977Y0113575D01*
X0284350Y0113575D01*
X0296499Y0101426D01*
X0296499Y0096023D01*
X0301265Y0100993D02*
X0301734Y0100993D01*
X0302741Y0103391D02*
X0300258Y0103391D01*
X0299384Y0103391D02*
X0303615Y0103391D01*
X0298765Y0104817D02*
X0298765Y0104817D01*
X0309384Y0103391D02*
X0313762Y0103391D01*
X0311718Y0100993D02*
X0311265Y0100993D01*
X0316499Y0100993D02*
X0316499Y0100993D01*
X0316499Y0101215D02*
X0316499Y0101215D01*
X0316499Y0096023D01*
X0316499Y0096023D01*
X0316499Y0096196D02*
X0316499Y0096196D01*
X0316499Y0098594D02*
X0316499Y0098594D01*
X0316499Y0093797D02*
X0316499Y0093797D01*
X0316499Y0091399D02*
X0316499Y0091399D01*
X0316499Y0089000D02*
X0316499Y0089000D01*
X0315352Y0087286D02*
X0317647Y0087286D01*
X0318044Y0087451D01*
X0315818Y0085225D01*
X0308907Y0085225D01*
X0309890Y0086209D01*
X0310499Y0087679D01*
X0310499Y0088897D01*
X0311390Y0089787D01*
X0311499Y0090052D01*
X0311609Y0089787D01*
X0313232Y0088164D01*
X0315352Y0087286D01*
X0317195Y0086602D02*
X0310053Y0086602D01*
X0309404Y0086602D02*
X0318043Y0086602D01*
X0319712Y0089000D02*
X0320442Y0089000D01*
X0321396Y0091399D02*
X0321591Y0091399D01*
X0313287Y0089000D02*
X0309899Y0089000D01*
X0310603Y0089000D02*
X0312396Y0089000D01*
X0311603Y0091399D02*
X0311408Y0091399D01*
X0306499Y0088474D02*
X0306499Y0096023D01*
X0301368Y0089000D02*
X0300603Y0089000D01*
X0298970Y0086602D02*
X0258582Y0086602D01*
X0259769Y0089000D02*
X0262396Y0089000D01*
X0260942Y0091399D02*
X0260355Y0091399D01*
X0260355Y0093797D02*
X0260731Y0093797D01*
X0260731Y0096196D02*
X0259797Y0096196D01*
X0260731Y0098594D02*
X0258642Y0098594D01*
X0278604Y0109575D02*
X0282693Y0109575D01*
X0287508Y0104760D01*
X0285352Y0104760D01*
X0283985Y0104194D01*
X0278604Y0109575D01*
X0279991Y0108188D02*
X0284080Y0108188D01*
X0282390Y0105790D02*
X0286478Y0105790D01*
X0299083Y0117782D02*
X0241825Y0117782D01*
X0219467Y0129775D02*
X0211475Y0129775D01*
X0211475Y0127376D02*
X0217068Y0127376D01*
X0214670Y0124978D02*
X0211475Y0124978D01*
X0211475Y0122579D02*
X0214125Y0122579D01*
X0214125Y0120181D02*
X0211475Y0120181D01*
X0211475Y0117782D02*
X0214125Y0117782D01*
X0214125Y0115384D02*
X0209967Y0115384D01*
X0210001Y0115418D02*
X0210001Y0115418D01*
X0207569Y0112985D02*
X0214125Y0112985D01*
X0214125Y0110587D02*
X0206041Y0110587D01*
X0206232Y0111649D02*
X0206232Y0111649D01*
X0203350Y0113575D02*
X0208075Y0118300D01*
X0208075Y0135850D01*
X0205525Y0138400D01*
X0199151Y0138401D01*
X0199151Y0144166D02*
X0199151Y0144166D01*
X0199151Y0146565D02*
X0199151Y0146565D01*
X0199151Y0148963D02*
X0199151Y0148963D01*
X0199151Y0151362D02*
X0199151Y0151362D01*
X0179850Y0146565D02*
X0144175Y0146565D01*
X0143154Y0144166D02*
X0155624Y0144166D01*
X0156033Y0144574D02*
X0152899Y0141440D01*
X0152899Y0139224D01*
X0152899Y0137008D01*
X0156033Y0133874D01*
X0158249Y0133874D01*
X0160465Y0133874D01*
X0163599Y0137008D01*
X0163599Y0139224D01*
X0158249Y0139224D01*
X0158249Y0139224D01*
X0158249Y0133874D01*
X0158249Y0139224D01*
X0158249Y0139224D01*
X0163599Y0139224D01*
X0163599Y0141440D01*
X0160465Y0144574D01*
X0158249Y0144574D01*
X0158249Y0139225D01*
X0158249Y0139225D01*
X0158249Y0144574D01*
X0156033Y0144574D01*
X0158249Y0144166D02*
X0158249Y0144166D01*
X0158249Y0141768D02*
X0158249Y0141768D01*
X0158249Y0139369D02*
X0158249Y0139369D01*
X0158248Y0139224D02*
X0158248Y0139224D01*
X0152899Y0139224D01*
X0158248Y0139224D01*
X0158249Y0136971D02*
X0158249Y0136971D01*
X0158249Y0134572D02*
X0158249Y0134572D01*
X0161162Y0134572D02*
X0175335Y0134572D01*
X0172936Y0136971D02*
X0163561Y0136971D01*
X0163599Y0139369D02*
X0172899Y0139369D01*
X0173226Y0141768D02*
X0163271Y0141768D01*
X0160873Y0144166D02*
X0175624Y0144166D01*
X0193535Y0132174D02*
X0116732Y0132174D01*
X0119130Y0134572D02*
X0155335Y0134572D01*
X0152936Y0136971D02*
X0121529Y0136971D01*
X0123927Y0139369D02*
X0152899Y0139369D01*
X0153226Y0141768D02*
X0126326Y0141768D01*
X0126925Y0147175D02*
X0139375Y0147175D01*
X0131055Y0151362D02*
X0118370Y0151362D01*
X0119000Y0153760D02*
X0128657Y0153760D01*
X0126258Y0156159D02*
X0119000Y0156159D01*
X0119000Y0158557D02*
X0123860Y0158557D01*
X0121461Y0160956D02*
X0118667Y0160956D01*
X0119063Y0163354D02*
X0116529Y0163354D01*
X0123882Y0168151D02*
X0134584Y0168151D01*
X0134769Y0165753D02*
X0126281Y0165753D01*
X0128679Y0163354D02*
X0135975Y0163354D01*
X0135975Y0160956D02*
X0131078Y0160956D01*
X0133476Y0158557D02*
X0134752Y0158557D01*
X0139375Y0157175D02*
X0139375Y0163000D01*
X0139375Y0167175D01*
X0140238Y0166313D01*
X0140238Y0163863D01*
X0139375Y0163000D01*
X0140238Y0163863D02*
X0143550Y0167175D01*
X0139375Y0167175D01*
X0135961Y0170550D02*
X0120787Y0170550D01*
X0104937Y0175347D02*
X0091037Y0175347D01*
X0088638Y0177745D02*
X0104575Y0177745D01*
X0105556Y0180144D02*
X0100684Y0180144D01*
X0102081Y0194535D02*
X0135051Y0194535D01*
X0137450Y0196933D02*
X0102135Y0196933D01*
X0100797Y0199332D02*
X0139849Y0199332D01*
X0142247Y0201730D02*
X0061291Y0201730D01*
X0061554Y0199332D02*
X0058892Y0199332D01*
X0060217Y0196933D02*
X0056494Y0196933D01*
X0054095Y0194535D02*
X0060271Y0194535D01*
X0061685Y0192136D02*
X0051697Y0192136D01*
X0051674Y0201730D02*
X0050546Y0201730D01*
X0068376Y0213600D02*
X0068376Y0218799D01*
X0068376Y0213600D01*
X0068376Y0213600D01*
X0068376Y0213723D02*
X0068376Y0213723D01*
X0068376Y0216121D02*
X0068376Y0216121D01*
X0068376Y0218520D02*
X0068376Y0218520D01*
X0073060Y0218520D02*
X0089292Y0218520D01*
X0086425Y0216121D02*
X0075927Y0216121D01*
X0076576Y0213723D02*
X0085776Y0213723D01*
X0086299Y0211324D02*
X0076053Y0211324D01*
X0075197Y0199332D02*
X0087154Y0199332D01*
X0093976Y0213600D02*
X0093976Y0218799D01*
X0093976Y0213600D01*
X0093976Y0213600D01*
X0093976Y0213723D02*
X0093976Y0213723D01*
X0093976Y0216121D02*
X0093976Y0216121D01*
X0093976Y0218520D02*
X0093976Y0218520D01*
X0047149Y0180144D02*
X0038000Y0180144D01*
X0038000Y0182542D02*
X0044647Y0182542D01*
X0069699Y0170550D02*
X0069699Y0170550D01*
X0069699Y0168151D02*
X0069699Y0168151D01*
X0069699Y0165753D02*
X0069699Y0165753D01*
X0069699Y0163354D02*
X0069699Y0163354D01*
X0069699Y0160956D02*
X0069699Y0160956D01*
X0069699Y0158557D02*
X0069699Y0158557D01*
X0069830Y0153760D02*
X0048739Y0153760D01*
X0042699Y0147998D02*
X0068876Y0147998D01*
X0085227Y0164349D01*
X0084243Y0158557D02*
X0104627Y0158557D01*
X0102228Y0156159D02*
X0081845Y0156159D01*
X0079446Y0153760D02*
X0099830Y0153760D01*
X0097431Y0151362D02*
X0077048Y0151362D01*
X0074649Y0148963D02*
X0095033Y0148963D01*
X0092634Y0146565D02*
X0072251Y0146565D01*
X0073892Y0139369D02*
X0085439Y0139369D01*
X0087837Y0141768D02*
X0049208Y0141768D01*
X0049145Y0144166D02*
X0090236Y0144166D01*
X0085227Y0134349D02*
X0108053Y0157175D01*
X0109375Y0157175D01*
X0115971Y0148963D02*
X0123905Y0148963D01*
X0121506Y0146565D02*
X0114175Y0146565D01*
X0113154Y0144166D02*
X0119108Y0144166D01*
X0126925Y0147175D02*
X0105475Y0125725D01*
X0105475Y0110050D01*
X0085900Y0090475D01*
X0070376Y0090475D01*
X0075044Y0086602D02*
X0082984Y0086602D01*
X0088815Y0086602D02*
X0180343Y0086602D01*
X0182742Y0089000D02*
X0156578Y0089000D01*
X0154875Y0091975D02*
X0140025Y0091975D01*
X0136525Y0095476D01*
X0132670Y0091399D02*
X0091632Y0091399D01*
X0090700Y0089000D02*
X0138322Y0089000D01*
X0139349Y0088575D02*
X0139349Y0088575D01*
X0137143Y0090049D02*
X0137143Y0090049D01*
X0130257Y0093797D02*
X0094031Y0093797D01*
X0096429Y0096196D02*
X0129925Y0096196D01*
X0131221Y0098594D02*
X0098828Y0098594D01*
X0101226Y0100993D02*
X0159085Y0100993D01*
X0161483Y0103391D02*
X0103625Y0103391D01*
X0106023Y0105790D02*
X0163882Y0105790D01*
X0167025Y0104125D02*
X0184450Y0104125D01*
X0193900Y0113575D01*
X0203350Y0113575D01*
X0206551Y0108188D02*
X0214125Y0108188D01*
X0215102Y0105790D02*
X0205865Y0105790D01*
X0205872Y0100993D02*
X0220252Y0100993D01*
X0221751Y0098594D02*
X0206551Y0098594D01*
X0206033Y0096196D02*
X0222269Y0096196D01*
X0225122Y0093797D02*
X0203179Y0093797D01*
X0205541Y0091399D02*
X0222760Y0091399D01*
X0221751Y0089000D02*
X0206551Y0089000D01*
X0206201Y0086602D02*
X0222100Y0086602D01*
X0224142Y0084203D02*
X0208157Y0084203D01*
X0210555Y0081805D02*
X0230325Y0081805D01*
X0230325Y0079406D02*
X0212954Y0079406D01*
X0215150Y0077008D02*
X0230325Y0077008D01*
X0230325Y0074609D02*
X0215525Y0074609D01*
X0215525Y0072211D02*
X0230325Y0072211D01*
X0230325Y0069812D02*
X0215525Y0069812D01*
X0215525Y0067414D02*
X0230325Y0067414D01*
X0230325Y0065015D02*
X0227589Y0065015D01*
X0229399Y0062617D02*
X0230325Y0062617D01*
X0230325Y0060218D02*
X0229775Y0060218D01*
X0229861Y0057820D02*
X0229021Y0057820D01*
X0227463Y0055421D02*
X0226705Y0055421D01*
X0227525Y0050675D02*
X0221575Y0050675D01*
X0227525Y0050675D02*
X0233725Y0056875D01*
X0233725Y0083827D01*
X0229151Y0088401D01*
X0238144Y0088050D02*
X0245019Y0081175D01*
X0299200Y0081175D01*
X0306499Y0088474D01*
X0307037Y0084203D02*
X0315645Y0084203D01*
X0313246Y0081805D02*
X0304638Y0081805D01*
X0315668Y0074609D02*
X0345624Y0074609D01*
X0345076Y0072211D02*
X0252519Y0072211D01*
X0250121Y0069812D02*
X0345076Y0069812D01*
X0346737Y0077008D02*
X0318066Y0077008D01*
X0292396Y0089000D02*
X0290603Y0089000D01*
X0252403Y0067414D02*
X0247722Y0067414D01*
X0245324Y0065015D02*
X0250686Y0065015D01*
X0250300Y0062617D02*
X0243875Y0062617D01*
X0243875Y0060218D02*
X0250300Y0060218D01*
X0250300Y0057820D02*
X0243875Y0057820D01*
X0243875Y0055421D02*
X0250300Y0055421D01*
X0250300Y0053023D02*
X0243875Y0053023D01*
X0243875Y0050624D02*
X0250300Y0050624D01*
X0250300Y0048226D02*
X0243875Y0048226D01*
X0243875Y0045827D02*
X0250300Y0045827D01*
X0250300Y0043429D02*
X0243875Y0043429D01*
X0243875Y0041030D02*
X0250300Y0041030D01*
X0250300Y0038632D02*
X0243764Y0038632D01*
X0241941Y0036233D02*
X0250300Y0036233D01*
X0250300Y0033835D02*
X0239543Y0033835D01*
X0237144Y0031436D02*
X0250300Y0031436D01*
X0250300Y0029038D02*
X0234746Y0029038D01*
X0232347Y0026639D02*
X0250300Y0026639D01*
X0250300Y0024241D02*
X0229949Y0024241D01*
X0229720Y0021842D02*
X0250300Y0021842D01*
X0240781Y0019443D02*
X0229693Y0019443D01*
X0228299Y0017045D02*
X0238516Y0017045D01*
X0237160Y0014646D02*
X0103571Y0014646D01*
X0104149Y0012248D02*
X0236517Y0012248D01*
X0236401Y0009849D02*
X0104149Y0009849D01*
X0087472Y0067414D02*
X0208725Y0067414D01*
X0208725Y0069812D02*
X0021799Y0069812D01*
X0021799Y0072211D02*
X0208725Y0072211D01*
X0208134Y0074609D02*
X0021251Y0074609D01*
X0020138Y0077008D02*
X0205735Y0077008D01*
X0203337Y0079406D02*
X0182765Y0079406D01*
X0185163Y0081805D02*
X0200938Y0081805D01*
X0199151Y0088401D02*
X0212125Y0075427D01*
X0212125Y0050125D01*
X0221575Y0040675D01*
X0215561Y0065015D02*
X0215525Y0065015D01*
X0194142Y0084203D02*
X0187562Y0084203D01*
X0189960Y0086602D02*
X0192100Y0086602D01*
X0188500Y0089950D02*
X0188500Y0097750D01*
X0199151Y0108401D01*
X0198949Y0103391D02*
X0217500Y0103391D01*
X0229151Y0098401D02*
X0238144Y0089407D01*
X0238144Y0088050D01*
X0195122Y0093797D02*
X0191900Y0093797D01*
X0191900Y0091399D02*
X0192760Y0091399D01*
X0188500Y0089950D02*
X0180400Y0081850D01*
X0031225Y0081850D01*
X0023800Y0089275D01*
X0023800Y0231700D01*
X0027175Y0235075D01*
X0028525Y0236425D01*
X0032575Y0240475D01*
X0143550Y0167175D02*
X0145975Y0169600D01*
X0143998Y0158557D02*
X0149594Y0158557D01*
X0148450Y0156159D02*
X0144149Y0156159D01*
X0149875Y0152050D02*
X0153250Y0155425D01*
X0191924Y0129775D02*
X0114333Y0129775D01*
X0111935Y0127376D02*
X0191779Y0127376D01*
X0193100Y0122350D02*
X0165675Y0122350D01*
X0158249Y0114925D01*
X0154200Y0110875D01*
X0141125Y0110875D01*
X0136525Y0115476D01*
X0142532Y0117782D02*
X0153541Y0117782D01*
X0152899Y0115384D02*
X0143125Y0115384D01*
X0136605Y0110587D02*
X0108875Y0110587D01*
X0108875Y0112985D02*
X0130594Y0112985D01*
X0129925Y0115384D02*
X0108875Y0115384D01*
X0108875Y0117782D02*
X0130518Y0117782D01*
X0138243Y0108949D02*
X0138243Y0108949D01*
X0139003Y0108188D02*
X0108384Y0108188D01*
X0108875Y0120181D02*
X0155939Y0120181D01*
X0161096Y0122579D02*
X0108875Y0122579D01*
X0109536Y0124978D02*
X0163495Y0124978D01*
X0163749Y0125232D02*
X0163749Y0125232D01*
X0163749Y0125232D01*
X0165916Y0117782D02*
X0173541Y0117782D01*
X0172899Y0115384D02*
X0163599Y0115384D01*
X0163599Y0112985D02*
X0172899Y0112985D01*
X0172899Y0112709D02*
X0176033Y0109575D01*
X0178249Y0109575D01*
X0180465Y0109575D01*
X0183599Y0112709D01*
X0183599Y0114925D01*
X0178249Y0114925D01*
X0178249Y0114925D01*
X0172899Y0114925D01*
X0172899Y0112709D01*
X0175021Y0110587D02*
X0161477Y0110587D01*
X0156322Y0108188D02*
X0183705Y0108188D01*
X0181477Y0110587D02*
X0186104Y0110587D01*
X0188502Y0112985D02*
X0183599Y0112985D01*
X0183599Y0115384D02*
X0190901Y0115384D01*
X0191751Y0117782D02*
X0182957Y0117782D01*
X0178249Y0114924D02*
X0178249Y0109575D01*
X0178249Y0114924D01*
X0178249Y0114924D01*
X0178249Y0112985D02*
X0178249Y0112985D01*
X0178249Y0110587D02*
X0178249Y0110587D01*
X0188525Y0103391D02*
X0189333Y0103391D01*
X0190923Y0105790D02*
X0191731Y0105790D01*
X0186934Y0100993D02*
X0185773Y0100993D01*
X0185169Y0098594D02*
X0182570Y0098594D01*
X0183599Y0097566D02*
X0180465Y0100700D01*
X0178249Y0100700D01*
X0176033Y0100700D01*
X0172899Y0097566D01*
X0172899Y0095350D01*
X0178249Y0095350D01*
X0178249Y0100700D01*
X0178249Y0095350D01*
X0178249Y0095350D01*
X0178249Y0095350D01*
X0183599Y0095350D01*
X0183599Y0097566D01*
X0183599Y0096196D02*
X0185100Y0096196D01*
X0183599Y0095350D02*
X0183599Y0093134D01*
X0180465Y0090000D01*
X0178249Y0090000D01*
X0178249Y0095350D01*
X0178249Y0095350D01*
X0183599Y0095350D01*
X0183599Y0093797D02*
X0185100Y0093797D01*
X0185100Y0091399D02*
X0181864Y0091399D01*
X0178249Y0091399D02*
X0178249Y0091399D01*
X0178249Y0090000D02*
X0176033Y0090000D01*
X0172899Y0093134D01*
X0172899Y0095350D01*
X0178249Y0095350D01*
X0178249Y0095350D01*
X0178249Y0090000D01*
X0178249Y0093797D02*
X0178249Y0093797D01*
X0178249Y0096196D02*
X0178249Y0096196D01*
X0178249Y0098594D02*
X0178249Y0098594D01*
X0173928Y0098594D02*
X0166303Y0098594D01*
X0163904Y0096196D02*
X0172899Y0096196D01*
X0172899Y0093797D02*
X0163599Y0093797D01*
X0161864Y0091399D02*
X0174634Y0091399D01*
X0167025Y0104125D02*
X0159200Y0096300D01*
X0158249Y0095350D01*
X0154875Y0091975D01*
X0152899Y0096196D02*
X0143125Y0096196D01*
X0141829Y0098594D02*
X0153928Y0098594D01*
X0153524Y0107475D02*
X0153524Y0107475D01*
X0156126Y0107993D02*
X0156126Y0107993D01*
X0156126Y0107993D01*
X0140449Y0107475D02*
X0140449Y0107475D01*
X0140449Y0107475D01*
X0089211Y0098594D02*
X0048799Y0098594D01*
X0044049Y0103451D02*
X0068876Y0103451D01*
X0085900Y0120475D01*
X0083615Y0124978D02*
X0074793Y0124978D01*
X0075176Y0122579D02*
X0081216Y0122579D01*
X0080798Y0120181D02*
X0075176Y0120181D01*
X0075176Y0120475D02*
X0070376Y0120475D01*
X0070376Y0120475D01*
X0070376Y0120475D01*
X0065576Y0120475D01*
X0065576Y0117497D01*
X0065694Y0116751D01*
X0065928Y0116032D01*
X0066271Y0115359D01*
X0066715Y0114748D01*
X0067249Y0114213D01*
X0067860Y0113769D01*
X0068533Y0113426D01*
X0069252Y0113193D01*
X0069998Y0113075D01*
X0070376Y0113075D01*
X0070754Y0113075D01*
X0071500Y0113193D01*
X0072219Y0113426D01*
X0072892Y0113769D01*
X0073503Y0114213D01*
X0074037Y0114748D01*
X0074481Y0115359D01*
X0074824Y0116032D01*
X0075058Y0116751D01*
X0075176Y0117497D01*
X0075176Y0120475D01*
X0075176Y0117782D02*
X0078399Y0117782D01*
X0076001Y0115384D02*
X0074494Y0115384D01*
X0073602Y0112985D02*
X0052186Y0112985D01*
X0051811Y0115384D02*
X0066258Y0115384D01*
X0065576Y0117782D02*
X0049996Y0117782D01*
X0042128Y0120181D02*
X0065576Y0120181D01*
X0065576Y0122579D02*
X0039729Y0122579D01*
X0038000Y0124978D02*
X0065959Y0124978D01*
X0067712Y0127376D02*
X0038000Y0127376D01*
X0038000Y0129775D02*
X0065321Y0129775D01*
X0064899Y0132174D02*
X0038000Y0132174D01*
X0042699Y0134572D02*
X0042699Y0134572D01*
X0042699Y0136971D02*
X0042699Y0136971D01*
X0049551Y0134572D02*
X0064899Y0134572D01*
X0064899Y0136971D02*
X0050738Y0136971D01*
X0050657Y0139369D02*
X0065506Y0139369D01*
X0069699Y0134349D02*
X0085227Y0134349D01*
X0070376Y0120474D02*
X0070376Y0113075D01*
X0070376Y0120474D01*
X0070376Y0120474D01*
X0070376Y0120181D02*
X0070376Y0120181D01*
X0070376Y0117782D02*
X0070376Y0117782D01*
X0070376Y0115384D02*
X0070376Y0115384D01*
X0071204Y0110587D02*
X0051426Y0110587D01*
X0049087Y0108188D02*
X0068805Y0108188D01*
X0074043Y0096196D02*
X0086813Y0096196D01*
X0044049Y0091399D02*
X0044049Y0091399D01*
X0044049Y0089000D02*
X0044049Y0089000D01*
X0028860Y0079406D02*
X0018206Y0079406D01*
X0014592Y0081805D02*
X0026462Y0081805D01*
X0024063Y0084203D02*
X0007900Y0084203D01*
X0007900Y0086602D02*
X0021665Y0086602D01*
X0020400Y0089000D02*
X0007900Y0089000D01*
X0007900Y0091399D02*
X0020400Y0091399D01*
X0020400Y0093797D02*
X0007900Y0093797D01*
X0007900Y0096196D02*
X0020400Y0096196D01*
X0020400Y0098594D02*
X0007900Y0098594D01*
X0007900Y0100993D02*
X0020400Y0100993D01*
X0020400Y0103391D02*
X0007900Y0103391D01*
X0007900Y0105790D02*
X0020400Y0105790D01*
X0020400Y0108188D02*
X0007900Y0108188D01*
X0191900Y0096196D02*
X0192269Y0096196D01*
X0193100Y0122350D02*
X0199151Y0128401D01*
X0229151Y0153760D02*
X0229151Y0153760D01*
X0229151Y0156159D02*
X0229151Y0156159D01*
X0229151Y0158557D02*
X0229151Y0158557D01*
X0229151Y0160956D02*
X0229151Y0160956D01*
X0235849Y0165753D02*
X0249639Y0165753D01*
X0248790Y0165753D02*
X0241825Y0165753D01*
X0241825Y0168151D02*
X0246392Y0168151D01*
X0247240Y0168151D02*
X0236551Y0168151D01*
D18*
X0112900Y0089275D03*
X0112900Y0073750D03*
D19*
X0108175Y0067000D02*
X0209525Y0067000D01*
X0209525Y0049608D01*
X0209921Y0048652D01*
X0210652Y0047921D01*
X0215125Y0043448D01*
X0214845Y0043167D01*
X0214175Y0041550D01*
X0214175Y0039800D01*
X0214845Y0038183D01*
X0216083Y0036945D01*
X0217700Y0036275D01*
X0225450Y0036275D01*
X0227067Y0036945D01*
X0228305Y0038183D01*
X0228975Y0039800D01*
X0228975Y0041550D01*
X0228305Y0043167D01*
X0227067Y0044405D01*
X0225450Y0045075D01*
X0220852Y0045075D01*
X0219652Y0046275D01*
X0225450Y0046275D01*
X0227067Y0046945D01*
X0228305Y0048183D01*
X0228306Y0048184D01*
X0228998Y0048471D01*
X0229675Y0049148D01*
X0229675Y0032452D01*
X0228916Y0031693D01*
X0228305Y0033167D01*
X0227067Y0034405D01*
X0225450Y0035075D01*
X0217700Y0035075D01*
X0216083Y0034405D01*
X0214845Y0033167D01*
X0214175Y0031550D01*
X0214175Y0029800D01*
X0214845Y0028183D01*
X0216083Y0026945D01*
X0217700Y0026275D01*
X0223498Y0026275D01*
X0222298Y0025075D01*
X0217700Y0025075D01*
X0216083Y0024405D01*
X0214845Y0023167D01*
X0214175Y0021550D01*
X0214175Y0019800D01*
X0214845Y0018183D01*
X0216083Y0016945D01*
X0217700Y0016275D01*
X0225450Y0016275D01*
X0227067Y0016945D01*
X0228305Y0018183D01*
X0228975Y0019800D01*
X0228975Y0021550D01*
X0228305Y0023167D01*
X0228025Y0023448D01*
X0229675Y0025098D01*
X0229675Y0013000D01*
X0108175Y0013000D01*
X0108175Y0067000D01*
X0108175Y0065835D02*
X0209525Y0065835D01*
X0209525Y0064236D02*
X0108175Y0064236D01*
X0108175Y0062638D02*
X0209525Y0062638D01*
X0209525Y0061039D02*
X0108175Y0061039D01*
X0108175Y0059441D02*
X0209525Y0059441D01*
X0209525Y0057842D02*
X0108175Y0057842D01*
X0108175Y0056243D02*
X0209525Y0056243D01*
X0209525Y0054645D02*
X0108175Y0054645D01*
X0108175Y0053046D02*
X0209525Y0053046D01*
X0209525Y0051448D02*
X0108175Y0051448D01*
X0108175Y0049849D02*
X0209525Y0049849D01*
X0210322Y0048251D02*
X0108175Y0048251D01*
X0108175Y0046652D02*
X0211921Y0046652D01*
X0213519Y0045054D02*
X0108175Y0045054D01*
X0108175Y0043455D02*
X0215118Y0043455D01*
X0214302Y0041857D02*
X0108175Y0041857D01*
X0108175Y0040258D02*
X0214175Y0040258D01*
X0214647Y0038660D02*
X0108175Y0038660D01*
X0108175Y0037061D02*
X0215966Y0037061D01*
X0215542Y0033864D02*
X0108175Y0033864D01*
X0108175Y0032266D02*
X0214471Y0032266D01*
X0214175Y0030667D02*
X0108175Y0030667D01*
X0108175Y0029069D02*
X0214478Y0029069D01*
X0215557Y0027470D02*
X0108175Y0027470D01*
X0108175Y0025872D02*
X0223095Y0025872D01*
X0228850Y0024273D02*
X0229675Y0024273D01*
X0229675Y0022675D02*
X0228509Y0022675D01*
X0228975Y0021076D02*
X0229675Y0021076D01*
X0229675Y0019478D02*
X0228842Y0019478D01*
X0229675Y0017879D02*
X0228002Y0017879D01*
X0229675Y0016281D02*
X0225464Y0016281D01*
X0229675Y0014682D02*
X0108175Y0014682D01*
X0108175Y0013084D02*
X0229675Y0013084D01*
X0217686Y0016281D02*
X0108175Y0016281D01*
X0108175Y0017879D02*
X0215148Y0017879D01*
X0214308Y0019478D02*
X0108175Y0019478D01*
X0108175Y0021076D02*
X0214175Y0021076D01*
X0214641Y0022675D02*
X0108175Y0022675D01*
X0108175Y0024273D02*
X0215951Y0024273D01*
X0227608Y0033864D02*
X0229675Y0033864D01*
X0229675Y0035463D02*
X0108175Y0035463D01*
X0214725Y0052878D02*
X0214725Y0058472D01*
X0214845Y0058183D01*
X0216083Y0056945D01*
X0217700Y0056275D01*
X0225450Y0056275D01*
X0227067Y0056945D01*
X0228305Y0058183D01*
X0228975Y0059800D01*
X0228975Y0061550D01*
X0228305Y0063167D01*
X0227067Y0064405D01*
X0225450Y0065075D01*
X0217700Y0065075D01*
X0216083Y0064405D01*
X0214845Y0063167D01*
X0214725Y0062878D01*
X0214725Y0067000D01*
X0229675Y0067000D01*
X0229675Y0056502D01*
X0227323Y0054150D01*
X0227067Y0054405D01*
X0225450Y0055075D01*
X0217700Y0055075D01*
X0216083Y0054405D01*
X0214845Y0053167D01*
X0214725Y0052878D01*
X0214725Y0053046D02*
X0214795Y0053046D01*
X0214725Y0054645D02*
X0216662Y0054645D01*
X0214725Y0056243D02*
X0229417Y0056243D01*
X0229675Y0057842D02*
X0227965Y0057842D01*
X0228826Y0059441D02*
X0229675Y0059441D01*
X0229675Y0061039D02*
X0228975Y0061039D01*
X0228525Y0062638D02*
X0229675Y0062638D01*
X0229675Y0064236D02*
X0227236Y0064236D01*
X0229675Y0065835D02*
X0214725Y0065835D01*
X0214725Y0064236D02*
X0215913Y0064236D01*
X0215185Y0057842D02*
X0214725Y0057842D01*
X0226488Y0054645D02*
X0227818Y0054645D01*
X0228467Y0048251D02*
X0229675Y0048251D01*
X0229675Y0046652D02*
X0226361Y0046652D01*
X0225501Y0045054D02*
X0229675Y0045054D01*
X0229675Y0043455D02*
X0228017Y0043455D01*
X0228848Y0041857D02*
X0229675Y0041857D01*
X0229675Y0040258D02*
X0228975Y0040258D01*
X0228503Y0038660D02*
X0229675Y0038660D01*
X0229675Y0037061D02*
X0227184Y0037061D01*
X0228679Y0032266D02*
X0229489Y0032266D01*
M02*
