%
M48
M72
T01C0.02400
T02C0.03150
T03C0.03200
T04C0.03937
T05C0.04000
T06C0.11811
T07C0.12598
%
T01
X136525Y95476
X136525Y115476
T02
X112900Y89275
X112900Y73750
T03
X85900Y90475
X70376Y90475
X70376Y120475
X85900Y120475
X85227Y134349
X69699Y134349
X69699Y164349
X85227Y164349
X109375Y167175
X109375Y177175
X96851Y183099
X66851Y183099
X109375Y157175
X109375Y147175
X139375Y147175
X139375Y157175
X139375Y167175
X139375Y177175
X153251Y190525
X158926Y177699
X178926Y177699
X183251Y190525
X199151Y188401
X199151Y198401
X199151Y208401
X199151Y218401
X229151Y218401
X229151Y208401
X229151Y198401
X229151Y188401
X229151Y178401
X229151Y168401
X229151Y158401
X229151Y148401
X229151Y138401
X229151Y128401
X229151Y118401
X229151Y108401
X229151Y98401
X229151Y88401
X199151Y88401
X199151Y98401
X199151Y108401
X199151Y118401
X199151Y128401
X199151Y138401
X199151Y148401
X199151Y158401
X199151Y168401
X199151Y178401
X183250Y155425
X178249Y139224
X158249Y139224
X153250Y155425
X158249Y114925
X178249Y114925
X178249Y95350
X158249Y95350
X91851Y227650
X71851Y227650
X54726Y228326
X34726Y228326
T04
X43375Y208623
X43375Y198623
X43375Y188623
X42699Y157998
X42699Y147998
X42699Y137998
X44049Y113451
X44049Y103451
X44049Y93451
X112350Y224275
X122350Y224275
X132350Y224275
X150550Y224275
X160550Y224275
X170550Y224275
X180550Y224275
X266499Y96023
X276499Y96023
X286499Y96023
X296499Y96023
X306499Y96023
X316499Y96023
X326499Y96023
T05
X221575Y60675
X221575Y50675
X221575Y40675
X221575Y30675
X221575Y20675
X93976Y195799
X93976Y213599
X68376Y213599
X68376Y195799
T06
X249250Y238450
X343750Y238450
X343750Y92650
X249250Y92650
T07
X92650Y10975
X10300Y71050
X247900Y10300
X356575Y71050
X356575Y250600
X10300Y250600
M30
